%TF.GenerationSoftware,KiCad,Pcbnew,7.0.2-6a45011f42~172~ubuntu20.04.1*%
%TF.CreationDate,2023-05-20T00:08:38+02:00*%
%TF.ProjectId,pongCard,706f6e67-4361-4726-942e-6b696361645f,rev?*%
%TF.SameCoordinates,Original*%
%TF.FileFunction,Soldermask,Bot*%
%TF.FilePolarity,Negative*%
%FSLAX46Y46*%
G04 Gerber Fmt 4.6, Leading zero omitted, Abs format (unit mm)*
G04 Created by KiCad (PCBNEW 7.0.2-6a45011f42~172~ubuntu20.04.1) date 2023-05-20 00:08:38*
%MOMM*%
%LPD*%
G01*
G04 APERTURE LIST*
%ADD10C,0.100000*%
%ADD11O,1.200000X1.900000*%
%ADD12C,1.450000*%
%ADD13R,2.500000X1.100000*%
%ADD14O,2.500000X1.100000*%
%ADD15O,1.100000X2.500000*%
%ADD16C,2.000000*%
%ADD17C,1.600000*%
%ADD18C,1.700000*%
%ADD19O,1.700000X1.700000*%
%ADD20R,1.727200X1.727200*%
%ADD21O,1.727200X1.727200*%
G04 APERTURE END LIST*
D10*
X124841000Y-61262000D02*
X121793000Y-61262000D01*
X121793000Y-60500000D01*
X124841000Y-60500000D01*
X124841000Y-61262000D01*
G36*
X124841000Y-61262000D02*
G01*
X121793000Y-61262000D01*
X121793000Y-60500000D01*
X124841000Y-60500000D01*
X124841000Y-61262000D01*
G37*
D11*
X84145000Y-62897500D03*
D12*
X83145000Y-65597500D03*
X78145000Y-65597500D03*
D11*
X77145000Y-62897500D03*
D13*
X95185000Y-69390000D03*
D14*
X95185000Y-71390000D03*
X95185000Y-73390000D03*
X95185000Y-75390000D03*
X95185000Y-77390000D03*
X95185000Y-79390000D03*
X95185000Y-81390000D03*
X95185000Y-83390000D03*
X110585000Y-83390000D03*
X110485000Y-81390000D03*
X110585000Y-79390000D03*
X110585000Y-77390000D03*
X110585000Y-75390000D03*
X110585000Y-73390000D03*
X110585000Y-71390000D03*
X110585000Y-69390000D03*
D15*
X97875000Y-85090000D03*
X99875000Y-85090000D03*
X101875000Y-85090000D03*
X103875000Y-85090000D03*
X105875000Y-85090000D03*
X107875000Y-85090000D03*
D16*
X141037000Y-109608000D03*
D17*
X138537000Y-107358000D03*
X138537000Y-67358000D03*
X136037000Y-67358000D03*
D16*
X141037000Y-64858000D03*
X133537000Y-65108000D03*
D17*
X136037000Y-107358000D03*
D16*
X133537000Y-109608000D03*
X62905000Y-65174000D03*
D17*
X65405000Y-67424000D03*
X65405000Y-107424000D03*
X67905000Y-107424000D03*
D16*
X62905000Y-109924000D03*
X70405000Y-109674000D03*
D17*
X67905000Y-67424000D03*
D16*
X70405000Y-65174000D03*
D18*
X129413000Y-83614000D03*
D19*
X129413000Y-86154000D03*
X126873000Y-83614000D03*
X126873000Y-86154000D03*
X124333000Y-83614000D03*
X124333000Y-86154000D03*
X121793000Y-83614000D03*
X121793000Y-86154000D03*
D20*
X85725000Y-88440000D03*
D21*
X85725000Y-90980000D03*
X83185000Y-88440000D03*
X83185000Y-90980000D03*
X80645000Y-88440000D03*
X80645000Y-90980000D03*
X78105000Y-88440000D03*
X78105000Y-90980000D03*
D18*
X121793000Y-81074000D03*
D19*
X121793000Y-78534000D03*
X124333000Y-81074000D03*
X124333000Y-78534000D03*
X126873000Y-81074000D03*
X126873000Y-78534000D03*
X129413000Y-81074000D03*
X129413000Y-78534000D03*
M02*
