M48
; DRILL file {KiCad 7.0.2-6a45011f42~172~ubuntu20.04.1} date Sa 20 Mai 2023 00:09:10 CEST
; FORMAT={-:-/ absolute / metric / decimal}
; #@! TF.CreationDate,2023-05-20T00:09:10+02:00
; #@! TF.GenerationSoftware,Kicad,Pcbnew,7.0.2-6a45011f42~172~ubuntu20.04.1
; #@! TF.FileFunction,Plated,1,2,PTH
FMAT,2
METRIC
; #@! TA.AperFunction,Plated,PTH,ViaDrill
T1C0.400
; #@! TA.AperFunction,Plated,PTH,ComponentDrill
T2C0.600
; #@! TA.AperFunction,Plated,PTH,ComponentDrill
T3C0.650
; #@! TA.AperFunction,Plated,PTH,ComponentDrill
T4C0.800
; #@! TA.AperFunction,Plated,PTH,ComponentDrill
T5C0.850
; #@! TA.AperFunction,Plated,PTH,ComponentDrill
T6C1.000
; #@! TA.AperFunction,Plated,PTH,ComponentDrill
T7C1.016
; #@! TA.AperFunction,Plated,PTH,ComponentDrill
T8C1.600
%
G90
G05
T1
X61.087Y-87.424
X62.103Y-62.024
X62.103Y-112.824
X73.279Y-110.03
X73.279Y-112.57
X75.057Y-65.58
X75.057Y-68.374
X75.565Y-61.008
X81.915Y-84.376
X84.455Y-84.376
X88.011Y-87.424
X88.011Y-90.98
X88.011Y-94.536
X91.567Y-87.424
X91.567Y-90.98
X91.567Y-94.536
X105.791Y-87.678
X105.791Y-90.472
X105.791Y-94.536
X111.633Y-85.392
X115.438Y-72.454
X115.443Y-69.39
X115.443Y-85.392
X118.745Y-69.39
X118.745Y-72.438
X118.745Y-74.216
X118.745Y-76.756
X120.777Y-61.262
X124.841Y-66.088
X124.841Y-68.374
X124.841Y-71.676
X124.841Y-74.216
X127.635Y-110.03
X127.635Y-112.57
X137.287Y-72.184
X137.287Y-74.216
X137.287Y-76.756
X137.287Y-103.934
X137.541Y-110.03
X137.541Y-112.57
X140.335Y-72.184
X140.335Y-76.756
X140.335Y-103.934
X141.859Y-62.024
X141.859Y-112.824
X142.621Y-87.424
T3
X95.885Y-69.39
X95.885Y-71.39
X95.885Y-73.39
X95.885Y-75.39
X95.885Y-77.39
X95.885Y-79.39
X95.885Y-81.39
X95.885Y-83.39
X97.875Y-84.39
X99.875Y-84.39
X101.875Y-84.39
X103.875Y-84.39
X105.875Y-84.39
X107.875Y-84.39
X109.885Y-69.39
X109.885Y-71.39
X109.885Y-73.39
X109.885Y-75.39
X109.885Y-77.39
X109.885Y-79.39
X109.885Y-81.39
X109.885Y-83.39
T4
X65.405Y-67.424
X65.405Y-107.424
X67.905Y-67.424
X67.905Y-107.424
X136.037Y-67.358
X136.037Y-107.358
X138.537Y-67.358
X138.537Y-107.358
T5
X78.145Y-65.597
X83.145Y-65.597
T6
X121.793Y-78.534
X121.793Y-81.074
X121.793Y-83.614
X121.793Y-86.154
X124.333Y-78.534
X124.333Y-81.074
X124.333Y-83.614
X124.333Y-86.154
X126.873Y-78.534
X126.873Y-81.074
X126.873Y-83.614
X126.873Y-86.154
X129.413Y-78.534
X129.413Y-81.074
X129.413Y-83.614
X129.413Y-86.154
T7
X78.105Y-88.44
X78.105Y-90.98
X80.645Y-88.44
X80.645Y-90.98
X83.185Y-88.44
X83.185Y-90.98
X85.725Y-88.44
X85.725Y-90.98
T8
X62.905Y-65.174
X62.905Y-109.924
X70.405Y-65.174
X70.405Y-109.674
X133.537Y-65.108
X133.537Y-109.608
X141.037Y-64.858
X141.037Y-109.608
T2
X77.145Y-63.247G85X77.145Y-62.547
G05
X84.145Y-62.547G85X84.145Y-63.247
G05
T0
M30
