%TF.GenerationSoftware,KiCad,Pcbnew,7.0.2-6a45011f42~172~ubuntu20.04.1*%
%TF.CreationDate,2023-05-20T00:08:37+02:00*%
%TF.ProjectId,pongCard,706f6e67-4361-4726-942e-6b696361645f,rev?*%
%TF.SameCoordinates,Original*%
%TF.FileFunction,Copper,L1,Top*%
%TF.FilePolarity,Positive*%
%FSLAX46Y46*%
G04 Gerber Fmt 4.6, Leading zero omitted, Abs format (unit mm)*
G04 Created by KiCad (PCBNEW 7.0.2-6a45011f42~172~ubuntu20.04.1) date 2023-05-20 00:08:37*
%MOMM*%
%LPD*%
G01*
G04 APERTURE LIST*
G04 Aperture macros list*
%AMRoundRect*
0 Rectangle with rounded corners*
0 $1 Rounding radius*
0 $2 $3 $4 $5 $6 $7 $8 $9 X,Y pos of 4 corners*
0 Add a 4 corners polygon primitive as box body*
4,1,4,$2,$3,$4,$5,$6,$7,$8,$9,$2,$3,0*
0 Add four circle primitives for the rounded corners*
1,1,$1+$1,$2,$3*
1,1,$1+$1,$4,$5*
1,1,$1+$1,$6,$7*
1,1,$1+$1,$8,$9*
0 Add four rect primitives between the rounded corners*
20,1,$1+$1,$2,$3,$4,$5,0*
20,1,$1+$1,$4,$5,$6,$7,0*
20,1,$1+$1,$6,$7,$8,$9,0*
20,1,$1+$1,$8,$9,$2,$3,0*%
%AMFreePoly0*
4,1,9,3.862500,-0.866500,0.737500,-0.866500,0.737500,-0.450000,-0.737500,-0.450000,-0.737500,0.450000,0.737500,0.450000,0.737500,0.866500,3.862500,0.866500,3.862500,-0.866500,3.862500,-0.866500,$1*%
G04 Aperture macros list end*
%TA.AperFunction,NonConductor*%
%ADD10C,0.200000*%
%TD*%
%TA.AperFunction,SMDPad,CuDef*%
%ADD11RoundRect,0.249999X-0.412501X-0.650001X0.412501X-0.650001X0.412501X0.650001X-0.412501X0.650001X0*%
%TD*%
%TA.AperFunction,SMDPad,CuDef*%
%ADD12RoundRect,0.237500X-0.300000X-0.237500X0.300000X-0.237500X0.300000X0.237500X-0.300000X0.237500X0*%
%TD*%
%TA.AperFunction,SMDPad,CuDef*%
%ADD13RoundRect,0.249999X0.412501X0.650001X-0.412501X0.650001X-0.412501X-0.650001X0.412501X-0.650001X0*%
%TD*%
%TA.AperFunction,SMDPad,CuDef*%
%ADD14RoundRect,0.237500X0.300000X0.237500X-0.300000X0.237500X-0.300000X-0.237500X0.300000X-0.237500X0*%
%TD*%
%TA.AperFunction,SMDPad,CuDef*%
%ADD15R,0.400000X1.350000*%
%TD*%
%TA.AperFunction,ComponentPad*%
%ADD16O,1.200000X1.900000*%
%TD*%
%TA.AperFunction,SMDPad,CuDef*%
%ADD17R,1.200000X1.900000*%
%TD*%
%TA.AperFunction,ComponentPad*%
%ADD18C,1.450000*%
%TD*%
%TA.AperFunction,SMDPad,CuDef*%
%ADD19R,1.500000X1.900000*%
%TD*%
%TA.AperFunction,SMDPad,CuDef*%
%ADD20RoundRect,0.237500X-0.250000X-0.237500X0.250000X-0.237500X0.250000X0.237500X-0.250000X0.237500X0*%
%TD*%
%TA.AperFunction,SMDPad,CuDef*%
%ADD21R,1.300000X0.900000*%
%TD*%
%TA.AperFunction,SMDPad,CuDef*%
%ADD22FreePoly0,0.000000*%
%TD*%
%TA.AperFunction,ComponentPad*%
%ADD23R,2.500000X1.100000*%
%TD*%
%TA.AperFunction,ComponentPad*%
%ADD24O,2.500000X1.100000*%
%TD*%
%TA.AperFunction,ComponentPad*%
%ADD25O,1.100000X2.500000*%
%TD*%
%TA.AperFunction,ComponentPad*%
%ADD26C,2.000000*%
%TD*%
%TA.AperFunction,ComponentPad*%
%ADD27C,1.600000*%
%TD*%
%TA.AperFunction,SMDPad,CuDef*%
%ADD28RoundRect,0.237500X0.250000X0.237500X-0.250000X0.237500X-0.250000X-0.237500X0.250000X-0.237500X0*%
%TD*%
%TA.AperFunction,ComponentPad*%
%ADD29C,1.700000*%
%TD*%
%TA.AperFunction,ComponentPad*%
%ADD30O,1.700000X1.700000*%
%TD*%
%TA.AperFunction,ComponentPad*%
%ADD31R,1.727200X1.727200*%
%TD*%
%TA.AperFunction,ComponentPad*%
%ADD32O,1.727200X1.727200*%
%TD*%
%TA.AperFunction,SMDPad,CuDef*%
%ADD33RoundRect,0.237500X0.237500X-0.300000X0.237500X0.300000X-0.237500X0.300000X-0.237500X-0.300000X0*%
%TD*%
%TA.AperFunction,ViaPad*%
%ADD34C,0.800000*%
%TD*%
%TA.AperFunction,Conductor*%
%ADD35C,0.250000*%
%TD*%
G04 APERTURE END LIST*
D10*
X121793000Y-65072000D02*
X121793000Y-65580000D01*
X120269000Y-67104000D01*
X118745000Y-65580000D01*
X118745000Y-65072000D01*
X120269000Y-63548000D01*
X121793000Y-65072000D01*
%TA.AperFunction,NonConductor*%
G36*
X121793000Y-65072000D02*
G01*
X121793000Y-65580000D01*
X120269000Y-67104000D01*
X118745000Y-65580000D01*
X118745000Y-65072000D01*
X120269000Y-63548000D01*
X121793000Y-65072000D01*
G37*
%TD.AperFunction*%
D11*
X101307500Y-90345000D03*
X104432500Y-90345000D03*
D12*
X102007500Y-87805000D03*
X103732500Y-87805000D03*
D13*
X82207500Y-74470000D03*
X79082500Y-74470000D03*
D14*
X81507500Y-70660000D03*
X79782500Y-70660000D03*
D15*
X81945000Y-65597500D03*
X81295000Y-65597500D03*
X80645000Y-65597500D03*
X79995000Y-65597500D03*
X79345000Y-65597500D03*
D16*
X84145000Y-62897500D03*
D17*
X83545000Y-62897500D03*
D18*
X83145000Y-65597500D03*
D19*
X81645000Y-62897500D03*
X79645000Y-62897500D03*
D18*
X78145000Y-65597500D03*
D17*
X77745000Y-62897500D03*
D16*
X77145000Y-62897500D03*
D20*
X90527500Y-69390000D03*
X92352500Y-69390000D03*
X90527500Y-71295000D03*
X92352500Y-71295000D03*
D21*
X78995000Y-77415000D03*
D22*
X79082500Y-78915000D03*
D21*
X78995000Y-80415000D03*
D23*
X95185000Y-69390000D03*
D24*
X95185000Y-71390000D03*
X95185000Y-73390000D03*
X95185000Y-75390000D03*
X95185000Y-77390000D03*
X95185000Y-79390000D03*
X95185000Y-81390000D03*
X95185000Y-83390000D03*
X110585000Y-83390000D03*
X110485000Y-81390000D03*
X110585000Y-79390000D03*
X110585000Y-77390000D03*
X110585000Y-75390000D03*
X110585000Y-73390000D03*
X110585000Y-71390000D03*
X110585000Y-69390000D03*
D25*
X97875000Y-85090000D03*
X99875000Y-85090000D03*
X101875000Y-85090000D03*
X103875000Y-85090000D03*
X105875000Y-85090000D03*
X107875000Y-85090000D03*
D26*
X141037000Y-109608000D03*
D27*
X138537000Y-107358000D03*
X138537000Y-67358000D03*
X136037000Y-67358000D03*
D26*
X141037000Y-64858000D03*
X133537000Y-65108000D03*
D27*
X136037000Y-107358000D03*
D26*
X133537000Y-109608000D03*
X62905000Y-65174000D03*
D27*
X65405000Y-67424000D03*
X65405000Y-107424000D03*
X67905000Y-107424000D03*
D26*
X62905000Y-109924000D03*
X70405000Y-109674000D03*
D27*
X67905000Y-67424000D03*
D26*
X70405000Y-65174000D03*
D28*
X115339500Y-77264000D03*
X113514500Y-77264000D03*
D29*
X129413000Y-83614000D03*
D30*
X129413000Y-86154000D03*
X126873000Y-83614000D03*
X126873000Y-86154000D03*
X124333000Y-83614000D03*
X124333000Y-86154000D03*
X121793000Y-83614000D03*
X121793000Y-86154000D03*
D31*
X85725000Y-88440000D03*
D32*
X85725000Y-90980000D03*
X83185000Y-88440000D03*
X83185000Y-90980000D03*
X80645000Y-88440000D03*
X80645000Y-90980000D03*
X78105000Y-88440000D03*
X78105000Y-90980000D03*
D29*
X121793000Y-81074000D03*
D30*
X121793000Y-78534000D03*
X124333000Y-81074000D03*
X124333000Y-78534000D03*
X126873000Y-81074000D03*
X126873000Y-78534000D03*
X129413000Y-81074000D03*
X129413000Y-78534000D03*
D33*
X120269000Y-63902500D03*
X120269000Y-62177500D03*
D28*
X92376000Y-73200000D03*
X90551000Y-73200000D03*
D12*
X121084000Y-65580000D03*
X122809000Y-65580000D03*
D20*
X115951000Y-71422000D03*
X117776000Y-71422000D03*
D28*
X115085500Y-81328000D03*
X113260500Y-81328000D03*
D12*
X117628500Y-65580000D03*
X119353500Y-65580000D03*
D34*
X140335000Y-76756000D03*
X140335000Y-72184000D03*
X75057000Y-65580000D03*
X73279000Y-112570000D03*
X118745000Y-74216000D03*
X140335000Y-103934000D03*
X137541000Y-110030000D03*
X88011000Y-87424000D03*
X91567000Y-90980000D03*
X115437695Y-72454007D03*
X81915000Y-84376000D03*
X124841000Y-71676000D03*
X124841000Y-68374000D03*
X127635000Y-112570000D03*
X88011000Y-90980000D03*
X84455000Y-84376000D03*
X137287000Y-76756000D03*
X127635000Y-110030000D03*
X137541000Y-112570000D03*
X118745000Y-69390000D03*
X115443000Y-85392000D03*
X105791000Y-90472000D03*
X75057000Y-68374000D03*
X118745000Y-76756000D03*
X124841000Y-66088000D03*
X91567000Y-87424000D03*
X91567000Y-94536000D03*
X137287000Y-74216000D03*
X124841000Y-74216000D03*
X73279000Y-110030000D03*
X111633000Y-85392000D03*
X115443000Y-69390000D03*
X137287000Y-72184000D03*
X88011000Y-94536000D03*
X118745000Y-72438000D03*
X137287000Y-103934000D03*
X105791000Y-94536000D03*
X105791000Y-87678000D03*
X141859000Y-62024000D03*
X141859000Y-112824000D03*
X61087000Y-87424000D03*
X62103000Y-62024000D03*
X120777000Y-61262000D03*
X75565000Y-61008000D03*
X62103000Y-112824000D03*
X142621000Y-87424000D03*
D35*
X83545000Y-65197500D02*
X83145000Y-65597500D01*
X83162500Y-65580000D02*
X83145000Y-65597500D01*
X79082500Y-77327500D02*
X78995000Y-77415000D01*
X79082500Y-74470000D02*
X79082500Y-77327500D01*
X79345000Y-70222500D02*
X79782500Y-70660000D01*
X79645000Y-62897500D02*
X81645000Y-62897500D01*
X70155000Y-65174000D02*
X70405000Y-65174000D01*
X78145000Y-65597500D02*
X78122500Y-65597500D01*
X79345000Y-70222500D02*
X79345000Y-74207500D01*
X79082500Y-73851500D02*
X79082500Y-74470000D01*
X77745000Y-62897500D02*
X79645000Y-62897500D01*
X79345000Y-74207500D02*
X79082500Y-74470000D01*
X77745000Y-65220000D02*
X77745000Y-62897500D01*
X83545000Y-62897500D02*
X83545000Y-65197500D01*
X78122500Y-65597500D02*
X77745000Y-65220000D01*
X79345000Y-65597500D02*
X79345000Y-70222500D01*
X81645000Y-62897500D02*
X84145000Y-62897500D01*
X108062000Y-78265000D02*
X108047000Y-78280000D01*
X115339500Y-77264000D02*
X114338500Y-78265000D01*
X108047000Y-78280000D02*
X107061000Y-78280000D01*
X114338500Y-78265000D02*
X108062000Y-78265000D01*
X90527500Y-69390000D02*
X90527500Y-71295000D01*
X107061000Y-78280000D02*
X106807000Y-78026000D01*
X81945000Y-70222500D02*
X81507500Y-70660000D01*
X81945000Y-65597500D02*
X81945000Y-70222500D01*
X81945000Y-70222500D02*
X81945000Y-74207500D01*
X82207500Y-74470000D02*
X82207500Y-77352500D01*
X81945000Y-74207500D02*
X82207500Y-74470000D01*
X82207500Y-77352500D02*
X80645000Y-78915000D01*
X80645000Y-78915000D02*
X79082500Y-78915000D01*
X92566000Y-73390000D02*
X92376000Y-73200000D01*
X95885000Y-73390000D02*
X92566000Y-73390000D01*
X92352500Y-71295000D02*
X95790000Y-71295000D01*
X138557000Y-107338000D02*
X138537000Y-107358000D01*
X65405000Y-67650000D02*
X65425000Y-67630000D01*
X95790000Y-71295000D02*
X95885000Y-71390000D01*
X92352500Y-71295000D02*
X92352500Y-71652500D01*
X113388500Y-77390000D02*
X113514500Y-77264000D01*
X109885000Y-77390000D02*
X113388500Y-77390000D01*
X109885000Y-81390000D02*
X113198500Y-81390000D01*
X113198500Y-81390000D02*
X113260500Y-81328000D01*
X92352500Y-69390000D02*
X95885000Y-69390000D01*
X137605000Y-73390000D02*
X138537000Y-72458000D01*
X109885000Y-73390000D02*
X137605000Y-73390000D01*
X138537000Y-72458000D02*
X138537000Y-67358000D01*
X138461000Y-75390000D02*
X137445000Y-75390000D01*
X65659000Y-111554000D02*
X138811000Y-111554000D01*
X140081000Y-106728000D02*
X140081000Y-108252000D01*
X139065000Y-75994000D02*
X139065000Y-105712000D01*
X65405000Y-107424000D02*
X65405000Y-111300000D01*
X140081000Y-108252000D02*
X139065000Y-109268000D01*
X139065000Y-105712000D02*
X140081000Y-106728000D01*
X139065000Y-111300000D02*
X139065000Y-109268000D01*
X137445000Y-75390000D02*
X138145000Y-75390000D01*
X65405000Y-111300000D02*
X65659000Y-111554000D01*
X109885000Y-75390000D02*
X137445000Y-75390000D01*
X138461000Y-75390000D02*
X139065000Y-75994000D01*
X138811000Y-111554000D02*
X139065000Y-111300000D01*
X119353500Y-65580000D02*
X119353500Y-64818000D01*
X121084000Y-64717500D02*
X120269000Y-63902500D01*
X119353500Y-64818000D02*
X120269000Y-63902500D01*
X121084000Y-65580000D02*
X121084000Y-64717500D01*
X120269000Y-70914000D02*
X120269000Y-66596000D01*
X119761000Y-71422000D02*
X120269000Y-70914000D01*
X119353500Y-65580000D02*
X119353500Y-65680500D01*
X120269000Y-66395000D02*
X121084000Y-65580000D01*
X119353500Y-65680500D02*
X120269000Y-66596000D01*
X120269000Y-66596000D02*
X120269000Y-63902500D01*
X117776000Y-71422000D02*
X119761000Y-71422000D01*
X120269000Y-66596000D02*
X120269000Y-66395000D01*
X109885000Y-71390000D02*
X115919000Y-71390000D01*
X115919000Y-71390000D02*
X115951000Y-71422000D01*
%TA.AperFunction,Conductor*%
G36*
X92743258Y-60545502D02*
G01*
X92769962Y-60568528D01*
X93566707Y-61479094D01*
X93567825Y-61480371D01*
X93597629Y-61544809D01*
X93599000Y-61563343D01*
X93599000Y-65781809D01*
X93578998Y-65849930D01*
X93562096Y-65870904D01*
X93127903Y-66305096D01*
X93065593Y-66339120D01*
X93038810Y-66342000D01*
X90603190Y-66342000D01*
X90535069Y-66321998D01*
X90514099Y-66305099D01*
X90297000Y-66088000D01*
X89043388Y-66088000D01*
X88975267Y-66067998D01*
X88954293Y-66051095D01*
X88920213Y-66017015D01*
X88920213Y-66017014D01*
X88919004Y-66015806D01*
X88896091Y-65995224D01*
X88879366Y-65980199D01*
X88879353Y-65980188D01*
X88878123Y-65979083D01*
X88876822Y-65978034D01*
X88876812Y-65978026D01*
X88858474Y-65963248D01*
X88857149Y-65962180D01*
X88840652Y-65950284D01*
X88812549Y-65930018D01*
X88753388Y-65903000D01*
X88679600Y-65869302D01*
X88613625Y-65849930D01*
X88611483Y-65849301D01*
X88611481Y-65849300D01*
X88611479Y-65849300D01*
X88466810Y-65828500D01*
X84195112Y-65828500D01*
X84192072Y-65828796D01*
X84192058Y-65828797D01*
X84098992Y-65837870D01*
X84098980Y-65837871D01*
X84095931Y-65838169D01*
X84092935Y-65838758D01*
X84092913Y-65838762D01*
X84051182Y-65846978D01*
X84048175Y-65847570D01*
X84045250Y-65848447D01*
X84045241Y-65848450D01*
X83952743Y-65876208D01*
X83826752Y-65950284D01*
X83747066Y-66013975D01*
X83739194Y-66021539D01*
X83709639Y-66051095D01*
X83647327Y-66085121D01*
X83620544Y-66088000D01*
X83237190Y-66088000D01*
X83169069Y-66067998D01*
X83148095Y-66051095D01*
X82713905Y-65616905D01*
X82679879Y-65554593D01*
X82677000Y-65527810D01*
X82677000Y-64310000D01*
X79629000Y-64310000D01*
X79629000Y-64354212D01*
X79608998Y-64422333D01*
X79555342Y-64468826D01*
X79549013Y-64471447D01*
X79431738Y-64559238D01*
X79344111Y-64676294D01*
X79310979Y-64765125D01*
X79293011Y-64813299D01*
X79286500Y-64873862D01*
X79286500Y-66321138D01*
X79293011Y-66381701D01*
X79316101Y-66443608D01*
X79344111Y-66518705D01*
X79431738Y-66635761D01*
X79548794Y-66723388D01*
X79548795Y-66723388D01*
X79548796Y-66723389D01*
X79685799Y-66774489D01*
X79746362Y-66781000D01*
X79749731Y-66781000D01*
X80015810Y-66781000D01*
X80083931Y-66801002D01*
X80104905Y-66817905D01*
X80354095Y-67067095D01*
X80388121Y-67129407D01*
X80391000Y-67156190D01*
X80391000Y-75179809D01*
X80370998Y-75247930D01*
X80354095Y-75268904D01*
X79121000Y-76501998D01*
X79121000Y-77825271D01*
X79100998Y-77893392D01*
X79047342Y-77939885D01*
X78995000Y-77951271D01*
X78345000Y-77951271D01*
X78342750Y-77951431D01*
X78342747Y-77951432D01*
X78271889Y-77956499D01*
X78131589Y-77997696D01*
X78008578Y-78076750D01*
X77912822Y-78187257D01*
X77896278Y-78223485D01*
X77870761Y-78260237D01*
X77597000Y-78533999D01*
X77597000Y-79942365D01*
X77595718Y-79960295D01*
X77591500Y-79989633D01*
X77591500Y-80767809D01*
X77591590Y-80769494D01*
X77591591Y-80769520D01*
X77591782Y-80773080D01*
X77594441Y-80822691D01*
X77594619Y-80824349D01*
X77594621Y-80824371D01*
X77596278Y-80839780D01*
X77597000Y-80853246D01*
X77597000Y-81074000D01*
X78316595Y-81793595D01*
X78350619Y-81855906D01*
X78353499Y-81882689D01*
X78353499Y-82798105D01*
X78353499Y-82798142D01*
X78353500Y-82799810D01*
X78353590Y-82801495D01*
X78353591Y-82801521D01*
X78356350Y-82852999D01*
X78356441Y-82854692D01*
X78356619Y-82856350D01*
X78356621Y-82856372D01*
X78359139Y-82879797D01*
X78359142Y-82879819D01*
X78359320Y-82881475D01*
X78359588Y-82883131D01*
X78359590Y-82883143D01*
X78368115Y-82935750D01*
X78419192Y-83072690D01*
X78453222Y-83135008D01*
X78540804Y-83252002D01*
X78540805Y-83252003D01*
X78540806Y-83252004D01*
X78974996Y-83686194D01*
X79000867Y-83709434D01*
X79014633Y-83721800D01*
X79014642Y-83721808D01*
X79015877Y-83722917D01*
X79036851Y-83739820D01*
X79081451Y-83771982D01*
X79214400Y-83832698D01*
X79282521Y-83852700D01*
X79427190Y-83873500D01*
X91556110Y-83873500D01*
X91624231Y-83893502D01*
X91645205Y-83910404D01*
X92286594Y-84551792D01*
X92320619Y-84614105D01*
X92323499Y-84640888D01*
X92323499Y-90926104D01*
X92323499Y-90926141D01*
X92323500Y-90927809D01*
X92323590Y-90929495D01*
X92323591Y-90929519D01*
X92326349Y-90980988D01*
X92326351Y-90981019D01*
X92326441Y-90982689D01*
X92326619Y-90984351D01*
X92326622Y-90984380D01*
X92329136Y-91007764D01*
X92329320Y-91009473D01*
X92338116Y-91063752D01*
X92338117Y-91063754D01*
X92389192Y-91200690D01*
X92423222Y-91263008D01*
X92510807Y-91380006D01*
X93123747Y-91992945D01*
X93706996Y-92576194D01*
X93732867Y-92599434D01*
X93746633Y-92611800D01*
X93746642Y-92611808D01*
X93747877Y-92612917D01*
X93768851Y-92629820D01*
X93813451Y-92661982D01*
X93946400Y-92722698D01*
X94014521Y-92742700D01*
X94159190Y-92763500D01*
X94159193Y-92763500D01*
X101419105Y-92763500D01*
X101420810Y-92763500D01*
X101475692Y-92760559D01*
X101502475Y-92757680D01*
X101556752Y-92748884D01*
X101693693Y-92697806D01*
X101756005Y-92663780D01*
X101873004Y-92576194D01*
X102162294Y-92286903D01*
X102211931Y-92259800D01*
X102211845Y-92259591D01*
X102213789Y-92258785D01*
X102224605Y-92252880D01*
X102229253Y-92252380D01*
X102234999Y-92250000D01*
X102235000Y-92250000D01*
X103251000Y-91234000D01*
X103251000Y-87740999D01*
X103271002Y-87672878D01*
X103301396Y-87640202D01*
X104233399Y-86941200D01*
X104299898Y-86916329D01*
X104309000Y-86916000D01*
X108331000Y-86916000D01*
X108838999Y-86408001D01*
X108839000Y-86408000D01*
X108839000Y-86263501D01*
X108853878Y-86204104D01*
X108857659Y-86197031D01*
X108870712Y-86154000D01*
X120429844Y-86154000D01*
X120448436Y-86378368D01*
X120448436Y-86378371D01*
X120448437Y-86378372D01*
X120503702Y-86596611D01*
X120594139Y-86802790D01*
X120668103Y-86916000D01*
X120717278Y-86991268D01*
X120818896Y-87101654D01*
X120869762Y-87156908D01*
X121037400Y-87287387D01*
X121047424Y-87295189D01*
X121245426Y-87402342D01*
X121458365Y-87475444D01*
X121680431Y-87512500D01*
X121680434Y-87512500D01*
X121905566Y-87512500D01*
X121905569Y-87512500D01*
X122127635Y-87475444D01*
X122340574Y-87402342D01*
X122538576Y-87295189D01*
X122716240Y-87156906D01*
X122868722Y-86991268D01*
X122957518Y-86855354D01*
X123011521Y-86809268D01*
X123081869Y-86799693D01*
X123146226Y-86829670D01*
X123168480Y-86855353D01*
X123257278Y-86991268D01*
X123358896Y-87101654D01*
X123409762Y-87156908D01*
X123577400Y-87287387D01*
X123587424Y-87295189D01*
X123785426Y-87402342D01*
X123998365Y-87475444D01*
X124220431Y-87512500D01*
X124220434Y-87512500D01*
X124445566Y-87512500D01*
X124445569Y-87512500D01*
X124667635Y-87475444D01*
X124880574Y-87402342D01*
X125078576Y-87295189D01*
X125256240Y-87156906D01*
X125408722Y-86991268D01*
X125497518Y-86855354D01*
X125551521Y-86809268D01*
X125621869Y-86799693D01*
X125686226Y-86829670D01*
X125708480Y-86855353D01*
X125797278Y-86991268D01*
X125898896Y-87101654D01*
X125949762Y-87156908D01*
X126117400Y-87287387D01*
X126127424Y-87295189D01*
X126325426Y-87402342D01*
X126538365Y-87475444D01*
X126760431Y-87512500D01*
X126760434Y-87512500D01*
X126985566Y-87512500D01*
X126985569Y-87512500D01*
X127207635Y-87475444D01*
X127420574Y-87402342D01*
X127618576Y-87295189D01*
X127796240Y-87156906D01*
X127948722Y-86991268D01*
X128037518Y-86855354D01*
X128091521Y-86809268D01*
X128161869Y-86799693D01*
X128226226Y-86829670D01*
X128248480Y-86855353D01*
X128337278Y-86991268D01*
X128438896Y-87101654D01*
X128489762Y-87156908D01*
X128657400Y-87287387D01*
X128667424Y-87295189D01*
X128865426Y-87402342D01*
X129078365Y-87475444D01*
X129300431Y-87512500D01*
X129300434Y-87512500D01*
X129525566Y-87512500D01*
X129525569Y-87512500D01*
X129747635Y-87475444D01*
X129960574Y-87402342D01*
X130158576Y-87295189D01*
X130336240Y-87156906D01*
X130488722Y-86991268D01*
X130611860Y-86802791D01*
X130702296Y-86596616D01*
X130757564Y-86378368D01*
X130776156Y-86154000D01*
X130757564Y-85929632D01*
X130702296Y-85711384D01*
X130611860Y-85505209D01*
X130488722Y-85316732D01*
X130336240Y-85151094D01*
X130336239Y-85151093D01*
X130336237Y-85151091D01*
X130158578Y-85012812D01*
X129960573Y-84905657D01*
X129816427Y-84856172D01*
X129747635Y-84832556D01*
X129525569Y-84795500D01*
X129300431Y-84795500D01*
X129078365Y-84832556D01*
X129078362Y-84832556D01*
X129078362Y-84832557D01*
X128865426Y-84905657D01*
X128667421Y-85012812D01*
X128489762Y-85151091D01*
X128337278Y-85316731D01*
X128248483Y-85452643D01*
X128194479Y-85498731D01*
X128124131Y-85508306D01*
X128059774Y-85478328D01*
X128037517Y-85452643D01*
X127948721Y-85316731D01*
X127796237Y-85151091D01*
X127618578Y-85012812D01*
X127420573Y-84905657D01*
X127276427Y-84856172D01*
X127207635Y-84832556D01*
X126985569Y-84795500D01*
X126760431Y-84795500D01*
X126538365Y-84832556D01*
X126538362Y-84832556D01*
X126538362Y-84832557D01*
X126325426Y-84905657D01*
X126127421Y-85012812D01*
X125949762Y-85151091D01*
X125797278Y-85316731D01*
X125708483Y-85452643D01*
X125654479Y-85498731D01*
X125584131Y-85508306D01*
X125519774Y-85478328D01*
X125497517Y-85452643D01*
X125408721Y-85316731D01*
X125256237Y-85151091D01*
X125078578Y-85012812D01*
X124880573Y-84905657D01*
X124736427Y-84856172D01*
X124667635Y-84832556D01*
X124445569Y-84795500D01*
X124220431Y-84795500D01*
X123998365Y-84832556D01*
X123998362Y-84832556D01*
X123998362Y-84832557D01*
X123785426Y-84905657D01*
X123587421Y-85012812D01*
X123409762Y-85151091D01*
X123257278Y-85316731D01*
X123168483Y-85452643D01*
X123114479Y-85498731D01*
X123044131Y-85508306D01*
X122979774Y-85478328D01*
X122957517Y-85452643D01*
X122868721Y-85316731D01*
X122716237Y-85151091D01*
X122538578Y-85012812D01*
X122340573Y-84905657D01*
X122196427Y-84856172D01*
X122127635Y-84832556D01*
X121905569Y-84795500D01*
X121680431Y-84795500D01*
X121458365Y-84832556D01*
X121458362Y-84832556D01*
X121458362Y-84832557D01*
X121245426Y-84905657D01*
X121047421Y-85012812D01*
X120869762Y-85151091D01*
X120717278Y-85316731D01*
X120594139Y-85505209D01*
X120503702Y-85711388D01*
X120471409Y-85838912D01*
X120448436Y-85929632D01*
X120429844Y-86154000D01*
X108870712Y-86154000D01*
X108918185Y-85997502D01*
X108933500Y-85842005D01*
X108933500Y-84337995D01*
X108918185Y-84182498D01*
X108857659Y-83982969D01*
X108853877Y-83975893D01*
X108839000Y-83916499D01*
X108839000Y-83412190D01*
X108859002Y-83344069D01*
X108875905Y-83323095D01*
X109564095Y-82634905D01*
X109626407Y-82600879D01*
X109653190Y-82598000D01*
X112140999Y-82598000D01*
X112141000Y-82598000D01*
X112498756Y-82240243D01*
X112561064Y-82206221D01*
X112631880Y-82211285D01*
X112653992Y-82222099D01*
X112693080Y-82246209D01*
X112858619Y-82301062D01*
X112918650Y-82307195D01*
X112957585Y-82311173D01*
X112957587Y-82311173D01*
X112960787Y-82311500D01*
X113560212Y-82311499D01*
X113662381Y-82301062D01*
X113827920Y-82246209D01*
X113976346Y-82154658D01*
X114099658Y-82031346D01*
X114191209Y-81882920D01*
X114246062Y-81717381D01*
X114256500Y-81615213D01*
X114256499Y-81074000D01*
X120429844Y-81074000D01*
X120448436Y-81298368D01*
X120448436Y-81298371D01*
X120448437Y-81298372D01*
X120503702Y-81516611D01*
X120594139Y-81722790D01*
X120611701Y-81749670D01*
X120717278Y-81911268D01*
X120827821Y-82031349D01*
X120869762Y-82076908D01*
X121035902Y-82206221D01*
X121047424Y-82215189D01*
X121245426Y-82322342D01*
X121458365Y-82395444D01*
X121680431Y-82432500D01*
X121680434Y-82432500D01*
X121905566Y-82432500D01*
X121905569Y-82432500D01*
X122127635Y-82395444D01*
X122340574Y-82322342D01*
X122538576Y-82215189D01*
X122716240Y-82076906D01*
X122868722Y-81911268D01*
X122957518Y-81775354D01*
X123011521Y-81729268D01*
X123081869Y-81719693D01*
X123146226Y-81749670D01*
X123168480Y-81775353D01*
X123257278Y-81911268D01*
X123367821Y-82031349D01*
X123409762Y-82076908D01*
X123575902Y-82206221D01*
X123587424Y-82215189D01*
X123785426Y-82322342D01*
X123998365Y-82395444D01*
X124220431Y-82432500D01*
X124220434Y-82432500D01*
X124445566Y-82432500D01*
X124445569Y-82432500D01*
X124667635Y-82395444D01*
X124880574Y-82322342D01*
X125078576Y-82215189D01*
X125256240Y-82076906D01*
X125408722Y-81911268D01*
X125497518Y-81775354D01*
X125551521Y-81729268D01*
X125621869Y-81719693D01*
X125686226Y-81749670D01*
X125708480Y-81775353D01*
X125797278Y-81911268D01*
X125907821Y-82031349D01*
X125949762Y-82076908D01*
X126115902Y-82206221D01*
X126127424Y-82215189D01*
X126325426Y-82322342D01*
X126538365Y-82395444D01*
X126760431Y-82432500D01*
X126760434Y-82432500D01*
X126985566Y-82432500D01*
X126985569Y-82432500D01*
X127207635Y-82395444D01*
X127420574Y-82322342D01*
X127618576Y-82215189D01*
X127796240Y-82076906D01*
X127948722Y-81911268D01*
X128037518Y-81775354D01*
X128091521Y-81729268D01*
X128161869Y-81719693D01*
X128226226Y-81749670D01*
X128248480Y-81775353D01*
X128337278Y-81911268D01*
X128447821Y-82031349D01*
X128489762Y-82076908D01*
X128655902Y-82206221D01*
X128667424Y-82215189D01*
X128865426Y-82322342D01*
X129078365Y-82395444D01*
X129300431Y-82432500D01*
X129300434Y-82432500D01*
X129525566Y-82432500D01*
X129525569Y-82432500D01*
X129747635Y-82395444D01*
X129960574Y-82322342D01*
X130158576Y-82215189D01*
X130336240Y-82076906D01*
X130488722Y-81911268D01*
X130611860Y-81722791D01*
X130702296Y-81516616D01*
X130757564Y-81298368D01*
X130776156Y-81074000D01*
X130757564Y-80849632D01*
X130702296Y-80631384D01*
X130611860Y-80425209D01*
X130488722Y-80236732D01*
X130336240Y-80071094D01*
X130336239Y-80071093D01*
X130336237Y-80071091D01*
X130158579Y-79932813D01*
X130158577Y-79932812D01*
X130158576Y-79932811D01*
X130125317Y-79914812D01*
X130074929Y-79864801D01*
X130059576Y-79795484D01*
X130084136Y-79728871D01*
X130125316Y-79693187D01*
X130158576Y-79675189D01*
X130336240Y-79536906D01*
X130488722Y-79371268D01*
X130611860Y-79182791D01*
X130702296Y-78976616D01*
X130757564Y-78758368D01*
X130776156Y-78534000D01*
X130757564Y-78309632D01*
X130702296Y-78091384D01*
X130611860Y-77885209D01*
X130488722Y-77696732D01*
X130336240Y-77531094D01*
X130336239Y-77531093D01*
X130336237Y-77531091D01*
X130158578Y-77392812D01*
X129960573Y-77285657D01*
X129816427Y-77236172D01*
X129747635Y-77212556D01*
X129525569Y-77175500D01*
X129300431Y-77175500D01*
X129078365Y-77212556D01*
X129078362Y-77212556D01*
X129078362Y-77212557D01*
X128865426Y-77285657D01*
X128667421Y-77392812D01*
X128489762Y-77531091D01*
X128337278Y-77696731D01*
X128248483Y-77832643D01*
X128194479Y-77878731D01*
X128124131Y-77888306D01*
X128059774Y-77858328D01*
X128037517Y-77832643D01*
X127948721Y-77696731D01*
X127908811Y-77653378D01*
X127796240Y-77531094D01*
X127796239Y-77531093D01*
X127796237Y-77531091D01*
X127618578Y-77392812D01*
X127420573Y-77285657D01*
X127276427Y-77236172D01*
X127207635Y-77212556D01*
X126985569Y-77175500D01*
X126760431Y-77175500D01*
X126538365Y-77212556D01*
X126538362Y-77212556D01*
X126538362Y-77212557D01*
X126325426Y-77285657D01*
X126127421Y-77392812D01*
X125949762Y-77531091D01*
X125797278Y-77696731D01*
X125708483Y-77832643D01*
X125654479Y-77878731D01*
X125584131Y-77888306D01*
X125519774Y-77858328D01*
X125497517Y-77832643D01*
X125408721Y-77696731D01*
X125368811Y-77653378D01*
X125256240Y-77531094D01*
X125256239Y-77531093D01*
X125256237Y-77531091D01*
X125078578Y-77392812D01*
X124880573Y-77285657D01*
X124736427Y-77236172D01*
X124667635Y-77212556D01*
X124445569Y-77175500D01*
X124220431Y-77175500D01*
X123998365Y-77212556D01*
X123998362Y-77212556D01*
X123998362Y-77212557D01*
X123785426Y-77285657D01*
X123587421Y-77392812D01*
X123409762Y-77531091D01*
X123257278Y-77696731D01*
X123168483Y-77832643D01*
X123114479Y-77878731D01*
X123044131Y-77888306D01*
X122979774Y-77858328D01*
X122957517Y-77832643D01*
X122868721Y-77696731D01*
X122828811Y-77653378D01*
X122716240Y-77531094D01*
X122716239Y-77531093D01*
X122716237Y-77531091D01*
X122538578Y-77392812D01*
X122340573Y-77285657D01*
X122196427Y-77236172D01*
X122127635Y-77212556D01*
X121905569Y-77175500D01*
X121680431Y-77175500D01*
X121458365Y-77212556D01*
X121458362Y-77212556D01*
X121458362Y-77212557D01*
X121245426Y-77285657D01*
X121047421Y-77392812D01*
X120869762Y-77531091D01*
X120717278Y-77696731D01*
X120594139Y-77885209D01*
X120503702Y-78091388D01*
X120454825Y-78284403D01*
X120448436Y-78309632D01*
X120429844Y-78534000D01*
X120448436Y-78758368D01*
X120448436Y-78758371D01*
X120448437Y-78758372D01*
X120503702Y-78976611D01*
X120594139Y-79182790D01*
X120611701Y-79209670D01*
X120717278Y-79371268D01*
X120819557Y-79482372D01*
X120869762Y-79536908D01*
X121047418Y-79675185D01*
X121047420Y-79675186D01*
X121047424Y-79675189D01*
X121080682Y-79693187D01*
X121131071Y-79743200D01*
X121146423Y-79812517D01*
X121121862Y-79879130D01*
X121080683Y-79914812D01*
X121055794Y-79928281D01*
X121047418Y-79932814D01*
X120869762Y-80071091D01*
X120717278Y-80236731D01*
X120594139Y-80425209D01*
X120503702Y-80631388D01*
X120455687Y-80820998D01*
X120448436Y-80849632D01*
X120429844Y-81074000D01*
X114256499Y-81074000D01*
X114256499Y-81040788D01*
X114246062Y-80938619D01*
X114191209Y-80773080D01*
X114099658Y-80624654D01*
X114099656Y-80624652D01*
X114099655Y-80624650D01*
X113976349Y-80501344D01*
X113976346Y-80501342D01*
X113827920Y-80409791D01*
X113662381Y-80354938D01*
X113662378Y-80354937D01*
X113563414Y-80344826D01*
X113563393Y-80344824D01*
X113560213Y-80344500D01*
X113557007Y-80344500D01*
X112963993Y-80344500D01*
X112963973Y-80344500D01*
X112960788Y-80344501D01*
X112957611Y-80344825D01*
X112957602Y-80344826D01*
X112858618Y-80354938D01*
X112840395Y-80360976D01*
X112814630Y-80369514D01*
X112743678Y-80371954D01*
X112682668Y-80335645D01*
X112650972Y-80272116D01*
X112649000Y-80249909D01*
X112649000Y-79024500D01*
X112669002Y-78956379D01*
X112722658Y-78909886D01*
X112775000Y-78898500D01*
X114254647Y-78898500D01*
X114275435Y-78900795D01*
X114278407Y-78900701D01*
X114278409Y-78900702D01*
X114346485Y-78898562D01*
X114350445Y-78898500D01*
X114374394Y-78898500D01*
X114378356Y-78898500D01*
X114382356Y-78897994D01*
X114394199Y-78897061D01*
X114438389Y-78895673D01*
X114457838Y-78890021D01*
X114477198Y-78886012D01*
X114497297Y-78883474D01*
X114538415Y-78867193D01*
X114549617Y-78863357D01*
X114592093Y-78851018D01*
X114609539Y-78840699D01*
X114627280Y-78832009D01*
X114646117Y-78824552D01*
X114681892Y-78798558D01*
X114691803Y-78792048D01*
X114729862Y-78769542D01*
X114744191Y-78755212D01*
X114759219Y-78742377D01*
X114775607Y-78730472D01*
X114803803Y-78696386D01*
X114811762Y-78687640D01*
X115215001Y-78284401D01*
X115277311Y-78250378D01*
X115304094Y-78247499D01*
X115636006Y-78247499D01*
X115639212Y-78247499D01*
X115741381Y-78237062D01*
X115906920Y-78182209D01*
X116055346Y-78090658D01*
X116178658Y-77967346D01*
X116270209Y-77818920D01*
X116325062Y-77653381D01*
X116335500Y-77551213D01*
X116335499Y-76976788D01*
X116325062Y-76874619D01*
X116270209Y-76709080D01*
X116178658Y-76560654D01*
X116178656Y-76560652D01*
X116178655Y-76560650D01*
X116055349Y-76437344D01*
X115950479Y-76372659D01*
X115906920Y-76345791D01*
X115741381Y-76290938D01*
X115741378Y-76290937D01*
X115642414Y-76280826D01*
X115642393Y-76280824D01*
X115639213Y-76280500D01*
X115636007Y-76280500D01*
X115042993Y-76280500D01*
X115042973Y-76280500D01*
X115039788Y-76280501D01*
X115036611Y-76280825D01*
X115036602Y-76280826D01*
X114937618Y-76290938D01*
X114772080Y-76345791D01*
X114623653Y-76437342D01*
X114516094Y-76544901D01*
X114453782Y-76578926D01*
X114382966Y-76573860D01*
X114337905Y-76544901D01*
X114230346Y-76437342D01*
X114081920Y-76345791D01*
X113916381Y-76290938D01*
X113916378Y-76290937D01*
X113817414Y-76280826D01*
X113817393Y-76280824D01*
X113814213Y-76280500D01*
X113811007Y-76280500D01*
X113217993Y-76280500D01*
X113217973Y-76280500D01*
X113214788Y-76280501D01*
X113211619Y-76280824D01*
X113211594Y-76280826D01*
X113183659Y-76283680D01*
X113113859Y-76270703D01*
X113062155Y-76222049D01*
X113044963Y-76153165D01*
X113067742Y-76085922D01*
X113081761Y-76069238D01*
X113090600Y-76060400D01*
X113152914Y-76026378D01*
X113179690Y-76023500D01*
X137364970Y-76023500D01*
X138026309Y-76023500D01*
X138094430Y-76043502D01*
X138115404Y-76060404D01*
X138394596Y-76339596D01*
X138428620Y-76401907D01*
X138431500Y-76428690D01*
X138431500Y-105628147D01*
X138429204Y-105648935D01*
X138431438Y-105719984D01*
X138431500Y-105723943D01*
X138431500Y-105751856D01*
X138431995Y-105755774D01*
X138431997Y-105755806D01*
X138432008Y-105755888D01*
X138432937Y-105767697D01*
X138434326Y-105811892D01*
X138439977Y-105831341D01*
X138443986Y-105850696D01*
X138446525Y-105870796D01*
X138453799Y-105889167D01*
X138460277Y-105959867D01*
X138427503Y-106022846D01*
X138365883Y-106058109D01*
X138347631Y-106061068D01*
X138308917Y-106064455D01*
X138087756Y-106123715D01*
X137880249Y-106220477D01*
X137692696Y-106351804D01*
X137530804Y-106513696D01*
X137399477Y-106701249D01*
X137302715Y-106908756D01*
X137243457Y-107129912D01*
X137223502Y-107358000D01*
X137243457Y-107586087D01*
X137302715Y-107807243D01*
X137399477Y-108014750D01*
X137530804Y-108202303D01*
X137692696Y-108364195D01*
X137880249Y-108495522D01*
X138087756Y-108592284D01*
X138147014Y-108608162D01*
X138308913Y-108651543D01*
X138441984Y-108663185D01*
X138508099Y-108689047D01*
X138549739Y-108746551D01*
X138557000Y-108788705D01*
X138557000Y-108844708D01*
X138541408Y-108905420D01*
X138538647Y-108910441D01*
X138527801Y-108926952D01*
X138515385Y-108942959D01*
X138497824Y-108983539D01*
X138492604Y-108994195D01*
X138471304Y-109032940D01*
X138466267Y-109052559D01*
X138459864Y-109071261D01*
X138451818Y-109089855D01*
X138444901Y-109133524D01*
X138442495Y-109145144D01*
X138431500Y-109187969D01*
X138431500Y-109208223D01*
X138429949Y-109227933D01*
X138426779Y-109247942D01*
X138430941Y-109291961D01*
X138431500Y-109303819D01*
X138431500Y-110794500D01*
X138411498Y-110862621D01*
X138357842Y-110909114D01*
X138305500Y-110920500D01*
X66164500Y-110920500D01*
X66096379Y-110900498D01*
X66049886Y-110846842D01*
X66038500Y-110794500D01*
X66038500Y-108643393D01*
X66058502Y-108575272D01*
X66092227Y-108540181D01*
X66249300Y-108430198D01*
X66411198Y-108268300D01*
X66542523Y-108080749D01*
X66542522Y-108080749D01*
X66548846Y-108071719D01*
X66550797Y-108073085D01*
X66587716Y-108031151D01*
X66655992Y-108011686D01*
X66723953Y-108032224D01*
X66759300Y-108073016D01*
X66761154Y-108071719D01*
X66898804Y-108268303D01*
X67060696Y-108430195D01*
X67248249Y-108561522D01*
X67455756Y-108658284D01*
X67505072Y-108671498D01*
X67676913Y-108717543D01*
X67905000Y-108737498D01*
X68133087Y-108717543D01*
X68354243Y-108658284D01*
X68561749Y-108561523D01*
X68749300Y-108430198D01*
X68911198Y-108268300D01*
X69042523Y-108080749D01*
X69139284Y-107873243D01*
X69198543Y-107652087D01*
X69218498Y-107424000D01*
X69198543Y-107195913D01*
X69139284Y-106974757D01*
X69108507Y-106908756D01*
X69042522Y-106767249D01*
X68911195Y-106579696D01*
X68749303Y-106417804D01*
X68561750Y-106286477D01*
X68354243Y-106189715D01*
X68133087Y-106130457D01*
X67905000Y-106110502D01*
X67676912Y-106130457D01*
X67455756Y-106189715D01*
X67248249Y-106286477D01*
X67060696Y-106417804D01*
X66898804Y-106579696D01*
X66761154Y-106776281D01*
X66759203Y-106774915D01*
X66722278Y-106816852D01*
X66654000Y-106836313D01*
X66586041Y-106815771D01*
X66550698Y-106774984D01*
X66548846Y-106776281D01*
X66489907Y-106692108D01*
X66411198Y-106579700D01*
X66411197Y-106579699D01*
X66411195Y-106579696D01*
X66249303Y-106417804D01*
X66061750Y-106286477D01*
X65854243Y-106189715D01*
X65633087Y-106130457D01*
X65556025Y-106123715D01*
X65405000Y-106110502D01*
X65404999Y-106110502D01*
X65176912Y-106130457D01*
X64955756Y-106189715D01*
X64748249Y-106286477D01*
X64560696Y-106417804D01*
X64398804Y-106579696D01*
X64267477Y-106767250D01*
X64204982Y-106901271D01*
X64179883Y-106937116D01*
X64135000Y-106981999D01*
X64135000Y-107091459D01*
X64130707Y-107124070D01*
X64111457Y-107195912D01*
X64091502Y-107424000D01*
X64111457Y-107652087D01*
X64130707Y-107723928D01*
X64132580Y-107738158D01*
X64134911Y-107743785D01*
X64140208Y-107759390D01*
X64170716Y-107873242D01*
X64267476Y-108080748D01*
X64398804Y-108268303D01*
X64560698Y-108430197D01*
X64717769Y-108540179D01*
X64762098Y-108595636D01*
X64771499Y-108643392D01*
X64771499Y-111216147D01*
X64769204Y-111236933D01*
X64771438Y-111307984D01*
X64771500Y-111311943D01*
X64771500Y-111339856D01*
X64771995Y-111343774D01*
X64771997Y-111343806D01*
X64772008Y-111343888D01*
X64772937Y-111355697D01*
X64774326Y-111399892D01*
X64779977Y-111419341D01*
X64783986Y-111438696D01*
X64786525Y-111458794D01*
X64786525Y-111458796D01*
X64786526Y-111458797D01*
X64801544Y-111496730D01*
X64802801Y-111499903D01*
X64806644Y-111511130D01*
X64818980Y-111553590D01*
X64829294Y-111571030D01*
X64837987Y-111588774D01*
X64840572Y-111595302D01*
X64845449Y-111607619D01*
X64871431Y-111643380D01*
X64877948Y-111653301D01*
X64900458Y-111691363D01*
X64914778Y-111705683D01*
X64927618Y-111720716D01*
X64939526Y-111737105D01*
X64973598Y-111765292D01*
X64982378Y-111773282D01*
X65151751Y-111942655D01*
X65164835Y-111958985D01*
X65216666Y-112007657D01*
X65219509Y-112010413D01*
X65239230Y-112030134D01*
X65242351Y-112032555D01*
X65242359Y-112032562D01*
X65242425Y-112032613D01*
X65251445Y-112040317D01*
X65283679Y-112070586D01*
X65301435Y-112080347D01*
X65317951Y-112091196D01*
X65333959Y-112103613D01*
X65374153Y-112121006D01*
X65374525Y-112121167D01*
X65385188Y-112126391D01*
X65423935Y-112147693D01*
X65423937Y-112147693D01*
X65423940Y-112147695D01*
X65443574Y-112152736D01*
X65462259Y-112159134D01*
X65480855Y-112167181D01*
X65524530Y-112174098D01*
X65536125Y-112176498D01*
X65578970Y-112187500D01*
X65599224Y-112187500D01*
X65618934Y-112189051D01*
X65638942Y-112192220D01*
X65638942Y-112192219D01*
X65638943Y-112192220D01*
X65682961Y-112188058D01*
X65694819Y-112187500D01*
X138727147Y-112187500D01*
X138747935Y-112189795D01*
X138750907Y-112189701D01*
X138750909Y-112189702D01*
X138818985Y-112187562D01*
X138822945Y-112187500D01*
X138846894Y-112187500D01*
X138850856Y-112187500D01*
X138854856Y-112186994D01*
X138866699Y-112186061D01*
X138910889Y-112184673D01*
X138930338Y-112179021D01*
X138949698Y-112175012D01*
X138969797Y-112172474D01*
X139010915Y-112156193D01*
X139022117Y-112152357D01*
X139064593Y-112140018D01*
X139082039Y-112129699D01*
X139099780Y-112121009D01*
X139118617Y-112113552D01*
X139154392Y-112087558D01*
X139164303Y-112081048D01*
X139202362Y-112058542D01*
X139216691Y-112044212D01*
X139231719Y-112031377D01*
X139248107Y-112019472D01*
X139276303Y-111985386D01*
X139284272Y-111976630D01*
X139453658Y-111807244D01*
X139469979Y-111794170D01*
X139472014Y-111792002D01*
X139472018Y-111792000D01*
X139518676Y-111742312D01*
X139521368Y-111739534D01*
X139541134Y-111719770D01*
X139543601Y-111716588D01*
X139551308Y-111707562D01*
X139581586Y-111675321D01*
X139591343Y-111657570D01*
X139602199Y-111641043D01*
X139614613Y-111625041D01*
X139632172Y-111584461D01*
X139637392Y-111573809D01*
X139658694Y-111535061D01*
X139658695Y-111535060D01*
X139663732Y-111515439D01*
X139670138Y-111496730D01*
X139678181Y-111478144D01*
X139681245Y-111458797D01*
X139685096Y-111434477D01*
X139687504Y-111422853D01*
X139698500Y-111380029D01*
X139698500Y-111359775D01*
X139700051Y-111340063D01*
X139700712Y-111335891D01*
X139703220Y-111320057D01*
X139699059Y-111276036D01*
X139698500Y-111264179D01*
X139698500Y-110705097D01*
X139718502Y-110636976D01*
X139772158Y-110590483D01*
X139842432Y-110580379D01*
X139907012Y-110609873D01*
X139920305Y-110623259D01*
X139932020Y-110636976D01*
X139967034Y-110677972D01*
X140147584Y-110832176D01*
X140350033Y-110956238D01*
X140350035Y-110956238D01*
X140350037Y-110956240D01*
X140569406Y-111047105D01*
X140744857Y-111089227D01*
X140800288Y-111102535D01*
X140817558Y-111103894D01*
X141037000Y-111121165D01*
X141273711Y-111102535D01*
X141504594Y-111047105D01*
X141723963Y-110956240D01*
X141915665Y-110838763D01*
X141984198Y-110820225D01*
X142051875Y-110841681D01*
X142097208Y-110896320D01*
X142107500Y-110946196D01*
X142107500Y-111543112D01*
X142087498Y-111611233D01*
X142070599Y-111632202D01*
X141937510Y-111765292D01*
X141820115Y-111882687D01*
X141757803Y-111916712D01*
X141757217Y-111916837D01*
X141576715Y-111955204D01*
X141402246Y-112032883D01*
X141247747Y-112145133D01*
X141119958Y-112287057D01*
X141024472Y-112452443D01*
X140965458Y-112634070D01*
X140957993Y-112705098D01*
X140930979Y-112770754D01*
X140921779Y-112781021D01*
X140667207Y-113035595D01*
X140604895Y-113069620D01*
X140578111Y-113072500D01*
X63383888Y-113072500D01*
X63315767Y-113052498D01*
X63294793Y-113035595D01*
X63040221Y-112781023D01*
X63006195Y-112718711D01*
X63004006Y-112705101D01*
X62996542Y-112634072D01*
X62937527Y-112452444D01*
X62887620Y-112366003D01*
X62842041Y-112287057D01*
X62724214Y-112156197D01*
X62714253Y-112145134D01*
X62707211Y-112140018D01*
X62559753Y-112032883D01*
X62559752Y-112032882D01*
X62385288Y-111955206D01*
X62385284Y-111955204D01*
X62204782Y-111916837D01*
X62142308Y-111883109D01*
X62141884Y-111882686D01*
X61638792Y-111379594D01*
X61604766Y-111317282D01*
X61601889Y-111289839D01*
X61708222Y-90980000D01*
X76728198Y-90980000D01*
X76746976Y-91206614D01*
X76746976Y-91206617D01*
X76746977Y-91206618D01*
X76802796Y-91427045D01*
X76894139Y-91635285D01*
X77018510Y-91825650D01*
X77172515Y-91992945D01*
X77351960Y-92132612D01*
X77551943Y-92240838D01*
X77551945Y-92240839D01*
X77767015Y-92314672D01*
X77856730Y-92329643D01*
X77991302Y-92352100D01*
X77991305Y-92352100D01*
X78218698Y-92352100D01*
X78330840Y-92333385D01*
X78442985Y-92314672D01*
X78658055Y-92240839D01*
X78858039Y-92132612D01*
X79037483Y-91992946D01*
X79191490Y-91825649D01*
X79269516Y-91706220D01*
X79323520Y-91660131D01*
X79393868Y-91650556D01*
X79458225Y-91680533D01*
X79480483Y-91706220D01*
X79558510Y-91825650D01*
X79712515Y-91992945D01*
X79891960Y-92132612D01*
X80091943Y-92240838D01*
X80091945Y-92240839D01*
X80307015Y-92314672D01*
X80396731Y-92329643D01*
X80531302Y-92352100D01*
X80531305Y-92352100D01*
X80758698Y-92352100D01*
X80870839Y-92333385D01*
X80982985Y-92314672D01*
X81198055Y-92240839D01*
X81398039Y-92132612D01*
X81577483Y-91992946D01*
X81731490Y-91825649D01*
X81809516Y-91706220D01*
X81863520Y-91660131D01*
X81933868Y-91650556D01*
X81998225Y-91680533D01*
X82020483Y-91706220D01*
X82098510Y-91825650D01*
X82252515Y-91992945D01*
X82431960Y-92132612D01*
X82631943Y-92240838D01*
X82631945Y-92240839D01*
X82847015Y-92314672D01*
X82936731Y-92329643D01*
X83071302Y-92352100D01*
X83071305Y-92352100D01*
X83298698Y-92352100D01*
X83410839Y-92333385D01*
X83522985Y-92314672D01*
X83738055Y-92240839D01*
X83938039Y-92132612D01*
X84117483Y-91992946D01*
X84271490Y-91825649D01*
X84395861Y-91635285D01*
X84487203Y-91427047D01*
X84543024Y-91206614D01*
X84561802Y-90980000D01*
X84543024Y-90753386D01*
X84487203Y-90532953D01*
X84395861Y-90324715D01*
X84271490Y-90134351D01*
X84271489Y-90134349D01*
X84117484Y-89967054D01*
X83938039Y-89827388D01*
X83925891Y-89820814D01*
X83875500Y-89770802D01*
X83860147Y-89701485D01*
X83884707Y-89634872D01*
X83925891Y-89599186D01*
X83938039Y-89592612D01*
X84117483Y-89452946D01*
X84161287Y-89405361D01*
X84222137Y-89368792D01*
X84293102Y-89370925D01*
X84351648Y-89411086D01*
X84372042Y-89446667D01*
X84374385Y-89452948D01*
X84410511Y-89549805D01*
X84498138Y-89666861D01*
X84615194Y-89754488D01*
X84615195Y-89754488D01*
X84615196Y-89754489D01*
X84752199Y-89805589D01*
X84812762Y-89812100D01*
X84816131Y-89812100D01*
X86633869Y-89812100D01*
X86637238Y-89812100D01*
X86697801Y-89805589D01*
X86834804Y-89754489D01*
X86951861Y-89666861D01*
X87039489Y-89549804D01*
X87090589Y-89412801D01*
X87097100Y-89352238D01*
X87097100Y-87527762D01*
X87090589Y-87467199D01*
X87039489Y-87330196D01*
X87039487Y-87330193D01*
X86951861Y-87213138D01*
X86834805Y-87125511D01*
X86766302Y-87099961D01*
X86697801Y-87074411D01*
X86637238Y-87067900D01*
X84812762Y-87067900D01*
X84809413Y-87068259D01*
X84809413Y-87068260D01*
X84752199Y-87074411D01*
X84615194Y-87125511D01*
X84498138Y-87213138D01*
X84410511Y-87330193D01*
X84376124Y-87422388D01*
X84374385Y-87427054D01*
X84372043Y-87433332D01*
X84329496Y-87490167D01*
X84262975Y-87514978D01*
X84193601Y-87499886D01*
X84161286Y-87474636D01*
X84117484Y-87427054D01*
X83938039Y-87287387D01*
X83738056Y-87179161D01*
X83522982Y-87105327D01*
X83298698Y-87067900D01*
X83298695Y-87067900D01*
X83071305Y-87067900D01*
X83071302Y-87067900D01*
X82847017Y-87105327D01*
X82631943Y-87179161D01*
X82431960Y-87287387D01*
X82252515Y-87427054D01*
X82098510Y-87594349D01*
X82020483Y-87713779D01*
X81966479Y-87759868D01*
X81896131Y-87769443D01*
X81831774Y-87739466D01*
X81809517Y-87713779D01*
X81731489Y-87594349D01*
X81577484Y-87427054D01*
X81398039Y-87287387D01*
X81198056Y-87179161D01*
X80982982Y-87105327D01*
X80758698Y-87067900D01*
X80758695Y-87067900D01*
X80531305Y-87067900D01*
X80531302Y-87067900D01*
X80307017Y-87105327D01*
X80091943Y-87179161D01*
X79891960Y-87287387D01*
X79712515Y-87427054D01*
X79558510Y-87594349D01*
X79480483Y-87713779D01*
X79426479Y-87759868D01*
X79356131Y-87769443D01*
X79291774Y-87739466D01*
X79269517Y-87713779D01*
X79191489Y-87594349D01*
X79037484Y-87427054D01*
X78858039Y-87287387D01*
X78658056Y-87179161D01*
X78442982Y-87105327D01*
X78218698Y-87067900D01*
X78218695Y-87067900D01*
X77991305Y-87067900D01*
X77991302Y-87067900D01*
X77767017Y-87105327D01*
X77551943Y-87179161D01*
X77351960Y-87287387D01*
X77172515Y-87427054D01*
X77018510Y-87594349D01*
X76894139Y-87784714D01*
X76802796Y-87992954D01*
X76746977Y-88213381D01*
X76746976Y-88213386D01*
X76728198Y-88440000D01*
X76746976Y-88666614D01*
X76746976Y-88666617D01*
X76746977Y-88666618D01*
X76802796Y-88887045D01*
X76894139Y-89095285D01*
X77018510Y-89285650D01*
X77172515Y-89452945D01*
X77351960Y-89592612D01*
X77364110Y-89599187D01*
X77414500Y-89649200D01*
X77429852Y-89718517D01*
X77405291Y-89785130D01*
X77364110Y-89820813D01*
X77351960Y-89827387D01*
X77172515Y-89967054D01*
X77018510Y-90134349D01*
X76894139Y-90324714D01*
X76802796Y-90532954D01*
X76746977Y-90753381D01*
X76746976Y-90753386D01*
X76728198Y-90980000D01*
X61708222Y-90980000D01*
X61723181Y-88122885D01*
X61743539Y-88054873D01*
X61755537Y-88039244D01*
X61826040Y-87960944D01*
X61921527Y-87795556D01*
X61980542Y-87613928D01*
X62000504Y-87424000D01*
X61980542Y-87234072D01*
X61938710Y-87105327D01*
X61921527Y-87052443D01*
X61826041Y-86887057D01*
X61762825Y-86816848D01*
X61732108Y-86752841D01*
X61730464Y-86731878D01*
X61730746Y-86678032D01*
X61831552Y-67424000D01*
X64091502Y-67424000D01*
X64111457Y-67652087D01*
X64170715Y-67873243D01*
X64267477Y-68080750D01*
X64398804Y-68268303D01*
X64560696Y-68430195D01*
X64748249Y-68561522D01*
X64955756Y-68658284D01*
X65005068Y-68671497D01*
X65176913Y-68717543D01*
X65405000Y-68737498D01*
X65633087Y-68717543D01*
X65854243Y-68658284D01*
X66061749Y-68561523D01*
X66249300Y-68430198D01*
X66411198Y-68268300D01*
X66542523Y-68080749D01*
X66639284Y-67873243D01*
X66698543Y-67652087D01*
X66718498Y-67424000D01*
X66698543Y-67195913D01*
X66654570Y-67031804D01*
X66639284Y-66974756D01*
X66542522Y-66767249D01*
X66411195Y-66579696D01*
X66249303Y-66417804D01*
X66061750Y-66286477D01*
X65854243Y-66189715D01*
X65633087Y-66130457D01*
X65405000Y-66110502D01*
X65176912Y-66130457D01*
X64955756Y-66189715D01*
X64748249Y-66286477D01*
X64560696Y-66417804D01*
X64398804Y-66579696D01*
X64267477Y-66767249D01*
X64170715Y-66974756D01*
X64111457Y-67195912D01*
X64091502Y-67424000D01*
X61831552Y-67424000D01*
X61836323Y-66512650D01*
X61856681Y-66444637D01*
X61910579Y-66398426D01*
X61980905Y-66388690D01*
X62028155Y-66405879D01*
X62080422Y-66437909D01*
X62218033Y-66522238D01*
X62218035Y-66522238D01*
X62218037Y-66522240D01*
X62437406Y-66613105D01*
X62612858Y-66655227D01*
X62668288Y-66668535D01*
X62686918Y-66670001D01*
X62905000Y-66687165D01*
X63141711Y-66668535D01*
X63372594Y-66613105D01*
X63591963Y-66522240D01*
X63794416Y-66398176D01*
X63974969Y-66243969D01*
X64129176Y-66063416D01*
X64253240Y-65860963D01*
X64344105Y-65641594D01*
X64399535Y-65410711D01*
X64418165Y-65174000D01*
X64399535Y-64937289D01*
X64344105Y-64706406D01*
X64253240Y-64487037D01*
X64243686Y-64471447D01*
X64129176Y-64284584D01*
X63974969Y-64104030D01*
X63794415Y-63949823D01*
X63591966Y-63825761D01*
X63372594Y-63734895D01*
X63141711Y-63679464D01*
X62922269Y-63662194D01*
X62905000Y-63660835D01*
X62904999Y-63660835D01*
X62668288Y-63679464D01*
X62437405Y-63734895D01*
X62218033Y-63825761D01*
X62042226Y-63933497D01*
X61973693Y-63952036D01*
X61906016Y-63930580D01*
X61860683Y-63875941D01*
X61850393Y-63825405D01*
X61850867Y-63734895D01*
X61853114Y-63305610D01*
X61873472Y-63237598D01*
X61890012Y-63217183D01*
X62141884Y-62965311D01*
X62204194Y-62931287D01*
X62204226Y-62931280D01*
X62385288Y-62892794D01*
X62559752Y-62815118D01*
X62714253Y-62702866D01*
X62842040Y-62560944D01*
X62937527Y-62395556D01*
X62996542Y-62213928D01*
X63004007Y-62142899D01*
X63031020Y-62077243D01*
X63040212Y-62066983D01*
X63294792Y-61812404D01*
X63357105Y-61778379D01*
X63383888Y-61775500D01*
X75034801Y-61775500D01*
X75102922Y-61795502D01*
X75108137Y-61799067D01*
X75108242Y-61799113D01*
X75108248Y-61799118D01*
X75282712Y-61876794D01*
X75469513Y-61916500D01*
X75469515Y-61916500D01*
X75660485Y-61916500D01*
X75660487Y-61916500D01*
X75847288Y-61876794D01*
X76021752Y-61799118D01*
X76054237Y-61775515D01*
X76101522Y-61754329D01*
X76109668Y-61752558D01*
X76213827Y-61717890D01*
X76336782Y-61638871D01*
X76389586Y-61593116D01*
X76485297Y-61482661D01*
X76546014Y-61349713D01*
X76565699Y-61282674D01*
X76565700Y-61282670D01*
X76586500Y-61138000D01*
X76586500Y-60651500D01*
X76606502Y-60583379D01*
X76660158Y-60536886D01*
X76712500Y-60525500D01*
X92675137Y-60525500D01*
X92743258Y-60545502D01*
G37*
%TD.AperFunction*%
%TA.AperFunction,Conductor*%
G36*
X119535233Y-60545502D02*
G01*
X119581726Y-60599158D01*
X119591830Y-60669432D01*
X119562336Y-60734012D01*
X119556207Y-60740595D01*
X119181423Y-61115378D01*
X119181404Y-61115397D01*
X119180220Y-61116582D01*
X119179093Y-61117835D01*
X119179086Y-61117844D01*
X119144606Y-61156229D01*
X119144592Y-61156244D01*
X119143483Y-61157480D01*
X119142442Y-61158770D01*
X119142435Y-61158780D01*
X119127902Y-61176814D01*
X119127883Y-61176837D01*
X119126849Y-61178122D01*
X119125874Y-61179473D01*
X119125855Y-61179499D01*
X119094704Y-61222699D01*
X119033985Y-61355649D01*
X119014804Y-61420972D01*
X119014802Y-61420981D01*
X119014301Y-61422688D01*
X119014300Y-61422692D01*
X119013844Y-61425857D01*
X119013843Y-61425867D01*
X119009623Y-61455221D01*
X118993500Y-61567362D01*
X118993500Y-62827344D01*
X118993830Y-62830560D01*
X118993831Y-62830565D01*
X119003915Y-62928635D01*
X119003916Y-62928645D01*
X119004245Y-62931839D01*
X119014515Y-62981251D01*
X119015488Y-62984318D01*
X119015491Y-62984327D01*
X119032866Y-63039057D01*
X119046302Y-63081381D01*
X119123029Y-63205779D01*
X119163114Y-63253810D01*
X119167798Y-63259422D01*
X119255452Y-63338266D01*
X119292722Y-63398694D01*
X119296537Y-63444751D01*
X119287613Y-63532105D01*
X119285500Y-63552787D01*
X119285500Y-63555991D01*
X119285500Y-63555992D01*
X119285500Y-63618759D01*
X119265498Y-63686880D01*
X119248595Y-63707854D01*
X118348767Y-64607682D01*
X118336380Y-64618547D01*
X118311012Y-64638013D01*
X118286525Y-64669925D01*
X118287352Y-64668835D01*
X118213477Y-64765119D01*
X118168436Y-64873862D01*
X118152161Y-64913150D01*
X118136500Y-65032115D01*
X118136500Y-65032121D01*
X118131249Y-65072002D01*
X118135421Y-65103693D01*
X118136499Y-65120136D01*
X118136499Y-65531863D01*
X118135422Y-65548306D01*
X118131250Y-65579999D01*
X118136500Y-65619879D01*
X118136500Y-65619885D01*
X118145171Y-65685750D01*
X118152161Y-65738850D01*
X118213475Y-65886875D01*
X118213476Y-65886876D01*
X118286523Y-65982072D01*
X118286525Y-65982074D01*
X118289266Y-65985646D01*
X118289268Y-65985650D01*
X118321110Y-66027146D01*
X118320341Y-66027735D01*
X118351263Y-66070079D01*
X118352280Y-66073021D01*
X118372791Y-66134920D01*
X118464342Y-66283346D01*
X118464344Y-66283349D01*
X118587650Y-66406655D01*
X118587652Y-66406656D01*
X118587654Y-66406658D01*
X118736080Y-66498209D01*
X118807310Y-66521811D01*
X118856772Y-66552321D01*
X119598595Y-67294144D01*
X119632621Y-67356456D01*
X119635500Y-67383239D01*
X119635500Y-70599405D01*
X119615498Y-70667526D01*
X119598595Y-70688500D01*
X119535500Y-70751595D01*
X119473188Y-70785621D01*
X119446405Y-70788500D01*
X118728562Y-70788500D01*
X118660441Y-70768498D01*
X118621321Y-70728646D01*
X118615158Y-70718654D01*
X118615156Y-70718652D01*
X118615155Y-70718650D01*
X118491849Y-70595344D01*
X118479432Y-70587685D01*
X118343420Y-70503791D01*
X118177881Y-70448938D01*
X118177878Y-70448937D01*
X118078914Y-70438826D01*
X118078893Y-70438824D01*
X118075713Y-70438500D01*
X118072507Y-70438500D01*
X117479493Y-70438500D01*
X117479473Y-70438500D01*
X117476288Y-70438501D01*
X117473111Y-70438825D01*
X117473102Y-70438826D01*
X117374118Y-70448938D01*
X117208580Y-70503791D01*
X117060150Y-70595344D01*
X116952595Y-70702900D01*
X116890283Y-70736926D01*
X116819468Y-70731861D01*
X116774405Y-70702900D01*
X116666849Y-70595344D01*
X116654432Y-70587685D01*
X116518420Y-70503791D01*
X116352881Y-70448938D01*
X116352878Y-70448937D01*
X116253914Y-70438826D01*
X116253893Y-70438824D01*
X116250713Y-70438500D01*
X116247507Y-70438500D01*
X115654493Y-70438500D01*
X115654473Y-70438500D01*
X115651288Y-70438501D01*
X115648111Y-70438825D01*
X115648102Y-70438826D01*
X115549118Y-70448938D01*
X115383580Y-70503791D01*
X115235150Y-70595344D01*
X115110900Y-70719595D01*
X115048588Y-70753621D01*
X115021805Y-70756500D01*
X112267000Y-70756500D01*
X112198879Y-70736498D01*
X112152386Y-70682842D01*
X112141000Y-70630500D01*
X112141000Y-70438500D01*
X112141000Y-70060564D01*
X112161001Y-69992447D01*
X112169296Y-69981050D01*
X112169363Y-69980923D01*
X112169369Y-69980917D01*
X112267659Y-69797031D01*
X112328185Y-69597502D01*
X112348622Y-69390000D01*
X112328185Y-69182498D01*
X112267659Y-68982969D01*
X112169369Y-68799083D01*
X112163519Y-68788138D01*
X112164588Y-68787566D01*
X112141846Y-68734015D01*
X112141000Y-68719447D01*
X112141000Y-61568186D01*
X112161001Y-61500069D01*
X112177895Y-61479104D01*
X113094597Y-60562402D01*
X113156907Y-60528379D01*
X113183690Y-60525500D01*
X119467112Y-60525500D01*
X119535233Y-60545502D01*
G37*
%TD.AperFunction*%
%TA.AperFunction,Conductor*%
G36*
X140392233Y-61795502D02*
G01*
X140413207Y-61812405D01*
X141051147Y-62450345D01*
X141071171Y-62476439D01*
X141119962Y-62560947D01*
X141185737Y-62633997D01*
X141247747Y-62702866D01*
X141402248Y-62815118D01*
X141405559Y-62816592D01*
X141443405Y-62842603D01*
X142070595Y-63469793D01*
X142104621Y-63532105D01*
X142107500Y-63558888D01*
X142107500Y-86609911D01*
X142087498Y-86678032D01*
X142055562Y-86711846D01*
X142009748Y-86745131D01*
X141881958Y-86887057D01*
X141786472Y-87052443D01*
X141727458Y-87234070D01*
X141707496Y-87424000D01*
X141727458Y-87613929D01*
X141786472Y-87795556D01*
X141881958Y-87960942D01*
X141881960Y-87960944D01*
X142009747Y-88102866D01*
X142055561Y-88136151D01*
X142098914Y-88192372D01*
X142107500Y-88238087D01*
X142107500Y-108269803D01*
X142087498Y-108337924D01*
X142033842Y-108384417D01*
X141963568Y-108394521D01*
X141915665Y-108377236D01*
X141894384Y-108364195D01*
X141723963Y-108259760D01*
X141585241Y-108202300D01*
X141504594Y-108168895D01*
X141273711Y-108113464D01*
X141054269Y-108096194D01*
X141037000Y-108094835D01*
X141036999Y-108094835D01*
X140850386Y-108109522D01*
X140780906Y-108094926D01*
X140730346Y-108045083D01*
X140714500Y-107983910D01*
X140714500Y-106811852D01*
X140716795Y-106791061D01*
X140714562Y-106720000D01*
X140714500Y-106716042D01*
X140714500Y-106692108D01*
X140714500Y-106688144D01*
X140713995Y-106684152D01*
X140713062Y-106672306D01*
X140711674Y-106628111D01*
X140706020Y-106608652D01*
X140702013Y-106589306D01*
X140699474Y-106569203D01*
X140683194Y-106528086D01*
X140679353Y-106516866D01*
X140667017Y-106474405D01*
X140656706Y-106456970D01*
X140648008Y-106439215D01*
X140640552Y-106420383D01*
X140614565Y-106384616D01*
X140608047Y-106374693D01*
X140594511Y-106351804D01*
X140585542Y-106336638D01*
X140571212Y-106322308D01*
X140558378Y-106307281D01*
X140546472Y-106290893D01*
X140541134Y-106286477D01*
X140512400Y-106262705D01*
X140503621Y-106254717D01*
X139735404Y-105486499D01*
X139701379Y-105424187D01*
X139698500Y-105397404D01*
X139698500Y-76077852D01*
X139700795Y-76057062D01*
X139698562Y-75986014D01*
X139698500Y-75982055D01*
X139698500Y-75958107D01*
X139698500Y-75954144D01*
X139697994Y-75950147D01*
X139697061Y-75938297D01*
X139695673Y-75894111D01*
X139690021Y-75874659D01*
X139686012Y-75855299D01*
X139683474Y-75835203D01*
X139667196Y-75794090D01*
X139663350Y-75782856D01*
X139651018Y-75740407D01*
X139640706Y-75722970D01*
X139632008Y-75705215D01*
X139624552Y-75686383D01*
X139598565Y-75650616D01*
X139592047Y-75640693D01*
X139569542Y-75602638D01*
X139555212Y-75588308D01*
X139542378Y-75573281D01*
X139530472Y-75556893D01*
X139530471Y-75556892D01*
X139496400Y-75528705D01*
X139487621Y-75520717D01*
X138968242Y-75001337D01*
X138955169Y-74985019D01*
X138903347Y-74936355D01*
X138900505Y-74933600D01*
X138883574Y-74916669D01*
X138880770Y-74913865D01*
X138877575Y-74911386D01*
X138868554Y-74903682D01*
X138836320Y-74873413D01*
X138818567Y-74863653D01*
X138802041Y-74852797D01*
X138786041Y-74840386D01*
X138745466Y-74822828D01*
X138734804Y-74817604D01*
X138696063Y-74796305D01*
X138682313Y-74792775D01*
X138676437Y-74791266D01*
X138657731Y-74784862D01*
X138639145Y-74776819D01*
X138595475Y-74769902D01*
X138583853Y-74767495D01*
X138541030Y-74756500D01*
X138541029Y-74756500D01*
X138520776Y-74756500D01*
X138501066Y-74754949D01*
X138481057Y-74751779D01*
X138437039Y-74755941D01*
X138425181Y-74756500D01*
X112267000Y-74756500D01*
X112198879Y-74736498D01*
X112152386Y-74682842D01*
X112141000Y-74630500D01*
X112141000Y-74630499D01*
X112141000Y-74268186D01*
X112161001Y-74200070D01*
X112177895Y-74179104D01*
X112296597Y-74060402D01*
X112358907Y-74026379D01*
X112385690Y-74023500D01*
X137521147Y-74023500D01*
X137541935Y-74025795D01*
X137544907Y-74025701D01*
X137544909Y-74025702D01*
X137612985Y-74023562D01*
X137616945Y-74023500D01*
X137640894Y-74023500D01*
X137644856Y-74023500D01*
X137648856Y-74022994D01*
X137660699Y-74022061D01*
X137704889Y-74020673D01*
X137724338Y-74015021D01*
X137743698Y-74011012D01*
X137763797Y-74008474D01*
X137804915Y-73992193D01*
X137816117Y-73988357D01*
X137858593Y-73976018D01*
X137876039Y-73965699D01*
X137893780Y-73957009D01*
X137912617Y-73949552D01*
X137948392Y-73923558D01*
X137958303Y-73917048D01*
X137996362Y-73894542D01*
X138010691Y-73880212D01*
X138025719Y-73867377D01*
X138042107Y-73855472D01*
X138070303Y-73821386D01*
X138078272Y-73812630D01*
X138925657Y-72965245D01*
X138941978Y-72952171D01*
X138944014Y-72950002D01*
X138944018Y-72950000D01*
X138990661Y-72900328D01*
X138993353Y-72897550D01*
X139013135Y-72877770D01*
X139015613Y-72874574D01*
X139023308Y-72865563D01*
X139053586Y-72833321D01*
X139063342Y-72815571D01*
X139074195Y-72799050D01*
X139086614Y-72783041D01*
X139104175Y-72742454D01*
X139109388Y-72731813D01*
X139130695Y-72693060D01*
X139135733Y-72673434D01*
X139142137Y-72654732D01*
X139146314Y-72645080D01*
X139150181Y-72636145D01*
X139157096Y-72592481D01*
X139159504Y-72580853D01*
X139168046Y-72547587D01*
X139170500Y-72538030D01*
X139170500Y-72517775D01*
X139172051Y-72498063D01*
X139172488Y-72495306D01*
X139175220Y-72478057D01*
X139171059Y-72434036D01*
X139170500Y-72422179D01*
X139170500Y-68577392D01*
X139190502Y-68509271D01*
X139224227Y-68474181D01*
X139381300Y-68364198D01*
X139543198Y-68202300D01*
X139659504Y-68036197D01*
X139673597Y-68019402D01*
X139827000Y-67866000D01*
X139827000Y-67615898D01*
X139829785Y-67594745D01*
X139830542Y-67586090D01*
X139830543Y-67586087D01*
X139850498Y-67358000D01*
X139830543Y-67129913D01*
X139830542Y-67129911D01*
X139829786Y-67121263D01*
X139827000Y-67100101D01*
X139827000Y-66850000D01*
X139751488Y-66774488D01*
X139673606Y-66696606D01*
X139659494Y-66679788D01*
X139612801Y-66613104D01*
X139543198Y-66513700D01*
X139543197Y-66513699D01*
X139543195Y-66513696D01*
X139381303Y-66351804D01*
X139215210Y-66235504D01*
X139198391Y-66221391D01*
X139065000Y-66088000D01*
X138869539Y-66088000D01*
X138836928Y-66083707D01*
X138765087Y-66064457D01*
X138537000Y-66044502D01*
X138308912Y-66064457D01*
X138237072Y-66083707D01*
X138204461Y-66088000D01*
X138049000Y-66088000D01*
X137963923Y-66173075D01*
X137928080Y-66198173D01*
X137880251Y-66220476D01*
X137692696Y-66351804D01*
X137530804Y-66513696D01*
X137393154Y-66710281D01*
X137391205Y-66708916D01*
X137354256Y-66750864D01*
X137285975Y-66770312D01*
X137218019Y-66749757D01*
X137182698Y-66708983D01*
X137180846Y-66710281D01*
X137048877Y-66521811D01*
X137043198Y-66513700D01*
X137043197Y-66513699D01*
X137043195Y-66513696D01*
X136881303Y-66351804D01*
X136693750Y-66220477D01*
X136486243Y-66123715D01*
X136265087Y-66064457D01*
X136037000Y-66044502D01*
X135808912Y-66064457D01*
X135587756Y-66123715D01*
X135380249Y-66220477D01*
X135192696Y-66351804D01*
X135030804Y-66513696D01*
X134899477Y-66701249D01*
X134802715Y-66908756D01*
X134743457Y-67129912D01*
X134743457Y-67129913D01*
X134723502Y-67358000D01*
X134743456Y-67586086D01*
X134743457Y-67586087D01*
X134802715Y-67807243D01*
X134899477Y-68014750D01*
X135030804Y-68202303D01*
X135192696Y-68364195D01*
X135380249Y-68495522D01*
X135587756Y-68592284D01*
X135647015Y-68608162D01*
X135808913Y-68651543D01*
X136037000Y-68671498D01*
X136265087Y-68651543D01*
X136486243Y-68592284D01*
X136693749Y-68495523D01*
X136881300Y-68364198D01*
X137043198Y-68202300D01*
X137174523Y-68014749D01*
X137174522Y-68014749D01*
X137180846Y-68005719D01*
X137182799Y-68007086D01*
X137219701Y-67965160D01*
X137287974Y-67945686D01*
X137355938Y-67966215D01*
X137391301Y-68007015D01*
X137393154Y-68005719D01*
X137530804Y-68202303D01*
X137692696Y-68364195D01*
X137692699Y-68364197D01*
X137692700Y-68364198D01*
X137849772Y-68474181D01*
X137894099Y-68529637D01*
X137903500Y-68577393D01*
X137903500Y-72143405D01*
X137883498Y-72211526D01*
X137866595Y-72232500D01*
X137379500Y-72719595D01*
X137317188Y-72753621D01*
X137290405Y-72756500D01*
X112267000Y-72756500D01*
X112198879Y-72736498D01*
X112152386Y-72682842D01*
X112141000Y-72630500D01*
X112141000Y-72149500D01*
X112161002Y-72081379D01*
X112214658Y-72034886D01*
X112267000Y-72023500D01*
X114978700Y-72023500D01*
X115046821Y-72043502D01*
X115085938Y-72083350D01*
X115109567Y-72121658D01*
X115111844Y-72125349D01*
X115235150Y-72248655D01*
X115235152Y-72248656D01*
X115235154Y-72248658D01*
X115383580Y-72340209D01*
X115549119Y-72395062D01*
X115609150Y-72401195D01*
X115648085Y-72405173D01*
X115648087Y-72405173D01*
X115651287Y-72405500D01*
X116250712Y-72405499D01*
X116352881Y-72395062D01*
X116518420Y-72340209D01*
X116666846Y-72248658D01*
X116719909Y-72195595D01*
X116774405Y-72141100D01*
X116836717Y-72107074D01*
X116907532Y-72112139D01*
X116952595Y-72141100D01*
X117060150Y-72248655D01*
X117060152Y-72248656D01*
X117060154Y-72248658D01*
X117208580Y-72340209D01*
X117374119Y-72395062D01*
X117434150Y-72401195D01*
X117473085Y-72405173D01*
X117473087Y-72405173D01*
X117476287Y-72405500D01*
X118075712Y-72405499D01*
X118177881Y-72395062D01*
X118343420Y-72340209D01*
X118491846Y-72248658D01*
X118615158Y-72125346D01*
X118621321Y-72115353D01*
X118674105Y-72067876D01*
X118728562Y-72055500D01*
X119677147Y-72055500D01*
X119697935Y-72057795D01*
X119700907Y-72057701D01*
X119700909Y-72057702D01*
X119768985Y-72055562D01*
X119772945Y-72055500D01*
X119796894Y-72055500D01*
X119800856Y-72055500D01*
X119804856Y-72054994D01*
X119816699Y-72054061D01*
X119860889Y-72052673D01*
X119880338Y-72047021D01*
X119899698Y-72043012D01*
X119919797Y-72040474D01*
X119960915Y-72024193D01*
X119972117Y-72020357D01*
X120014593Y-72008018D01*
X120032039Y-71997699D01*
X120049780Y-71989009D01*
X120068617Y-71981552D01*
X120104392Y-71955558D01*
X120114303Y-71949048D01*
X120152362Y-71926542D01*
X120166691Y-71912212D01*
X120181719Y-71899377D01*
X120198107Y-71887472D01*
X120226303Y-71853386D01*
X120234272Y-71844630D01*
X120657658Y-71421244D01*
X120673979Y-71408170D01*
X120676014Y-71406002D01*
X120676018Y-71406000D01*
X120722676Y-71356312D01*
X120725368Y-71353534D01*
X120745134Y-71333770D01*
X120747601Y-71330588D01*
X120755308Y-71321562D01*
X120785586Y-71289321D01*
X120795343Y-71271570D01*
X120806199Y-71255043D01*
X120818613Y-71239041D01*
X120836172Y-71198461D01*
X120841392Y-71187809D01*
X120862694Y-71149061D01*
X120862695Y-71149060D01*
X120867732Y-71129439D01*
X120874138Y-71110730D01*
X120882181Y-71092145D01*
X120889096Y-71048476D01*
X120891496Y-71036881D01*
X120902500Y-70994030D01*
X120902500Y-70973768D01*
X120904051Y-70954058D01*
X120907219Y-70934055D01*
X120903059Y-70890045D01*
X120902500Y-70878188D01*
X120902500Y-69182498D01*
X120902500Y-67383234D01*
X120922501Y-67315117D01*
X120939399Y-67294148D01*
X121779528Y-66454019D01*
X121802468Y-66435880D01*
X121849846Y-66406658D01*
X121973158Y-66283346D01*
X122002380Y-66235968D01*
X122020519Y-66213028D01*
X122189235Y-66044312D01*
X122201619Y-66033452D01*
X122215875Y-66022513D01*
X122226987Y-66013987D01*
X122238772Y-65998627D01*
X122238775Y-65998625D01*
X122253771Y-65979083D01*
X122275869Y-65950284D01*
X122312152Y-65903000D01*
X122324523Y-65886876D01*
X122324522Y-65886876D01*
X122324524Y-65886875D01*
X122385838Y-65738850D01*
X122401500Y-65619885D01*
X122401500Y-65619877D01*
X122406750Y-65580000D01*
X122402577Y-65548306D01*
X122401499Y-65531859D01*
X122401499Y-65410711D01*
X122401499Y-65120120D01*
X122402577Y-65103693D01*
X122406750Y-65072000D01*
X122401500Y-65032122D01*
X122401500Y-65032115D01*
X122385838Y-64913150D01*
X122324524Y-64765125D01*
X122303687Y-64737970D01*
X122251477Y-64669928D01*
X122251474Y-64669925D01*
X122226987Y-64638013D01*
X122226985Y-64638012D01*
X122226985Y-64638011D01*
X122201618Y-64618546D01*
X122189228Y-64607679D01*
X121289404Y-63707855D01*
X121255378Y-63645543D01*
X121252499Y-63618760D01*
X121252499Y-63555993D01*
X121252499Y-63555992D01*
X121252499Y-63552788D01*
X121242062Y-63450619D01*
X121242060Y-63450614D01*
X121241438Y-63444522D01*
X121254413Y-63374721D01*
X121289497Y-63335877D01*
X121287971Y-63334116D01*
X121294778Y-63328217D01*
X121294782Y-63328215D01*
X121347586Y-63282460D01*
X121443297Y-63172005D01*
X121504014Y-63039057D01*
X121523699Y-62972018D01*
X121523700Y-62972014D01*
X121544500Y-62827344D01*
X121544500Y-62288887D01*
X121564502Y-62220766D01*
X121581405Y-62199791D01*
X121968793Y-61812404D01*
X122031105Y-61778379D01*
X122057888Y-61775500D01*
X140324112Y-61775500D01*
X140392233Y-61795502D01*
G37*
%TD.AperFunction*%
%TA.AperFunction,Conductor*%
G36*
X107838931Y-67378002D02*
G01*
X107859905Y-67394905D01*
X108802095Y-68337095D01*
X108836121Y-68399407D01*
X108839000Y-68426190D01*
X108839000Y-69204891D01*
X108838393Y-69217241D01*
X108821377Y-69390000D01*
X108838392Y-69562757D01*
X108838999Y-69575107D01*
X108838999Y-71204891D01*
X108838392Y-71217241D01*
X108821377Y-71389999D01*
X108838392Y-71562757D01*
X108838999Y-71575107D01*
X108838999Y-73204891D01*
X108838392Y-73217241D01*
X108821377Y-73389999D01*
X108838392Y-73562757D01*
X108838999Y-73575107D01*
X108838999Y-75204891D01*
X108838392Y-75217241D01*
X108821377Y-75389999D01*
X108838393Y-75562756D01*
X108839000Y-75575107D01*
X108839000Y-77204891D01*
X108838393Y-77217241D01*
X108821377Y-77390000D01*
X108838392Y-77562757D01*
X108838999Y-77575107D01*
X108838999Y-79204891D01*
X108838392Y-79217241D01*
X108821377Y-79389999D01*
X108838392Y-79562757D01*
X108838999Y-79575107D01*
X108839000Y-80882823D01*
X108824122Y-80942218D01*
X108802341Y-80982969D01*
X108741815Y-81182498D01*
X108741814Y-81182502D01*
X108721377Y-81390000D01*
X108741814Y-81597497D01*
X108741814Y-81597499D01*
X108741815Y-81597502D01*
X108802341Y-81797031D01*
X108824122Y-81837780D01*
X108839000Y-81897176D01*
X108839000Y-82291809D01*
X108818998Y-82359930D01*
X108802095Y-82380905D01*
X107886493Y-83296506D01*
X107824181Y-83330531D01*
X107809749Y-83332803D01*
X107667498Y-83346814D01*
X107641920Y-83354574D01*
X107605343Y-83360000D01*
X106144656Y-83360000D01*
X106108081Y-83354574D01*
X106095839Y-83350860D01*
X106082500Y-83346814D01*
X105875000Y-83326377D01*
X105667499Y-83346814D01*
X105650649Y-83351925D01*
X105641918Y-83354574D01*
X105605344Y-83360000D01*
X104144656Y-83360000D01*
X104108081Y-83354574D01*
X104095839Y-83350860D01*
X104082500Y-83346814D01*
X103874999Y-83326377D01*
X103667499Y-83346814D01*
X103650649Y-83351925D01*
X103641918Y-83354574D01*
X103605344Y-83360000D01*
X102144656Y-83360000D01*
X102108081Y-83354574D01*
X102095839Y-83350860D01*
X102082500Y-83346814D01*
X101875000Y-83326377D01*
X101667502Y-83346814D01*
X101667499Y-83346814D01*
X101667498Y-83346815D01*
X101641920Y-83354574D01*
X101467965Y-83407342D01*
X101284083Y-83505630D01*
X101122905Y-83637905D01*
X100990632Y-83799081D01*
X100986122Y-83807519D01*
X100936369Y-83858167D01*
X100867132Y-83873876D01*
X100800394Y-83849660D01*
X100763878Y-83807519D01*
X100759369Y-83799083D01*
X100719142Y-83750066D01*
X100627094Y-83637905D01*
X100465916Y-83505630D01*
X100282034Y-83407342D01*
X100282031Y-83407341D01*
X100082502Y-83346815D01*
X100082499Y-83346814D01*
X100082497Y-83346814D01*
X99874999Y-83326377D01*
X99667502Y-83346814D01*
X99667499Y-83346814D01*
X99667498Y-83346815D01*
X99641920Y-83354574D01*
X99467965Y-83407342D01*
X99284083Y-83505630D01*
X99122905Y-83637905D01*
X98990632Y-83799081D01*
X98986122Y-83807519D01*
X98936369Y-83858167D01*
X98867132Y-83873876D01*
X98800394Y-83849660D01*
X98763878Y-83807519D01*
X98759369Y-83799083D01*
X98719142Y-83750066D01*
X98627094Y-83637905D01*
X98465916Y-83505630D01*
X98282034Y-83407342D01*
X98282031Y-83407341D01*
X98082502Y-83346815D01*
X98082499Y-83346814D01*
X98082497Y-83346814D01*
X97875000Y-83326377D01*
X97667502Y-83346814D01*
X97667499Y-83346814D01*
X97667498Y-83346815D01*
X97641920Y-83354574D01*
X97467965Y-83407342D01*
X97284083Y-83505630D01*
X97122905Y-83637905D01*
X96990630Y-83799083D01*
X96892342Y-83982965D01*
X96831814Y-84182502D01*
X96816803Y-84334914D01*
X96816500Y-84337995D01*
X96816500Y-85842005D01*
X96816802Y-85845077D01*
X96816803Y-85845085D01*
X96831814Y-85997497D01*
X96831814Y-85997499D01*
X96831815Y-85997502D01*
X96875000Y-86139864D01*
X96892342Y-86197034D01*
X96990630Y-86380916D01*
X97122905Y-86542094D01*
X97233531Y-86632882D01*
X97284083Y-86674369D01*
X97467969Y-86772659D01*
X97667498Y-86833185D01*
X97875000Y-86853622D01*
X98082502Y-86833185D01*
X98282031Y-86772659D01*
X98465917Y-86674369D01*
X98627094Y-86542094D01*
X98759369Y-86380917D01*
X98763877Y-86372482D01*
X98813628Y-86321834D01*
X98882865Y-86306123D01*
X98949604Y-86330338D01*
X98986123Y-86372483D01*
X98990631Y-86380917D01*
X99122905Y-86542094D01*
X99233531Y-86632882D01*
X99284083Y-86674369D01*
X99467969Y-86772659D01*
X99667498Y-86833185D01*
X99833499Y-86849534D01*
X99874999Y-86853622D01*
X99874999Y-86853621D01*
X99875000Y-86853622D01*
X100082502Y-86833185D01*
X100282031Y-86772659D01*
X100465917Y-86674369D01*
X100627094Y-86542094D01*
X100759369Y-86380917D01*
X100763877Y-86372482D01*
X100813628Y-86321834D01*
X100882865Y-86306123D01*
X100949604Y-86330338D01*
X100986123Y-86372483D01*
X100990631Y-86380917D01*
X101122905Y-86542094D01*
X101233531Y-86632882D01*
X101284083Y-86674369D01*
X101467969Y-86772659D01*
X101667498Y-86833185D01*
X101774847Y-86843757D01*
X101883413Y-86854451D01*
X101949245Y-86881033D01*
X101962707Y-86898848D01*
X101963278Y-86898278D01*
X101981000Y-86915999D01*
X101981000Y-86916000D01*
X102452096Y-87387096D01*
X102486120Y-87449407D01*
X102489000Y-87476190D01*
X102489000Y-91181810D01*
X102468998Y-91249931D01*
X102452095Y-91270905D01*
X101509905Y-92213095D01*
X101447593Y-92247121D01*
X101420810Y-92250000D01*
X94159190Y-92250000D01*
X94091069Y-92229998D01*
X94070095Y-92213095D01*
X92873905Y-91016905D01*
X92839879Y-90954593D01*
X92837000Y-90927810D01*
X92837000Y-90927809D01*
X92837000Y-84376000D01*
X92836999Y-84375999D01*
X92836999Y-84375998D01*
X91821001Y-83360000D01*
X91821000Y-83360000D01*
X79427190Y-83360000D01*
X79359069Y-83339998D01*
X79338095Y-83323095D01*
X78903905Y-82888905D01*
X78869879Y-82826593D01*
X78867000Y-82799810D01*
X78867000Y-81582000D01*
X78866999Y-81581998D01*
X78141905Y-80856904D01*
X78107879Y-80794592D01*
X78105000Y-80767809D01*
X78105000Y-79989633D01*
X78125002Y-79921512D01*
X78178658Y-79875019D01*
X78248927Y-79864915D01*
X78304238Y-79872868D01*
X78344998Y-79878729D01*
X78345000Y-79878729D01*
X79224260Y-79878729D01*
X79292381Y-79898731D01*
X79338874Y-79952387D01*
X79345155Y-79969231D01*
X79352696Y-79994911D01*
X79370244Y-80022216D01*
X79431749Y-80117921D01*
X79469328Y-80150483D01*
X79542257Y-80213676D01*
X79553039Y-80218600D01*
X79555341Y-80219651D01*
X79608997Y-80266143D01*
X79629000Y-80334263D01*
X79629000Y-80820001D01*
X80136998Y-81327999D01*
X80160155Y-81337591D01*
X80159409Y-81339391D01*
X80188733Y-81348002D01*
X80209707Y-81364905D01*
X80244996Y-81400194D01*
X80270867Y-81423434D01*
X80284633Y-81435800D01*
X80284642Y-81435808D01*
X80285877Y-81436917D01*
X80306851Y-81453820D01*
X80351451Y-81485982D01*
X80484400Y-81546698D01*
X80552521Y-81566700D01*
X80697190Y-81587500D01*
X80697193Y-81587500D01*
X88719105Y-81587500D01*
X88720810Y-81587500D01*
X88775692Y-81584559D01*
X88802475Y-81581680D01*
X88856752Y-81572884D01*
X88993693Y-81521806D01*
X89056005Y-81487780D01*
X89173004Y-81400194D01*
X90115194Y-80458004D01*
X90151917Y-80417123D01*
X90168820Y-80396149D01*
X90200982Y-80351549D01*
X90261698Y-80218600D01*
X90281700Y-80150479D01*
X90302500Y-80005810D01*
X90302500Y-74032694D01*
X90299557Y-73977795D01*
X90296677Y-73951011D01*
X90292740Y-73926717D01*
X90287886Y-73896761D01*
X90287885Y-73896757D01*
X90236808Y-73759815D01*
X90202784Y-73697505D01*
X90123339Y-73591380D01*
X90116978Y-73582033D01*
X90096581Y-73548964D01*
X90084217Y-73522449D01*
X90074902Y-73494337D01*
X90069151Y-73467429D01*
X90069142Y-73467341D01*
X90068500Y-73454637D01*
X90068500Y-72945361D01*
X90069045Y-72933652D01*
X90069052Y-72933577D01*
X90074900Y-72905662D01*
X90084217Y-72877543D01*
X90096577Y-72851039D01*
X90111932Y-72826145D01*
X90125427Y-72808105D01*
X90151917Y-72778618D01*
X90168820Y-72757644D01*
X90200982Y-72713044D01*
X90261698Y-72580095D01*
X90281700Y-72511974D01*
X90302500Y-72367305D01*
X90302500Y-72151194D01*
X90299557Y-72096295D01*
X90296677Y-72069511D01*
X90287885Y-72015257D01*
X90236808Y-71878315D01*
X90202784Y-71816005D01*
X90115195Y-71699001D01*
X90104296Y-71688102D01*
X90086152Y-71665156D01*
X90083965Y-71661611D01*
X90073080Y-71643964D01*
X90060717Y-71617452D01*
X90051401Y-71589335D01*
X90049198Y-71579025D01*
X91356500Y-71579025D01*
X91356501Y-71582212D01*
X91356825Y-71585389D01*
X91356826Y-71585397D01*
X91362762Y-71643499D01*
X91366938Y-71684381D01*
X91421791Y-71849920D01*
X91513342Y-71998346D01*
X91513344Y-71998349D01*
X91636650Y-72121655D01*
X91636652Y-72121656D01*
X91636654Y-72121658D01*
X91678562Y-72147507D01*
X91726039Y-72200292D01*
X91737442Y-72270367D01*
X91709150Y-72335482D01*
X91678563Y-72361987D01*
X91660150Y-72373344D01*
X91536844Y-72496650D01*
X91445291Y-72645080D01*
X91390437Y-72810621D01*
X91380326Y-72909585D01*
X91380324Y-72909607D01*
X91380000Y-72912787D01*
X91380000Y-72915991D01*
X91380000Y-72915992D01*
X91380000Y-73484006D01*
X91380000Y-73484025D01*
X91380001Y-73487212D01*
X91380325Y-73490389D01*
X91380326Y-73490397D01*
X91385029Y-73536429D01*
X91390438Y-73589381D01*
X91445291Y-73754920D01*
X91532778Y-73896757D01*
X91536844Y-73903349D01*
X91660150Y-74026655D01*
X91660152Y-74026656D01*
X91660154Y-74026658D01*
X91808580Y-74118209D01*
X91974119Y-74173062D01*
X92034150Y-74179195D01*
X92073085Y-74183173D01*
X92073087Y-74183173D01*
X92076287Y-74183500D01*
X92675712Y-74183499D01*
X92777881Y-74173062D01*
X92943420Y-74118209D01*
X93066553Y-74042258D01*
X93132699Y-74023500D01*
X93575984Y-74023500D01*
X93644105Y-74043502D01*
X93673383Y-74069566D01*
X93732905Y-74142094D01*
X93783359Y-74183500D01*
X93894083Y-74274369D01*
X93902517Y-74278877D01*
X93902519Y-74278878D01*
X93953167Y-74328631D01*
X93968876Y-74397868D01*
X93944660Y-74464606D01*
X93902519Y-74501122D01*
X93894081Y-74505632D01*
X93732905Y-74637905D01*
X93600630Y-74799083D01*
X93502342Y-74982965D01*
X93441814Y-75182502D01*
X93421377Y-75390000D01*
X93441814Y-75597497D01*
X93441814Y-75597499D01*
X93441815Y-75597502D01*
X93478680Y-75719030D01*
X93502342Y-75797034D01*
X93600630Y-75980916D01*
X93732905Y-76142094D01*
X93776695Y-76178031D01*
X93894083Y-76274369D01*
X93902517Y-76278877D01*
X93902519Y-76278878D01*
X93953167Y-76328631D01*
X93968876Y-76397868D01*
X93944660Y-76464606D01*
X93902519Y-76501122D01*
X93894081Y-76505632D01*
X93732905Y-76637905D01*
X93600630Y-76799083D01*
X93502342Y-76982965D01*
X93441814Y-77182502D01*
X93421377Y-77389999D01*
X93441814Y-77597497D01*
X93441814Y-77597499D01*
X93441815Y-77597502D01*
X93502341Y-77797031D01*
X93502342Y-77797034D01*
X93600630Y-77980916D01*
X93732905Y-78142094D01*
X93759101Y-78163592D01*
X93894083Y-78274369D01*
X93902517Y-78278877D01*
X93902519Y-78278878D01*
X93953167Y-78328631D01*
X93968876Y-78397868D01*
X93944660Y-78464606D01*
X93902519Y-78501122D01*
X93894081Y-78505632D01*
X93732905Y-78637905D01*
X93600630Y-78799083D01*
X93502342Y-78982965D01*
X93441814Y-79182502D01*
X93421377Y-79390000D01*
X93441814Y-79597497D01*
X93441814Y-79597499D01*
X93441815Y-79597502D01*
X93502341Y-79797031D01*
X93502342Y-79797034D01*
X93600630Y-79980916D01*
X93732905Y-80142094D01*
X93827409Y-80219651D01*
X93894083Y-80274369D01*
X93902517Y-80278877D01*
X93902519Y-80278878D01*
X93953167Y-80328631D01*
X93968876Y-80397868D01*
X93944660Y-80464606D01*
X93902519Y-80501122D01*
X93894081Y-80505632D01*
X93732905Y-80637905D01*
X93600630Y-80799083D01*
X93502342Y-80982965D01*
X93441814Y-81182502D01*
X93421377Y-81389999D01*
X93441814Y-81597497D01*
X93441814Y-81597499D01*
X93441815Y-81597502D01*
X93502341Y-81797031D01*
X93502342Y-81797034D01*
X93600630Y-81980916D01*
X93732905Y-82142094D01*
X93894083Y-82274368D01*
X93894083Y-82274369D01*
X94077969Y-82372659D01*
X94277498Y-82433185D01*
X94432995Y-82448500D01*
X94436087Y-82448500D01*
X95933913Y-82448500D01*
X95937005Y-82448500D01*
X96092502Y-82433185D01*
X96292031Y-82372659D01*
X96475917Y-82274369D01*
X96637094Y-82142094D01*
X96769369Y-81980917D01*
X96867659Y-81797031D01*
X96928185Y-81597502D01*
X96948622Y-81390000D01*
X96928185Y-81182498D01*
X96867659Y-80982969D01*
X96867410Y-80982504D01*
X96769369Y-80799083D01*
X96637094Y-80637905D01*
X96475917Y-80505631D01*
X96467483Y-80501123D01*
X96416834Y-80451372D01*
X96401123Y-80382135D01*
X96425338Y-80315396D01*
X96467483Y-80278877D01*
X96475917Y-80274369D01*
X96637094Y-80142094D01*
X96769369Y-79980917D01*
X96867659Y-79797031D01*
X96928185Y-79597502D01*
X96948622Y-79390000D01*
X96928185Y-79182498D01*
X96867659Y-78982969D01*
X96769369Y-78799083D01*
X96769369Y-78799082D01*
X96637094Y-78637905D01*
X96475917Y-78505631D01*
X96467483Y-78501123D01*
X96416834Y-78451372D01*
X96401123Y-78382135D01*
X96425338Y-78315396D01*
X96467483Y-78278877D01*
X96475917Y-78274369D01*
X96637094Y-78142094D01*
X96769369Y-77980917D01*
X96867659Y-77797031D01*
X96928185Y-77597502D01*
X96948622Y-77390000D01*
X96928185Y-77182498D01*
X96867659Y-76982969D01*
X96832056Y-76916362D01*
X96769369Y-76799083D01*
X96637094Y-76637905D01*
X96475917Y-76505631D01*
X96467483Y-76501123D01*
X96416834Y-76451372D01*
X96401123Y-76382135D01*
X96425338Y-76315396D01*
X96467483Y-76278877D01*
X96475917Y-76274369D01*
X96637094Y-76142094D01*
X96769369Y-75980917D01*
X96867659Y-75797031D01*
X96928185Y-75597502D01*
X96948622Y-75390000D01*
X96928185Y-75182498D01*
X96867659Y-74982969D01*
X96769369Y-74799083D01*
X96769369Y-74799082D01*
X96637094Y-74637905D01*
X96475917Y-74505631D01*
X96467483Y-74501123D01*
X96416834Y-74451372D01*
X96401123Y-74382135D01*
X96425338Y-74315396D01*
X96467483Y-74278877D01*
X96475917Y-74274369D01*
X96637094Y-74142094D01*
X96769369Y-73980917D01*
X96867659Y-73797031D01*
X96928185Y-73597502D01*
X96948622Y-73390000D01*
X96928185Y-73182498D01*
X96867659Y-72982969D01*
X96769369Y-72799083D01*
X96734233Y-72756270D01*
X96637094Y-72637905D01*
X96475917Y-72505631D01*
X96467483Y-72501123D01*
X96416834Y-72451372D01*
X96401123Y-72382135D01*
X96425338Y-72315396D01*
X96467483Y-72278877D01*
X96475917Y-72274369D01*
X96637094Y-72142094D01*
X96769369Y-71980917D01*
X96867659Y-71797031D01*
X96928185Y-71597502D01*
X96948622Y-71390000D01*
X96928185Y-71182498D01*
X96867659Y-70982969D01*
X96824320Y-70901889D01*
X96769369Y-70799083D01*
X96637093Y-70637904D01*
X96613217Y-70618309D01*
X96573249Y-70559632D01*
X96571349Y-70488660D01*
X96608121Y-70427929D01*
X96649117Y-70402856D01*
X96681204Y-70390889D01*
X96705557Y-70372659D01*
X96798261Y-70303261D01*
X96840981Y-70246194D01*
X96885889Y-70186204D01*
X96936989Y-70049201D01*
X96943500Y-69988638D01*
X96943500Y-68791362D01*
X96936989Y-68730799D01*
X96885889Y-68593796D01*
X96863093Y-68563344D01*
X96798261Y-68476738D01*
X96681205Y-68389111D01*
X96567805Y-68346815D01*
X96544201Y-68338011D01*
X96483638Y-68331500D01*
X93886362Y-68331500D01*
X93883013Y-68331859D01*
X93883013Y-68331860D01*
X93825799Y-68338011D01*
X93688794Y-68389111D01*
X93571738Y-68476738D01*
X93484111Y-68593794D01*
X93453998Y-68674532D01*
X93411451Y-68731368D01*
X93344931Y-68756179D01*
X93335942Y-68756500D01*
X93305062Y-68756500D01*
X93236941Y-68736498D01*
X93197821Y-68696646D01*
X93191658Y-68686654D01*
X93191656Y-68686652D01*
X93191655Y-68686650D01*
X93068349Y-68563344D01*
X93020453Y-68533801D01*
X92919920Y-68471791D01*
X92754381Y-68416938D01*
X92754378Y-68416937D01*
X92655414Y-68406826D01*
X92655393Y-68406824D01*
X92652213Y-68406500D01*
X92649007Y-68406500D01*
X92055993Y-68406500D01*
X92055973Y-68406500D01*
X92052788Y-68406501D01*
X92049611Y-68406825D01*
X92049602Y-68406826D01*
X91950618Y-68416938D01*
X91785080Y-68471791D01*
X91636650Y-68563344D01*
X91513344Y-68686650D01*
X91421791Y-68835080D01*
X91366937Y-69000621D01*
X91356826Y-69099585D01*
X91356824Y-69099607D01*
X91356500Y-69102787D01*
X91356500Y-69105991D01*
X91356500Y-69105992D01*
X91356500Y-69674006D01*
X91356500Y-69674025D01*
X91356501Y-69677212D01*
X91356825Y-69680389D01*
X91356826Y-69680397D01*
X91361529Y-69726429D01*
X91366938Y-69779381D01*
X91421791Y-69944920D01*
X91513342Y-70093346D01*
X91513344Y-70093349D01*
X91636653Y-70216658D01*
X91666811Y-70235260D01*
X91714289Y-70288046D01*
X91725692Y-70358120D01*
X91697399Y-70423236D01*
X91666811Y-70449740D01*
X91636653Y-70468341D01*
X91513344Y-70591650D01*
X91421791Y-70740080D01*
X91366937Y-70905621D01*
X91356826Y-71004585D01*
X91356824Y-71004607D01*
X91356500Y-71007787D01*
X91356500Y-71010991D01*
X91356500Y-71010992D01*
X91356500Y-71579006D01*
X91356500Y-71579025D01*
X90049198Y-71579025D01*
X90045651Y-71562429D01*
X90045642Y-71562341D01*
X90045000Y-71549637D01*
X90045000Y-71040361D01*
X90045560Y-71028495D01*
X90045567Y-71028421D01*
X90051402Y-71000656D01*
X90060717Y-70972546D01*
X90073078Y-70946037D01*
X90086152Y-70924840D01*
X90104296Y-70901896D01*
X90115192Y-70891001D01*
X90151928Y-70850105D01*
X90168830Y-70829131D01*
X90200982Y-70784543D01*
X90261698Y-70651594D01*
X90281700Y-70583473D01*
X90302500Y-70438804D01*
X90302500Y-70246194D01*
X90299557Y-70191295D01*
X90296677Y-70164511D01*
X90287885Y-70110257D01*
X90236808Y-69973315D01*
X90202784Y-69911005D01*
X90115195Y-69794001D01*
X90104296Y-69783102D01*
X90086152Y-69760156D01*
X90074824Y-69741791D01*
X90073080Y-69738964D01*
X90060717Y-69712452D01*
X90051401Y-69684335D01*
X90045651Y-69657429D01*
X90045642Y-69657341D01*
X90045000Y-69644637D01*
X90045000Y-69135361D01*
X90045545Y-69123652D01*
X90045552Y-69123577D01*
X90051402Y-69095655D01*
X90060716Y-69067547D01*
X90073075Y-69041042D01*
X90086155Y-69019837D01*
X90104297Y-68996895D01*
X90115191Y-68986002D01*
X90151917Y-68945118D01*
X90168820Y-68924144D01*
X90200982Y-68879544D01*
X90261698Y-68746595D01*
X90281700Y-68678474D01*
X90302500Y-68533805D01*
X90302500Y-68166690D01*
X90322502Y-68098569D01*
X90339400Y-68077599D01*
X91022096Y-67394903D01*
X91084408Y-67360879D01*
X91111191Y-67358000D01*
X107770810Y-67358000D01*
X107838931Y-67378002D01*
G37*
%TD.AperFunction*%
%TA.AperFunction,Conductor*%
G36*
X88534931Y-66362002D02*
G01*
X88555905Y-66378905D01*
X89752095Y-67575095D01*
X89786121Y-67637407D01*
X89789000Y-67664190D01*
X89789000Y-68533805D01*
X89768998Y-68601926D01*
X89752095Y-68622900D01*
X89688344Y-68686650D01*
X89596791Y-68835080D01*
X89541937Y-69000621D01*
X89531826Y-69099585D01*
X89531824Y-69099607D01*
X89531500Y-69102787D01*
X89531500Y-69105991D01*
X89531500Y-69105992D01*
X89531500Y-69674006D01*
X89531500Y-69674025D01*
X89531501Y-69677212D01*
X89531825Y-69680389D01*
X89531826Y-69680397D01*
X89538098Y-69741791D01*
X89541938Y-69779381D01*
X89596791Y-69944920D01*
X89688342Y-70093346D01*
X89752096Y-70157100D01*
X89786120Y-70219410D01*
X89789000Y-70246194D01*
X89789000Y-70438804D01*
X89768998Y-70506925D01*
X89752096Y-70527899D01*
X89688342Y-70591652D01*
X89596791Y-70740080D01*
X89541937Y-70905621D01*
X89531826Y-71004585D01*
X89531824Y-71004607D01*
X89531500Y-71007787D01*
X89531500Y-71010991D01*
X89531500Y-71010992D01*
X89531500Y-71579006D01*
X89531500Y-71579025D01*
X89531501Y-71582212D01*
X89531825Y-71585389D01*
X89531826Y-71585397D01*
X89537762Y-71643499D01*
X89541938Y-71684381D01*
X89596791Y-71849920D01*
X89688342Y-71998346D01*
X89752096Y-72062100D01*
X89786120Y-72124410D01*
X89789000Y-72151194D01*
X89789000Y-72367305D01*
X89768998Y-72435426D01*
X89752095Y-72456400D01*
X89711844Y-72496650D01*
X89620291Y-72645080D01*
X89565437Y-72810621D01*
X89555326Y-72909585D01*
X89555324Y-72909607D01*
X89555000Y-72912787D01*
X89555000Y-72915991D01*
X89555000Y-72915992D01*
X89555000Y-73484006D01*
X89555000Y-73484025D01*
X89555001Y-73487212D01*
X89555325Y-73490389D01*
X89555326Y-73490397D01*
X89565438Y-73589381D01*
X89620291Y-73754920D01*
X89711842Y-73903346D01*
X89752096Y-73943600D01*
X89786120Y-74005910D01*
X89789000Y-74032694D01*
X89789000Y-80005810D01*
X89768998Y-80073931D01*
X89752095Y-80094905D01*
X88809905Y-81037095D01*
X88747593Y-81071121D01*
X88720810Y-81074000D01*
X80697190Y-81074000D01*
X80629069Y-81053998D01*
X80608095Y-81037095D01*
X80190405Y-80619405D01*
X80156379Y-80557093D01*
X80153500Y-80530310D01*
X80153500Y-79919730D01*
X80153500Y-79916362D01*
X80146989Y-79855799D01*
X80144943Y-79850313D01*
X80137000Y-79806284D01*
X80137000Y-79550000D01*
X80136999Y-79549998D01*
X79919905Y-79332904D01*
X79885879Y-79270592D01*
X79883000Y-79243809D01*
X79883000Y-78385101D01*
X79903002Y-78316980D01*
X79933490Y-78284233D01*
X80008261Y-78228261D01*
X80095889Y-78111204D01*
X80146989Y-77974201D01*
X80153500Y-77913638D01*
X80153500Y-76916362D01*
X80146989Y-76855799D01*
X80095889Y-76718796D01*
X80086103Y-76705723D01*
X80061293Y-76639206D01*
X80076384Y-76569832D01*
X80097868Y-76541131D01*
X81153000Y-75486000D01*
X81153000Y-66907000D01*
X81173002Y-66838879D01*
X81226658Y-66792386D01*
X81279000Y-66781000D01*
X81540269Y-66781000D01*
X81543638Y-66781000D01*
X81604201Y-66774489D01*
X81741204Y-66723389D01*
X81858261Y-66635761D01*
X81945889Y-66518704D01*
X81979698Y-66428057D01*
X82022243Y-66371224D01*
X82088763Y-66346413D01*
X82158138Y-66361504D01*
X82186983Y-66387309D01*
X82188680Y-66385613D01*
X82349089Y-66546022D01*
X82349092Y-66546024D01*
X82349093Y-66546025D01*
X82525894Y-66669823D01*
X82721507Y-66761039D01*
X82929987Y-66816901D01*
X83145000Y-66835712D01*
X83360013Y-66816901D01*
X83568493Y-66761039D01*
X83764106Y-66669823D01*
X83940907Y-66546025D01*
X83968228Y-66518704D01*
X84101320Y-66385613D01*
X84102756Y-66387049D01*
X84147356Y-66351401D01*
X84195112Y-66342000D01*
X84201000Y-66342000D01*
X88466810Y-66342000D01*
X88534931Y-66362002D01*
G37*
%TD.AperFunction*%
%TA.AperFunction,Conductor*%
G36*
X76016039Y-60545185D02*
G01*
X76061794Y-60597989D01*
X76073000Y-60649500D01*
X76073000Y-61138000D01*
X76053315Y-61205039D01*
X76000511Y-61250794D01*
X75949000Y-61262000D01*
X63118999Y-61262000D01*
X61341000Y-63039998D01*
X61340999Y-63040000D01*
X61087000Y-111553998D01*
X61087000Y-111554000D01*
X63119000Y-113586000D01*
X140843000Y-113586000D01*
X142621000Y-111808000D01*
X142621000Y-63294000D01*
X140589000Y-61262000D01*
X121792999Y-61262000D01*
X121031000Y-62023999D01*
X121031000Y-62827344D01*
X121011315Y-62894383D01*
X120958511Y-62940138D01*
X120889353Y-62950082D01*
X120841906Y-62932884D01*
X120823921Y-62921791D01*
X120658382Y-62866937D01*
X120559343Y-62856819D01*
X120559327Y-62856818D01*
X120556213Y-62856500D01*
X120553065Y-62856500D01*
X119984936Y-62856500D01*
X119984916Y-62856500D01*
X119981788Y-62856501D01*
X119978657Y-62856820D01*
X119978653Y-62856821D01*
X119879618Y-62866937D01*
X119714078Y-62921791D01*
X119696094Y-62932884D01*
X119628702Y-62951323D01*
X119562039Y-62930399D01*
X119517270Y-62876756D01*
X119507000Y-62827344D01*
X119507000Y-61567362D01*
X119526685Y-61500323D01*
X119543319Y-61479681D01*
X120461181Y-60561819D01*
X120522504Y-60528334D01*
X120548862Y-60525500D01*
X140491715Y-60525500D01*
X140496754Y-60525500D01*
X140503244Y-60525670D01*
X140804433Y-60541455D01*
X140817340Y-60542812D01*
X140876810Y-60552231D01*
X141112022Y-60589484D01*
X141124690Y-60592176D01*
X141412901Y-60669402D01*
X141425228Y-60673407D01*
X141703781Y-60780334D01*
X141715617Y-60785603D01*
X141981477Y-60921065D01*
X141992683Y-60927535D01*
X142242923Y-61090044D01*
X142253414Y-61097666D01*
X142485282Y-61285429D01*
X142494927Y-61294114D01*
X142705885Y-61505072D01*
X142714570Y-61514717D01*
X142902333Y-61746585D01*
X142909958Y-61757079D01*
X143072460Y-62007310D01*
X143078937Y-62018529D01*
X143188613Y-62233779D01*
X143214391Y-62284372D01*
X143219670Y-62296229D01*
X143326589Y-62574762D01*
X143330599Y-62587104D01*
X143378775Y-62766900D01*
X143383000Y-62798991D01*
X143383000Y-112201007D01*
X143378775Y-112233100D01*
X143330600Y-112412892D01*
X143326589Y-112425237D01*
X143219670Y-112703770D01*
X143214391Y-112715627D01*
X143078941Y-112981464D01*
X143072455Y-112992697D01*
X142998263Y-113106944D01*
X142909962Y-113242914D01*
X142902333Y-113253414D01*
X142714570Y-113485282D01*
X142705885Y-113494927D01*
X142494927Y-113705885D01*
X142485282Y-113714570D01*
X142253414Y-113902333D01*
X142242914Y-113909962D01*
X141992697Y-114072455D01*
X141981464Y-114078941D01*
X141715627Y-114214391D01*
X141703770Y-114219670D01*
X141425239Y-114326588D01*
X141412896Y-114330598D01*
X141363725Y-114343774D01*
X141331630Y-114348000D01*
X62668370Y-114348000D01*
X62636276Y-114343775D01*
X62636272Y-114343774D01*
X62624702Y-114340673D01*
X62587104Y-114330599D01*
X62574760Y-114326588D01*
X62296229Y-114219670D01*
X62284372Y-114214391D01*
X62255029Y-114199440D01*
X62018529Y-114078937D01*
X62007310Y-114072460D01*
X61757079Y-113909958D01*
X61746585Y-113902333D01*
X61514717Y-113714570D01*
X61505072Y-113705885D01*
X61294114Y-113494927D01*
X61285429Y-113485282D01*
X61097666Y-113253414D01*
X61090044Y-113242923D01*
X60927535Y-112992683D01*
X60921065Y-112981477D01*
X60785603Y-112715617D01*
X60780334Y-112703781D01*
X60673407Y-112425228D01*
X60669402Y-112412901D01*
X60592176Y-112124690D01*
X60589487Y-112112037D01*
X60580524Y-112055449D01*
X60579000Y-112036073D01*
X60579000Y-62963924D01*
X60580524Y-62944552D01*
X60589487Y-62887958D01*
X60592175Y-62875312D01*
X60669403Y-62587092D01*
X60673404Y-62574777D01*
X60780336Y-62296211D01*
X60785600Y-62284389D01*
X60921069Y-62018514D01*
X60927530Y-62007324D01*
X61090050Y-61757066D01*
X61097659Y-61746594D01*
X61285437Y-61514707D01*
X61294104Y-61505082D01*
X61505082Y-61294104D01*
X61514707Y-61285437D01*
X61746594Y-61097659D01*
X61757066Y-61090050D01*
X62007324Y-60927530D01*
X62018514Y-60921069D01*
X62284389Y-60785600D01*
X62296211Y-60780336D01*
X62574777Y-60673404D01*
X62587092Y-60669403D01*
X62875312Y-60592175D01*
X62887973Y-60589485D01*
X63182658Y-60542812D01*
X63195564Y-60541455D01*
X63496756Y-60525669D01*
X63503246Y-60525500D01*
X63508285Y-60525500D01*
X75949000Y-60525500D01*
X76016039Y-60545185D01*
G37*
%TD.AperFunction*%
M02*
