%TF.GenerationSoftware,KiCad,Pcbnew,7.0.2-6a45011f42~172~ubuntu20.04.1*%
%TF.CreationDate,2023-05-20T00:09:14+02:00*%
%TF.ProjectId,pongCard,706f6e67-4361-4726-942e-6b696361645f,rev?*%
%TF.SameCoordinates,Original*%
%TF.FileFunction,Drillmap*%
%TF.FilePolarity,Positive*%
%FSLAX45Y45*%
G04 Gerber Fmt 4.5, Leading zero omitted, Abs format (unit mm)*
G04 Created by KiCad (PCBNEW 7.0.2-6a45011f42~172~ubuntu20.04.1) date 2023-05-20 00:09:14*
%MOMM*%
%LPD*%
G01*
G04 APERTURE LIST*
%ADD10C,0.050000*%
%ADD11C,0.200000*%
G04 APERTURE END LIST*
D10*
X6350000Y-6050000D02*
G75*
G03*
X6050000Y-6350000I0J-300000D01*
G01*
X6050000Y-11150000D02*
G75*
G03*
X6350000Y-11450000I300000J0D01*
G01*
X6350000Y-11450000D02*
X14050000Y-11450000D01*
X14350000Y-6350000D02*
G75*
G03*
X14050000Y-6050000I-300000J0D01*
G01*
X14050000Y-11450000D02*
G75*
G03*
X14350000Y-11150000I0J300000D01*
G01*
X14350000Y-6350000D02*
X14350000Y-11150000D01*
X6350000Y-6050000D02*
X14050000Y-6050000D01*
X6050000Y-6350000D02*
X6050000Y-11150000D01*
D11*
X6295119Y-11765024D02*
X6295119Y-11565024D01*
X6295119Y-11565024D02*
X6342738Y-11565024D01*
X6342738Y-11565024D02*
X6371309Y-11574548D01*
X6371309Y-11574548D02*
X6390357Y-11593595D01*
X6390357Y-11593595D02*
X6399881Y-11612643D01*
X6399881Y-11612643D02*
X6409405Y-11650738D01*
X6409405Y-11650738D02*
X6409405Y-11679309D01*
X6409405Y-11679309D02*
X6399881Y-11717405D01*
X6399881Y-11717405D02*
X6390357Y-11736452D01*
X6390357Y-11736452D02*
X6371309Y-11755500D01*
X6371309Y-11755500D02*
X6342738Y-11765024D01*
X6342738Y-11765024D02*
X6295119Y-11765024D01*
X6495119Y-11765024D02*
X6495119Y-11631690D01*
X6495119Y-11669786D02*
X6504643Y-11650738D01*
X6504643Y-11650738D02*
X6514167Y-11641214D01*
X6514167Y-11641214D02*
X6533214Y-11631690D01*
X6533214Y-11631690D02*
X6552262Y-11631690D01*
X6618928Y-11765024D02*
X6618928Y-11631690D01*
X6618928Y-11565024D02*
X6609405Y-11574548D01*
X6609405Y-11574548D02*
X6618928Y-11584071D01*
X6618928Y-11584071D02*
X6628452Y-11574548D01*
X6628452Y-11574548D02*
X6618928Y-11565024D01*
X6618928Y-11565024D02*
X6618928Y-11584071D01*
X6742738Y-11765024D02*
X6723690Y-11755500D01*
X6723690Y-11755500D02*
X6714167Y-11736452D01*
X6714167Y-11736452D02*
X6714167Y-11565024D01*
X6847500Y-11765024D02*
X6828452Y-11755500D01*
X6828452Y-11755500D02*
X6818928Y-11736452D01*
X6818928Y-11736452D02*
X6818928Y-11565024D01*
X7076071Y-11765024D02*
X7076071Y-11565024D01*
X7076071Y-11565024D02*
X7142738Y-11707881D01*
X7142738Y-11707881D02*
X7209405Y-11565024D01*
X7209405Y-11565024D02*
X7209405Y-11765024D01*
X7390357Y-11765024D02*
X7390357Y-11660262D01*
X7390357Y-11660262D02*
X7380833Y-11641214D01*
X7380833Y-11641214D02*
X7361786Y-11631690D01*
X7361786Y-11631690D02*
X7323690Y-11631690D01*
X7323690Y-11631690D02*
X7304643Y-11641214D01*
X7390357Y-11755500D02*
X7371309Y-11765024D01*
X7371309Y-11765024D02*
X7323690Y-11765024D01*
X7323690Y-11765024D02*
X7304643Y-11755500D01*
X7304643Y-11755500D02*
X7295119Y-11736452D01*
X7295119Y-11736452D02*
X7295119Y-11717405D01*
X7295119Y-11717405D02*
X7304643Y-11698357D01*
X7304643Y-11698357D02*
X7323690Y-11688833D01*
X7323690Y-11688833D02*
X7371309Y-11688833D01*
X7371309Y-11688833D02*
X7390357Y-11679309D01*
X7485595Y-11631690D02*
X7485595Y-11831690D01*
X7485595Y-11641214D02*
X7504643Y-11631690D01*
X7504643Y-11631690D02*
X7542738Y-11631690D01*
X7542738Y-11631690D02*
X7561786Y-11641214D01*
X7561786Y-11641214D02*
X7571309Y-11650738D01*
X7571309Y-11650738D02*
X7580833Y-11669786D01*
X7580833Y-11669786D02*
X7580833Y-11726928D01*
X7580833Y-11726928D02*
X7571309Y-11745976D01*
X7571309Y-11745976D02*
X7561786Y-11755500D01*
X7561786Y-11755500D02*
X7542738Y-11765024D01*
X7542738Y-11765024D02*
X7504643Y-11765024D01*
X7504643Y-11765024D02*
X7485595Y-11755500D01*
X7666548Y-11745976D02*
X7676071Y-11755500D01*
X7676071Y-11755500D02*
X7666548Y-11765024D01*
X7666548Y-11765024D02*
X7657024Y-11755500D01*
X7657024Y-11755500D02*
X7666548Y-11745976D01*
X7666548Y-11745976D02*
X7666548Y-11765024D01*
X7666548Y-11641214D02*
X7676071Y-11650738D01*
X7676071Y-11650738D02*
X7666548Y-11660262D01*
X7666548Y-11660262D02*
X7657024Y-11650738D01*
X7657024Y-11650738D02*
X7666548Y-11641214D01*
X7666548Y-11641214D02*
X7666548Y-11660262D01*
M02*
