%TF.GenerationSoftware,KiCad,Pcbnew,7.0.2-6a45011f42~172~ubuntu20.04.1*%
%TF.CreationDate,2023-05-20T00:08:38+02:00*%
%TF.ProjectId,pongCard,706f6e67-4361-4726-942e-6b696361645f,rev?*%
%TF.SameCoordinates,Original*%
%TF.FileFunction,Soldermask,Top*%
%TF.FilePolarity,Negative*%
%FSLAX46Y46*%
G04 Gerber Fmt 4.6, Leading zero omitted, Abs format (unit mm)*
G04 Created by KiCad (PCBNEW 7.0.2-6a45011f42~172~ubuntu20.04.1) date 2023-05-20 00:08:38*
%MOMM*%
%LPD*%
G01*
G04 APERTURE LIST*
G04 Aperture macros list*
%AMRoundRect*
0 Rectangle with rounded corners*
0 $1 Rounding radius*
0 $2 $3 $4 $5 $6 $7 $8 $9 X,Y pos of 4 corners*
0 Add a 4 corners polygon primitive as box body*
4,1,4,$2,$3,$4,$5,$6,$7,$8,$9,$2,$3,0*
0 Add four circle primitives for the rounded corners*
1,1,$1+$1,$2,$3*
1,1,$1+$1,$4,$5*
1,1,$1+$1,$6,$7*
1,1,$1+$1,$8,$9*
0 Add four rect primitives between the rounded corners*
20,1,$1+$1,$2,$3,$4,$5,0*
20,1,$1+$1,$4,$5,$6,$7,0*
20,1,$1+$1,$6,$7,$8,$9,0*
20,1,$1+$1,$8,$9,$2,$3,0*%
%AMFreePoly0*
4,1,9,3.862500,-0.866500,0.737500,-0.866500,0.737500,-0.450000,-0.737500,-0.450000,-0.737500,0.450000,0.737500,0.450000,0.737500,0.866500,3.862500,0.866500,3.862500,-0.866500,3.862500,-0.866500,$1*%
G04 Aperture macros list end*
%ADD10C,0.100000*%
%ADD11RoundRect,0.249999X-0.412501X-0.650001X0.412501X-0.650001X0.412501X0.650001X-0.412501X0.650001X0*%
%ADD12RoundRect,0.237500X-0.300000X-0.237500X0.300000X-0.237500X0.300000X0.237500X-0.300000X0.237500X0*%
%ADD13RoundRect,0.249999X0.412501X0.650001X-0.412501X0.650001X-0.412501X-0.650001X0.412501X-0.650001X0*%
%ADD14RoundRect,0.237500X0.300000X0.237500X-0.300000X0.237500X-0.300000X-0.237500X0.300000X-0.237500X0*%
%ADD15R,0.400000X1.350000*%
%ADD16O,1.200000X1.900000*%
%ADD17R,1.200000X1.900000*%
%ADD18C,1.450000*%
%ADD19R,1.500000X1.900000*%
%ADD20RoundRect,0.237500X-0.250000X-0.237500X0.250000X-0.237500X0.250000X0.237500X-0.250000X0.237500X0*%
%ADD21R,1.300000X0.900000*%
%ADD22FreePoly0,0.000000*%
%ADD23R,2.500000X1.100000*%
%ADD24O,2.500000X1.100000*%
%ADD25O,1.100000X2.500000*%
%ADD26C,2.000000*%
%ADD27C,1.600000*%
%ADD28RoundRect,0.237500X0.250000X0.237500X-0.250000X0.237500X-0.250000X-0.237500X0.250000X-0.237500X0*%
%ADD29C,1.700000*%
%ADD30O,1.700000X1.700000*%
%ADD31R,1.727200X1.727200*%
%ADD32O,1.727200X1.727200*%
%ADD33RoundRect,0.237500X0.237500X-0.300000X0.237500X0.300000X-0.237500X0.300000X-0.237500X-0.300000X0*%
G04 APERTURE END LIST*
D10*
X124841000Y-61262000D02*
X121793000Y-61262000D01*
X121793000Y-60500000D01*
X124841000Y-60500000D01*
X124841000Y-61262000D01*
G36*
X124841000Y-61262000D02*
G01*
X121793000Y-61262000D01*
X121793000Y-60500000D01*
X124841000Y-60500000D01*
X124841000Y-61262000D01*
G37*
X120532094Y-99121296D02*
X120532094Y-106260808D01*
X118986368Y-105368574D01*
X118986368Y-100013532D01*
X118213912Y-99567008D01*
X118213912Y-104922048D01*
X116668186Y-104029814D01*
X116668186Y-98674772D01*
X115894914Y-98228246D01*
X115894914Y-103583288D01*
X114349188Y-102691052D01*
X114349188Y-95551540D01*
X120532094Y-99121296D01*
G36*
X120532094Y-99121296D02*
G01*
X120532094Y-106260808D01*
X118986368Y-105368574D01*
X118986368Y-100013532D01*
X118213912Y-99567008D01*
X118213912Y-104922048D01*
X116668186Y-104029814D01*
X116668186Y-98674772D01*
X115894914Y-98228246D01*
X115894914Y-103583288D01*
X114349188Y-102691052D01*
X114349188Y-95551540D01*
X120532094Y-99121296D01*
G37*
X122402122Y-92303643D02*
X117770646Y-94981162D01*
X118542286Y-95426872D01*
X123173762Y-92749352D01*
X127033596Y-94981162D01*
X120858024Y-98550918D01*
X119313928Y-97657868D01*
X123946218Y-94981162D01*
X123173762Y-94534636D01*
X118542286Y-97212158D01*
X114682452Y-94981162D01*
X120858024Y-91410592D01*
X122402122Y-92303643D01*
G36*
X122402122Y-92303643D02*
G01*
X117770646Y-94981162D01*
X118542286Y-95426872D01*
X123173762Y-92749352D01*
X127033596Y-94981162D01*
X120858024Y-98550918D01*
X119313928Y-97657868D01*
X123946218Y-94981162D01*
X123173762Y-94534636D01*
X118542286Y-97212158D01*
X114682452Y-94981162D01*
X120858024Y-91410592D01*
X122402122Y-92303643D01*
G37*
X127362786Y-102691052D02*
X125817060Y-103583288D01*
X125817060Y-98228246D01*
X125043790Y-98674772D01*
X125043790Y-104029814D01*
X123498064Y-104922048D01*
X123498064Y-99567008D01*
X122725608Y-100013532D01*
X122725608Y-105368574D01*
X121179880Y-106260808D01*
X121179880Y-99121296D01*
X127362786Y-95551540D01*
X127362786Y-102691052D01*
G36*
X127362786Y-102691052D02*
G01*
X125817060Y-103583288D01*
X125817060Y-98228246D01*
X125043790Y-98674772D01*
X125043790Y-104029814D01*
X123498064Y-104922048D01*
X123498064Y-99567008D01*
X122725608Y-100013532D01*
X122725608Y-105368574D01*
X121179880Y-106260808D01*
X121179880Y-99121296D01*
X127362786Y-95551540D01*
X127362786Y-102691052D01*
G37*
D11*
X101307500Y-90345000D03*
X104432500Y-90345000D03*
D12*
X102007500Y-87805000D03*
X103732500Y-87805000D03*
D13*
X82207500Y-74470000D03*
X79082500Y-74470000D03*
D14*
X81507500Y-70660000D03*
X79782500Y-70660000D03*
D15*
X81945000Y-65597500D03*
X81295000Y-65597500D03*
X80645000Y-65597500D03*
X79995000Y-65597500D03*
X79345000Y-65597500D03*
D16*
X84145000Y-62897500D03*
D17*
X83545000Y-62897500D03*
D18*
X83145000Y-65597500D03*
D19*
X81645000Y-62897500D03*
X79645000Y-62897500D03*
D18*
X78145000Y-65597500D03*
D17*
X77745000Y-62897500D03*
D16*
X77145000Y-62897500D03*
D20*
X90527500Y-69390000D03*
X92352500Y-69390000D03*
X90527500Y-71295000D03*
X92352500Y-71295000D03*
D21*
X78995000Y-77415000D03*
D22*
X79082500Y-78915000D03*
D21*
X78995000Y-80415000D03*
D23*
X95185000Y-69390000D03*
D24*
X95185000Y-71390000D03*
X95185000Y-73390000D03*
X95185000Y-75390000D03*
X95185000Y-77390000D03*
X95185000Y-79390000D03*
X95185000Y-81390000D03*
X95185000Y-83390000D03*
X110585000Y-83390000D03*
X110485000Y-81390000D03*
X110585000Y-79390000D03*
X110585000Y-77390000D03*
X110585000Y-75390000D03*
X110585000Y-73390000D03*
X110585000Y-71390000D03*
X110585000Y-69390000D03*
D25*
X97875000Y-85090000D03*
X99875000Y-85090000D03*
X101875000Y-85090000D03*
X103875000Y-85090000D03*
X105875000Y-85090000D03*
X107875000Y-85090000D03*
D26*
X141037000Y-109608000D03*
D27*
X138537000Y-107358000D03*
X138537000Y-67358000D03*
X136037000Y-67358000D03*
D26*
X141037000Y-64858000D03*
X133537000Y-65108000D03*
D27*
X136037000Y-107358000D03*
D26*
X133537000Y-109608000D03*
X62905000Y-65174000D03*
D27*
X65405000Y-67424000D03*
X65405000Y-107424000D03*
X67905000Y-107424000D03*
D26*
X62905000Y-109924000D03*
X70405000Y-109674000D03*
D27*
X67905000Y-67424000D03*
D26*
X70405000Y-65174000D03*
D28*
X115339500Y-77264000D03*
X113514500Y-77264000D03*
D29*
X129413000Y-83614000D03*
D30*
X129413000Y-86154000D03*
X126873000Y-83614000D03*
X126873000Y-86154000D03*
X124333000Y-83614000D03*
X124333000Y-86154000D03*
X121793000Y-83614000D03*
X121793000Y-86154000D03*
D31*
X85725000Y-88440000D03*
D32*
X85725000Y-90980000D03*
X83185000Y-88440000D03*
X83185000Y-90980000D03*
X80645000Y-88440000D03*
X80645000Y-90980000D03*
X78105000Y-88440000D03*
X78105000Y-90980000D03*
D29*
X121793000Y-81074000D03*
D30*
X121793000Y-78534000D03*
X124333000Y-81074000D03*
X124333000Y-78534000D03*
X126873000Y-81074000D03*
X126873000Y-78534000D03*
X129413000Y-81074000D03*
X129413000Y-78534000D03*
D33*
X120269000Y-63902500D03*
X120269000Y-62177500D03*
D28*
X92376000Y-73200000D03*
X90551000Y-73200000D03*
D12*
X121084000Y-65580000D03*
X122809000Y-65580000D03*
D20*
X115951000Y-71422000D03*
X117776000Y-71422000D03*
D28*
X115085500Y-81328000D03*
X113260500Y-81328000D03*
D12*
X117628500Y-65580000D03*
X119353500Y-65580000D03*
M02*
