%TF.GenerationSoftware,KiCad,Pcbnew,5.1.12-84ad8e8a86~92~ubuntu20.04.1*%
%TF.CreationDate,2022-11-18T17:27:09+01:00*%
%TF.ProjectId,pongCard,706f6e67-4361-4726-942e-6b696361645f,rev?*%
%TF.SameCoordinates,Original*%
%TF.FileFunction,Legend,Top*%
%TF.FilePolarity,Positive*%
%FSLAX46Y46*%
G04 Gerber Fmt 4.6, Leading zero omitted, Abs format (unit mm)*
G04 Created by KiCad (PCBNEW 5.1.12-84ad8e8a86~92~ubuntu20.04.1) date 2022-11-18 17:27:09*
%MOMM*%
%LPD*%
G01*
G04 APERTURE LIST*
%ADD10C,0.150000*%
%ADD11C,0.200000*%
%ADD12C,0.100000*%
%ADD13C,0.120000*%
%ADD14C,0.152400*%
%ADD15C,1.600000*%
%ADD16C,2.000000*%
%ADD17O,1.100000X2.500000*%
%ADD18O,2.500000X1.100000*%
%ADD19R,2.500000X1.100000*%
%ADD20R,1.300000X0.900000*%
%ADD21R,1.200000X1.900000*%
%ADD22O,1.200000X1.900000*%
%ADD23R,1.500000X1.900000*%
%ADD24C,1.450000*%
%ADD25R,0.400000X1.350000*%
%ADD26C,3.000000*%
G04 APERTURE END LIST*
D10*
X74233738Y-103197380D02*
X74805166Y-103197380D01*
X74519452Y-104197380D02*
X74519452Y-103197380D01*
X75138500Y-104197380D02*
X75138500Y-103197380D01*
X75567071Y-104197380D02*
X75567071Y-103673571D01*
X75519452Y-103578333D01*
X75424214Y-103530714D01*
X75281357Y-103530714D01*
X75186119Y-103578333D01*
X75138500Y-103625952D01*
X76424214Y-104149761D02*
X76328976Y-104197380D01*
X76138500Y-104197380D01*
X76043261Y-104149761D01*
X75995642Y-104054523D01*
X75995642Y-103673571D01*
X76043261Y-103578333D01*
X76138500Y-103530714D01*
X76328976Y-103530714D01*
X76424214Y-103578333D01*
X76471833Y-103673571D01*
X76471833Y-103768809D01*
X75995642Y-103864047D01*
X77662309Y-103673571D02*
X77995642Y-103673571D01*
X78138500Y-104197380D02*
X77662309Y-104197380D01*
X77662309Y-103197380D01*
X78138500Y-103197380D01*
X78519452Y-104149761D02*
X78662309Y-104197380D01*
X78900404Y-104197380D01*
X78995642Y-104149761D01*
X79043261Y-104102142D01*
X79090880Y-104006904D01*
X79090880Y-103911666D01*
X79043261Y-103816428D01*
X78995642Y-103768809D01*
X78900404Y-103721190D01*
X78709928Y-103673571D01*
X78614690Y-103625952D01*
X78567071Y-103578333D01*
X78519452Y-103483095D01*
X78519452Y-103387857D01*
X78567071Y-103292619D01*
X78614690Y-103245000D01*
X78709928Y-103197380D01*
X78948023Y-103197380D01*
X79090880Y-103245000D01*
X79519452Y-104197380D02*
X79519452Y-103197380D01*
X79900404Y-103197380D01*
X79995642Y-103245000D01*
X80043261Y-103292619D01*
X80090880Y-103387857D01*
X80090880Y-103530714D01*
X80043261Y-103625952D01*
X79995642Y-103673571D01*
X79900404Y-103721190D01*
X79519452Y-103721190D01*
X80662309Y-103625952D02*
X80567071Y-103578333D01*
X80519452Y-103530714D01*
X80471833Y-103435476D01*
X80471833Y-103387857D01*
X80519452Y-103292619D01*
X80567071Y-103245000D01*
X80662309Y-103197380D01*
X80852785Y-103197380D01*
X80948023Y-103245000D01*
X80995642Y-103292619D01*
X81043261Y-103387857D01*
X81043261Y-103435476D01*
X80995642Y-103530714D01*
X80948023Y-103578333D01*
X80852785Y-103625952D01*
X80662309Y-103625952D01*
X80567071Y-103673571D01*
X80519452Y-103721190D01*
X80471833Y-103816428D01*
X80471833Y-104006904D01*
X80519452Y-104102142D01*
X80567071Y-104149761D01*
X80662309Y-104197380D01*
X80852785Y-104197380D01*
X80948023Y-104149761D01*
X80995642Y-104102142D01*
X81043261Y-104006904D01*
X81043261Y-103816428D01*
X80995642Y-103721190D01*
X80948023Y-103673571D01*
X80852785Y-103625952D01*
X81424214Y-103292619D02*
X81471833Y-103245000D01*
X81567071Y-103197380D01*
X81805166Y-103197380D01*
X81900404Y-103245000D01*
X81948023Y-103292619D01*
X81995642Y-103387857D01*
X81995642Y-103483095D01*
X81948023Y-103625952D01*
X81376595Y-104197380D01*
X81995642Y-104197380D01*
X82852785Y-103197380D02*
X82662309Y-103197380D01*
X82567071Y-103245000D01*
X82519452Y-103292619D01*
X82424214Y-103435476D01*
X82376595Y-103625952D01*
X82376595Y-104006904D01*
X82424214Y-104102142D01*
X82471833Y-104149761D01*
X82567071Y-104197380D01*
X82757547Y-104197380D01*
X82852785Y-104149761D01*
X82900404Y-104102142D01*
X82948023Y-104006904D01*
X82948023Y-103768809D01*
X82900404Y-103673571D01*
X82852785Y-103625952D01*
X82757547Y-103578333D01*
X82567071Y-103578333D01*
X82471833Y-103625952D01*
X82424214Y-103673571D01*
X82376595Y-103768809D01*
X83805166Y-103197380D02*
X83614690Y-103197380D01*
X83519452Y-103245000D01*
X83471833Y-103292619D01*
X83376595Y-103435476D01*
X83328976Y-103625952D01*
X83328976Y-104006904D01*
X83376595Y-104102142D01*
X83424214Y-104149761D01*
X83519452Y-104197380D01*
X83709928Y-104197380D01*
X83805166Y-104149761D01*
X83852785Y-104102142D01*
X83900404Y-104006904D01*
X83900404Y-103768809D01*
X83852785Y-103673571D01*
X83805166Y-103625952D01*
X83709928Y-103578333D01*
X83519452Y-103578333D01*
X83424214Y-103625952D01*
X83376595Y-103673571D01*
X83328976Y-103768809D01*
X85519452Y-103530714D02*
X85519452Y-104340238D01*
X85471833Y-104435476D01*
X85424214Y-104483095D01*
X85328976Y-104530714D01*
X85186119Y-104530714D01*
X85090880Y-104483095D01*
X85519452Y-104149761D02*
X85424214Y-104197380D01*
X85233738Y-104197380D01*
X85138500Y-104149761D01*
X85090880Y-104102142D01*
X85043261Y-104006904D01*
X85043261Y-103721190D01*
X85090880Y-103625952D01*
X85138500Y-103578333D01*
X85233738Y-103530714D01*
X85424214Y-103530714D01*
X85519452Y-103578333D01*
X86376595Y-104149761D02*
X86281357Y-104197380D01*
X86090880Y-104197380D01*
X85995642Y-104149761D01*
X85948023Y-104054523D01*
X85948023Y-103673571D01*
X85995642Y-103578333D01*
X86090880Y-103530714D01*
X86281357Y-103530714D01*
X86376595Y-103578333D01*
X86424214Y-103673571D01*
X86424214Y-103768809D01*
X85948023Y-103864047D01*
X86852785Y-103530714D02*
X86852785Y-104197380D01*
X86852785Y-103625952D02*
X86900404Y-103578333D01*
X86995642Y-103530714D01*
X87138500Y-103530714D01*
X87233738Y-103578333D01*
X87281357Y-103673571D01*
X87281357Y-104197380D01*
X88138500Y-104149761D02*
X88043261Y-104197380D01*
X87852785Y-104197380D01*
X87757547Y-104149761D01*
X87709928Y-104054523D01*
X87709928Y-103673571D01*
X87757547Y-103578333D01*
X87852785Y-103530714D01*
X88043261Y-103530714D01*
X88138500Y-103578333D01*
X88186119Y-103673571D01*
X88186119Y-103768809D01*
X87709928Y-103864047D01*
X88614690Y-104197380D02*
X88614690Y-103530714D01*
X88614690Y-103721190D02*
X88662309Y-103625952D01*
X88709928Y-103578333D01*
X88805166Y-103530714D01*
X88900404Y-103530714D01*
X89662309Y-104197380D02*
X89662309Y-103673571D01*
X89614690Y-103578333D01*
X89519452Y-103530714D01*
X89328976Y-103530714D01*
X89233738Y-103578333D01*
X89662309Y-104149761D02*
X89567071Y-104197380D01*
X89328976Y-104197380D01*
X89233738Y-104149761D01*
X89186119Y-104054523D01*
X89186119Y-103959285D01*
X89233738Y-103864047D01*
X89328976Y-103816428D01*
X89567071Y-103816428D01*
X89662309Y-103768809D01*
X89995642Y-103530714D02*
X90376595Y-103530714D01*
X90138500Y-103197380D02*
X90138500Y-104054523D01*
X90186119Y-104149761D01*
X90281357Y-104197380D01*
X90376595Y-104197380D01*
X91090880Y-104149761D02*
X90995642Y-104197380D01*
X90805166Y-104197380D01*
X90709928Y-104149761D01*
X90662309Y-104054523D01*
X90662309Y-103673571D01*
X90709928Y-103578333D01*
X90805166Y-103530714D01*
X90995642Y-103530714D01*
X91090880Y-103578333D01*
X91138500Y-103673571D01*
X91138500Y-103768809D01*
X90662309Y-103864047D01*
X91519452Y-104149761D02*
X91614690Y-104197380D01*
X91805166Y-104197380D01*
X91900404Y-104149761D01*
X91948023Y-104054523D01*
X91948023Y-104006904D01*
X91900404Y-103911666D01*
X91805166Y-103864047D01*
X91662309Y-103864047D01*
X91567071Y-103816428D01*
X91519452Y-103721190D01*
X91519452Y-103673571D01*
X91567071Y-103578333D01*
X91662309Y-103530714D01*
X91805166Y-103530714D01*
X91900404Y-103578333D01*
X93567071Y-104197380D02*
X93567071Y-103673571D01*
X93519452Y-103578333D01*
X93424214Y-103530714D01*
X93233738Y-103530714D01*
X93138500Y-103578333D01*
X93567071Y-104149761D02*
X93471833Y-104197380D01*
X93233738Y-104197380D01*
X93138500Y-104149761D01*
X93090880Y-104054523D01*
X93090880Y-103959285D01*
X93138500Y-103864047D01*
X93233738Y-103816428D01*
X93471833Y-103816428D01*
X93567071Y-103768809D01*
X94805166Y-104197380D02*
X94805166Y-103197380D01*
X95186119Y-103197380D01*
X95281357Y-103245000D01*
X95328976Y-103292619D01*
X95376595Y-103387857D01*
X95376595Y-103530714D01*
X95328976Y-103625952D01*
X95281357Y-103673571D01*
X95186119Y-103721190D01*
X94805166Y-103721190D01*
X95757547Y-103911666D02*
X96233738Y-103911666D01*
X95662309Y-104197380D02*
X95995642Y-103197380D01*
X96328976Y-104197380D01*
X97138500Y-104197380D02*
X96662309Y-104197380D01*
X96662309Y-103197380D01*
X98090880Y-103197380D02*
X98662309Y-103197380D01*
X98376595Y-104197380D02*
X98376595Y-103197380D01*
X98852785Y-103197380D02*
X99186119Y-104197380D01*
X99519452Y-103197380D01*
X100567071Y-104149761D02*
X100709928Y-104197380D01*
X100948023Y-104197380D01*
X101043261Y-104149761D01*
X101090880Y-104102142D01*
X101138500Y-104006904D01*
X101138500Y-103911666D01*
X101090880Y-103816428D01*
X101043261Y-103768809D01*
X100948023Y-103721190D01*
X100757547Y-103673571D01*
X100662309Y-103625952D01*
X100614690Y-103578333D01*
X100567071Y-103483095D01*
X100567071Y-103387857D01*
X100614690Y-103292619D01*
X100662309Y-103245000D01*
X100757547Y-103197380D01*
X100995642Y-103197380D01*
X101138500Y-103245000D01*
X101567071Y-104197380D02*
X101567071Y-103530714D01*
X101567071Y-103197380D02*
X101519452Y-103245000D01*
X101567071Y-103292619D01*
X101614690Y-103245000D01*
X101567071Y-103197380D01*
X101567071Y-103292619D01*
X102471833Y-103530714D02*
X102471833Y-104340238D01*
X102424214Y-104435476D01*
X102376595Y-104483095D01*
X102281357Y-104530714D01*
X102138500Y-104530714D01*
X102043261Y-104483095D01*
X102471833Y-104149761D02*
X102376595Y-104197380D01*
X102186119Y-104197380D01*
X102090880Y-104149761D01*
X102043261Y-104102142D01*
X101995642Y-104006904D01*
X101995642Y-103721190D01*
X102043261Y-103625952D01*
X102090880Y-103578333D01*
X102186119Y-103530714D01*
X102376595Y-103530714D01*
X102471833Y-103578333D01*
X102948023Y-103530714D02*
X102948023Y-104197380D01*
X102948023Y-103625952D02*
X102995642Y-103578333D01*
X103090880Y-103530714D01*
X103233738Y-103530714D01*
X103328976Y-103578333D01*
X103376595Y-103673571D01*
X103376595Y-104197380D01*
X104281357Y-104197380D02*
X104281357Y-103673571D01*
X104233738Y-103578333D01*
X104138499Y-103530714D01*
X103948023Y-103530714D01*
X103852785Y-103578333D01*
X104281357Y-104149761D02*
X104186119Y-104197380D01*
X103948023Y-104197380D01*
X103852785Y-104149761D01*
X103805166Y-104054523D01*
X103805166Y-103959285D01*
X103852785Y-103864047D01*
X103948023Y-103816428D01*
X104186119Y-103816428D01*
X104281357Y-103768809D01*
X104900404Y-104197380D02*
X104805166Y-104149761D01*
X104757547Y-104054523D01*
X104757547Y-103197380D01*
X106186119Y-104197380D02*
X106090880Y-104149761D01*
X106043261Y-104102142D01*
X105995642Y-104006904D01*
X105995642Y-103721190D01*
X106043261Y-103625952D01*
X106090880Y-103578333D01*
X106186119Y-103530714D01*
X106328976Y-103530714D01*
X106424214Y-103578333D01*
X106471833Y-103625952D01*
X106519452Y-103721190D01*
X106519452Y-104006904D01*
X106471833Y-104102142D01*
X106424214Y-104149761D01*
X106328976Y-104197380D01*
X106186119Y-104197380D01*
X106948023Y-103530714D02*
X106948023Y-104197380D01*
X106948023Y-103625952D02*
X106995642Y-103578333D01*
X107090880Y-103530714D01*
X107233738Y-103530714D01*
X107328976Y-103578333D01*
X107376595Y-103673571D01*
X107376595Y-104197380D01*
X108471833Y-103197380D02*
X108805166Y-104197380D01*
X109138499Y-103197380D01*
X109471833Y-104197380D02*
X109471833Y-103197380D01*
X109471833Y-103673571D02*
X110043261Y-103673571D01*
X110043261Y-104197380D02*
X110043261Y-103197380D01*
X110852785Y-103673571D02*
X110519452Y-103673571D01*
X110519452Y-104197380D02*
X110519452Y-103197380D01*
X110995642Y-103197380D01*
X112709928Y-104102142D02*
X112662309Y-104149761D01*
X112519452Y-104197380D01*
X112424214Y-104197380D01*
X112281357Y-104149761D01*
X112186119Y-104054523D01*
X112138499Y-103959285D01*
X112090880Y-103768809D01*
X112090880Y-103625952D01*
X112138499Y-103435476D01*
X112186119Y-103340238D01*
X112281357Y-103245000D01*
X112424214Y-103197380D01*
X112519452Y-103197380D01*
X112662309Y-103245000D01*
X112709928Y-103292619D01*
X113138499Y-104197380D02*
X113138499Y-103197380D01*
X113567071Y-104197380D02*
X113567071Y-103673571D01*
X113519452Y-103578333D01*
X113424214Y-103530714D01*
X113281357Y-103530714D01*
X113186119Y-103578333D01*
X113138499Y-103625952D01*
X114471833Y-104197380D02*
X114471833Y-103673571D01*
X114424214Y-103578333D01*
X114328976Y-103530714D01*
X114138499Y-103530714D01*
X114043261Y-103578333D01*
X114471833Y-104149761D02*
X114376595Y-104197380D01*
X114138499Y-104197380D01*
X114043261Y-104149761D01*
X113995642Y-104054523D01*
X113995642Y-103959285D01*
X114043261Y-103864047D01*
X114138499Y-103816428D01*
X114376595Y-103816428D01*
X114471833Y-103768809D01*
X114948023Y-103530714D02*
X114948023Y-104197380D01*
X114948023Y-103625952D02*
X114995642Y-103578333D01*
X115090880Y-103530714D01*
X115233738Y-103530714D01*
X115328976Y-103578333D01*
X115376595Y-103673571D01*
X115376595Y-104197380D01*
X115852785Y-103530714D02*
X115852785Y-104197380D01*
X115852785Y-103625952D02*
X115900404Y-103578333D01*
X115995642Y-103530714D01*
X116138499Y-103530714D01*
X116233738Y-103578333D01*
X116281357Y-103673571D01*
X116281357Y-104197380D01*
X117138499Y-104149761D02*
X117043261Y-104197380D01*
X116852785Y-104197380D01*
X116757547Y-104149761D01*
X116709928Y-104054523D01*
X116709928Y-103673571D01*
X116757547Y-103578333D01*
X116852785Y-103530714D01*
X117043261Y-103530714D01*
X117138499Y-103578333D01*
X117186119Y-103673571D01*
X117186119Y-103768809D01*
X116709928Y-103864047D01*
X117757547Y-104197380D02*
X117662309Y-104149761D01*
X117614690Y-104054523D01*
X117614690Y-103197380D01*
X118805166Y-103197380D02*
X119424214Y-103197380D01*
X119090880Y-103578333D01*
X119233738Y-103578333D01*
X119328976Y-103625952D01*
X119376595Y-103673571D01*
X119424214Y-103768809D01*
X119424214Y-104006904D01*
X119376595Y-104102142D01*
X119328976Y-104149761D01*
X119233738Y-104197380D01*
X118948023Y-104197380D01*
X118852785Y-104149761D01*
X118805166Y-104102142D01*
X74233738Y-104847380D02*
X74805166Y-104847380D01*
X74519452Y-105847380D02*
X74519452Y-104847380D01*
X75138500Y-105847380D02*
X75138500Y-104847380D01*
X75567071Y-105847380D02*
X75567071Y-105323571D01*
X75519452Y-105228333D01*
X75424214Y-105180714D01*
X75281357Y-105180714D01*
X75186119Y-105228333D01*
X75138500Y-105275952D01*
X76043261Y-105847380D02*
X76043261Y-105180714D01*
X76043261Y-104847380D02*
X75995642Y-104895000D01*
X76043261Y-104942619D01*
X76090880Y-104895000D01*
X76043261Y-104847380D01*
X76043261Y-104942619D01*
X76471833Y-105799761D02*
X76567071Y-105847380D01*
X76757547Y-105847380D01*
X76852785Y-105799761D01*
X76900404Y-105704523D01*
X76900404Y-105656904D01*
X76852785Y-105561666D01*
X76757547Y-105514047D01*
X76614690Y-105514047D01*
X76519452Y-105466428D01*
X76471833Y-105371190D01*
X76471833Y-105323571D01*
X76519452Y-105228333D01*
X76614690Y-105180714D01*
X76757547Y-105180714D01*
X76852785Y-105228333D01*
X78424214Y-105323571D02*
X78567071Y-105371190D01*
X78614690Y-105418809D01*
X78662309Y-105514047D01*
X78662309Y-105656904D01*
X78614690Y-105752142D01*
X78567071Y-105799761D01*
X78471833Y-105847380D01*
X78090880Y-105847380D01*
X78090880Y-104847380D01*
X78424214Y-104847380D01*
X78519452Y-104895000D01*
X78567071Y-104942619D01*
X78614690Y-105037857D01*
X78614690Y-105133095D01*
X78567071Y-105228333D01*
X78519452Y-105275952D01*
X78424214Y-105323571D01*
X78090880Y-105323571D01*
X79233738Y-105847380D02*
X79138500Y-105799761D01*
X79090880Y-105752142D01*
X79043261Y-105656904D01*
X79043261Y-105371190D01*
X79090880Y-105275952D01*
X79138500Y-105228333D01*
X79233738Y-105180714D01*
X79376595Y-105180714D01*
X79471833Y-105228333D01*
X79519452Y-105275952D01*
X79567071Y-105371190D01*
X79567071Y-105656904D01*
X79519452Y-105752142D01*
X79471833Y-105799761D01*
X79376595Y-105847380D01*
X79233738Y-105847380D01*
X80424214Y-105847380D02*
X80424214Y-105323571D01*
X80376595Y-105228333D01*
X80281357Y-105180714D01*
X80090880Y-105180714D01*
X79995642Y-105228333D01*
X80424214Y-105799761D02*
X80328976Y-105847380D01*
X80090880Y-105847380D01*
X79995642Y-105799761D01*
X79948023Y-105704523D01*
X79948023Y-105609285D01*
X79995642Y-105514047D01*
X80090880Y-105466428D01*
X80328976Y-105466428D01*
X80424214Y-105418809D01*
X80900404Y-105847380D02*
X80900404Y-105180714D01*
X80900404Y-105371190D02*
X80948023Y-105275952D01*
X80995642Y-105228333D01*
X81090880Y-105180714D01*
X81186119Y-105180714D01*
X81948023Y-105847380D02*
X81948023Y-104847380D01*
X81948023Y-105799761D02*
X81852785Y-105847380D01*
X81662309Y-105847380D01*
X81567071Y-105799761D01*
X81519452Y-105752142D01*
X81471833Y-105656904D01*
X81471833Y-105371190D01*
X81519452Y-105275952D01*
X81567071Y-105228333D01*
X81662309Y-105180714D01*
X81852785Y-105180714D01*
X81948023Y-105228333D01*
X83186119Y-105847380D02*
X83186119Y-105180714D01*
X83186119Y-104847380D02*
X83138500Y-104895000D01*
X83186119Y-104942619D01*
X83233738Y-104895000D01*
X83186119Y-104847380D01*
X83186119Y-104942619D01*
X83614690Y-105799761D02*
X83709928Y-105847380D01*
X83900404Y-105847380D01*
X83995642Y-105799761D01*
X84043261Y-105704523D01*
X84043261Y-105656904D01*
X83995642Y-105561666D01*
X83900404Y-105514047D01*
X83757547Y-105514047D01*
X83662309Y-105466428D01*
X83614690Y-105371190D01*
X83614690Y-105323571D01*
X83662309Y-105228333D01*
X83757547Y-105180714D01*
X83900404Y-105180714D01*
X83995642Y-105228333D01*
X85186119Y-105799761D02*
X85281357Y-105847380D01*
X85471833Y-105847380D01*
X85567071Y-105799761D01*
X85614690Y-105704523D01*
X85614690Y-105656904D01*
X85567071Y-105561666D01*
X85471833Y-105514047D01*
X85328976Y-105514047D01*
X85233738Y-105466428D01*
X85186119Y-105371190D01*
X85186119Y-105323571D01*
X85233738Y-105228333D01*
X85328976Y-105180714D01*
X85471833Y-105180714D01*
X85567071Y-105228333D01*
X86424214Y-105799761D02*
X86328976Y-105847380D01*
X86138500Y-105847380D01*
X86043261Y-105799761D01*
X85995642Y-105704523D01*
X85995642Y-105323571D01*
X86043261Y-105228333D01*
X86138500Y-105180714D01*
X86328976Y-105180714D01*
X86424214Y-105228333D01*
X86471833Y-105323571D01*
X86471833Y-105418809D01*
X85995642Y-105514047D01*
X86757547Y-105180714D02*
X87138500Y-105180714D01*
X86900404Y-104847380D02*
X86900404Y-105704523D01*
X86948023Y-105799761D01*
X87043261Y-105847380D01*
X87138500Y-105847380D01*
X88662309Y-105180714D02*
X88662309Y-105847380D01*
X88233738Y-105180714D02*
X88233738Y-105704523D01*
X88281357Y-105799761D01*
X88376595Y-105847380D01*
X88519452Y-105847380D01*
X88614690Y-105799761D01*
X88662309Y-105752142D01*
X89138500Y-105180714D02*
X89138500Y-106180714D01*
X89138500Y-105228333D02*
X89233738Y-105180714D01*
X89424214Y-105180714D01*
X89519452Y-105228333D01*
X89567071Y-105275952D01*
X89614690Y-105371190D01*
X89614690Y-105656904D01*
X89567071Y-105752142D01*
X89519452Y-105799761D01*
X89424214Y-105847380D01*
X89233738Y-105847380D01*
X89138500Y-105799761D01*
X90662309Y-105180714D02*
X91043261Y-105180714D01*
X90805166Y-104847380D02*
X90805166Y-105704523D01*
X90852785Y-105799761D01*
X90948023Y-105847380D01*
X91043261Y-105847380D01*
X91519452Y-105847380D02*
X91424214Y-105799761D01*
X91376595Y-105752142D01*
X91328976Y-105656904D01*
X91328976Y-105371190D01*
X91376595Y-105275952D01*
X91424214Y-105228333D01*
X91519452Y-105180714D01*
X91662309Y-105180714D01*
X91757547Y-105228333D01*
X91805166Y-105275952D01*
X91852785Y-105371190D01*
X91852785Y-105656904D01*
X91805166Y-105752142D01*
X91757547Y-105799761D01*
X91662309Y-105847380D01*
X91519452Y-105847380D01*
X93043261Y-105180714D02*
X93043261Y-106180714D01*
X93043261Y-105228333D02*
X93138500Y-105180714D01*
X93328976Y-105180714D01*
X93424214Y-105228333D01*
X93471833Y-105275952D01*
X93519452Y-105371190D01*
X93519452Y-105656904D01*
X93471833Y-105752142D01*
X93424214Y-105799761D01*
X93328976Y-105847380D01*
X93138500Y-105847380D01*
X93043261Y-105799761D01*
X94090880Y-105847380D02*
X93995642Y-105799761D01*
X93948023Y-105704523D01*
X93948023Y-104847380D01*
X94900404Y-105847380D02*
X94900404Y-105323571D01*
X94852785Y-105228333D01*
X94757547Y-105180714D01*
X94567071Y-105180714D01*
X94471833Y-105228333D01*
X94900404Y-105799761D02*
X94805166Y-105847380D01*
X94567071Y-105847380D01*
X94471833Y-105799761D01*
X94424214Y-105704523D01*
X94424214Y-105609285D01*
X94471833Y-105514047D01*
X94567071Y-105466428D01*
X94805166Y-105466428D01*
X94900404Y-105418809D01*
X95281357Y-105180714D02*
X95519452Y-105847380D01*
X95757547Y-105180714D02*
X95519452Y-105847380D01*
X95424214Y-106085476D01*
X95376595Y-106133095D01*
X95281357Y-106180714D01*
X96900404Y-105847380D02*
X96900404Y-104847380D01*
X97281357Y-104847380D01*
X97376595Y-104895000D01*
X97424214Y-104942619D01*
X97471833Y-105037857D01*
X97471833Y-105180714D01*
X97424214Y-105275952D01*
X97376595Y-105323571D01*
X97281357Y-105371190D01*
X96900404Y-105371190D01*
X98043261Y-105847380D02*
X97948023Y-105799761D01*
X97900404Y-105752142D01*
X97852785Y-105656904D01*
X97852785Y-105371190D01*
X97900404Y-105275952D01*
X97948023Y-105228333D01*
X98043261Y-105180714D01*
X98186119Y-105180714D01*
X98281357Y-105228333D01*
X98328976Y-105275952D01*
X98376595Y-105371190D01*
X98376595Y-105656904D01*
X98328976Y-105752142D01*
X98281357Y-105799761D01*
X98186119Y-105847380D01*
X98043261Y-105847380D01*
X98805166Y-105180714D02*
X98805166Y-105847380D01*
X98805166Y-105275952D02*
X98852785Y-105228333D01*
X98948023Y-105180714D01*
X99090880Y-105180714D01*
X99186119Y-105228333D01*
X99233738Y-105323571D01*
X99233738Y-105847380D01*
X100138499Y-105180714D02*
X100138499Y-105990238D01*
X100090880Y-106085476D01*
X100043261Y-106133095D01*
X99948023Y-106180714D01*
X99805166Y-106180714D01*
X99709928Y-106133095D01*
X100138499Y-105799761D02*
X100043261Y-105847380D01*
X99852785Y-105847380D01*
X99757547Y-105799761D01*
X99709928Y-105752142D01*
X99662309Y-105656904D01*
X99662309Y-105371190D01*
X99709928Y-105275952D01*
X99757547Y-105228333D01*
X99852785Y-105180714D01*
X100043261Y-105180714D01*
X100138499Y-105228333D01*
X101281357Y-105180714D02*
X101471833Y-105847380D01*
X101662309Y-105371190D01*
X101852785Y-105847380D01*
X102043261Y-105180714D01*
X102424214Y-105847380D02*
X102424214Y-105180714D01*
X102424214Y-104847380D02*
X102376595Y-104895000D01*
X102424214Y-104942619D01*
X102471833Y-104895000D01*
X102424214Y-104847380D01*
X102424214Y-104942619D01*
X102757547Y-105180714D02*
X103138499Y-105180714D01*
X102900404Y-104847380D02*
X102900404Y-105704523D01*
X102948023Y-105799761D01*
X103043261Y-105847380D01*
X103138499Y-105847380D01*
X103471833Y-105847380D02*
X103471833Y-104847380D01*
X103900404Y-105847380D02*
X103900404Y-105323571D01*
X103852785Y-105228333D01*
X103757547Y-105180714D01*
X103614690Y-105180714D01*
X103519452Y-105228333D01*
X103471833Y-105275952D01*
X104995642Y-105180714D02*
X105376595Y-105180714D01*
X105138499Y-104847380D02*
X105138499Y-105704523D01*
X105186119Y-105799761D01*
X105281357Y-105847380D01*
X105376595Y-105847380D01*
X105709928Y-105847380D02*
X105709928Y-104847380D01*
X106138499Y-105847380D02*
X106138499Y-105323571D01*
X106090880Y-105228333D01*
X105995642Y-105180714D01*
X105852785Y-105180714D01*
X105757547Y-105228333D01*
X105709928Y-105275952D01*
X106995642Y-105799761D02*
X106900404Y-105847380D01*
X106709928Y-105847380D01*
X106614690Y-105799761D01*
X106567071Y-105704523D01*
X106567071Y-105323571D01*
X106614690Y-105228333D01*
X106709928Y-105180714D01*
X106900404Y-105180714D01*
X106995642Y-105228333D01*
X107043261Y-105323571D01*
X107043261Y-105418809D01*
X106567071Y-105514047D01*
X108090880Y-105180714D02*
X108471833Y-105180714D01*
X108233738Y-105847380D02*
X108233738Y-104990238D01*
X108281357Y-104895000D01*
X108376595Y-104847380D01*
X108471833Y-104847380D01*
X108948023Y-105847380D02*
X108852785Y-105799761D01*
X108805166Y-105752142D01*
X108757547Y-105656904D01*
X108757547Y-105371190D01*
X108805166Y-105275952D01*
X108852785Y-105228333D01*
X108948023Y-105180714D01*
X109090880Y-105180714D01*
X109186119Y-105228333D01*
X109233738Y-105275952D01*
X109281357Y-105371190D01*
X109281357Y-105656904D01*
X109233738Y-105752142D01*
X109186119Y-105799761D01*
X109090880Y-105847380D01*
X108948023Y-105847380D01*
X109852785Y-105847380D02*
X109757547Y-105799761D01*
X109709928Y-105704523D01*
X109709928Y-104847380D01*
X110376595Y-105847380D02*
X110281357Y-105799761D01*
X110233738Y-105704523D01*
X110233738Y-104847380D01*
X110900404Y-105847380D02*
X110805166Y-105799761D01*
X110757547Y-105752142D01*
X110709928Y-105656904D01*
X110709928Y-105371190D01*
X110757547Y-105275952D01*
X110805166Y-105228333D01*
X110900404Y-105180714D01*
X111043261Y-105180714D01*
X111138499Y-105228333D01*
X111186119Y-105275952D01*
X111233738Y-105371190D01*
X111233738Y-105656904D01*
X111186119Y-105752142D01*
X111138499Y-105799761D01*
X111043261Y-105847380D01*
X110900404Y-105847380D01*
X111567071Y-105180714D02*
X111757547Y-105847380D01*
X111948023Y-105371190D01*
X112138499Y-105847380D01*
X112328976Y-105180714D01*
X112709928Y-105847380D02*
X112709928Y-105180714D01*
X112709928Y-104847380D02*
X112662309Y-104895000D01*
X112709928Y-104942619D01*
X112757547Y-104895000D01*
X112709928Y-104847380D01*
X112709928Y-104942619D01*
X113186119Y-105180714D02*
X113186119Y-105847380D01*
X113186119Y-105275952D02*
X113233738Y-105228333D01*
X113328976Y-105180714D01*
X113471833Y-105180714D01*
X113567071Y-105228333D01*
X113614690Y-105323571D01*
X113614690Y-105847380D01*
X114519452Y-105180714D02*
X114519452Y-105990238D01*
X114471833Y-106085476D01*
X114424214Y-106133095D01*
X114328976Y-106180714D01*
X114186119Y-106180714D01*
X114090880Y-106133095D01*
X114519452Y-105799761D02*
X114424214Y-105847380D01*
X114233738Y-105847380D01*
X114138499Y-105799761D01*
X114090880Y-105752142D01*
X114043261Y-105656904D01*
X114043261Y-105371190D01*
X114090880Y-105275952D01*
X114138499Y-105228333D01*
X114233738Y-105180714D01*
X114424214Y-105180714D01*
X114519452Y-105228333D01*
X116090880Y-105323571D02*
X115757547Y-105323571D01*
X115757547Y-105847380D02*
X115757547Y-104847380D01*
X116233738Y-104847380D01*
X116614690Y-105847380D02*
X116614690Y-105180714D01*
X116614690Y-104847380D02*
X116567071Y-104895000D01*
X116614690Y-104942619D01*
X116662309Y-104895000D01*
X116614690Y-104847380D01*
X116614690Y-104942619D01*
X117090880Y-105847380D02*
X117090880Y-105180714D01*
X117090880Y-105371190D02*
X117138499Y-105275952D01*
X117186119Y-105228333D01*
X117281357Y-105180714D01*
X117376595Y-105180714D01*
X117709928Y-105847380D02*
X117709928Y-105180714D01*
X117709928Y-105275952D02*
X117757547Y-105228333D01*
X117852785Y-105180714D01*
X117995642Y-105180714D01*
X118090880Y-105228333D01*
X118138499Y-105323571D01*
X118138499Y-105847380D01*
X118138499Y-105323571D02*
X118186119Y-105228333D01*
X118281357Y-105180714D01*
X118424214Y-105180714D01*
X118519452Y-105228333D01*
X118567071Y-105323571D01*
X118567071Y-105847380D01*
X118948023Y-105180714D02*
X119138499Y-105847380D01*
X119328976Y-105371190D01*
X119519452Y-105847380D01*
X119709928Y-105180714D01*
X120519452Y-105847380D02*
X120519452Y-105323571D01*
X120471833Y-105228333D01*
X120376595Y-105180714D01*
X120186119Y-105180714D01*
X120090880Y-105228333D01*
X120519452Y-105799761D02*
X120424214Y-105847380D01*
X120186119Y-105847380D01*
X120090880Y-105799761D01*
X120043261Y-105704523D01*
X120043261Y-105609285D01*
X120090880Y-105514047D01*
X120186119Y-105466428D01*
X120424214Y-105466428D01*
X120519452Y-105418809D01*
X120995642Y-105847380D02*
X120995642Y-105180714D01*
X120995642Y-105371190D02*
X121043261Y-105275952D01*
X121090880Y-105228333D01*
X121186119Y-105180714D01*
X121281357Y-105180714D01*
X121995642Y-105799761D02*
X121900404Y-105847380D01*
X121709928Y-105847380D01*
X121614690Y-105799761D01*
X121567071Y-105704523D01*
X121567071Y-105323571D01*
X121614690Y-105228333D01*
X121709928Y-105180714D01*
X121900404Y-105180714D01*
X121995642Y-105228333D01*
X122043261Y-105323571D01*
X122043261Y-105418809D01*
X121567071Y-105514047D01*
X122471833Y-105752142D02*
X122519452Y-105799761D01*
X122471833Y-105847380D01*
X122424214Y-105799761D01*
X122471833Y-105752142D01*
X122471833Y-105847380D01*
X122471833Y-105228333D02*
X122519452Y-105275952D01*
X122471833Y-105323571D01*
X122424214Y-105275952D01*
X122471833Y-105228333D01*
X122471833Y-105323571D01*
X74376595Y-107497380D02*
X74376595Y-106497380D01*
X74805166Y-107497380D02*
X74805166Y-106973571D01*
X74757547Y-106878333D01*
X74662309Y-106830714D01*
X74519452Y-106830714D01*
X74424214Y-106878333D01*
X74376595Y-106925952D01*
X75138500Y-106830714D02*
X75519452Y-106830714D01*
X75281357Y-106497380D02*
X75281357Y-107354523D01*
X75328976Y-107449761D01*
X75424214Y-107497380D01*
X75519452Y-107497380D01*
X75709928Y-106830714D02*
X76090880Y-106830714D01*
X75852785Y-106497380D02*
X75852785Y-107354523D01*
X75900404Y-107449761D01*
X75995642Y-107497380D01*
X76090880Y-107497380D01*
X76424214Y-106830714D02*
X76424214Y-107830714D01*
X76424214Y-106878333D02*
X76519452Y-106830714D01*
X76709928Y-106830714D01*
X76805166Y-106878333D01*
X76852785Y-106925952D01*
X76900404Y-107021190D01*
X76900404Y-107306904D01*
X76852785Y-107402142D01*
X76805166Y-107449761D01*
X76709928Y-107497380D01*
X76519452Y-107497380D01*
X76424214Y-107449761D01*
X77281357Y-107449761D02*
X77376595Y-107497380D01*
X77567071Y-107497380D01*
X77662309Y-107449761D01*
X77709928Y-107354523D01*
X77709928Y-107306904D01*
X77662309Y-107211666D01*
X77567071Y-107164047D01*
X77424214Y-107164047D01*
X77328976Y-107116428D01*
X77281357Y-107021190D01*
X77281357Y-106973571D01*
X77328976Y-106878333D01*
X77424214Y-106830714D01*
X77567071Y-106830714D01*
X77662309Y-106878333D01*
X78138500Y-107402142D02*
X78186119Y-107449761D01*
X78138500Y-107497380D01*
X78090880Y-107449761D01*
X78138500Y-107402142D01*
X78138500Y-107497380D01*
X78138500Y-106878333D02*
X78186119Y-106925952D01*
X78138500Y-106973571D01*
X78090880Y-106925952D01*
X78138500Y-106878333D01*
X78138500Y-106973571D01*
X79328976Y-106449761D02*
X78471833Y-107735476D01*
X80376595Y-106449761D02*
X79519452Y-107735476D01*
X81138500Y-106830714D02*
X81138500Y-107640238D01*
X81090880Y-107735476D01*
X81043261Y-107783095D01*
X80948023Y-107830714D01*
X80805166Y-107830714D01*
X80709928Y-107783095D01*
X81138500Y-107449761D02*
X81043261Y-107497380D01*
X80852785Y-107497380D01*
X80757547Y-107449761D01*
X80709928Y-107402142D01*
X80662309Y-107306904D01*
X80662309Y-107021190D01*
X80709928Y-106925952D01*
X80757547Y-106878333D01*
X80852785Y-106830714D01*
X81043261Y-106830714D01*
X81138500Y-106878333D01*
X81614690Y-107497380D02*
X81614690Y-106830714D01*
X81614690Y-106497380D02*
X81567071Y-106545000D01*
X81614690Y-106592619D01*
X81662309Y-106545000D01*
X81614690Y-106497380D01*
X81614690Y-106592619D01*
X81948023Y-106830714D02*
X82328976Y-106830714D01*
X82090880Y-106497380D02*
X82090880Y-107354523D01*
X82138500Y-107449761D01*
X82233738Y-107497380D01*
X82328976Y-107497380D01*
X82662309Y-107497380D02*
X82662309Y-106497380D01*
X83090880Y-107497380D02*
X83090880Y-106973571D01*
X83043261Y-106878333D01*
X82948023Y-106830714D01*
X82805166Y-106830714D01*
X82709928Y-106878333D01*
X82662309Y-106925952D01*
X83995642Y-106830714D02*
X83995642Y-107497380D01*
X83567071Y-106830714D02*
X83567071Y-107354523D01*
X83614690Y-107449761D01*
X83709928Y-107497380D01*
X83852785Y-107497380D01*
X83948023Y-107449761D01*
X83995642Y-107402142D01*
X84471833Y-107497380D02*
X84471833Y-106497380D01*
X84471833Y-106878333D02*
X84567071Y-106830714D01*
X84757547Y-106830714D01*
X84852785Y-106878333D01*
X84900404Y-106925952D01*
X84948023Y-107021190D01*
X84948023Y-107306904D01*
X84900404Y-107402142D01*
X84852785Y-107449761D01*
X84757547Y-107497380D01*
X84567071Y-107497380D01*
X84471833Y-107449761D01*
X85376595Y-107402142D02*
X85424214Y-107449761D01*
X85376595Y-107497380D01*
X85328976Y-107449761D01*
X85376595Y-107402142D01*
X85376595Y-107497380D01*
X86281357Y-107449761D02*
X86186119Y-107497380D01*
X85995642Y-107497380D01*
X85900404Y-107449761D01*
X85852785Y-107402142D01*
X85805166Y-107306904D01*
X85805166Y-107021190D01*
X85852785Y-106925952D01*
X85900404Y-106878333D01*
X85995642Y-106830714D01*
X86186119Y-106830714D01*
X86281357Y-106878333D01*
X86852785Y-107497380D02*
X86757547Y-107449761D01*
X86709928Y-107402142D01*
X86662309Y-107306904D01*
X86662309Y-107021190D01*
X86709928Y-106925952D01*
X86757547Y-106878333D01*
X86852785Y-106830714D01*
X86995642Y-106830714D01*
X87090880Y-106878333D01*
X87138500Y-106925952D01*
X87186119Y-107021190D01*
X87186119Y-107306904D01*
X87138500Y-107402142D01*
X87090880Y-107449761D01*
X86995642Y-107497380D01*
X86852785Y-107497380D01*
X87614690Y-107497380D02*
X87614690Y-106830714D01*
X87614690Y-106925952D02*
X87662309Y-106878333D01*
X87757547Y-106830714D01*
X87900404Y-106830714D01*
X87995642Y-106878333D01*
X88043261Y-106973571D01*
X88043261Y-107497380D01*
X88043261Y-106973571D02*
X88090880Y-106878333D01*
X88186119Y-106830714D01*
X88328976Y-106830714D01*
X88424214Y-106878333D01*
X88471833Y-106973571D01*
X88471833Y-107497380D01*
X89662309Y-106449761D02*
X88805166Y-107735476D01*
X89948023Y-107449761D02*
X90043261Y-107497380D01*
X90233738Y-107497380D01*
X90328976Y-107449761D01*
X90376595Y-107354523D01*
X90376595Y-107306904D01*
X90328976Y-107211666D01*
X90233738Y-107164047D01*
X90090880Y-107164047D01*
X89995642Y-107116428D01*
X89948023Y-107021190D01*
X89948023Y-106973571D01*
X89995642Y-106878333D01*
X90090880Y-106830714D01*
X90233738Y-106830714D01*
X90328976Y-106878333D01*
X91233738Y-107449761D02*
X91138500Y-107497380D01*
X90948023Y-107497380D01*
X90852785Y-107449761D01*
X90805166Y-107402142D01*
X90757547Y-107306904D01*
X90757547Y-107021190D01*
X90805166Y-106925952D01*
X90852785Y-106878333D01*
X90948023Y-106830714D01*
X91138500Y-106830714D01*
X91233738Y-106878333D01*
X91662309Y-107497380D02*
X91662309Y-106497380D01*
X92090880Y-107497380D02*
X92090880Y-106973571D01*
X92043261Y-106878333D01*
X91948023Y-106830714D01*
X91805166Y-106830714D01*
X91709928Y-106878333D01*
X91662309Y-106925952D01*
X92709928Y-107497380D02*
X92614690Y-107449761D01*
X92567071Y-107354523D01*
X92567071Y-106497380D01*
X93519452Y-107497380D02*
X93519452Y-106973571D01*
X93471833Y-106878333D01*
X93376595Y-106830714D01*
X93186119Y-106830714D01*
X93090880Y-106878333D01*
X93519452Y-107449761D02*
X93424214Y-107497380D01*
X93186119Y-107497380D01*
X93090880Y-107449761D01*
X93043261Y-107354523D01*
X93043261Y-107259285D01*
X93090880Y-107164047D01*
X93186119Y-107116428D01*
X93424214Y-107116428D01*
X93519452Y-107068809D01*
X93995642Y-107497380D02*
X93995642Y-106830714D01*
X93995642Y-107021190D02*
X94043261Y-106925952D01*
X94090880Y-106878333D01*
X94186119Y-106830714D01*
X94281357Y-106830714D01*
X94614690Y-107497380D02*
X94614690Y-106830714D01*
X94614690Y-106925952D02*
X94662309Y-106878333D01*
X94757547Y-106830714D01*
X94900404Y-106830714D01*
X94995642Y-106878333D01*
X95043261Y-106973571D01*
X95043261Y-107497380D01*
X95043261Y-106973571D02*
X95090880Y-106878333D01*
X95186119Y-106830714D01*
X95328976Y-106830714D01*
X95424214Y-106878333D01*
X95471833Y-106973571D01*
X95471833Y-107497380D01*
X96376595Y-107497380D02*
X96376595Y-106973571D01*
X96328976Y-106878333D01*
X96233738Y-106830714D01*
X96043261Y-106830714D01*
X95948023Y-106878333D01*
X96376595Y-107449761D02*
X96281357Y-107497380D01*
X96043261Y-107497380D01*
X95948023Y-107449761D01*
X95900404Y-107354523D01*
X95900404Y-107259285D01*
X95948023Y-107164047D01*
X96043261Y-107116428D01*
X96281357Y-107116428D01*
X96376595Y-107068809D01*
X96852785Y-106830714D02*
X96852785Y-107497380D01*
X96852785Y-106925952D02*
X96900404Y-106878333D01*
X96995642Y-106830714D01*
X97138499Y-106830714D01*
X97233738Y-106878333D01*
X97281357Y-106973571D01*
X97281357Y-107497380D01*
X97757547Y-106830714D02*
X97757547Y-107497380D01*
X97757547Y-106925952D02*
X97805166Y-106878333D01*
X97900404Y-106830714D01*
X98043261Y-106830714D01*
X98138499Y-106878333D01*
X98186119Y-106973571D01*
X98186119Y-107497380D01*
X99376595Y-106449761D02*
X98519452Y-107735476D01*
X100090880Y-107449761D02*
X99995642Y-107497380D01*
X99805166Y-107497380D01*
X99709928Y-107449761D01*
X99662309Y-107354523D01*
X99662309Y-106973571D01*
X99709928Y-106878333D01*
X99805166Y-106830714D01*
X99995642Y-106830714D01*
X100090880Y-106878333D01*
X100138499Y-106973571D01*
X100138499Y-107068809D01*
X99662309Y-107164047D01*
X100519452Y-107449761D02*
X100614690Y-107497380D01*
X100805166Y-107497380D01*
X100900404Y-107449761D01*
X100948023Y-107354523D01*
X100948023Y-107306904D01*
X100900404Y-107211666D01*
X100805166Y-107164047D01*
X100662309Y-107164047D01*
X100567071Y-107116428D01*
X100519452Y-107021190D01*
X100519452Y-106973571D01*
X100567071Y-106878333D01*
X100662309Y-106830714D01*
X100805166Y-106830714D01*
X100900404Y-106878333D01*
X101376595Y-106830714D02*
X101376595Y-107830714D01*
X101376595Y-106878333D02*
X101471833Y-106830714D01*
X101662309Y-106830714D01*
X101757547Y-106878333D01*
X101805166Y-106925952D01*
X101852785Y-107021190D01*
X101852785Y-107306904D01*
X101805166Y-107402142D01*
X101757547Y-107449761D01*
X101662309Y-107497380D01*
X101471833Y-107497380D01*
X101376595Y-107449761D01*
X102424214Y-106925952D02*
X102328976Y-106878333D01*
X102281357Y-106830714D01*
X102233738Y-106735476D01*
X102233738Y-106687857D01*
X102281357Y-106592619D01*
X102328976Y-106545000D01*
X102424214Y-106497380D01*
X102614690Y-106497380D01*
X102709928Y-106545000D01*
X102757547Y-106592619D01*
X102805166Y-106687857D01*
X102805166Y-106735476D01*
X102757547Y-106830714D01*
X102709928Y-106878333D01*
X102614690Y-106925952D01*
X102424214Y-106925952D01*
X102328976Y-106973571D01*
X102281357Y-107021190D01*
X102233738Y-107116428D01*
X102233738Y-107306904D01*
X102281357Y-107402142D01*
X102328976Y-107449761D01*
X102424214Y-107497380D01*
X102614690Y-107497380D01*
X102709928Y-107449761D01*
X102757547Y-107402142D01*
X102805166Y-107306904D01*
X102805166Y-107116428D01*
X102757547Y-107021190D01*
X102709928Y-106973571D01*
X102614690Y-106925952D01*
X103186119Y-106592619D02*
X103233738Y-106545000D01*
X103328976Y-106497380D01*
X103567071Y-106497380D01*
X103662309Y-106545000D01*
X103709928Y-106592619D01*
X103757547Y-106687857D01*
X103757547Y-106783095D01*
X103709928Y-106925952D01*
X103138499Y-107497380D01*
X103757547Y-107497380D01*
X104614690Y-106497380D02*
X104424214Y-106497380D01*
X104328976Y-106545000D01*
X104281357Y-106592619D01*
X104186119Y-106735476D01*
X104138499Y-106925952D01*
X104138499Y-107306904D01*
X104186119Y-107402142D01*
X104233738Y-107449761D01*
X104328976Y-107497380D01*
X104519452Y-107497380D01*
X104614690Y-107449761D01*
X104662309Y-107402142D01*
X104709928Y-107306904D01*
X104709928Y-107068809D01*
X104662309Y-106973571D01*
X104614690Y-106925952D01*
X104519452Y-106878333D01*
X104328976Y-106878333D01*
X104233738Y-106925952D01*
X104186119Y-106973571D01*
X104138499Y-107068809D01*
X105567071Y-106497380D02*
X105376595Y-106497380D01*
X105281357Y-106545000D01*
X105233738Y-106592619D01*
X105138499Y-106735476D01*
X105090880Y-106925952D01*
X105090880Y-107306904D01*
X105138499Y-107402142D01*
X105186119Y-107449761D01*
X105281357Y-107497380D01*
X105471833Y-107497380D01*
X105567071Y-107449761D01*
X105614690Y-107402142D01*
X105662309Y-107306904D01*
X105662309Y-107068809D01*
X105614690Y-106973571D01*
X105567071Y-106925952D01*
X105471833Y-106878333D01*
X105281357Y-106878333D01*
X105186119Y-106925952D01*
X105138499Y-106973571D01*
X105090880Y-107068809D01*
X106519452Y-107449761D02*
X106424214Y-107497380D01*
X106233738Y-107497380D01*
X106138499Y-107449761D01*
X106090880Y-107402142D01*
X106043261Y-107306904D01*
X106043261Y-107021190D01*
X106090880Y-106925952D01*
X106138499Y-106878333D01*
X106233738Y-106830714D01*
X106424214Y-106830714D01*
X106519452Y-106878333D01*
X106948023Y-107497380D02*
X106948023Y-106497380D01*
X107376595Y-107497380D02*
X107376595Y-106973571D01*
X107328976Y-106878333D01*
X107233738Y-106830714D01*
X107090880Y-106830714D01*
X106995642Y-106878333D01*
X106948023Y-106925952D01*
X108281357Y-107497380D02*
X108281357Y-106973571D01*
X108233738Y-106878333D01*
X108138499Y-106830714D01*
X107948023Y-106830714D01*
X107852785Y-106878333D01*
X108281357Y-107449761D02*
X108186119Y-107497380D01*
X107948023Y-107497380D01*
X107852785Y-107449761D01*
X107805166Y-107354523D01*
X107805166Y-107259285D01*
X107852785Y-107164047D01*
X107948023Y-107116428D01*
X108186119Y-107116428D01*
X108281357Y-107068809D01*
X108757547Y-106830714D02*
X108757547Y-107497380D01*
X108757547Y-106925952D02*
X108805166Y-106878333D01*
X108900404Y-106830714D01*
X109043261Y-106830714D01*
X109138499Y-106878333D01*
X109186119Y-106973571D01*
X109186119Y-107497380D01*
X109662309Y-106830714D02*
X109662309Y-107497380D01*
X109662309Y-106925952D02*
X109709928Y-106878333D01*
X109805166Y-106830714D01*
X109948023Y-106830714D01*
X110043261Y-106878333D01*
X110090880Y-106973571D01*
X110090880Y-107497380D01*
X110948023Y-107449761D02*
X110852785Y-107497380D01*
X110662309Y-107497380D01*
X110567071Y-107449761D01*
X110519452Y-107354523D01*
X110519452Y-106973571D01*
X110567071Y-106878333D01*
X110662309Y-106830714D01*
X110852785Y-106830714D01*
X110948023Y-106878333D01*
X110995642Y-106973571D01*
X110995642Y-107068809D01*
X110519452Y-107164047D01*
X111567071Y-107497380D02*
X111471833Y-107449761D01*
X111424214Y-107354523D01*
X111424214Y-106497380D01*
X111852785Y-106497380D02*
X112471833Y-106497380D01*
X112138499Y-106878333D01*
X112281357Y-106878333D01*
X112376595Y-106925952D01*
X112424214Y-106973571D01*
X112471833Y-107068809D01*
X112471833Y-107306904D01*
X112424214Y-107402142D01*
X112376595Y-107449761D01*
X112281357Y-107497380D01*
X111995642Y-107497380D01*
X111900404Y-107449761D01*
X111852785Y-107402142D01*
X112900404Y-107497380D02*
X112900404Y-106497380D01*
X113281357Y-106497380D01*
X113376595Y-106545000D01*
X113424214Y-106592619D01*
X113471833Y-106687857D01*
X113471833Y-106830714D01*
X113424214Y-106925952D01*
X113376595Y-106973571D01*
X113281357Y-107021190D01*
X112900404Y-107021190D01*
X113852785Y-107211666D02*
X114328976Y-107211666D01*
X113757547Y-107497380D02*
X114090880Y-106497380D01*
X114424214Y-107497380D01*
X115233738Y-107497380D02*
X114757547Y-107497380D01*
X114757547Y-106497380D01*
X116281357Y-106449761D02*
X115424214Y-107735476D01*
X116471833Y-106830714D02*
X116852785Y-106830714D01*
X116614690Y-106497380D02*
X116614690Y-107354523D01*
X116662309Y-107449761D01*
X116757547Y-107497380D01*
X116852785Y-107497380D01*
X117186119Y-107497380D02*
X117186119Y-106830714D01*
X117186119Y-107021190D02*
X117233738Y-106925952D01*
X117281357Y-106878333D01*
X117376595Y-106830714D01*
X117471833Y-106830714D01*
X118186119Y-107449761D02*
X118090880Y-107497380D01*
X117900404Y-107497380D01*
X117805166Y-107449761D01*
X117757547Y-107354523D01*
X117757547Y-106973571D01*
X117805166Y-106878333D01*
X117900404Y-106830714D01*
X118090880Y-106830714D01*
X118186119Y-106878333D01*
X118233738Y-106973571D01*
X118233738Y-107068809D01*
X117757547Y-107164047D01*
X119043261Y-107449761D02*
X118948023Y-107497380D01*
X118757547Y-107497380D01*
X118662309Y-107449761D01*
X118614690Y-107354523D01*
X118614690Y-106973571D01*
X118662309Y-106878333D01*
X118757547Y-106830714D01*
X118948023Y-106830714D01*
X119043261Y-106878333D01*
X119090880Y-106973571D01*
X119090880Y-107068809D01*
X118614690Y-107164047D01*
X120233738Y-106449761D02*
X119376595Y-107735476D01*
X120567071Y-106830714D02*
X120567071Y-107830714D01*
X120567071Y-106878333D02*
X120662309Y-106830714D01*
X120852785Y-106830714D01*
X120948023Y-106878333D01*
X120995642Y-106925952D01*
X121043261Y-107021190D01*
X121043261Y-107306904D01*
X120995642Y-107402142D01*
X120948023Y-107449761D01*
X120852785Y-107497380D01*
X120662309Y-107497380D01*
X120567071Y-107449761D01*
X121614690Y-107497380D02*
X121519452Y-107449761D01*
X121471833Y-107402142D01*
X121424214Y-107306904D01*
X121424214Y-107021190D01*
X121471833Y-106925952D01*
X121519452Y-106878333D01*
X121614690Y-106830714D01*
X121757547Y-106830714D01*
X121852785Y-106878333D01*
X121900404Y-106925952D01*
X121948023Y-107021190D01*
X121948023Y-107306904D01*
X121900404Y-107402142D01*
X121852785Y-107449761D01*
X121757547Y-107497380D01*
X121614690Y-107497380D01*
X122376595Y-106830714D02*
X122376595Y-107497380D01*
X122376595Y-106925952D02*
X122424214Y-106878333D01*
X122519452Y-106830714D01*
X122662309Y-106830714D01*
X122757547Y-106878333D01*
X122805166Y-106973571D01*
X122805166Y-107497380D01*
X123709928Y-106830714D02*
X123709928Y-107640238D01*
X123662309Y-107735476D01*
X123614690Y-107783095D01*
X123519452Y-107830714D01*
X123376595Y-107830714D01*
X123281357Y-107783095D01*
X123709928Y-107449761D02*
X123614690Y-107497380D01*
X123424214Y-107497380D01*
X123328976Y-107449761D01*
X123281357Y-107402142D01*
X123233738Y-107306904D01*
X123233738Y-107021190D01*
X123281357Y-106925952D01*
X123328976Y-106878333D01*
X123424214Y-106830714D01*
X123614690Y-106830714D01*
X123709928Y-106878333D01*
X74662309Y-109528333D02*
X74614690Y-109480714D01*
X74519452Y-109337857D01*
X74471833Y-109242619D01*
X74424214Y-109099761D01*
X74376595Y-108861666D01*
X74376595Y-108671190D01*
X74424214Y-108433095D01*
X74471833Y-108290238D01*
X74519452Y-108195000D01*
X74614690Y-108052142D01*
X74662309Y-108004523D01*
X75471833Y-109099761D02*
X75376595Y-109147380D01*
X75186119Y-109147380D01*
X75090880Y-109099761D01*
X75043261Y-109052142D01*
X74995642Y-108956904D01*
X74995642Y-108671190D01*
X75043261Y-108575952D01*
X75090880Y-108528333D01*
X75186119Y-108480714D01*
X75376595Y-108480714D01*
X75471833Y-108528333D01*
X75805166Y-109528333D02*
X75852785Y-109480714D01*
X75948023Y-109337857D01*
X75995642Y-109242619D01*
X76043261Y-109099761D01*
X76090880Y-108861666D01*
X76090880Y-108671190D01*
X76043261Y-108433095D01*
X75995642Y-108290238D01*
X75948023Y-108195000D01*
X75852785Y-108052142D01*
X75805166Y-108004523D01*
X77328976Y-109147380D02*
X77328976Y-108147380D01*
X77709928Y-108147380D01*
X77805166Y-108195000D01*
X77852785Y-108242619D01*
X77900404Y-108337857D01*
X77900404Y-108480714D01*
X77852785Y-108575952D01*
X77805166Y-108623571D01*
X77709928Y-108671190D01*
X77328976Y-108671190D01*
X78757547Y-109147380D02*
X78757547Y-108623571D01*
X78709928Y-108528333D01*
X78614690Y-108480714D01*
X78424214Y-108480714D01*
X78328976Y-108528333D01*
X78757547Y-109099761D02*
X78662309Y-109147380D01*
X78424214Y-109147380D01*
X78328976Y-109099761D01*
X78281357Y-109004523D01*
X78281357Y-108909285D01*
X78328976Y-108814047D01*
X78424214Y-108766428D01*
X78662309Y-108766428D01*
X78757547Y-108718809D01*
X79662309Y-108480714D02*
X79662309Y-109147380D01*
X79233738Y-108480714D02*
X79233738Y-109004523D01*
X79281357Y-109099761D01*
X79376595Y-109147380D01*
X79519452Y-109147380D01*
X79614690Y-109099761D01*
X79662309Y-109052142D01*
X80281357Y-109147380D02*
X80186119Y-109099761D01*
X80138500Y-109004523D01*
X80138500Y-108147380D01*
X81376595Y-109099761D02*
X81519452Y-109147380D01*
X81757547Y-109147380D01*
X81852785Y-109099761D01*
X81900404Y-109052142D01*
X81948023Y-108956904D01*
X81948023Y-108861666D01*
X81900404Y-108766428D01*
X81852785Y-108718809D01*
X81757547Y-108671190D01*
X81567071Y-108623571D01*
X81471833Y-108575952D01*
X81424214Y-108528333D01*
X81376595Y-108433095D01*
X81376595Y-108337857D01*
X81424214Y-108242619D01*
X81471833Y-108195000D01*
X81567071Y-108147380D01*
X81805166Y-108147380D01*
X81948023Y-108195000D01*
X82805166Y-109099761D02*
X82709928Y-109147380D01*
X82519452Y-109147380D01*
X82424214Y-109099761D01*
X82376595Y-109052142D01*
X82328976Y-108956904D01*
X82328976Y-108671190D01*
X82376595Y-108575952D01*
X82424214Y-108528333D01*
X82519452Y-108480714D01*
X82709928Y-108480714D01*
X82805166Y-108528333D01*
X83233738Y-109147380D02*
X83233738Y-108147380D01*
X83662309Y-109147380D02*
X83662309Y-108623571D01*
X83614690Y-108528333D01*
X83519452Y-108480714D01*
X83376595Y-108480714D01*
X83281357Y-108528333D01*
X83233738Y-108575952D01*
X84281357Y-109147380D02*
X84186119Y-109099761D01*
X84138500Y-109004523D01*
X84138500Y-108147380D01*
X85090880Y-109147380D02*
X85090880Y-108623571D01*
X85043261Y-108528333D01*
X84948023Y-108480714D01*
X84757547Y-108480714D01*
X84662309Y-108528333D01*
X85090880Y-109099761D02*
X84995642Y-109147380D01*
X84757547Y-109147380D01*
X84662309Y-109099761D01*
X84614690Y-109004523D01*
X84614690Y-108909285D01*
X84662309Y-108814047D01*
X84757547Y-108766428D01*
X84995642Y-108766428D01*
X85090880Y-108718809D01*
X85567071Y-109147380D02*
X85567071Y-108480714D01*
X85567071Y-108671190D02*
X85614690Y-108575952D01*
X85662309Y-108528333D01*
X85757547Y-108480714D01*
X85852785Y-108480714D01*
X86186119Y-109147380D02*
X86186119Y-108480714D01*
X86186119Y-108575952D02*
X86233738Y-108528333D01*
X86328976Y-108480714D01*
X86471833Y-108480714D01*
X86567071Y-108528333D01*
X86614690Y-108623571D01*
X86614690Y-109147380D01*
X86614690Y-108623571D02*
X86662309Y-108528333D01*
X86757547Y-108480714D01*
X86900404Y-108480714D01*
X86995642Y-108528333D01*
X87043261Y-108623571D01*
X87043261Y-109147380D01*
X87948023Y-109147380D02*
X87948023Y-108623571D01*
X87900404Y-108528333D01*
X87805166Y-108480714D01*
X87614690Y-108480714D01*
X87519452Y-108528333D01*
X87948023Y-109099761D02*
X87852785Y-109147380D01*
X87614690Y-109147380D01*
X87519452Y-109099761D01*
X87471833Y-109004523D01*
X87471833Y-108909285D01*
X87519452Y-108814047D01*
X87614690Y-108766428D01*
X87852785Y-108766428D01*
X87948023Y-108718809D01*
X88424214Y-108480714D02*
X88424214Y-109147380D01*
X88424214Y-108575952D02*
X88471833Y-108528333D01*
X88567071Y-108480714D01*
X88709928Y-108480714D01*
X88805166Y-108528333D01*
X88852785Y-108623571D01*
X88852785Y-109147380D01*
X89328976Y-108480714D02*
X89328976Y-109147380D01*
X89328976Y-108575952D02*
X89376595Y-108528333D01*
X89471833Y-108480714D01*
X89614690Y-108480714D01*
X89709928Y-108528333D01*
X89757547Y-108623571D01*
X89757547Y-109147380D01*
X90948023Y-108242619D02*
X90995642Y-108195000D01*
X91090880Y-108147380D01*
X91328976Y-108147380D01*
X91424214Y-108195000D01*
X91471833Y-108242619D01*
X91519452Y-108337857D01*
X91519452Y-108433095D01*
X91471833Y-108575952D01*
X90900404Y-109147380D01*
X91519452Y-109147380D01*
X92138500Y-108147380D02*
X92233738Y-108147380D01*
X92328976Y-108195000D01*
X92376595Y-108242619D01*
X92424214Y-108337857D01*
X92471833Y-108528333D01*
X92471833Y-108766428D01*
X92424214Y-108956904D01*
X92376595Y-109052142D01*
X92328976Y-109099761D01*
X92233738Y-109147380D01*
X92138500Y-109147380D01*
X92043261Y-109099761D01*
X91995642Y-109052142D01*
X91948023Y-108956904D01*
X91900404Y-108766428D01*
X91900404Y-108528333D01*
X91948023Y-108337857D01*
X91995642Y-108242619D01*
X92043261Y-108195000D01*
X92138500Y-108147380D01*
X92852785Y-108242619D02*
X92900404Y-108195000D01*
X92995642Y-108147380D01*
X93233738Y-108147380D01*
X93328976Y-108195000D01*
X93376595Y-108242619D01*
X93424214Y-108337857D01*
X93424214Y-108433095D01*
X93376595Y-108575952D01*
X92805166Y-109147380D01*
X93424214Y-109147380D01*
X93805166Y-108242619D02*
X93852785Y-108195000D01*
X93948023Y-108147380D01*
X94186119Y-108147380D01*
X94281357Y-108195000D01*
X94328976Y-108242619D01*
X94376595Y-108337857D01*
X94376595Y-108433095D01*
X94328976Y-108575952D01*
X93757547Y-109147380D01*
X94376595Y-109147380D01*
D11*
X74020142Y-101286857D02*
X74520142Y-101286857D01*
X74734428Y-102072571D02*
X74020142Y-102072571D01*
X74020142Y-100572571D01*
X74734428Y-100572571D01*
X75305857Y-102001142D02*
X75520142Y-102072571D01*
X75877285Y-102072571D01*
X76020142Y-102001142D01*
X76091571Y-101929714D01*
X76163000Y-101786857D01*
X76163000Y-101644000D01*
X76091571Y-101501142D01*
X76020142Y-101429714D01*
X75877285Y-101358285D01*
X75591571Y-101286857D01*
X75448714Y-101215428D01*
X75377285Y-101144000D01*
X75305857Y-101001142D01*
X75305857Y-100858285D01*
X75377285Y-100715428D01*
X75448714Y-100644000D01*
X75591571Y-100572571D01*
X75948714Y-100572571D01*
X76163000Y-100644000D01*
X76805857Y-102072571D02*
X76805857Y-100572571D01*
X77377285Y-100572571D01*
X77520142Y-100644000D01*
X77591571Y-100715428D01*
X77663000Y-100858285D01*
X77663000Y-101072571D01*
X77591571Y-101215428D01*
X77520142Y-101286857D01*
X77377285Y-101358285D01*
X76805857Y-101358285D01*
X78520142Y-101215428D02*
X78377285Y-101144000D01*
X78305857Y-101072571D01*
X78234428Y-100929714D01*
X78234428Y-100858285D01*
X78305857Y-100715428D01*
X78377285Y-100644000D01*
X78520142Y-100572571D01*
X78805857Y-100572571D01*
X78948714Y-100644000D01*
X79020142Y-100715428D01*
X79091571Y-100858285D01*
X79091571Y-100929714D01*
X79020142Y-101072571D01*
X78948714Y-101144000D01*
X78805857Y-101215428D01*
X78520142Y-101215428D01*
X78377285Y-101286857D01*
X78305857Y-101358285D01*
X78234428Y-101501142D01*
X78234428Y-101786857D01*
X78305857Y-101929714D01*
X78377285Y-102001142D01*
X78520142Y-102072571D01*
X78805857Y-102072571D01*
X78948714Y-102001142D01*
X79020142Y-101929714D01*
X79091571Y-101786857D01*
X79091571Y-101501142D01*
X79020142Y-101358285D01*
X78948714Y-101286857D01*
X78805857Y-101215428D01*
X79663000Y-100715428D02*
X79734428Y-100644000D01*
X79877285Y-100572571D01*
X80234428Y-100572571D01*
X80377285Y-100644000D01*
X80448714Y-100715428D01*
X80520142Y-100858285D01*
X80520142Y-101001142D01*
X80448714Y-101215428D01*
X79591571Y-102072571D01*
X80520142Y-102072571D01*
X81805857Y-100572571D02*
X81520142Y-100572571D01*
X81377285Y-100644000D01*
X81305857Y-100715428D01*
X81163000Y-100929714D01*
X81091571Y-101215428D01*
X81091571Y-101786857D01*
X81163000Y-101929714D01*
X81234428Y-102001142D01*
X81377285Y-102072571D01*
X81663000Y-102072571D01*
X81805857Y-102001142D01*
X81877285Y-101929714D01*
X81948714Y-101786857D01*
X81948714Y-101429714D01*
X81877285Y-101286857D01*
X81805857Y-101215428D01*
X81663000Y-101144000D01*
X81377285Y-101144000D01*
X81234428Y-101215428D01*
X81163000Y-101286857D01*
X81091571Y-101429714D01*
X83234428Y-100572571D02*
X82948714Y-100572571D01*
X82805857Y-100644000D01*
X82734428Y-100715428D01*
X82591571Y-100929714D01*
X82520142Y-101215428D01*
X82520142Y-101786857D01*
X82591571Y-101929714D01*
X82663000Y-102001142D01*
X82805857Y-102072571D01*
X83091571Y-102072571D01*
X83234428Y-102001142D01*
X83305857Y-101929714D01*
X83377285Y-101786857D01*
X83377285Y-101429714D01*
X83305857Y-101286857D01*
X83234428Y-101215428D01*
X83091571Y-101144000D01*
X82805857Y-101144000D01*
X82663000Y-101215428D01*
X82591571Y-101286857D01*
X82520142Y-101429714D01*
X84020142Y-101501142D02*
X85163000Y-101501142D01*
X85663000Y-100572571D02*
X86163000Y-102072571D01*
X86663000Y-100572571D01*
X87163000Y-102072571D02*
X87163000Y-100572571D01*
X87163000Y-101286857D02*
X88020142Y-101286857D01*
X88020142Y-102072571D02*
X88020142Y-100572571D01*
X89234428Y-101286857D02*
X88734428Y-101286857D01*
X88734428Y-102072571D02*
X88734428Y-100572571D01*
X89448714Y-100572571D01*
X90020142Y-101501142D02*
X91163000Y-101501142D01*
X91877285Y-102072571D02*
X91877285Y-100572571D01*
X92448714Y-100572571D01*
X92591571Y-100644000D01*
X92663000Y-100715428D01*
X92734428Y-100858285D01*
X92734428Y-101072571D01*
X92663000Y-101215428D01*
X92591571Y-101286857D01*
X92448714Y-101358285D01*
X91877285Y-101358285D01*
X93591571Y-102072571D02*
X93448714Y-102001142D01*
X93377285Y-101929714D01*
X93305857Y-101786857D01*
X93305857Y-101358285D01*
X93377285Y-101215428D01*
X93448714Y-101144000D01*
X93591571Y-101072571D01*
X93805857Y-101072571D01*
X93948714Y-101144000D01*
X94020142Y-101215428D01*
X94091571Y-101358285D01*
X94091571Y-101786857D01*
X94020142Y-101929714D01*
X93948714Y-102001142D01*
X93805857Y-102072571D01*
X93591571Y-102072571D01*
X94734428Y-101072571D02*
X94734428Y-102072571D01*
X94734428Y-101215428D02*
X94805857Y-101144000D01*
X94948714Y-101072571D01*
X95163000Y-101072571D01*
X95305857Y-101144000D01*
X95377285Y-101286857D01*
X95377285Y-102072571D01*
X96734428Y-101072571D02*
X96734428Y-102286857D01*
X96663000Y-102429714D01*
X96591571Y-102501142D01*
X96448714Y-102572571D01*
X96234428Y-102572571D01*
X96091571Y-102501142D01*
X96734428Y-102001142D02*
X96591571Y-102072571D01*
X96305857Y-102072571D01*
X96163000Y-102001142D01*
X96091571Y-101929714D01*
X96020142Y-101786857D01*
X96020142Y-101358285D01*
X96091571Y-101215428D01*
X96163000Y-101144000D01*
X96305857Y-101072571D01*
X96591571Y-101072571D01*
X96734428Y-101144000D01*
D12*
%TO.C,LogoCu\u002A\u002A*%
X121997604Y-100564026D02*
X121948070Y-100472010D01*
X121948070Y-100472010D02*
X121914358Y-100374581D01*
X121914358Y-100374581D02*
X121908788Y-100352172D01*
X120819364Y-100978772D02*
X120729706Y-100925548D01*
X120729706Y-100925548D02*
X120676770Y-100875290D01*
X126760266Y-84472012D02*
X126792044Y-84446752D01*
X118709778Y-100834548D02*
X118413996Y-100771806D01*
X126982713Y-84045858D02*
X126982713Y-84045858D01*
X116160186Y-90800772D02*
X116160186Y-96155814D01*
X121078480Y-100765288D02*
X121175816Y-100741236D01*
X121175816Y-100741236D02*
X121198258Y-100728620D01*
X122944432Y-100593360D02*
X122859551Y-100653489D01*
X122859551Y-100653489D02*
X122782282Y-100694398D01*
X122990064Y-97048048D02*
X123763334Y-96601524D01*
X121141222Y-99880386D02*
X121227592Y-99895054D01*
X121609746Y-100937216D02*
X121321298Y-100959216D01*
X122844210Y-100119130D02*
X122847468Y-100203872D01*
X122569612Y-100534692D02*
X122666483Y-100506127D01*
X122666483Y-100506127D02*
X122729318Y-100480098D01*
X121321298Y-100959216D02*
X121310706Y-100820696D01*
X119151414Y-100922550D02*
X119245934Y-99851052D01*
X118886596Y-99274156D02*
X118975624Y-99319726D01*
X118975624Y-99319726D02*
X118999856Y-99349934D01*
X118700814Y-99538160D02*
X118675242Y-99438613D01*
X118675242Y-99438613D02*
X118679630Y-99408602D01*
X122486500Y-99670162D02*
X122583936Y-99697500D01*
X122583936Y-99697500D02*
X122642132Y-99729644D01*
X122642132Y-99729644D02*
X122718521Y-99799158D01*
X122718521Y-99799158D02*
X122757022Y-99851868D01*
X121198258Y-100728620D02*
X121274725Y-100661780D01*
X121274725Y-100661780D02*
X121283816Y-100650398D01*
X113841188Y-87677540D02*
X113841188Y-94817052D01*
X125379136Y-83780224D02*
X125415909Y-83879663D01*
X125415909Y-83879663D02*
X125486883Y-83958022D01*
X125486883Y-83958022D02*
X125516026Y-83980672D01*
X118805928Y-88891632D02*
X119578384Y-88445108D01*
X125403580Y-98099990D02*
X125617931Y-97942841D01*
X125617931Y-97942841D02*
X125826728Y-97779813D01*
X125826728Y-97779813D02*
X126029890Y-97611063D01*
X126029890Y-97611063D02*
X126227334Y-97436751D01*
X126227334Y-97436751D02*
X126418979Y-97257036D01*
X126418979Y-97257036D02*
X126604742Y-97072078D01*
X126604742Y-97072078D02*
X126784541Y-96882035D01*
X126784541Y-96882035D02*
X126958295Y-96687067D01*
X126958295Y-96687067D02*
X127125920Y-96487334D01*
X127125920Y-96487334D02*
X127287335Y-96282993D01*
X127287335Y-96282993D02*
X127442459Y-96074204D01*
X127442459Y-96074204D02*
X127591208Y-95861128D01*
X127591208Y-95861128D02*
X127733501Y-95643922D01*
X127733501Y-95643922D02*
X127869256Y-95422746D01*
X127869256Y-95422746D02*
X127998391Y-95197759D01*
X127998391Y-95197759D02*
X128120823Y-94969120D01*
X128120823Y-94969120D02*
X128236471Y-94736989D01*
X128236471Y-94736989D02*
X128345253Y-94501525D01*
X128345253Y-94501525D02*
X128447086Y-94262886D01*
X128447086Y-94262886D02*
X128541888Y-94021233D01*
X128541888Y-94021233D02*
X128629578Y-93776724D01*
X128629578Y-93776724D02*
X128710073Y-93529519D01*
X128710073Y-93529519D02*
X128783291Y-93279776D01*
X128783291Y-93279776D02*
X128849151Y-93027655D01*
X128849151Y-93027655D02*
X128907570Y-92773316D01*
X128907570Y-92773316D02*
X128958466Y-92516916D01*
X128958466Y-92516916D02*
X129001756Y-92258616D01*
X129001756Y-92258616D02*
X129037360Y-91998575D01*
X129037360Y-91998575D02*
X129065195Y-91736952D01*
X129065195Y-91736952D02*
X129085178Y-91473906D01*
X129085178Y-91473906D02*
X129097229Y-91209596D01*
X129097229Y-91209596D02*
X129101264Y-90944182D01*
X126139368Y-83325552D02*
X126203169Y-83407654D01*
X126203169Y-83407654D02*
X126231444Y-83455924D01*
X125604842Y-84323714D02*
X125506765Y-84299341D01*
X125506765Y-84299341D02*
X125451654Y-84278084D01*
X123763334Y-96601524D02*
X124535790Y-96155814D01*
X122782282Y-100694398D02*
X122685521Y-100733510D01*
X122685521Y-100733510D02*
X122589281Y-100761297D01*
X122589281Y-100761297D02*
X122582650Y-100762844D01*
X122944432Y-100593360D02*
X122859551Y-100653489D01*
X122859551Y-100653489D02*
X122782282Y-100694398D01*
X121908788Y-100352172D02*
X121891006Y-100247496D01*
X121891006Y-100247496D02*
X121888724Y-100147090D01*
X121888724Y-100147090D02*
X121890862Y-100119130D01*
X118752964Y-99297786D02*
X118849787Y-99269711D01*
X118849787Y-99269711D02*
X118886596Y-99274156D01*
X126854786Y-87677540D02*
X126081516Y-88123250D01*
X124176450Y-83204956D02*
X124176450Y-83204956D01*
X118478368Y-92139532D02*
X118478368Y-97494574D01*
X119251638Y-90800772D02*
X118478368Y-90354246D01*
X121122480Y-87552872D02*
X121894122Y-87107162D01*
X126518262Y-84236528D02*
X126760266Y-84472012D01*
X126536190Y-85175208D02*
X126439530Y-85136707D01*
X126439530Y-85136707D02*
X126348368Y-85086182D01*
X126348368Y-85086182D02*
X126342260Y-85082318D01*
X124535790Y-96155814D02*
X124535790Y-90800772D01*
X120657214Y-100056388D02*
X120733706Y-99987332D01*
X120733706Y-99987332D02*
X120824254Y-99934164D01*
X127900210Y-86511524D02*
X128602590Y-86099222D01*
X126342260Y-85082318D02*
X126258974Y-85023564D01*
X126258974Y-85023564D02*
X126179958Y-84956389D01*
X126179958Y-84956389D02*
X126158110Y-84935649D01*
X129915276Y-90944182D02*
X129910939Y-91234224D01*
X129910939Y-91234224D02*
X129897835Y-91523062D01*
X129897835Y-91523062D02*
X129876056Y-91810520D01*
X129876056Y-91810520D02*
X129845690Y-92096424D01*
X129845690Y-92096424D02*
X129806829Y-92380601D01*
X129806829Y-92380601D02*
X129759561Y-92662876D01*
X129759561Y-92662876D02*
X129703978Y-92943074D01*
X129703978Y-92943074D02*
X129640169Y-93221023D01*
X129640169Y-93221023D02*
X129568225Y-93496548D01*
X129568225Y-93496548D02*
X129488235Y-93769474D01*
X129488235Y-93769474D02*
X129400290Y-94039628D01*
X129400290Y-94039628D02*
X129304480Y-94306835D01*
X129304480Y-94306835D02*
X129200894Y-94570922D01*
X129200894Y-94570922D02*
X129089624Y-94831714D01*
X129089624Y-94831714D02*
X128970759Y-95089037D01*
X128970759Y-95089037D02*
X128844389Y-95342717D01*
X128844389Y-95342717D02*
X128710605Y-95592580D01*
X128710605Y-95592580D02*
X128569496Y-95838452D01*
X128569496Y-95838452D02*
X128421152Y-96080158D01*
X128421152Y-96080158D02*
X128265665Y-96317525D01*
X128265665Y-96317525D02*
X128103123Y-96550379D01*
X128103123Y-96550379D02*
X127933617Y-96778544D01*
X127933617Y-96778544D02*
X127757237Y-97001848D01*
X127757237Y-97001848D02*
X127574074Y-97220116D01*
X127574074Y-97220116D02*
X127384217Y-97433174D01*
X127384217Y-97433174D02*
X127187756Y-97640848D01*
X127187756Y-97640848D02*
X126984782Y-97842964D01*
X126984782Y-97842964D02*
X126775384Y-98039347D01*
X126775384Y-98039347D02*
X126559654Y-98229824D01*
X126559654Y-98229824D02*
X126337680Y-98414220D01*
X126337680Y-98414220D02*
X126109553Y-98592361D01*
X126109553Y-98592361D02*
X125875364Y-98764074D01*
X125875364Y-98764074D02*
X125875364Y-98764074D01*
X120575732Y-100709066D02*
X120545509Y-100612647D01*
X120545509Y-100612647D02*
X120528178Y-100507065D01*
X120528178Y-100507065D02*
X120526842Y-100492322D01*
X122541094Y-100068612D02*
X122512819Y-99968605D01*
X122512819Y-99968605D02*
X122472648Y-99913794D01*
X122847468Y-100203872D02*
X122226570Y-100350542D01*
X122782282Y-100694398D02*
X122685521Y-100733510D01*
X122685521Y-100733510D02*
X122589281Y-100761297D01*
X122589281Y-100761297D02*
X122582650Y-100762844D01*
X125309060Y-95709288D02*
X126081516Y-95262764D01*
X125309060Y-90354246D02*
X125309060Y-95709288D01*
X122847468Y-100203872D02*
X122226570Y-100350542D01*
X126042404Y-83653926D02*
X125981034Y-83573983D01*
X125981034Y-83573983D02*
X125973144Y-83565110D01*
X117666800Y-100581138D02*
X117952804Y-99711718D01*
X125973144Y-83565110D02*
X125897174Y-83494105D01*
X125897174Y-83494105D02*
X125877810Y-83479554D01*
X126779008Y-83904892D02*
X126870510Y-83954558D01*
X126870510Y-83954558D02*
X126952246Y-84017313D01*
X126952246Y-84017313D02*
X126982713Y-84045858D01*
X125877810Y-83479554D02*
X125787201Y-83428405D01*
X125787201Y-83428405D02*
X125686017Y-83408359D01*
X125686017Y-83408359D02*
X125643954Y-83412738D01*
X125643954Y-83412738D02*
X125546651Y-83454310D01*
X125546651Y-83454310D02*
X125471492Y-83524228D01*
X125471492Y-83524228D02*
X125450026Y-83552072D01*
X125450026Y-83552072D02*
X125400524Y-83639085D01*
X125400524Y-83639085D02*
X125377531Y-83738338D01*
X125377531Y-83738338D02*
X125379136Y-83780224D01*
X121890862Y-100119130D02*
X121909768Y-100020838D01*
X121909768Y-100020838D02*
X121948880Y-99926649D01*
X121948880Y-99926649D02*
X121951974Y-99921128D01*
X118034286Y-89338158D02*
X118805928Y-88891632D01*
X122665762Y-87552872D02*
X121894122Y-87999398D01*
X119578384Y-90230392D02*
X120350024Y-90676918D01*
X114174452Y-87107162D02*
X114946094Y-87552872D01*
X122729318Y-100480098D02*
X122820125Y-100430781D01*
X122820125Y-100430781D02*
X122860506Y-100401876D01*
X122582650Y-100762844D02*
X122479673Y-100780353D01*
X122479673Y-100780353D02*
X122376370Y-100782592D01*
X122376370Y-100782592D02*
X122341460Y-100779140D01*
X126006552Y-83206586D02*
X126084557Y-83270207D01*
X126084557Y-83270207D02*
X126139368Y-83325552D01*
X124535790Y-90800772D02*
X125309060Y-90354246D01*
X118709778Y-100834548D02*
X118413996Y-100771806D01*
X118413996Y-100771806D02*
X118638074Y-99719866D01*
X124258748Y-83499924D02*
X124309268Y-83398886D01*
X121444336Y-97940284D02*
X122217608Y-97494574D01*
X118805928Y-89783868D02*
X119578384Y-90230392D01*
X125989440Y-84274824D02*
X126039639Y-84183720D01*
X126039639Y-84183720D02*
X126101692Y-84102835D01*
X126101692Y-84102835D02*
X126129590Y-84072748D01*
X124451048Y-83090880D02*
X124357583Y-83055137D01*
X124357583Y-83055137D02*
X124354898Y-83054214D01*
X121190110Y-99406158D02*
X121491596Y-99383342D01*
X122569612Y-100534692D02*
X122666483Y-100506127D01*
X122666483Y-100506127D02*
X122729318Y-100480098D01*
X114613644Y-95262764D02*
X115386914Y-95709288D01*
X120992922Y-101006476D02*
X120892288Y-101001094D01*
X120892288Y-101001094D02*
X120819364Y-100978772D01*
X124354898Y-83054214D02*
X124271786Y-83024066D01*
X128602590Y-86099222D02*
X128681917Y-86237033D01*
X128681917Y-86237033D02*
X128758862Y-86376053D01*
X128758862Y-86376053D02*
X128833417Y-86516248D01*
X128833417Y-86516248D02*
X128905572Y-86657584D01*
X128905572Y-86657584D02*
X128975318Y-86800030D01*
X128975318Y-86800030D02*
X129042646Y-86943552D01*
X129042646Y-86943552D02*
X129107548Y-87088116D01*
X129107548Y-87088116D02*
X129170015Y-87233689D01*
X129170015Y-87233689D02*
X129230037Y-87380239D01*
X129230037Y-87380239D02*
X129287605Y-87527732D01*
X129287605Y-87527732D02*
X129342711Y-87676135D01*
X129342711Y-87676135D02*
X129395346Y-87825416D01*
X129395346Y-87825416D02*
X129445501Y-87975540D01*
X129445501Y-87975540D02*
X129493166Y-88126474D01*
X129493166Y-88126474D02*
X129538333Y-88278187D01*
X129538333Y-88278187D02*
X129580993Y-88430644D01*
X129580993Y-88430644D02*
X129621137Y-88583812D01*
X129621137Y-88583812D02*
X129658756Y-88737659D01*
X129658756Y-88737659D02*
X129693840Y-88892151D01*
X129693840Y-88892151D02*
X129726382Y-89047255D01*
X129726382Y-89047255D02*
X129756372Y-89202937D01*
X129756372Y-89202937D02*
X129783801Y-89359166D01*
X129783801Y-89359166D02*
X129808660Y-89515907D01*
X129808660Y-89515907D02*
X129830941Y-89673128D01*
X129830941Y-89673128D02*
X129850634Y-89830795D01*
X129850634Y-89830795D02*
X129867730Y-89988875D01*
X129867730Y-89988875D02*
X129882220Y-90147336D01*
X129882220Y-90147336D02*
X129894096Y-90306143D01*
X129894096Y-90306143D02*
X129903349Y-90465265D01*
X129903349Y-90465265D02*
X129909969Y-90624667D01*
X129909969Y-90624667D02*
X129913947Y-90784317D01*
X129913947Y-90784317D02*
X129915276Y-90944182D01*
X124271786Y-83024066D02*
X124169062Y-83018135D01*
X124169062Y-83018135D02*
X124118598Y-83068066D01*
X122340646Y-100516766D02*
X122438935Y-100547424D01*
X122438935Y-100547424D02*
X122542671Y-100540356D01*
X122542671Y-100540356D02*
X122569612Y-100534692D01*
X118679630Y-99408602D02*
X118726380Y-99319455D01*
X118726380Y-99319455D02*
X118752964Y-99297786D01*
X124118598Y-83068066D02*
X124113710Y-83143030D01*
X126231444Y-83455924D02*
X126042404Y-83653926D01*
X122226570Y-100350542D02*
X122267557Y-100443677D01*
X122267557Y-100443677D02*
X122340646Y-100516766D01*
X123302956Y-99545492D02*
X123332702Y-99447973D01*
X123332702Y-99447973D02*
X123379550Y-99376824D01*
X124026522Y-100253576D02*
X123813038Y-99734532D01*
X126664932Y-84155860D02*
X126567576Y-84193909D01*
X126567576Y-84193909D02*
X126518262Y-84236528D01*
X122217608Y-97494574D02*
X122217608Y-92139532D01*
X125626842Y-84044228D02*
X125720932Y-84078695D01*
X125720932Y-84078695D02*
X125732770Y-84081710D01*
X118886596Y-99274156D02*
X118975624Y-99319726D01*
X118975624Y-99319726D02*
X118999856Y-99349934D01*
X124113710Y-83143030D02*
X124176450Y-83204956D01*
X121078480Y-100765288D02*
X121078480Y-100765288D01*
X124306008Y-100138686D02*
X124026522Y-100253576D01*
X124372010Y-83245698D02*
X124451048Y-83090880D01*
X124584678Y-83666148D02*
X124258748Y-83499924D01*
X122088050Y-99771200D02*
X122176840Y-99720650D01*
X122176840Y-99720650D02*
X122272837Y-99687119D01*
X122272837Y-99687119D02*
X122295016Y-99681568D01*
X118124732Y-99181264D02*
X118383848Y-99282304D01*
X121491596Y-99383342D02*
X121609746Y-100937216D01*
X121951974Y-99921128D02*
X122010845Y-99839747D01*
X122010845Y-99839747D02*
X122088050Y-99771200D01*
X124429048Y-82285018D02*
X124529774Y-82313424D01*
X124529774Y-82313424D02*
X124625104Y-82352371D01*
X124625104Y-82352371D02*
X124662088Y-82370574D01*
X120023278Y-99940684D02*
X120095737Y-100010192D01*
X120095737Y-100010192D02*
X120132466Y-100068612D01*
X126081516Y-95262764D02*
X126854786Y-94817052D01*
X119578384Y-83983116D02*
X118805928Y-84429643D01*
X122844210Y-100119130D02*
X122847468Y-100203872D01*
X125516026Y-83980672D02*
X125605094Y-84034173D01*
X125605094Y-84034173D02*
X125626842Y-84044228D01*
X111594710Y-90944182D02*
X111598744Y-91209594D01*
X111598744Y-91209594D02*
X111610795Y-91473897D01*
X111610795Y-91473897D02*
X111630778Y-91736933D01*
X111630778Y-91736933D02*
X111658613Y-91998542D01*
X111658613Y-91998542D02*
X111694217Y-92258566D01*
X111694217Y-92258566D02*
X111737507Y-92516846D01*
X111737507Y-92516846D02*
X111788403Y-92773224D01*
X111788403Y-92773224D02*
X111846822Y-93027541D01*
X111846822Y-93027541D02*
X111912682Y-93279637D01*
X111912682Y-93279637D02*
X111985900Y-93529354D01*
X111985900Y-93529354D02*
X112066395Y-93776534D01*
X112066395Y-93776534D02*
X112154085Y-94021018D01*
X112154085Y-94021018D02*
X112248887Y-94262646D01*
X112248887Y-94262646D02*
X112350720Y-94501261D01*
X112350720Y-94501261D02*
X112459502Y-94736703D01*
X112459502Y-94736703D02*
X112575150Y-94968814D01*
X112575150Y-94968814D02*
X112697582Y-95197435D01*
X112697582Y-95197435D02*
X112826717Y-95422407D01*
X112826717Y-95422407D02*
X112962472Y-95643571D01*
X112962472Y-95643571D02*
X113104765Y-95860769D01*
X113104765Y-95860769D02*
X113253514Y-96073842D01*
X113253514Y-96073842D02*
X113408638Y-96282631D01*
X113408638Y-96282631D02*
X113570053Y-96486978D01*
X113570053Y-96486978D02*
X113737678Y-96686723D01*
X113737678Y-96686723D02*
X113911432Y-96881708D01*
X113911432Y-96881708D02*
X114091231Y-97071775D01*
X114091231Y-97071775D02*
X114276994Y-97256764D01*
X114276994Y-97256764D02*
X114468639Y-97436517D01*
X114468639Y-97436517D02*
X114666083Y-97610874D01*
X114666083Y-97610874D02*
X114869245Y-97779678D01*
X114869245Y-97779678D02*
X115078042Y-97942769D01*
X115078042Y-97942769D02*
X115292394Y-98099990D01*
X125732770Y-84081710D02*
X125604842Y-84323714D01*
X124093338Y-99622086D02*
X124306008Y-100138686D01*
X124662088Y-82370574D02*
X124750008Y-82422384D01*
X124750008Y-82422384D02*
X124832663Y-82489264D01*
X124832663Y-82489264D02*
X124902830Y-82574191D01*
X124902830Y-82574191D02*
X124944832Y-82658208D01*
X125764548Y-83086806D02*
X125864041Y-83122845D01*
X125864041Y-83122845D02*
X125954449Y-83171285D01*
X125954449Y-83171285D02*
X126006552Y-83206586D01*
X117358796Y-99902386D02*
X118124732Y-99181264D01*
X124944832Y-82658208D02*
X124966979Y-82761251D01*
X124966979Y-82761251D02*
X124960617Y-82872308D01*
X124960617Y-82872308D02*
X124931118Y-82977663D01*
X124931118Y-82977663D02*
X124894314Y-83060732D01*
X114613644Y-88123250D02*
X113841188Y-87677540D01*
X122325164Y-99883646D02*
X122325164Y-99883646D01*
X122828728Y-100031130D02*
X122844210Y-100119130D01*
X123529478Y-99270896D02*
X123628620Y-99243827D01*
X123628620Y-99243827D02*
X123710370Y-99244006D01*
X125531508Y-83071326D02*
X125631369Y-83065778D01*
X125631369Y-83065778D02*
X125734448Y-83079356D01*
X125734448Y-83079356D02*
X125764548Y-83086806D01*
X121122480Y-84875352D02*
X121894122Y-84429643D01*
X115718548Y-87999398D02*
X116490190Y-88445922D01*
X124160154Y-82531094D02*
X124218822Y-82264646D01*
X124176450Y-83204956D02*
X124271914Y-83238554D01*
X124271914Y-83238554D02*
X124275044Y-83239180D01*
X123710370Y-99244006D02*
X123806797Y-99272308D01*
X123806797Y-99272308D02*
X123866816Y-99307564D01*
X120552102Y-100243800D02*
X120592850Y-100147738D01*
X120592850Y-100147738D02*
X120652893Y-100061233D01*
X120652893Y-100061233D02*
X120657214Y-100056388D01*
X122182570Y-100153354D02*
X122541094Y-100068612D01*
X117285460Y-98853704D02*
X117358796Y-99902386D01*
X124275044Y-83239180D02*
X124372010Y-83245698D01*
X123426810Y-99606604D02*
X123382793Y-99697995D01*
X123382793Y-99697995D02*
X123381180Y-99704384D01*
X122757022Y-99851868D02*
X122803058Y-99946110D01*
X122803058Y-99946110D02*
X122828728Y-100031130D01*
X115386914Y-95709288D02*
X115386914Y-90354246D01*
X118679630Y-99408602D02*
X118679630Y-99408602D01*
X122665762Y-86660636D02*
X123438218Y-87107162D01*
X121444336Y-90800772D02*
X120671880Y-91247296D01*
X123438218Y-87107162D02*
X122665762Y-87552872D01*
X126559820Y-83862522D02*
X126663185Y-83870519D01*
X126663185Y-83870519D02*
X126765410Y-83899430D01*
X126765410Y-83899430D02*
X126779008Y-83904892D01*
X123521330Y-99534084D02*
X123437835Y-99592298D01*
X123437835Y-99592298D02*
X123426810Y-99606604D01*
X122642132Y-99729644D02*
X122718521Y-99799158D01*
X122718521Y-99799158D02*
X122757022Y-99851868D01*
X124894314Y-83060732D02*
X124584678Y-83666148D01*
X122486500Y-99670162D02*
X122583936Y-99697500D01*
X122583936Y-99697500D02*
X122642132Y-99729644D01*
X124218822Y-82264646D02*
X124319045Y-82267498D01*
X124319045Y-82267498D02*
X124421886Y-82283516D01*
X124421886Y-82283516D02*
X124429048Y-82285018D01*
X116671896Y-100192464D02*
X116389966Y-100082464D01*
X126982713Y-84753942D02*
X126904106Y-84824643D01*
X126904106Y-84824643D02*
X126832786Y-84876982D01*
X122295016Y-99681568D02*
X122394424Y-99666392D01*
X122394424Y-99666392D02*
X122486500Y-99670162D01*
X123687554Y-99547122D02*
X123589393Y-99517512D01*
X123589393Y-99517512D02*
X123521330Y-99534084D01*
X124288896Y-82786950D02*
X124383745Y-82829090D01*
X124383745Y-82829090D02*
X124422528Y-82847248D01*
X117026346Y-98752666D02*
X117285460Y-98853704D01*
X124422528Y-82847248D02*
X124514796Y-82890594D01*
X124514796Y-82890594D02*
X124546382Y-82905100D01*
X126805082Y-84211268D02*
X126805082Y-84211268D01*
X118948522Y-99590308D02*
X118850093Y-99619183D01*
X118850093Y-99619183D02*
X118813262Y-99614752D01*
X119245934Y-99851052D02*
X119536012Y-99876312D01*
X121283816Y-100650398D02*
X121243074Y-100117500D01*
X123115546Y-82056866D02*
X123115546Y-82056866D01*
X121243074Y-100117500D02*
X121141609Y-100104874D01*
X121141609Y-100104874D02*
X121096406Y-100106908D01*
X124563494Y-82870878D02*
X124590780Y-82772045D01*
X124590780Y-82772045D02*
X124552519Y-82672564D01*
X124552519Y-82672564D02*
X124473136Y-82611348D01*
X124473136Y-82611348D02*
X124461640Y-82605244D01*
X126982713Y-84045858D02*
X127054379Y-84127277D01*
X127054379Y-84127277D02*
X127110629Y-84223526D01*
X127110629Y-84223526D02*
X127141173Y-84324598D01*
X127141173Y-84324598D02*
X127147309Y-84394605D01*
X122990064Y-91693008D02*
X122990064Y-97048048D01*
X119888018Y-100422246D02*
X119889770Y-100315257D01*
X119889770Y-100315257D02*
X119868805Y-100213624D01*
X119868805Y-100213624D02*
X119861944Y-100198168D01*
X124461640Y-82605244D02*
X124367489Y-82565521D01*
X124367489Y-82565521D02*
X124310082Y-82549022D01*
X122860506Y-100401876D02*
X122944432Y-100593360D01*
X116389966Y-100082464D02*
X117026346Y-98752666D01*
X124310082Y-82549022D02*
X124210531Y-82533149D01*
X124210531Y-82533149D02*
X124160154Y-82531094D01*
X116671896Y-100192464D02*
X116389966Y-100082464D01*
X124546382Y-82905100D02*
X124563494Y-82870878D01*
X123989856Y-82742136D02*
X124091421Y-82735761D01*
X124091421Y-82735761D02*
X124195613Y-82754296D01*
X124195613Y-82754296D02*
X124288896Y-82786950D01*
X124309268Y-83398886D02*
X124206140Y-83417227D01*
X124206140Y-83417227D02*
X124133264Y-83416812D01*
X124133264Y-83416812D02*
X124031309Y-83399700D01*
X124031309Y-83399700D02*
X123937380Y-83363677D01*
X123937380Y-83363677D02*
X123931188Y-83360588D01*
X120897588Y-100688694D02*
X120973366Y-100749806D01*
X120350024Y-88891632D02*
X119578384Y-89338158D01*
X120973366Y-100749806D02*
X121074825Y-100765493D01*
X121074825Y-100765493D02*
X121078480Y-100765288D01*
X125319652Y-83154438D02*
X125409619Y-83106043D01*
X125409619Y-83106043D02*
X125510739Y-83074963D01*
X125510739Y-83074963D02*
X125531508Y-83071326D01*
X122472648Y-99913794D02*
X122379064Y-99877081D01*
X122379064Y-99877081D02*
X122325164Y-99883646D01*
X117052420Y-99359712D02*
X116671896Y-100192464D01*
X121310706Y-100820696D02*
X121243067Y-100900785D01*
X121243067Y-100900785D02*
X121184406Y-100946180D01*
X123521330Y-99534084D02*
X123437835Y-99592298D01*
X123437835Y-99592298D02*
X123426810Y-99606604D01*
X122088050Y-99771200D02*
X122176840Y-99720650D01*
X122176840Y-99720650D02*
X122272837Y-99687119D01*
X122272837Y-99687119D02*
X122295016Y-99681568D01*
X123931188Y-83360588D02*
X123847839Y-83304028D01*
X123847839Y-83304028D02*
X123817928Y-83273402D01*
X118752964Y-99297786D02*
X118849787Y-99269711D01*
X118849787Y-99269711D02*
X118886596Y-99274156D01*
X123817928Y-83273402D02*
X123765353Y-83184706D01*
X123765353Y-83184706D02*
X123758444Y-83162586D01*
X123758444Y-83162586D02*
X123747585Y-83062777D01*
X123747585Y-83062777D02*
X123749482Y-83038732D01*
X123749482Y-83038732D02*
X123775860Y-82940110D01*
X123775860Y-82940110D02*
X123788594Y-82913248D01*
X126081516Y-88123250D02*
X125309060Y-88569776D01*
X117705912Y-91693008D02*
X118478368Y-92139532D01*
X123788594Y-82913248D02*
X123845398Y-82827959D01*
X123845398Y-82827959D02*
X123929188Y-82762913D01*
X123929188Y-82762913D02*
X123989856Y-82742136D01*
X125875364Y-98764074D02*
X125403580Y-98099990D01*
X120024094Y-98386808D02*
X120024094Y-91247296D01*
X122905322Y-82076422D02*
X122746430Y-82592206D01*
X122156496Y-83213104D02*
X122644576Y-81630712D01*
X122746430Y-82592206D02*
X122799394Y-82623170D01*
X121078480Y-100765288D02*
X121175816Y-100741236D01*
X121175816Y-100741236D02*
X121198258Y-100728620D01*
X119522976Y-100021352D02*
X119593953Y-99948749D01*
X119593953Y-99948749D02*
X119668014Y-99906460D01*
X122799394Y-82623170D02*
X122871098Y-82650060D01*
X122325164Y-99883646D02*
X122325164Y-99883646D01*
X117111902Y-100098760D02*
X117052420Y-99359712D01*
X125140390Y-83329626D02*
X125208221Y-83247565D01*
X125208221Y-83247565D02*
X125282836Y-83180357D01*
X125282836Y-83180357D02*
X125319652Y-83154438D01*
X118034286Y-87552872D02*
X117262646Y-87107162D01*
X122871098Y-82650060D02*
X122971088Y-82667290D01*
X122971088Y-82667290D02*
X123075379Y-82644748D01*
X123075379Y-82644748D02*
X123104954Y-82626430D01*
X123104954Y-82626430D02*
X123175603Y-82551837D01*
X123175603Y-82551837D02*
X123222444Y-82463198D01*
X123222444Y-82463198D02*
X123241030Y-82410500D01*
X120350024Y-87999398D02*
X121122480Y-87552872D01*
X122860506Y-100401876D02*
X122944432Y-100593360D01*
X123379550Y-99376824D02*
X123456352Y-99309393D01*
X123456352Y-99309393D02*
X123529478Y-99270896D01*
X118806742Y-86214112D02*
X119578384Y-85768402D01*
X121951974Y-99921128D02*
X122010845Y-99839747D01*
X122010845Y-99839747D02*
X122088050Y-99771200D01*
X121321298Y-100959216D02*
X121310706Y-100820696D01*
X123241030Y-82410500D02*
X123262018Y-82307833D01*
X123262018Y-82307833D02*
X123257506Y-82207644D01*
X123257506Y-82207644D02*
X123253252Y-82188868D01*
X116099074Y-83549628D02*
X116033933Y-83471239D01*
X116033933Y-83471239D02*
X116019220Y-83445330D01*
X116019220Y-83445330D02*
X115982727Y-83349649D01*
X115982727Y-83349649D02*
X115977855Y-83243546D01*
X115977855Y-83243546D02*
X115995590Y-83182142D01*
X123253252Y-82188868D02*
X123201103Y-82103199D01*
X123201103Y-82103199D02*
X123115546Y-82056866D01*
X117407684Y-100214466D02*
X117111902Y-100098760D01*
X122519908Y-83325552D02*
X122156496Y-83213104D01*
X119668014Y-99906460D02*
X119767241Y-99882000D01*
X119767241Y-99882000D02*
X119849720Y-99881202D01*
X122843394Y-82937694D02*
X122749710Y-82901849D01*
X122749710Y-82901849D02*
X122741540Y-82897766D01*
X123529478Y-99270896D02*
X123628620Y-99243827D01*
X123628620Y-99243827D02*
X123710370Y-99244006D01*
X119578384Y-85768402D02*
X120350024Y-85321876D01*
X122741540Y-82897766D02*
X122665762Y-82852952D01*
X126349594Y-84405196D02*
X126294969Y-84494192D01*
X126294969Y-84494192D02*
X126281148Y-84579571D01*
X120897588Y-100688694D02*
X120973366Y-100749806D01*
X120849514Y-100591730D02*
X120893816Y-100683728D01*
X120893816Y-100683728D02*
X120897588Y-100688694D01*
X120992922Y-101006476D02*
X120892288Y-101001094D01*
X120892288Y-101001094D02*
X120819364Y-100978772D01*
X122644576Y-81630712D02*
X122992508Y-81738268D01*
X122992508Y-81738268D02*
X122951766Y-81870270D01*
X123995560Y-99441194D02*
X124048727Y-99527668D01*
X124048727Y-99527668D02*
X124093338Y-99622086D01*
X123438218Y-85321876D02*
X122665762Y-84875352D01*
X123866816Y-99307564D02*
X123942555Y-99374885D01*
X123942555Y-99374885D02*
X123995560Y-99441194D01*
X123115546Y-82056866D02*
X123016086Y-82042138D01*
X123016086Y-82042138D02*
X123003100Y-82043014D01*
X117948730Y-100691138D02*
X117666800Y-100581138D01*
X126281148Y-84579571D02*
X126311787Y-84680822D01*
X126311787Y-84680822D02*
X126378461Y-84765759D01*
X126378461Y-84765759D02*
X126384632Y-84771868D01*
X123003100Y-82043014D02*
X122908229Y-82074686D01*
X122908229Y-82074686D02*
X122905322Y-82076422D01*
X121310706Y-100820696D02*
X121243067Y-100900785D01*
X121243067Y-100900785D02*
X121184406Y-100946180D01*
X116490190Y-88445922D02*
X117262646Y-88891632D01*
X119022671Y-99481122D02*
X118972509Y-99571357D01*
X118972509Y-99571357D02*
X118948522Y-99590308D01*
X117407684Y-100214466D02*
X117111902Y-100098760D01*
X122665762Y-82852952D02*
X122519908Y-83325552D01*
X121184406Y-100946180D02*
X121090904Y-100988871D01*
X121090904Y-100988871D02*
X120992922Y-101006476D01*
X117952804Y-99711718D02*
X117407684Y-100214466D01*
X123078064Y-82968656D02*
X122975997Y-82965311D01*
X122975997Y-82965311D02*
X122872995Y-82946176D01*
X122872995Y-82946176D02*
X122843394Y-82937694D01*
X119022671Y-99481122D02*
X118972509Y-99571357D01*
X118972509Y-99571357D02*
X118948522Y-99590308D01*
X123333106Y-81818936D02*
X123425470Y-81859599D01*
X123425470Y-81859599D02*
X123496070Y-81912642D01*
X123496070Y-81912642D02*
X123561001Y-81989503D01*
X123561001Y-81989503D02*
X123602812Y-82069902D01*
X123602812Y-82069902D02*
X123631535Y-82168293D01*
X123631535Y-82168293D02*
X123641811Y-82270524D01*
X123641811Y-82270524D02*
X123641924Y-82277684D01*
X125030390Y-83555332D02*
X125066483Y-83455069D01*
X125066483Y-83455069D02*
X125116757Y-83364123D01*
X125116757Y-83364123D02*
X125140390Y-83329626D01*
X123641924Y-82277684D02*
X123635371Y-82381020D01*
X123635371Y-82381020D02*
X123615163Y-82482003D01*
X123615163Y-82482003D02*
X123603628Y-82522132D01*
X123603628Y-82522132D02*
X123568236Y-82617708D01*
X123568236Y-82617708D02*
X123519979Y-82707903D01*
X123519979Y-82707903D02*
X123477330Y-82765766D01*
X126832786Y-84876982D02*
X126349594Y-84405196D01*
X123477330Y-82765766D02*
X123402933Y-82840761D01*
X123402933Y-82840761D02*
X123320643Y-82898913D01*
X123320643Y-82898913D02*
X123295624Y-82912434D01*
X126158110Y-84935649D02*
X126089967Y-84861709D01*
X126089967Y-84861709D02*
X126030784Y-84779305D01*
X126030784Y-84779305D02*
X125996774Y-84716460D01*
X123295624Y-82912434D02*
X123197294Y-82950354D01*
X123197294Y-82950354D02*
X123092520Y-82967863D01*
X123092520Y-82967863D02*
X123078064Y-82968656D01*
X122951766Y-81870270D02*
X123045181Y-81817288D01*
X123045181Y-81817288D02*
X123149425Y-81794472D01*
X123149425Y-81794472D02*
X123251176Y-81799514D01*
X123251176Y-81799514D02*
X123333106Y-81818936D01*
X121567376Y-81589156D02*
X121654414Y-81641980D01*
X121654414Y-81641980D02*
X121674118Y-81653526D01*
X117666800Y-100581138D02*
X117952804Y-99711718D01*
X118034286Y-86660636D02*
X118806742Y-86214112D01*
X121674118Y-81653526D02*
X121765072Y-81707101D01*
X121765072Y-81707101D02*
X121849306Y-81761898D01*
X126129590Y-84072748D02*
X126205875Y-84002922D01*
X126205875Y-84002922D02*
X126291443Y-83943271D01*
X126291443Y-83943271D02*
X126339002Y-83917930D01*
X117052420Y-99359712D02*
X116671896Y-100192464D01*
X121849306Y-81761898D02*
X121928847Y-81824517D01*
X121928847Y-81824517D02*
X121987012Y-81884938D01*
X117111902Y-100098760D02*
X117052420Y-99359712D01*
X121987012Y-81884938D02*
X122043435Y-81969243D01*
X122043435Y-81969243D02*
X122070124Y-82032420D01*
X122070124Y-82032420D02*
X122087335Y-82134518D01*
X122087335Y-82134518D02*
X122083160Y-82213312D01*
X122156496Y-81182556D02*
X122053012Y-81464486D01*
X122083160Y-82213312D02*
X122083160Y-82213312D01*
X123667184Y-100401060D02*
X123386884Y-100516766D01*
X118383848Y-99282304D02*
X117948730Y-100691138D01*
X117948730Y-100691138D02*
X117666800Y-100581138D01*
X121503004Y-81537822D02*
X121567376Y-81589156D01*
X116932640Y-89462012D02*
X116160186Y-89015486D01*
X120932626Y-82459390D02*
X121048330Y-82174200D01*
X122053012Y-81464486D02*
X121965923Y-81414692D01*
X121965923Y-81414692D02*
X121881084Y-81376486D01*
X120826698Y-100466246D02*
X120842512Y-100566121D01*
X120842512Y-100566121D02*
X120849514Y-100591730D01*
X122144272Y-100709880D02*
X122064215Y-100646119D01*
X122064215Y-100646119D02*
X121997604Y-100564026D01*
X121881084Y-81376486D02*
X121783814Y-81345115D01*
X121783814Y-81345115D02*
X121682266Y-81325966D01*
X120826698Y-100466246D02*
X120842512Y-100566121D01*
X120842512Y-100566121D02*
X120849514Y-100591730D01*
X117952804Y-99711718D02*
X117407684Y-100214466D01*
X121682266Y-81325966D02*
X121581001Y-81326036D01*
X121581001Y-81326036D02*
X121538042Y-81337374D01*
X121538042Y-81337374D02*
X121474281Y-81418215D01*
X121474281Y-81418215D02*
X121472040Y-81431078D01*
X121472040Y-81431078D02*
X121474486Y-81488932D01*
X121474486Y-81488932D02*
X121503004Y-81537822D01*
X121958492Y-81079074D02*
X122054743Y-81121050D01*
X122054743Y-81121050D02*
X122141256Y-81171684D01*
X122141256Y-81171684D02*
X122156496Y-81182556D01*
X123813038Y-99734532D02*
X123765634Y-99638662D01*
X123765634Y-99638662D02*
X123700508Y-99557706D01*
X123700508Y-99557706D02*
X123687554Y-99547122D01*
X121692044Y-82199460D02*
X121664392Y-82102688D01*
X121664392Y-82102688D02*
X121650488Y-82085384D01*
X121650488Y-82085384D02*
X121573016Y-82021549D01*
X121573016Y-82021549D02*
X121479325Y-81965741D01*
X121479325Y-81965741D02*
X121462262Y-81956642D01*
X115718548Y-86214112D02*
X114946094Y-86660636D01*
X118478368Y-97494574D02*
X119251638Y-97940284D01*
X121462262Y-81956642D02*
X121372102Y-81904948D01*
X121372102Y-81904948D02*
X121284023Y-81844944D01*
X121284023Y-81844944D02*
X121204102Y-81776170D01*
X121204102Y-81776170D02*
X121150184Y-81713824D01*
X120526842Y-100492322D02*
X120525863Y-100384597D01*
X120525863Y-100384597D02*
X120542105Y-100278888D01*
X120542105Y-100278888D02*
X120552102Y-100243800D01*
X124982314Y-86214112D02*
X124209858Y-85767586D01*
X121150184Y-81713824D02*
X121100515Y-81621529D01*
X121100515Y-81621529D02*
X121077818Y-81517880D01*
X121077818Y-81517880D02*
X121080924Y-81413968D01*
X121080924Y-81413968D02*
X121104019Y-81307632D01*
X121104019Y-81307632D02*
X121150280Y-81206998D01*
X121150280Y-81206998D02*
X121218221Y-81126473D01*
X121218221Y-81126473D02*
X121275668Y-81083962D01*
X121275668Y-81083962D02*
X121376391Y-81037691D01*
X121376391Y-81037691D02*
X121479146Y-81014566D01*
X121479146Y-81014566D02*
X121579203Y-81008107D01*
X121579203Y-81008107D02*
X121688677Y-81014398D01*
X121688677Y-81014398D02*
X121705082Y-81016332D01*
X121705082Y-81016332D02*
X121803810Y-81033248D01*
X121803810Y-81033248D02*
X121905813Y-81060584D01*
X121905813Y-81060584D02*
X121958492Y-81079074D01*
X121613006Y-82310276D02*
X121683017Y-82237171D01*
X121683017Y-82237171D02*
X121692044Y-82199460D01*
X121675748Y-82627244D02*
X121569401Y-82640611D01*
X121569401Y-82640611D02*
X121461914Y-82638421D01*
X121461914Y-82638421D02*
X121418262Y-82633764D01*
X120671880Y-91247296D02*
X120671880Y-98386808D01*
X121418262Y-82633764D02*
X121313454Y-82615422D01*
X121313454Y-82615422D02*
X121209781Y-82588206D01*
X121209781Y-82588206D02*
X121162406Y-82572652D01*
X121162406Y-82572652D02*
X121063751Y-82532221D01*
X121063751Y-82532221D02*
X120972358Y-82484202D01*
X120972358Y-82484202D02*
X120932626Y-82459390D01*
X113841188Y-94817052D02*
X114613644Y-95262764D01*
X119720164Y-100110168D02*
X119619227Y-100123239D01*
X119619227Y-100123239D02*
X119602828Y-100130538D01*
X120739512Y-81377300D02*
X120735438Y-81701602D01*
X121048330Y-82174200D02*
X121136921Y-82226105D01*
X121136921Y-82226105D02*
X121225964Y-82267906D01*
X122977840Y-99521862D02*
X123247548Y-99411046D01*
X121225964Y-82267906D02*
X121324219Y-82302017D01*
X121324219Y-82302017D02*
X121423679Y-82322750D01*
X121423679Y-82322750D02*
X121445966Y-82325758D01*
X126384632Y-84771868D02*
X126463234Y-84841094D01*
X126463234Y-84841094D02*
X126523966Y-84885944D01*
X123247548Y-99411046D02*
X123302956Y-99545492D01*
X121445966Y-82325758D02*
X121547771Y-82326988D01*
X121547771Y-82326988D02*
X121613006Y-82310276D01*
X121877824Y-82544946D02*
X121784119Y-82594040D01*
X121784119Y-82594040D02*
X121682974Y-82625611D01*
X121682974Y-82625611D02*
X121675748Y-82627244D01*
X123386884Y-100516766D02*
X122977840Y-99521862D01*
X120373654Y-81821380D02*
X120385062Y-82544132D01*
X117262646Y-88891632D02*
X118034286Y-89338158D01*
X123813038Y-99734532D02*
X123765634Y-99638662D01*
X123765634Y-99638662D02*
X123700508Y-99557706D01*
X123700508Y-99557706D02*
X123687554Y-99547122D01*
X120882922Y-100212836D02*
X120838471Y-100308087D01*
X120838471Y-100308087D02*
X120824950Y-100408972D01*
X120824950Y-100408972D02*
X120826698Y-100466246D01*
X120385062Y-82544132D02*
X120004538Y-82550650D01*
X120004538Y-82550650D02*
X119985796Y-81385448D01*
X126854786Y-94817052D02*
X126854786Y-87677540D01*
X119985796Y-81385448D02*
X120354098Y-81379744D01*
X120354098Y-81379744D02*
X120357358Y-81574488D01*
X116490190Y-85767586D02*
X115718548Y-86214112D01*
X122083160Y-82213312D02*
X122059938Y-82312415D01*
X122059938Y-82312415D02*
X122017160Y-82402352D01*
X121190110Y-99406158D02*
X121491596Y-99383342D01*
X122017160Y-82402352D02*
X121951660Y-82485099D01*
X121951660Y-82485099D02*
X121877824Y-82544946D01*
X120693066Y-81367522D02*
X120739512Y-81377300D01*
X118945262Y-81937902D02*
X119279342Y-81888196D01*
X110779884Y-90944182D02*
X110781212Y-90784317D01*
X110781212Y-90784317D02*
X110785190Y-90624667D01*
X110785190Y-90624667D02*
X110791810Y-90465265D01*
X110791810Y-90465265D02*
X110801063Y-90306143D01*
X110801063Y-90306143D02*
X110812939Y-90147336D01*
X110812939Y-90147336D02*
X110827429Y-89988875D01*
X110827429Y-89988875D02*
X110844525Y-89830795D01*
X110844525Y-89830795D02*
X110864218Y-89673128D01*
X110864218Y-89673128D02*
X110886499Y-89515907D01*
X110886499Y-89515907D02*
X110911358Y-89359166D01*
X110911358Y-89359166D02*
X110938787Y-89202937D01*
X110938787Y-89202937D02*
X110968777Y-89047255D01*
X110968777Y-89047255D02*
X111001319Y-88892151D01*
X111001319Y-88892151D02*
X111036403Y-88737659D01*
X111036403Y-88737659D02*
X111074022Y-88583812D01*
X111074022Y-88583812D02*
X111114166Y-88430644D01*
X111114166Y-88430644D02*
X111156826Y-88278187D01*
X111156826Y-88278187D02*
X111201993Y-88126474D01*
X111201993Y-88126474D02*
X111249658Y-87975540D01*
X111249658Y-87975540D02*
X111299813Y-87825416D01*
X111299813Y-87825416D02*
X111352448Y-87676135D01*
X111352448Y-87676135D02*
X111407554Y-87527732D01*
X111407554Y-87527732D02*
X111465122Y-87380239D01*
X111465122Y-87380239D02*
X111525144Y-87233689D01*
X111525144Y-87233689D02*
X111587611Y-87088116D01*
X111587611Y-87088116D02*
X111652513Y-86943552D01*
X111652513Y-86943552D02*
X111719841Y-86800030D01*
X111719841Y-86800030D02*
X111789587Y-86657584D01*
X111789587Y-86657584D02*
X111861742Y-86516248D01*
X111861742Y-86516248D02*
X111936297Y-86376053D01*
X111936297Y-86376053D02*
X112013242Y-86237033D01*
X112013242Y-86237033D02*
X112092570Y-86099222D01*
X123381180Y-99704384D02*
X123667184Y-100401060D01*
X119098450Y-81693454D02*
X119098450Y-81693454D01*
X126523966Y-84885944D02*
X126609647Y-84938539D01*
X126609647Y-84938539D02*
X126673080Y-84966612D01*
X120690622Y-81702416D02*
X120586094Y-81711264D01*
X120586094Y-81711264D02*
X120488764Y-81737925D01*
X120488764Y-81737925D02*
X120398636Y-81794378D01*
X120398636Y-81794378D02*
X120373654Y-81821380D01*
X122217608Y-92139532D02*
X122990064Y-91693008D01*
X120735438Y-81701602D02*
X120690622Y-81702416D01*
X120357358Y-81574488D02*
X120401348Y-81484233D01*
X120401348Y-81484233D02*
X120456766Y-81422930D01*
X120456766Y-81422930D02*
X120546943Y-81377178D01*
X120546943Y-81377178D02*
X120636844Y-81365078D01*
X120185430Y-100246244D02*
X120193272Y-100347689D01*
X120193272Y-100347689D02*
X120189504Y-100451580D01*
X124306008Y-100138686D02*
X124026522Y-100253576D01*
X120636844Y-81365078D02*
X120693066Y-81367522D01*
X119219044Y-81727676D02*
X119125010Y-81691305D01*
X119125010Y-81691305D02*
X119098450Y-81693454D01*
X119517272Y-100195724D02*
X119451270Y-100946180D01*
X120552102Y-100243800D02*
X120592850Y-100147738D01*
X120592850Y-100147738D02*
X120652893Y-100061233D01*
X120652893Y-100061233D02*
X120657214Y-100056388D01*
X121036108Y-99880386D02*
X121138233Y-99880090D01*
X121138233Y-99880090D02*
X121141222Y-99880386D01*
X118837706Y-81532932D02*
X118933961Y-81487074D01*
X118933961Y-81487074D02*
X119033632Y-81459339D01*
X119033632Y-81459339D02*
X119074820Y-81452264D01*
X120189504Y-100451580D02*
X120140614Y-101008106D01*
X116932640Y-96601524D02*
X117705912Y-97048048D01*
X123381180Y-99704384D02*
X123667184Y-100401060D01*
X126792044Y-84446752D02*
X126845441Y-84359439D01*
X126845441Y-84359439D02*
X126851528Y-84327788D01*
X119619124Y-82256498D02*
X119702238Y-82491984D01*
X122472648Y-99913794D02*
X122379064Y-99877081D01*
X122379064Y-99877081D02*
X122325164Y-99883646D01*
X119098450Y-81693454D02*
X119002629Y-81733206D01*
X119002629Y-81733206D02*
X118969708Y-81771676D01*
X118969708Y-81771676D02*
X118941534Y-81872489D01*
X118941534Y-81872489D02*
X118945262Y-81937902D01*
X122201310Y-99979796D02*
X122178401Y-100082539D01*
X122178401Y-100082539D02*
X122182570Y-100153354D01*
X119074820Y-81452264D02*
X119074820Y-81452264D01*
X119279342Y-81888196D02*
X119277712Y-81847456D01*
X119277712Y-81847456D02*
X119240586Y-81751662D01*
X119240586Y-81751662D02*
X119219044Y-81727676D01*
X118671482Y-81681230D02*
X118740268Y-81603504D01*
X118740268Y-81603504D02*
X118825168Y-81540246D01*
X118825168Y-81540246D02*
X118837706Y-81532932D01*
X119511568Y-82590578D02*
X119414784Y-82621589D01*
X119414784Y-82621589D02*
X119313205Y-82643771D01*
X119313205Y-82643771D02*
X119283416Y-82648430D01*
X119283416Y-82648430D02*
X119183303Y-82658000D01*
X119183303Y-82658000D02*
X119081804Y-82655456D01*
X119081804Y-82655456D02*
X119011264Y-82644356D01*
X117262646Y-87107162D02*
X118034286Y-86660636D01*
X120132466Y-100068612D02*
X120168586Y-100163090D01*
X120168586Y-100163090D02*
X120185430Y-100246244D01*
X118034286Y-84875352D02*
X117262646Y-85321876D01*
X122295016Y-99681568D02*
X122295016Y-99681568D01*
X122226570Y-100350542D02*
X122267557Y-100443677D01*
X122267557Y-100443677D02*
X122340646Y-100516766D01*
X121096406Y-100106908D02*
X120998278Y-100126889D01*
X120998278Y-100126889D02*
X120911258Y-100180088D01*
X120911258Y-100180088D02*
X120882922Y-100212836D01*
X119011264Y-82644356D02*
X118910800Y-82613673D01*
X118910800Y-82613673D02*
X118817232Y-82564291D01*
X118817232Y-82564291D02*
X118800223Y-82552280D01*
X121894122Y-87999398D02*
X121121666Y-88445922D01*
X117705912Y-89908536D02*
X116932640Y-89462012D01*
X121036108Y-99880386D02*
X121138233Y-99880090D01*
X121138233Y-99880090D02*
X121141222Y-99880386D01*
X118800223Y-82552280D02*
X118724012Y-82482431D01*
X118724012Y-82482431D02*
X118662336Y-82396972D01*
X118662336Y-82396972D02*
X118655184Y-82384426D01*
X118655184Y-82384426D02*
X118613007Y-82289307D01*
X118613007Y-82289307D02*
X118586411Y-82191051D01*
X118586411Y-82191051D02*
X118579406Y-82150570D01*
X121121666Y-88445922D02*
X120350024Y-88891632D01*
X114946094Y-86660636D02*
X114174452Y-87107162D01*
X122990064Y-89908536D02*
X122217608Y-90354246D01*
X121894122Y-84429643D02*
X121122480Y-83983116D01*
X118579406Y-82150570D02*
X118570052Y-82047988D01*
X118570052Y-82047988D02*
X118574184Y-81943663D01*
X118574184Y-81943663D02*
X118582666Y-81890642D01*
X118582666Y-81890642D02*
X118611609Y-81792118D01*
X118611609Y-81792118D02*
X118659700Y-81698445D01*
X118659700Y-81698445D02*
X118671482Y-81681230D01*
X119702238Y-82491984D02*
X119613013Y-82545558D01*
X119613013Y-82545558D02*
X119518266Y-82588038D01*
X119518266Y-82588038D02*
X119511568Y-82590578D01*
X118679630Y-99408602D02*
X118726380Y-99319455D01*
X118726380Y-99319455D02*
X118752964Y-99297786D01*
X125018982Y-83782668D02*
X125011843Y-83676713D01*
X125011843Y-83676713D02*
X125025090Y-83576852D01*
X125025090Y-83576852D02*
X125030390Y-83555332D01*
X117599984Y-82445538D02*
X117772728Y-82981694D01*
X117358796Y-99902386D02*
X118124732Y-99181264D01*
X119888018Y-100422246D02*
X119889770Y-100315257D01*
X119889770Y-100315257D02*
X119868805Y-100213624D01*
X119868805Y-100213624D02*
X119861944Y-100198168D01*
X117285460Y-98853704D02*
X117358796Y-99902386D01*
X129101264Y-90944182D02*
X129100047Y-90797907D01*
X129100047Y-90797907D02*
X129096405Y-90651830D01*
X129096405Y-90651830D02*
X129090344Y-90505980D01*
X129090344Y-90505980D02*
X129081873Y-90360388D01*
X129081873Y-90360388D02*
X129071001Y-90215085D01*
X129071001Y-90215085D02*
X129057735Y-90070100D01*
X129057735Y-90070100D02*
X129042085Y-89925464D01*
X129042085Y-89925464D02*
X129024059Y-89781207D01*
X129024059Y-89781207D02*
X129003664Y-89637360D01*
X129003664Y-89637360D02*
X128980909Y-89493952D01*
X128980909Y-89493952D02*
X128955804Y-89351014D01*
X128955804Y-89351014D02*
X128928355Y-89208576D01*
X128928355Y-89208576D02*
X128898571Y-89066669D01*
X128898571Y-89066669D02*
X128866461Y-88925323D01*
X128866461Y-88925323D02*
X128832033Y-88784568D01*
X128832033Y-88784568D02*
X128795296Y-88644435D01*
X128795296Y-88644435D02*
X128756257Y-88504953D01*
X128756257Y-88504953D02*
X128714926Y-88366153D01*
X128714926Y-88366153D02*
X128671310Y-88228065D01*
X128671310Y-88228065D02*
X128625417Y-88090720D01*
X128625417Y-88090720D02*
X128577257Y-87954148D01*
X128577257Y-87954148D02*
X128526838Y-87818378D01*
X128526838Y-87818378D02*
X128474167Y-87683443D01*
X128474167Y-87683443D02*
X128419254Y-87549371D01*
X128419254Y-87549371D02*
X128362106Y-87416193D01*
X128362106Y-87416193D02*
X128302732Y-87283939D01*
X128302732Y-87283939D02*
X128241140Y-87152640D01*
X128241140Y-87152640D02*
X128177339Y-87022326D01*
X128177339Y-87022326D02*
X128111338Y-86893027D01*
X128111338Y-86893027D02*
X128043143Y-86764773D01*
X128043143Y-86764773D02*
X127972764Y-86637595D01*
X127972764Y-86637595D02*
X127900210Y-86511524D01*
X117772728Y-82981694D02*
X117410944Y-83099030D01*
X121890862Y-100119130D02*
X121909768Y-100020838D01*
X121909768Y-100020838D02*
X121948880Y-99926649D01*
X121948880Y-99926649D02*
X121951974Y-99921128D01*
X124093338Y-99622086D02*
X124306008Y-100138686D01*
X120657214Y-100056388D02*
X120733706Y-99987332D01*
X120733706Y-99987332D02*
X120824254Y-99934164D01*
X121997604Y-100564026D02*
X121948070Y-100472010D01*
X121948070Y-100472010D02*
X121914358Y-100374581D01*
X121914358Y-100374581D02*
X121908788Y-100352172D01*
X122201310Y-99979796D02*
X122178401Y-100082539D01*
X122178401Y-100082539D02*
X122182570Y-100153354D01*
X122325164Y-99883646D02*
X122234626Y-99931182D01*
X122234626Y-99931182D02*
X122201310Y-99979796D01*
X122582650Y-100762844D02*
X122479673Y-100780353D01*
X122479673Y-100780353D02*
X122376370Y-100782592D01*
X122376370Y-100782592D02*
X122341460Y-100779140D01*
X117026346Y-98752666D02*
X117285460Y-98853704D01*
X118977856Y-82174200D02*
X119015354Y-82271517D01*
X119015354Y-82271517D02*
X119074820Y-82333906D01*
X119861944Y-100198168D02*
X119788441Y-100127126D01*
X119788441Y-100127126D02*
X119720164Y-100110168D01*
X120140614Y-101008106D02*
X119839128Y-100981218D01*
X115292394Y-98099990D02*
X114820610Y-98764074D01*
X123386884Y-100516766D02*
X122977840Y-99521862D01*
X118638074Y-99719866D02*
X118933856Y-99782608D01*
X121243074Y-100117500D02*
X121141609Y-100104874D01*
X121141609Y-100104874D02*
X121096406Y-100106908D01*
X119074820Y-82333906D02*
X119173881Y-82370958D01*
X119173881Y-82370958D02*
X119281361Y-82369354D01*
X119281361Y-82369354D02*
X119289934Y-82368130D01*
X119289934Y-82368130D02*
X119392497Y-82347583D01*
X119392497Y-82347583D02*
X119465122Y-82326574D01*
X119465122Y-82326574D02*
X119558366Y-82290189D01*
X119558366Y-82290189D02*
X119619124Y-82256498D01*
X122665762Y-84875352D02*
X121894122Y-85321876D01*
X121609746Y-100937216D02*
X121321298Y-100959216D01*
X117705912Y-97048048D02*
X117705912Y-91693008D01*
X118413996Y-100771806D02*
X118638074Y-99719866D01*
X123667184Y-100401060D02*
X123386884Y-100516766D01*
X119646014Y-82074792D02*
X118977856Y-82174200D01*
X116160186Y-96155814D02*
X116932640Y-96601524D01*
X120575732Y-100709066D02*
X120545509Y-100612647D01*
X120545509Y-100612647D02*
X120528178Y-100507065D01*
X120528178Y-100507065D02*
X120526842Y-100492322D01*
X123302956Y-99545492D02*
X123332702Y-99447973D01*
X123332702Y-99447973D02*
X123379550Y-99376824D01*
X118130436Y-82866804D02*
X117599984Y-82445538D01*
X119839128Y-100981218D02*
X119888018Y-100422246D01*
X116895974Y-81501154D02*
X117257756Y-81384634D01*
X119536012Y-99876312D02*
X119522976Y-100021352D01*
X121894122Y-85321876D02*
X121121666Y-85767586D01*
X119451270Y-100946180D02*
X119151414Y-100922550D01*
X112092570Y-86099222D02*
X112794950Y-86511524D01*
X120189504Y-100451580D02*
X120140614Y-101008106D01*
X119517272Y-100195724D02*
X119451270Y-100946180D01*
X125996774Y-84716460D02*
X125960612Y-84618137D01*
X125960612Y-84618137D02*
X125943676Y-84513257D01*
X125943676Y-84513257D02*
X125942996Y-84492382D01*
X126673080Y-84966612D02*
X126536190Y-85175208D01*
X121096406Y-100106908D02*
X120998278Y-100126889D01*
X120998278Y-100126889D02*
X120911258Y-100180088D01*
X120911258Y-100180088D02*
X120882922Y-100212836D01*
X123426810Y-99606604D02*
X123382793Y-99697995D01*
X123382793Y-99697995D02*
X123381180Y-99704384D01*
X119536012Y-99876312D02*
X119522976Y-100021352D01*
X117257756Y-81384634D02*
X117582058Y-82391760D01*
X119522976Y-100021352D02*
X119593953Y-99948749D01*
X119593953Y-99948749D02*
X119668014Y-99906460D01*
X122217608Y-90354246D02*
X121444336Y-90800772D01*
X121491596Y-99383342D02*
X121609746Y-100937216D01*
X117582058Y-82391760D02*
X117747468Y-81765972D01*
X125107798Y-83999412D02*
X125056595Y-83906704D01*
X125056595Y-83906704D02*
X125024636Y-83810663D01*
X125024636Y-83810663D02*
X125018982Y-83782668D01*
X120132466Y-100068612D02*
X120168586Y-100163090D01*
X120168586Y-100163090D02*
X120185430Y-100246244D01*
X117747468Y-81765972D02*
X118139400Y-81639674D01*
X118124732Y-99181264D02*
X118383848Y-99282304D01*
X118139400Y-81639674D02*
X117957692Y-82300498D01*
X119602828Y-100130538D02*
X119521616Y-100191017D01*
X119521616Y-100191017D02*
X119517272Y-100195724D01*
X116389966Y-100082464D02*
X117026346Y-98752666D01*
X122144272Y-100709880D02*
X122064215Y-100646119D01*
X122064215Y-100646119D02*
X121997604Y-100564026D01*
X117957692Y-82300498D02*
X118544368Y-82733172D01*
X118544368Y-82733172D02*
X118130436Y-82866804D01*
X117410944Y-83099030D02*
X116895974Y-81501154D01*
X116334558Y-83267698D02*
X116393226Y-83314958D01*
X116393226Y-83314958D02*
X116481226Y-83298662D01*
X116627080Y-83163400D02*
X116546412Y-83009398D01*
X118679630Y-99408602D02*
X118679630Y-99408602D01*
X124535790Y-89015486D02*
X123763334Y-89462012D01*
X121141222Y-99880386D02*
X121227592Y-99895054D01*
X115386914Y-90354246D02*
X116160186Y-90800772D01*
X120973366Y-100749806D02*
X121074825Y-100765493D01*
X121074825Y-100765493D02*
X121078480Y-100765288D01*
X116481226Y-83298662D02*
X116481226Y-83298662D01*
X118638074Y-99719866D02*
X118933856Y-99782608D01*
X126339002Y-83917930D02*
X126435321Y-83881369D01*
X126435321Y-83881369D02*
X126538986Y-83863430D01*
X126538986Y-83863430D02*
X126559820Y-83862522D01*
X121227592Y-99895054D02*
X121190110Y-99406158D01*
X119074820Y-81452264D02*
X119183154Y-81444459D01*
X119183154Y-81444459D02*
X119293802Y-81457864D01*
X119293802Y-81457864D02*
X119392667Y-81494653D01*
X119392667Y-81494653D02*
X119452086Y-81532118D01*
X120526842Y-100492322D02*
X120525863Y-100384597D01*
X120525863Y-100384597D02*
X120542105Y-100278888D01*
X120542105Y-100278888D02*
X120552102Y-100243800D01*
X120671880Y-98386808D02*
X121444336Y-97940284D01*
X123379550Y-99376824D02*
X123456352Y-99309393D01*
X123456352Y-99309393D02*
X123529478Y-99270896D01*
X120824254Y-99934164D02*
X120919311Y-99899824D01*
X120919311Y-99899824D02*
X121021822Y-99881598D01*
X121021822Y-99881598D02*
X121036108Y-99880386D01*
X121894122Y-87107162D02*
X122665762Y-86660636D01*
X119668014Y-99906460D02*
X119767241Y-99882000D01*
X119767241Y-99882000D02*
X119849720Y-99881202D01*
X121121666Y-85767586D02*
X119578384Y-86660636D01*
X120350024Y-83536592D02*
X119578384Y-83983116D01*
X123995560Y-99441194D02*
X124048727Y-99527668D01*
X124048727Y-99527668D02*
X124093338Y-99622086D01*
X124209858Y-85767586D02*
X123438218Y-85321876D01*
X126006552Y-83206586D02*
X126006552Y-83206586D01*
X119452086Y-81532118D02*
X119528073Y-81605567D01*
X119528073Y-81605567D02*
X119585607Y-81698183D01*
X119585607Y-81698183D02*
X119621343Y-81796776D01*
X119621343Y-81796776D02*
X119638680Y-81880864D01*
X119638680Y-81880864D02*
X119647618Y-81986025D01*
X119647618Y-81986025D02*
X119646014Y-82074792D01*
X119578384Y-86660636D02*
X118805928Y-87107162D01*
X114946094Y-87552872D02*
X115718548Y-87999398D01*
X121283816Y-100650398D02*
X121243074Y-100117500D01*
X118805928Y-87107162D02*
X118034286Y-87552872D01*
X118478368Y-90354246D02*
X117705912Y-89908536D01*
X119578384Y-88445108D02*
X120350024Y-87999398D01*
X116387522Y-83116956D02*
X116323126Y-83197512D01*
X116323126Y-83197512D02*
X116334558Y-83267698D01*
X118948522Y-99590308D02*
X118850093Y-99619183D01*
X118850093Y-99619183D02*
X118813262Y-99614752D01*
X122341460Y-100779140D02*
X122243252Y-100756712D01*
X122243252Y-100756712D02*
X122149719Y-100713277D01*
X122149719Y-100713277D02*
X122144272Y-100709880D01*
X116481226Y-83298662D02*
X116563666Y-83240495D01*
X116563666Y-83240495D02*
X116565968Y-83238364D01*
X122295016Y-99681568D02*
X122295016Y-99681568D01*
X119839128Y-100981218D02*
X119888018Y-100422246D01*
X116565968Y-83238364D02*
X116627080Y-83163400D01*
X120350024Y-85321876D02*
X121122480Y-84875352D01*
X118999856Y-99349934D02*
X119026783Y-99446300D01*
X119026783Y-99446300D02*
X119022671Y-99481122D01*
X116778638Y-82628874D02*
X117093976Y-83231846D01*
X122828728Y-100031130D02*
X122844210Y-100119130D01*
X120024094Y-91247296D02*
X119251638Y-90800772D01*
X121908788Y-100352172D02*
X121891006Y-100247496D01*
X121891006Y-100247496D02*
X121888724Y-100147090D01*
X121888724Y-100147090D02*
X121890862Y-100119130D01*
X117093976Y-83231846D02*
X116769676Y-83401330D01*
X120140614Y-101008106D02*
X119839128Y-100981218D01*
X120819364Y-100978772D02*
X120729706Y-100925548D01*
X120729706Y-100925548D02*
X120676770Y-100875290D01*
X122757022Y-99851868D02*
X122803058Y-99946110D01*
X122803058Y-99946110D02*
X122828728Y-100031130D01*
X118933856Y-99782608D02*
X118709778Y-100834548D01*
X120824254Y-99934164D02*
X120919311Y-99899824D01*
X120919311Y-99899824D02*
X121021822Y-99881598D01*
X121021822Y-99881598D02*
X121036108Y-99880386D01*
X116769676Y-83401330D02*
X116715896Y-83301922D01*
X116546412Y-83009398D02*
X116460856Y-83066436D01*
X120676770Y-100875290D02*
X120617601Y-100794288D01*
X120617601Y-100794288D02*
X120575732Y-100709066D01*
X125753956Y-86660636D02*
X124982314Y-86214112D01*
X118805928Y-84429643D02*
X118034286Y-84875352D01*
X122341460Y-100779140D02*
X122243252Y-100756712D01*
X122243252Y-100756712D02*
X122149719Y-100713277D01*
X122149719Y-100713277D02*
X122144272Y-100709880D01*
X116460856Y-83066436D02*
X116387522Y-83116956D01*
X115922256Y-82920582D02*
X115738920Y-82718506D01*
X125309060Y-88569776D02*
X124535790Y-89015486D01*
X124026522Y-100253576D02*
X123813038Y-99734532D01*
X127147309Y-84394605D02*
X127134829Y-84499621D01*
X127134829Y-84499621D02*
X127095943Y-84601544D01*
X127095943Y-84601544D02*
X127039122Y-84689545D01*
X127039122Y-84689545D02*
X126982713Y-84753942D01*
X123687554Y-99547122D02*
X123589393Y-99517512D01*
X123589393Y-99517512D02*
X123521330Y-99534084D01*
X116156926Y-82717690D02*
X116070230Y-82771553D01*
X116070230Y-82771553D02*
X116023294Y-82808950D01*
X119602828Y-100130538D02*
X119521616Y-100191017D01*
X119521616Y-100191017D02*
X119517272Y-100195724D01*
X120849514Y-100591730D02*
X120893816Y-100683728D01*
X120893816Y-100683728D02*
X120897588Y-100688694D01*
X119720164Y-100110168D02*
X119619227Y-100123239D01*
X119619227Y-100123239D02*
X119602828Y-100130538D01*
X119849720Y-99881202D02*
X119950121Y-99902465D01*
X119950121Y-99902465D02*
X120023278Y-99940684D01*
X116023294Y-82808950D02*
X115952880Y-82880858D01*
X115952880Y-82880858D02*
X115922256Y-82920582D01*
X116450264Y-82821988D02*
X116432338Y-82788580D01*
X115738920Y-82718506D02*
X115799217Y-82638346D01*
X115799217Y-82638346D02*
X115871309Y-82563765D01*
X115871309Y-82563765D02*
X115876626Y-82558800D01*
X125296838Y-84190082D02*
X125214178Y-84122592D01*
X125214178Y-84122592D02*
X125140625Y-84044046D01*
X125140625Y-84044046D02*
X125107798Y-83999412D01*
X115876626Y-82558800D02*
X115958307Y-82493297D01*
X115958307Y-82493297D02*
X116044926Y-82438216D01*
X116044926Y-82438216D02*
X116081146Y-82418648D01*
X118933856Y-99782608D02*
X118709778Y-100834548D01*
X118813262Y-99614752D02*
X118724533Y-99568524D01*
X118724533Y-99568524D02*
X118700814Y-99538160D01*
X119251638Y-97940284D02*
X120024094Y-98386808D01*
X119245934Y-99851052D02*
X119536012Y-99876312D01*
X120882922Y-100212836D02*
X120838471Y-100308087D01*
X120838471Y-100308087D02*
X120824950Y-100408972D01*
X120824950Y-100408972D02*
X120826698Y-100466246D01*
X122295016Y-99681568D02*
X122394424Y-99666392D01*
X122394424Y-99666392D02*
X122486500Y-99670162D01*
X119578384Y-89338158D02*
X118805928Y-89783868D01*
X122340646Y-100516766D02*
X122438935Y-100547424D01*
X122438935Y-100547424D02*
X122542671Y-100540356D01*
X122542671Y-100540356D02*
X122569612Y-100534692D01*
X114820610Y-98764074D02*
X114586420Y-98592361D01*
X114586420Y-98592361D02*
X114358293Y-98414220D01*
X114358293Y-98414220D02*
X114136319Y-98229824D01*
X114136319Y-98229824D02*
X113920587Y-98039347D01*
X113920587Y-98039347D02*
X113711188Y-97842964D01*
X113711188Y-97842964D02*
X113508211Y-97640848D01*
X113508211Y-97640848D02*
X113311748Y-97433174D01*
X113311748Y-97433174D02*
X113121886Y-97220116D01*
X113121886Y-97220116D02*
X112938717Y-97001848D01*
X112938717Y-97001848D02*
X112762331Y-96778544D01*
X112762331Y-96778544D02*
X112592817Y-96550379D01*
X112592817Y-96550379D02*
X112430265Y-96317525D01*
X112430265Y-96317525D02*
X112274766Y-96080158D01*
X112274766Y-96080158D02*
X112126409Y-95838452D01*
X112126409Y-95838452D02*
X111985285Y-95592580D01*
X111985285Y-95592580D02*
X111851482Y-95342717D01*
X111851482Y-95342717D02*
X111725092Y-95089037D01*
X111725092Y-95089037D02*
X111606204Y-94831714D01*
X111606204Y-94831714D02*
X111494908Y-94570922D01*
X111494908Y-94570922D02*
X111391295Y-94306835D01*
X111391295Y-94306835D02*
X111295453Y-94039628D01*
X111295453Y-94039628D02*
X111207473Y-93769474D01*
X111207473Y-93769474D02*
X111127446Y-93496548D01*
X111127446Y-93496548D02*
X111055460Y-93221023D01*
X111055460Y-93221023D02*
X110991607Y-92943074D01*
X110991607Y-92943074D02*
X110935975Y-92662876D01*
X110935975Y-92662876D02*
X110888655Y-92380601D01*
X110888655Y-92380601D02*
X110849737Y-92096424D01*
X110849737Y-92096424D02*
X110819311Y-91810520D01*
X110819311Y-91810520D02*
X110797467Y-91523062D01*
X110797467Y-91523062D02*
X110784294Y-91234224D01*
X110784294Y-91234224D02*
X110779884Y-90944182D01*
X116081146Y-82418648D02*
X116174482Y-82376747D01*
X116174482Y-82376747D02*
X116276766Y-82347987D01*
X116276766Y-82347987D02*
X116386516Y-82339928D01*
X116386516Y-82339928D02*
X116479598Y-82354278D01*
X116479598Y-82354278D02*
X116576478Y-82395718D01*
X116576478Y-82395718D02*
X116663474Y-82465111D01*
X116663474Y-82465111D02*
X116732328Y-82550349D01*
X116732328Y-82550349D02*
X116778638Y-82628874D01*
X122182570Y-100153354D02*
X122541094Y-100068612D01*
X123247548Y-99411046D02*
X123302956Y-99545492D01*
X122325164Y-99883646D02*
X122234626Y-99931182D01*
X122234626Y-99931182D02*
X122201310Y-99979796D01*
X116432338Y-82788580D02*
X116367574Y-82709182D01*
X116367574Y-82709182D02*
X116264228Y-82682598D01*
X116264228Y-82682598D02*
X116168518Y-82711839D01*
X116168518Y-82711839D02*
X116156926Y-82717690D01*
X119151414Y-100922550D02*
X119245934Y-99851052D01*
X113817558Y-83521924D02*
X114788832Y-83971708D01*
X123710370Y-99244006D02*
X123806797Y-99272308D01*
X123806797Y-99272308D02*
X123866816Y-99307564D01*
X117262646Y-85321876D02*
X116490190Y-85767586D01*
X120185430Y-100246244D02*
X120193272Y-100347689D01*
X120193272Y-100347689D02*
X120189504Y-100451580D01*
X118700814Y-99538160D02*
X118675242Y-99438613D01*
X118675242Y-99438613D02*
X118679630Y-99408602D01*
X121894122Y-89783868D02*
X122665762Y-89338158D01*
X118813262Y-99614752D02*
X118724533Y-99568524D01*
X118724533Y-99568524D02*
X118700814Y-99538160D01*
X121198258Y-100728620D02*
X121274725Y-100661780D01*
X121274725Y-100661780D02*
X121283816Y-100650398D01*
X122541094Y-100068612D02*
X122512819Y-99968605D01*
X122512819Y-99968605D02*
X122472648Y-99913794D01*
X114788832Y-83971708D02*
X114518310Y-82936064D01*
X114518310Y-82936064D02*
X114788016Y-82710356D01*
X114788016Y-82710356D02*
X115895366Y-83848670D01*
X115895366Y-83848670D02*
X115602028Y-84093932D01*
X115602028Y-84093932D02*
X114996612Y-83443700D01*
X119861944Y-100198168D02*
X119788441Y-100127126D01*
X119788441Y-100127126D02*
X119720164Y-100110168D01*
X126805082Y-84211268D02*
X126715618Y-84158971D01*
X126715618Y-84158971D02*
X126664932Y-84155860D01*
X122729318Y-100480098D02*
X122820125Y-100430781D01*
X122820125Y-100430781D02*
X122860506Y-100401876D01*
X114996612Y-83443700D02*
X115166912Y-84129786D01*
X121122480Y-90230392D02*
X121894122Y-89783868D01*
X116160186Y-89015486D02*
X115386914Y-88569776D01*
X122665762Y-89338158D02*
X123438218Y-88891632D01*
X113547850Y-83747632D02*
X113817558Y-83521924D01*
X121078480Y-100765288D02*
X121078480Y-100765288D01*
X116205000Y-82963768D02*
X116294083Y-82910756D01*
X116294083Y-82910756D02*
X116331298Y-82889618D01*
X116331298Y-82889618D02*
X116420052Y-82839243D01*
X116420052Y-82839243D02*
X116450264Y-82821988D01*
X121184406Y-100946180D02*
X121090904Y-100988871D01*
X121090904Y-100988871D02*
X120992922Y-101006476D01*
X115166912Y-84129786D02*
X114878462Y-84370974D01*
X114878462Y-84370974D02*
X114233934Y-84082526D01*
X119451270Y-100946180D02*
X119151414Y-100922550D01*
X126851528Y-84327788D02*
X126822728Y-84230958D01*
X126822728Y-84230958D02*
X126805082Y-84211268D01*
X118383848Y-99282304D02*
X117948730Y-100691138D01*
X120676770Y-100875290D02*
X120617601Y-100794288D01*
X120617601Y-100794288D02*
X120575732Y-100709066D01*
X125942996Y-84492382D02*
X125952591Y-84389185D01*
X125952591Y-84389185D02*
X125983672Y-84288135D01*
X125983672Y-84288135D02*
X125989440Y-84274824D01*
X120023278Y-99940684D02*
X120095737Y-100010192D01*
X120095737Y-100010192D02*
X120132466Y-100068612D01*
X120350024Y-90676918D02*
X121122480Y-90230392D01*
X115386914Y-88569776D02*
X114613644Y-88123250D01*
X118999856Y-99349934D02*
X119026783Y-99446300D01*
X119026783Y-99446300D02*
X119022671Y-99481122D01*
X126525596Y-87107162D02*
X125753956Y-86660636D01*
X125753956Y-87552872D02*
X126525596Y-87107162D01*
X122977840Y-99521862D02*
X123247548Y-99411046D01*
X119849720Y-99881202D02*
X119950121Y-99902465D01*
X119950121Y-99902465D02*
X120023278Y-99940684D01*
X114233934Y-84082526D02*
X114766832Y-84793054D01*
X123866816Y-99307564D02*
X123942555Y-99374885D01*
X123942555Y-99374885D02*
X123995560Y-99441194D01*
X121122480Y-83983116D02*
X120350024Y-83536592D01*
X121227592Y-99895054D02*
X121190110Y-99406158D01*
X112794950Y-86511524D02*
X112722469Y-86637595D01*
X112722469Y-86637595D02*
X112652159Y-86764773D01*
X112652159Y-86764773D02*
X112584030Y-86893027D01*
X112584030Y-86893027D02*
X112518088Y-87022326D01*
X112518088Y-87022326D02*
X112454344Y-87152640D01*
X112454344Y-87152640D02*
X112392804Y-87283939D01*
X112392804Y-87283939D02*
X112333479Y-87416193D01*
X112333479Y-87416193D02*
X112276376Y-87549371D01*
X112276376Y-87549371D02*
X112221504Y-87683443D01*
X112221504Y-87683443D02*
X112168871Y-87818378D01*
X112168871Y-87818378D02*
X112118486Y-87954148D01*
X112118486Y-87954148D02*
X112070357Y-88090720D01*
X112070357Y-88090720D02*
X112024493Y-88228065D01*
X112024493Y-88228065D02*
X111980902Y-88366153D01*
X111980902Y-88366153D02*
X111939594Y-88504953D01*
X111939594Y-88504953D02*
X111900575Y-88644435D01*
X111900575Y-88644435D02*
X111863856Y-88784568D01*
X111863856Y-88784568D02*
X111829444Y-88925323D01*
X111829444Y-88925323D02*
X111797347Y-89066669D01*
X111797347Y-89066669D02*
X111767575Y-89208576D01*
X111767575Y-89208576D02*
X111740136Y-89351014D01*
X111740136Y-89351014D02*
X111715039Y-89493952D01*
X111715039Y-89493952D02*
X111692291Y-89637360D01*
X111692291Y-89637360D02*
X111671902Y-89781207D01*
X111671902Y-89781207D02*
X111653879Y-89925464D01*
X111653879Y-89925464D02*
X111638232Y-90070100D01*
X111638232Y-90070100D02*
X111624969Y-90215085D01*
X111624969Y-90215085D02*
X111614098Y-90360388D01*
X111614098Y-90360388D02*
X111605628Y-90505980D01*
X111605628Y-90505980D02*
X111599568Y-90651830D01*
X111599568Y-90651830D02*
X111595926Y-90797907D01*
X111595926Y-90797907D02*
X111594710Y-90944182D01*
X123438218Y-88891632D02*
X124982314Y-87999398D01*
X114766832Y-84793054D02*
X114473494Y-85038316D01*
X114473494Y-85038316D02*
X113547850Y-83747632D01*
X123763334Y-89462012D02*
X122990064Y-89908536D01*
X124982314Y-87999398D02*
X125753956Y-87552872D01*
X115995590Y-83182142D02*
X116049172Y-83095357D01*
X116049172Y-83095357D02*
X116124644Y-83021020D01*
X116124644Y-83021020D02*
X116205000Y-82963768D01*
X116715896Y-83301922D02*
X116670835Y-83396453D01*
X116670835Y-83396453D02*
X116628710Y-83455924D01*
X116628710Y-83455924D02*
X116556089Y-83529257D01*
X116556089Y-83529257D02*
X116471900Y-83584688D01*
X116471900Y-83584688D02*
X116465746Y-83587926D01*
X116465746Y-83587926D02*
X116371372Y-83623322D01*
X116371372Y-83623322D02*
X116329670Y-83629482D01*
X125451654Y-84278084D02*
X125362477Y-84232794D01*
X125362477Y-84232794D02*
X125296838Y-84190082D01*
X116329670Y-83629482D02*
X116226886Y-83620851D01*
X116226886Y-83620851D02*
X116205000Y-83614000D01*
X116205000Y-83614000D02*
X116117368Y-83565274D01*
X116117368Y-83565274D02*
X116099074Y-83549628D01*
D13*
%TO.C,RV2*%
X60655000Y-109674000D02*
X60655000Y-65174000D01*
X60655000Y-65174000D02*
X72655000Y-65174000D01*
X72655000Y-65174000D02*
X72655000Y-109674000D01*
X72655000Y-109674000D02*
X60655000Y-109674000D01*
X61575000Y-73454000D02*
X61575000Y-69644000D01*
X61575000Y-69644000D02*
X60655000Y-69644000D01*
X61575000Y-73454000D02*
X60655000Y-73454000D01*
%TO.C,RV1*%
X143287000Y-65108000D02*
X143287000Y-109608000D01*
X143287000Y-109608000D02*
X131287000Y-109608000D01*
X131287000Y-109608000D02*
X131287000Y-65108000D01*
X131287000Y-65108000D02*
X143287000Y-65108000D01*
X142367000Y-101328000D02*
X142367000Y-105138000D01*
X142367000Y-105138000D02*
X143287000Y-105138000D01*
X142367000Y-101328000D02*
X143287000Y-101328000D01*
D14*
%TO.C,U3*%
X110871000Y-85011000D02*
X110871000Y-84249000D01*
X94869000Y-85011000D02*
X110871000Y-85011000D01*
X94869000Y-84249000D02*
X94869000Y-85011000D01*
D13*
%TO.C,U2*%
X79585000Y-81275000D02*
X79585000Y-81045000D01*
X79585000Y-76555000D02*
X79585000Y-76785000D01*
X79585000Y-76555000D02*
X82305000Y-76555000D01*
X82305000Y-76555000D02*
X82305000Y-77865000D01*
X78445000Y-76785000D02*
X79585000Y-76785000D01*
X82305000Y-81275000D02*
X79585000Y-81275000D01*
X82305000Y-79965000D02*
X82305000Y-81275000D01*
%TO.C,R5*%
X91185276Y-71817500D02*
X91694724Y-71817500D01*
X91185276Y-70772500D02*
X91694724Y-70772500D01*
%TO.C,R4*%
X91185276Y-69912500D02*
X91694724Y-69912500D01*
X91185276Y-68867500D02*
X91694724Y-68867500D01*
%TO.C,JP1*%
X112665000Y-70090000D02*
X112665000Y-68690000D01*
X113365000Y-67990000D02*
X113965000Y-67990000D01*
X114665000Y-68690000D02*
X114665000Y-70090000D01*
X113965000Y-70790000D02*
X113365000Y-70790000D01*
X113365000Y-70790000D02*
G75*
G02*
X112665000Y-70090000I0J700000D01*
G01*
X114665000Y-70090000D02*
G75*
G02*
X113965000Y-70790000I-700000J0D01*
G01*
X113965000Y-67990000D02*
G75*
G02*
X114665000Y-68690000I0J-700000D01*
G01*
X112665000Y-68690000D02*
G75*
G02*
X113365000Y-67990000I700000J0D01*
G01*
%TO.C,J1*%
X82345000Y-66447500D02*
X82345000Y-65997500D01*
X82345000Y-66447500D02*
X81895000Y-66447500D01*
X76745000Y-65897500D02*
X77195000Y-65897500D01*
X76745000Y-64047500D02*
X76745000Y-65897500D01*
X84545000Y-61497500D02*
X84545000Y-61747500D01*
X76745000Y-61497500D02*
X76745000Y-61747500D01*
X84545000Y-64047500D02*
X84545000Y-65897500D01*
X84545000Y-65897500D02*
X84095000Y-65897500D01*
%TO.C,C4*%
X80791267Y-70150000D02*
X80498733Y-70150000D01*
X80791267Y-71170000D02*
X80498733Y-71170000D01*
%TO.C,C3*%
X81356252Y-73560000D02*
X79933748Y-73560000D01*
X81356252Y-75380000D02*
X79933748Y-75380000D01*
%TO.C,C2*%
X102723733Y-88315000D02*
X103016267Y-88315000D01*
X102723733Y-87295000D02*
X103016267Y-87295000D01*
%TO.C,C1*%
X102158748Y-91255000D02*
X103581252Y-91255000D01*
X102158748Y-89435000D02*
X103581252Y-89435000D01*
%TO.C,AE1*%
X124763000Y-64056000D02*
G75*
G03*
X124763000Y-64056000I-1700000J0D01*
G01*
%TO.C,RV2*%
D10*
X68377380Y-88019238D02*
X67901190Y-88352571D01*
X68377380Y-88590666D02*
X67377380Y-88590666D01*
X67377380Y-88209714D01*
X67425000Y-88114476D01*
X67472619Y-88066857D01*
X67567857Y-88019238D01*
X67710714Y-88019238D01*
X67805952Y-88066857D01*
X67853571Y-88114476D01*
X67901190Y-88209714D01*
X67901190Y-88590666D01*
X67377380Y-87733523D02*
X68377380Y-87400190D01*
X67377380Y-87066857D01*
X67472619Y-86781142D02*
X67425000Y-86733523D01*
X67377380Y-86638285D01*
X67377380Y-86400190D01*
X67425000Y-86304952D01*
X67472619Y-86257333D01*
X67567857Y-86209714D01*
X67663095Y-86209714D01*
X67805952Y-86257333D01*
X68377380Y-86828761D01*
X68377380Y-86209714D01*
X61027380Y-91281142D02*
X62027380Y-91043047D01*
X61313095Y-90852571D01*
X62027380Y-90662095D01*
X61027380Y-90424000D01*
X62027380Y-90043047D02*
X61360714Y-90043047D01*
X61027380Y-90043047D02*
X61075000Y-90090666D01*
X61122619Y-90043047D01*
X61075000Y-89995428D01*
X61027380Y-90043047D01*
X61122619Y-90043047D01*
X61360714Y-89566857D02*
X62360714Y-89566857D01*
X61408333Y-89566857D02*
X61360714Y-89471619D01*
X61360714Y-89281142D01*
X61408333Y-89185904D01*
X61455952Y-89138285D01*
X61551190Y-89090666D01*
X61836904Y-89090666D01*
X61932142Y-89138285D01*
X61979761Y-89185904D01*
X62027380Y-89281142D01*
X62027380Y-89471619D01*
X61979761Y-89566857D01*
X61979761Y-88281142D02*
X62027380Y-88376380D01*
X62027380Y-88566857D01*
X61979761Y-88662095D01*
X61884523Y-88709714D01*
X61503571Y-88709714D01*
X61408333Y-88662095D01*
X61360714Y-88566857D01*
X61360714Y-88376380D01*
X61408333Y-88281142D01*
X61503571Y-88233523D01*
X61598809Y-88233523D01*
X61694047Y-88709714D01*
X62027380Y-87804952D02*
X61360714Y-87804952D01*
X61551190Y-87804952D02*
X61455952Y-87757333D01*
X61408333Y-87709714D01*
X61360714Y-87614476D01*
X61360714Y-87519238D01*
X62027380Y-86424000D02*
X61027380Y-86424000D01*
X62027380Y-85995428D02*
X61503571Y-85995428D01*
X61408333Y-86043047D01*
X61360714Y-86138285D01*
X61360714Y-86281142D01*
X61408333Y-86376380D01*
X61455952Y-86424000D01*
X61979761Y-85138285D02*
X62027380Y-85233523D01*
X62027380Y-85424000D01*
X61979761Y-85519238D01*
X61884523Y-85566857D01*
X61503571Y-85566857D01*
X61408333Y-85519238D01*
X61360714Y-85424000D01*
X61360714Y-85233523D01*
X61408333Y-85138285D01*
X61503571Y-85090666D01*
X61598809Y-85090666D01*
X61694047Y-85566857D01*
X62027380Y-84662095D02*
X61360714Y-84662095D01*
X61551190Y-84662095D02*
X61455952Y-84614476D01*
X61408333Y-84566857D01*
X61360714Y-84471619D01*
X61360714Y-84376380D01*
X61979761Y-83662095D02*
X62027380Y-83757333D01*
X62027380Y-83947809D01*
X61979761Y-84043047D01*
X61884523Y-84090666D01*
X61503571Y-84090666D01*
X61408333Y-84043047D01*
X61360714Y-83947809D01*
X61360714Y-83757333D01*
X61408333Y-83662095D01*
X61503571Y-83614476D01*
X61598809Y-83614476D01*
X61694047Y-84090666D01*
%TO.C,RV1*%
X136469380Y-87953238D02*
X135993190Y-88286571D01*
X136469380Y-88524666D02*
X135469380Y-88524666D01*
X135469380Y-88143714D01*
X135517000Y-88048476D01*
X135564619Y-88000857D01*
X135659857Y-87953238D01*
X135802714Y-87953238D01*
X135897952Y-88000857D01*
X135945571Y-88048476D01*
X135993190Y-88143714D01*
X135993190Y-88524666D01*
X135469380Y-87667523D02*
X136469380Y-87334190D01*
X135469380Y-87000857D01*
X136469380Y-86143714D02*
X136469380Y-86715142D01*
X136469380Y-86429428D02*
X135469380Y-86429428D01*
X135612238Y-86524666D01*
X135707476Y-86619904D01*
X135755095Y-86715142D01*
X141819380Y-91215142D02*
X142819380Y-90977047D01*
X142105095Y-90786571D01*
X142819380Y-90596095D01*
X141819380Y-90358000D01*
X142819380Y-89977047D02*
X142152714Y-89977047D01*
X141819380Y-89977047D02*
X141867000Y-90024666D01*
X141914619Y-89977047D01*
X141867000Y-89929428D01*
X141819380Y-89977047D01*
X141914619Y-89977047D01*
X142152714Y-89500857D02*
X143152714Y-89500857D01*
X142200333Y-89500857D02*
X142152714Y-89405619D01*
X142152714Y-89215142D01*
X142200333Y-89119904D01*
X142247952Y-89072285D01*
X142343190Y-89024666D01*
X142628904Y-89024666D01*
X142724142Y-89072285D01*
X142771761Y-89119904D01*
X142819380Y-89215142D01*
X142819380Y-89405619D01*
X142771761Y-89500857D01*
X142771761Y-88215142D02*
X142819380Y-88310380D01*
X142819380Y-88500857D01*
X142771761Y-88596095D01*
X142676523Y-88643714D01*
X142295571Y-88643714D01*
X142200333Y-88596095D01*
X142152714Y-88500857D01*
X142152714Y-88310380D01*
X142200333Y-88215142D01*
X142295571Y-88167523D01*
X142390809Y-88167523D01*
X142486047Y-88643714D01*
X142819380Y-87738952D02*
X142152714Y-87738952D01*
X142343190Y-87738952D02*
X142247952Y-87691333D01*
X142200333Y-87643714D01*
X142152714Y-87548476D01*
X142152714Y-87453238D01*
X142819380Y-86358000D02*
X141819380Y-86358000D01*
X142819380Y-85929428D02*
X142295571Y-85929428D01*
X142200333Y-85977047D01*
X142152714Y-86072285D01*
X142152714Y-86215142D01*
X142200333Y-86310380D01*
X142247952Y-86358000D01*
X142771761Y-85072285D02*
X142819380Y-85167523D01*
X142819380Y-85358000D01*
X142771761Y-85453238D01*
X142676523Y-85500857D01*
X142295571Y-85500857D01*
X142200333Y-85453238D01*
X142152714Y-85358000D01*
X142152714Y-85167523D01*
X142200333Y-85072285D01*
X142295571Y-85024666D01*
X142390809Y-85024666D01*
X142486047Y-85500857D01*
X142819380Y-84596095D02*
X142152714Y-84596095D01*
X142343190Y-84596095D02*
X142247952Y-84548476D01*
X142200333Y-84500857D01*
X142152714Y-84405619D01*
X142152714Y-84310380D01*
X142771761Y-83596095D02*
X142819380Y-83691333D01*
X142819380Y-83881809D01*
X142771761Y-83977047D01*
X142676523Y-84024666D01*
X142295571Y-84024666D01*
X142200333Y-83977047D01*
X142152714Y-83881809D01*
X142152714Y-83691333D01*
X142200333Y-83596095D01*
X142295571Y-83548476D01*
X142390809Y-83548476D01*
X142486047Y-84024666D01*
%TO.C,U3*%
X101473095Y-71382380D02*
X101473095Y-72191904D01*
X101520714Y-72287142D01*
X101568333Y-72334761D01*
X101663571Y-72382380D01*
X101854047Y-72382380D01*
X101949285Y-72334761D01*
X101996904Y-72287142D01*
X102044523Y-72191904D01*
X102044523Y-71382380D01*
X102425476Y-71382380D02*
X103044523Y-71382380D01*
X102711190Y-71763333D01*
X102854047Y-71763333D01*
X102949285Y-71810952D01*
X102996904Y-71858571D01*
X103044523Y-71953809D01*
X103044523Y-72191904D01*
X102996904Y-72287142D01*
X102949285Y-72334761D01*
X102854047Y-72382380D01*
X102568333Y-72382380D01*
X102473095Y-72334761D01*
X102425476Y-72287142D01*
%TO.C,U2*%
X83693095Y-78367380D02*
X83693095Y-79176904D01*
X83740714Y-79272142D01*
X83788333Y-79319761D01*
X83883571Y-79367380D01*
X84074047Y-79367380D01*
X84169285Y-79319761D01*
X84216904Y-79272142D01*
X84264523Y-79176904D01*
X84264523Y-78367380D01*
X84693095Y-78462619D02*
X84740714Y-78415000D01*
X84835952Y-78367380D01*
X85074047Y-78367380D01*
X85169285Y-78415000D01*
X85216904Y-78462619D01*
X85264523Y-78557857D01*
X85264523Y-78653095D01*
X85216904Y-78795952D01*
X84645476Y-79367380D01*
X85264523Y-79367380D01*
%TO.C,R5*%
X88733333Y-71747380D02*
X88400000Y-71271190D01*
X88161904Y-71747380D02*
X88161904Y-70747380D01*
X88542857Y-70747380D01*
X88638095Y-70795000D01*
X88685714Y-70842619D01*
X88733333Y-70937857D01*
X88733333Y-71080714D01*
X88685714Y-71175952D01*
X88638095Y-71223571D01*
X88542857Y-71271190D01*
X88161904Y-71271190D01*
X89638095Y-70747380D02*
X89161904Y-70747380D01*
X89114285Y-71223571D01*
X89161904Y-71175952D01*
X89257142Y-71128333D01*
X89495238Y-71128333D01*
X89590476Y-71175952D01*
X89638095Y-71223571D01*
X89685714Y-71318809D01*
X89685714Y-71556904D01*
X89638095Y-71652142D01*
X89590476Y-71699761D01*
X89495238Y-71747380D01*
X89257142Y-71747380D01*
X89161904Y-71699761D01*
X89114285Y-71652142D01*
%TO.C,R4*%
X88733333Y-69842380D02*
X88400000Y-69366190D01*
X88161904Y-69842380D02*
X88161904Y-68842380D01*
X88542857Y-68842380D01*
X88638095Y-68890000D01*
X88685714Y-68937619D01*
X88733333Y-69032857D01*
X88733333Y-69175714D01*
X88685714Y-69270952D01*
X88638095Y-69318571D01*
X88542857Y-69366190D01*
X88161904Y-69366190D01*
X89590476Y-69175714D02*
X89590476Y-69842380D01*
X89352380Y-68794761D02*
X89114285Y-69509047D01*
X89733333Y-69509047D01*
%TO.C,JP1*%
X114895380Y-70223333D02*
X115609666Y-70223333D01*
X115752523Y-70270952D01*
X115847761Y-70366190D01*
X115895380Y-70509047D01*
X115895380Y-70604285D01*
X115895380Y-69747142D02*
X114895380Y-69747142D01*
X114895380Y-69366190D01*
X114943000Y-69270952D01*
X114990619Y-69223333D01*
X115085857Y-69175714D01*
X115228714Y-69175714D01*
X115323952Y-69223333D01*
X115371571Y-69270952D01*
X115419190Y-69366190D01*
X115419190Y-69747142D01*
X115895380Y-68223333D02*
X115895380Y-68794761D01*
X115895380Y-68509047D02*
X114895380Y-68509047D01*
X115038238Y-68604285D01*
X115133476Y-68699523D01*
X115181095Y-68794761D01*
%TO.C,J1*%
X80311666Y-66699880D02*
X80311666Y-67414166D01*
X80264047Y-67557023D01*
X80168809Y-67652261D01*
X80025952Y-67699880D01*
X79930714Y-67699880D01*
X81311666Y-67699880D02*
X80740238Y-67699880D01*
X81025952Y-67699880D02*
X81025952Y-66699880D01*
X80930714Y-66842738D01*
X80835476Y-66937976D01*
X80740238Y-66985595D01*
%TO.C,C4*%
X83018333Y-71017142D02*
X82970714Y-71064761D01*
X82827857Y-71112380D01*
X82732619Y-71112380D01*
X82589761Y-71064761D01*
X82494523Y-70969523D01*
X82446904Y-70874285D01*
X82399285Y-70683809D01*
X82399285Y-70540952D01*
X82446904Y-70350476D01*
X82494523Y-70255238D01*
X82589761Y-70160000D01*
X82732619Y-70112380D01*
X82827857Y-70112380D01*
X82970714Y-70160000D01*
X83018333Y-70207619D01*
X83875476Y-70445714D02*
X83875476Y-71112380D01*
X83637380Y-70064761D02*
X83399285Y-70779047D01*
X84018333Y-70779047D01*
%TO.C,C3*%
X84288333Y-74827142D02*
X84240714Y-74874761D01*
X84097857Y-74922380D01*
X84002619Y-74922380D01*
X83859761Y-74874761D01*
X83764523Y-74779523D01*
X83716904Y-74684285D01*
X83669285Y-74493809D01*
X83669285Y-74350952D01*
X83716904Y-74160476D01*
X83764523Y-74065238D01*
X83859761Y-73970000D01*
X84002619Y-73922380D01*
X84097857Y-73922380D01*
X84240714Y-73970000D01*
X84288333Y-74017619D01*
X84621666Y-73922380D02*
X85240714Y-73922380D01*
X84907380Y-74303333D01*
X85050238Y-74303333D01*
X85145476Y-74350952D01*
X85193095Y-74398571D01*
X85240714Y-74493809D01*
X85240714Y-74731904D01*
X85193095Y-74827142D01*
X85145476Y-74874761D01*
X85050238Y-74922380D01*
X84764523Y-74922380D01*
X84669285Y-74874761D01*
X84621666Y-74827142D01*
%TO.C,C2*%
X105878333Y-88162142D02*
X105830714Y-88209761D01*
X105687857Y-88257380D01*
X105592619Y-88257380D01*
X105449761Y-88209761D01*
X105354523Y-88114523D01*
X105306904Y-88019285D01*
X105259285Y-87828809D01*
X105259285Y-87685952D01*
X105306904Y-87495476D01*
X105354523Y-87400238D01*
X105449761Y-87305000D01*
X105592619Y-87257380D01*
X105687857Y-87257380D01*
X105830714Y-87305000D01*
X105878333Y-87352619D01*
X106259285Y-87352619D02*
X106306904Y-87305000D01*
X106402142Y-87257380D01*
X106640238Y-87257380D01*
X106735476Y-87305000D01*
X106783095Y-87352619D01*
X106830714Y-87447857D01*
X106830714Y-87543095D01*
X106783095Y-87685952D01*
X106211666Y-88257380D01*
X106830714Y-88257380D01*
%TO.C,C1*%
X106513333Y-90702142D02*
X106465714Y-90749761D01*
X106322857Y-90797380D01*
X106227619Y-90797380D01*
X106084761Y-90749761D01*
X105989523Y-90654523D01*
X105941904Y-90559285D01*
X105894285Y-90368809D01*
X105894285Y-90225952D01*
X105941904Y-90035476D01*
X105989523Y-89940238D01*
X106084761Y-89845000D01*
X106227619Y-89797380D01*
X106322857Y-89797380D01*
X106465714Y-89845000D01*
X106513333Y-89892619D01*
X107465714Y-90797380D02*
X106894285Y-90797380D01*
X107180000Y-90797380D02*
X107180000Y-89797380D01*
X107084761Y-89940238D01*
X106989523Y-90035476D01*
X106894285Y-90083095D01*
%TO.C,AE1*%
X121896333Y-67016666D02*
X122372523Y-67016666D01*
X121801095Y-67302380D02*
X122134428Y-66302380D01*
X122467761Y-67302380D01*
X122801095Y-66778571D02*
X123134428Y-66778571D01*
X123277285Y-67302380D02*
X122801095Y-67302380D01*
X122801095Y-66302380D01*
X123277285Y-66302380D01*
X124229666Y-67302380D02*
X123658238Y-67302380D01*
X123943952Y-67302380D02*
X123943952Y-66302380D01*
X123848714Y-66445238D01*
X123753476Y-66540476D01*
X123658238Y-66588095D01*
%TD*%
%LPC*%
D12*
%TO.C,LogoCu\u002A\u002A*%
G36*
X126854786Y-94817052D02*
G01*
X125309060Y-95709288D01*
X125309060Y-90354246D01*
X124535790Y-90800772D01*
X124535790Y-96155814D01*
X122990064Y-97048048D01*
X122990064Y-91693008D01*
X122217608Y-92139532D01*
X122217608Y-97494574D01*
X120671880Y-98386808D01*
X120671880Y-91247296D01*
X126854786Y-87677540D01*
X126854786Y-94817052D01*
G37*
X126854786Y-94817052D02*
X125309060Y-95709288D01*
X125309060Y-90354246D01*
X124535790Y-90800772D01*
X124535790Y-96155814D01*
X122990064Y-97048048D01*
X122990064Y-91693008D01*
X122217608Y-92139532D01*
X122217608Y-97494574D01*
X120671880Y-98386808D01*
X120671880Y-91247296D01*
X126854786Y-87677540D01*
X126854786Y-94817052D01*
G36*
X120024094Y-91247296D02*
G01*
X120024094Y-98386808D01*
X118478368Y-97494574D01*
X118478368Y-92139532D01*
X117705912Y-91693008D01*
X117705912Y-97048048D01*
X116160186Y-96155814D01*
X116160186Y-90800772D01*
X115386914Y-90354246D01*
X115386914Y-95709288D01*
X113841188Y-94817052D01*
X113841188Y-87677540D01*
X120024094Y-91247296D01*
G37*
X120024094Y-91247296D02*
X120024094Y-98386808D01*
X118478368Y-97494574D01*
X118478368Y-92139532D01*
X117705912Y-91693008D01*
X117705912Y-97048048D01*
X116160186Y-96155814D01*
X116160186Y-90800772D01*
X115386914Y-90354246D01*
X115386914Y-95709288D01*
X113841188Y-94817052D01*
X113841188Y-87677540D01*
X120024094Y-91247296D01*
G36*
X121894122Y-84429643D02*
G01*
X117262646Y-87107162D01*
X118034286Y-87552872D01*
X122665762Y-84875352D01*
X126525596Y-87107162D01*
X120350024Y-90676918D01*
X118805928Y-89783868D01*
X123438218Y-87107162D01*
X122665762Y-86660636D01*
X118034286Y-89338158D01*
X114174452Y-87107162D01*
X120350024Y-83536592D01*
X121894122Y-84429643D01*
G37*
X121894122Y-84429643D02*
X117262646Y-87107162D01*
X118034286Y-87552872D01*
X122665762Y-84875352D01*
X126525596Y-87107162D01*
X120350024Y-90676918D01*
X118805928Y-89783868D01*
X123438218Y-87107162D01*
X122665762Y-86660636D01*
X118034286Y-89338158D01*
X114174452Y-87107162D01*
X120350024Y-83536592D01*
X121894122Y-84429643D01*
%TD*%
D15*
%TO.C,RV2*%
X65405000Y-67424000D03*
X67905000Y-67424000D03*
X67905000Y-107424000D03*
X65405000Y-107424000D03*
D16*
X62905000Y-65174000D03*
X70405000Y-65174000D03*
X70405000Y-109674000D03*
X62905000Y-109924000D03*
%TD*%
D15*
%TO.C,RV1*%
X138537000Y-107358000D03*
X136037000Y-107358000D03*
X136037000Y-67358000D03*
X138537000Y-67358000D03*
D16*
X141037000Y-109608000D03*
X133537000Y-109608000D03*
X133537000Y-65108000D03*
X141037000Y-64858000D03*
%TD*%
D17*
%TO.C,U3*%
X107875000Y-85090000D03*
X105875000Y-85090000D03*
X103875000Y-85090000D03*
X101875000Y-85090000D03*
X99875000Y-85090000D03*
X97875000Y-85090000D03*
D18*
X110585000Y-69390000D03*
X110585000Y-71390000D03*
X110585000Y-73390000D03*
X110585000Y-75390000D03*
X110585000Y-77390000D03*
X110585000Y-79390000D03*
X110485000Y-81390000D03*
X110585000Y-83390000D03*
X95185000Y-83390000D03*
X95185000Y-81390000D03*
X95185000Y-79390000D03*
X95185000Y-77390000D03*
X95185000Y-75390000D03*
X95185000Y-73390000D03*
X95185000Y-71390000D03*
D19*
X95185000Y-69390000D03*
%TD*%
D12*
%TO.C,U2*%
G36*
X82945000Y-79781500D02*
G01*
X79820000Y-79781500D01*
X79820000Y-79365000D01*
X78345000Y-79365000D01*
X78345000Y-78465000D01*
X79820000Y-78465000D01*
X79820000Y-78048500D01*
X82945000Y-78048500D01*
X82945000Y-79781500D01*
G37*
D20*
X78995000Y-80415000D03*
X78995000Y-77415000D03*
%TD*%
%TO.C,R5*%
G36*
G01*
X91865000Y-71532500D02*
X91865000Y-71057500D01*
G75*
G02*
X92102500Y-70820000I237500J0D01*
G01*
X92602500Y-70820000D01*
G75*
G02*
X92840000Y-71057500I0J-237500D01*
G01*
X92840000Y-71532500D01*
G75*
G02*
X92602500Y-71770000I-237500J0D01*
G01*
X92102500Y-71770000D01*
G75*
G02*
X91865000Y-71532500I0J237500D01*
G01*
G37*
G36*
G01*
X90040000Y-71532500D02*
X90040000Y-71057500D01*
G75*
G02*
X90277500Y-70820000I237500J0D01*
G01*
X90777500Y-70820000D01*
G75*
G02*
X91015000Y-71057500I0J-237500D01*
G01*
X91015000Y-71532500D01*
G75*
G02*
X90777500Y-71770000I-237500J0D01*
G01*
X90277500Y-71770000D01*
G75*
G02*
X90040000Y-71532500I0J237500D01*
G01*
G37*
%TD*%
%TO.C,R4*%
G36*
G01*
X91865000Y-69627500D02*
X91865000Y-69152500D01*
G75*
G02*
X92102500Y-68915000I237500J0D01*
G01*
X92602500Y-68915000D01*
G75*
G02*
X92840000Y-69152500I0J-237500D01*
G01*
X92840000Y-69627500D01*
G75*
G02*
X92602500Y-69865000I-237500J0D01*
G01*
X92102500Y-69865000D01*
G75*
G02*
X91865000Y-69627500I0J237500D01*
G01*
G37*
G36*
G01*
X90040000Y-69627500D02*
X90040000Y-69152500D01*
G75*
G02*
X90277500Y-68915000I237500J0D01*
G01*
X90777500Y-68915000D01*
G75*
G02*
X91015000Y-69152500I0J-237500D01*
G01*
X91015000Y-69627500D01*
G75*
G02*
X90777500Y-69865000I-237500J0D01*
G01*
X90277500Y-69865000D01*
G75*
G02*
X90040000Y-69627500I0J237500D01*
G01*
G37*
%TD*%
D12*
%TO.C,JP1*%
G36*
X112915602Y-68740000D02*
G01*
X112915602Y-68715466D01*
X112920412Y-68666635D01*
X112929984Y-68618510D01*
X112944228Y-68571555D01*
X112963005Y-68526222D01*
X112986136Y-68482949D01*
X113013396Y-68442150D01*
X113044524Y-68404221D01*
X113079221Y-68369524D01*
X113117150Y-68338396D01*
X113157949Y-68311136D01*
X113201222Y-68288005D01*
X113246555Y-68269228D01*
X113293510Y-68254984D01*
X113341635Y-68245412D01*
X113390466Y-68240602D01*
X113415000Y-68240602D01*
X113415000Y-68240000D01*
X113915000Y-68240000D01*
X113915000Y-68240602D01*
X113939534Y-68240602D01*
X113988365Y-68245412D01*
X114036490Y-68254984D01*
X114083445Y-68269228D01*
X114128778Y-68288005D01*
X114172051Y-68311136D01*
X114212850Y-68338396D01*
X114250779Y-68369524D01*
X114285476Y-68404221D01*
X114316604Y-68442150D01*
X114343864Y-68482949D01*
X114366995Y-68526222D01*
X114385772Y-68571555D01*
X114400016Y-68618510D01*
X114409588Y-68666635D01*
X114414398Y-68715466D01*
X114414398Y-68740000D01*
X114415000Y-68740000D01*
X114415000Y-69240000D01*
X112915000Y-69240000D01*
X112915000Y-68740000D01*
X112915602Y-68740000D01*
G37*
G36*
X114415000Y-69540000D02*
G01*
X114415000Y-70040000D01*
X114414398Y-70040000D01*
X114414398Y-70064534D01*
X114409588Y-70113365D01*
X114400016Y-70161490D01*
X114385772Y-70208445D01*
X114366995Y-70253778D01*
X114343864Y-70297051D01*
X114316604Y-70337850D01*
X114285476Y-70375779D01*
X114250779Y-70410476D01*
X114212850Y-70441604D01*
X114172051Y-70468864D01*
X114128778Y-70491995D01*
X114083445Y-70510772D01*
X114036490Y-70525016D01*
X113988365Y-70534588D01*
X113939534Y-70539398D01*
X113915000Y-70539398D01*
X113915000Y-70540000D01*
X113415000Y-70540000D01*
X113415000Y-70539398D01*
X113390466Y-70539398D01*
X113341635Y-70534588D01*
X113293510Y-70525016D01*
X113246555Y-70510772D01*
X113201222Y-70491995D01*
X113157949Y-70468864D01*
X113117150Y-70441604D01*
X113079221Y-70410476D01*
X113044524Y-70375779D01*
X113013396Y-70337850D01*
X112986136Y-70297051D01*
X112963005Y-70253778D01*
X112944228Y-70208445D01*
X112929984Y-70161490D01*
X112920412Y-70113365D01*
X112915602Y-70064534D01*
X112915602Y-70040000D01*
X112915000Y-70040000D01*
X112915000Y-69540000D01*
X114415000Y-69540000D01*
G37*
%TD*%
D21*
%TO.C,J1*%
X83545000Y-62897500D03*
X77745000Y-62897500D03*
D22*
X77145000Y-62897500D03*
X84145000Y-62897500D03*
D23*
X81645000Y-62897500D03*
D24*
X78145000Y-65597500D03*
D25*
X80645000Y-65597500D03*
X79995000Y-65597500D03*
X79345000Y-65597500D03*
X81945000Y-65597500D03*
X81295000Y-65597500D03*
D24*
X83145000Y-65597500D03*
D23*
X79645000Y-62897500D03*
%TD*%
%TO.C,C4*%
G36*
G01*
X80320000Y-70422500D02*
X80320000Y-70897500D01*
G75*
G02*
X80082500Y-71135000I-237500J0D01*
G01*
X79482500Y-71135000D01*
G75*
G02*
X79245000Y-70897500I0J237500D01*
G01*
X79245000Y-70422500D01*
G75*
G02*
X79482500Y-70185000I237500J0D01*
G01*
X80082500Y-70185000D01*
G75*
G02*
X80320000Y-70422500I0J-237500D01*
G01*
G37*
G36*
G01*
X82045000Y-70422500D02*
X82045000Y-70897500D01*
G75*
G02*
X81807500Y-71135000I-237500J0D01*
G01*
X81207500Y-71135000D01*
G75*
G02*
X80970000Y-70897500I0J237500D01*
G01*
X80970000Y-70422500D01*
G75*
G02*
X81207500Y-70185000I237500J0D01*
G01*
X81807500Y-70185000D01*
G75*
G02*
X82045000Y-70422500I0J-237500D01*
G01*
G37*
%TD*%
%TO.C,C3*%
G36*
G01*
X79745000Y-73819999D02*
X79745000Y-75120001D01*
G75*
G02*
X79495001Y-75370000I-249999J0D01*
G01*
X78669999Y-75370000D01*
G75*
G02*
X78420000Y-75120001I0J249999D01*
G01*
X78420000Y-73819999D01*
G75*
G02*
X78669999Y-73570000I249999J0D01*
G01*
X79495001Y-73570000D01*
G75*
G02*
X79745000Y-73819999I0J-249999D01*
G01*
G37*
G36*
G01*
X82870000Y-73819999D02*
X82870000Y-75120001D01*
G75*
G02*
X82620001Y-75370000I-249999J0D01*
G01*
X81794999Y-75370000D01*
G75*
G02*
X81545000Y-75120001I0J249999D01*
G01*
X81545000Y-73819999D01*
G75*
G02*
X81794999Y-73570000I249999J0D01*
G01*
X82620001Y-73570000D01*
G75*
G02*
X82870000Y-73819999I0J-249999D01*
G01*
G37*
%TD*%
%TO.C,C2*%
G36*
G01*
X103195000Y-88042500D02*
X103195000Y-87567500D01*
G75*
G02*
X103432500Y-87330000I237500J0D01*
G01*
X104032500Y-87330000D01*
G75*
G02*
X104270000Y-87567500I0J-237500D01*
G01*
X104270000Y-88042500D01*
G75*
G02*
X104032500Y-88280000I-237500J0D01*
G01*
X103432500Y-88280000D01*
G75*
G02*
X103195000Y-88042500I0J237500D01*
G01*
G37*
G36*
G01*
X101470000Y-88042500D02*
X101470000Y-87567500D01*
G75*
G02*
X101707500Y-87330000I237500J0D01*
G01*
X102307500Y-87330000D01*
G75*
G02*
X102545000Y-87567500I0J-237500D01*
G01*
X102545000Y-88042500D01*
G75*
G02*
X102307500Y-88280000I-237500J0D01*
G01*
X101707500Y-88280000D01*
G75*
G02*
X101470000Y-88042500I0J237500D01*
G01*
G37*
%TD*%
%TO.C,C1*%
G36*
G01*
X103770000Y-90995001D02*
X103770000Y-89694999D01*
G75*
G02*
X104019999Y-89445000I249999J0D01*
G01*
X104845001Y-89445000D01*
G75*
G02*
X105095000Y-89694999I0J-249999D01*
G01*
X105095000Y-90995001D01*
G75*
G02*
X104845001Y-91245000I-249999J0D01*
G01*
X104019999Y-91245000D01*
G75*
G02*
X103770000Y-90995001I0J249999D01*
G01*
G37*
G36*
G01*
X100645000Y-90995001D02*
X100645000Y-89694999D01*
G75*
G02*
X100894999Y-89445000I249999J0D01*
G01*
X101720001Y-89445000D01*
G75*
G02*
X101970000Y-89694999I0J-249999D01*
G01*
X101970000Y-90995001D01*
G75*
G02*
X101720001Y-91245000I-249999J0D01*
G01*
X100894999Y-91245000D01*
G75*
G02*
X100645000Y-90995001I0J249999D01*
G01*
G37*
%TD*%
D26*
%TO.C,AE1*%
X123063000Y-64056000D03*
%TD*%
M02*
