%TF.GenerationSoftware,KiCad,Pcbnew,5.1.12-84ad8e8a86~92~ubuntu20.04.1*%
%TF.CreationDate,2022-11-18T17:27:09+01:00*%
%TF.ProjectId,pongCard,706f6e67-4361-4726-942e-6b696361645f,rev?*%
%TF.SameCoordinates,Original*%
%TF.FileFunction,Copper,L2,Bot*%
%TF.FilePolarity,Positive*%
%FSLAX46Y46*%
G04 Gerber Fmt 4.6, Leading zero omitted, Abs format (unit mm)*
G04 Created by KiCad (PCBNEW 5.1.12-84ad8e8a86~92~ubuntu20.04.1) date 2022-11-18 17:27:09*
%MOMM*%
%LPD*%
G01*
G04 APERTURE LIST*
%TA.AperFunction,ComponentPad*%
%ADD10C,1.600000*%
%TD*%
%TA.AperFunction,ComponentPad*%
%ADD11C,2.000000*%
%TD*%
%TA.AperFunction,ComponentPad*%
%ADD12O,1.100000X2.500000*%
%TD*%
%TA.AperFunction,ComponentPad*%
%ADD13O,2.500000X1.100000*%
%TD*%
%TA.AperFunction,ComponentPad*%
%ADD14R,2.500000X1.100000*%
%TD*%
%TA.AperFunction,ComponentPad*%
%ADD15O,1.200000X1.900000*%
%TD*%
%TA.AperFunction,ComponentPad*%
%ADD16C,1.450000*%
%TD*%
%TA.AperFunction,ComponentPad*%
%ADD17C,3.000000*%
%TD*%
%TA.AperFunction,Conductor*%
%ADD18C,0.254000*%
%TD*%
%TA.AperFunction,Conductor*%
%ADD19C,0.100000*%
%TD*%
%TA.AperFunction,NonConductor*%
%ADD20C,0.254000*%
%TD*%
%TA.AperFunction,NonConductor*%
%ADD21C,0.100000*%
%TD*%
G04 APERTURE END LIST*
D10*
%TO.P,RV2,2*%
%TO.N,Net-(R5-Pad2)*%
X65405000Y-67424000D03*
%TO.P,RV2,MP*%
%TO.N,GND*%
X67905000Y-67424000D03*
%TO.P,RV2,L*%
%TO.N,N/C*%
X67905000Y-107424000D03*
%TO.P,RV2,3*%
%TO.N,Net-(RV2-Pad3)*%
X65405000Y-107424000D03*
D11*
%TO.P,RV2,1*%
%TO.N,Net-(RV2-Pad1)*%
X62905000Y-65174000D03*
%TO.P,RV2,MP*%
%TO.N,GND*%
X70405000Y-65174000D03*
X70405000Y-109674000D03*
X62905000Y-109924000D03*
%TD*%
D10*
%TO.P,RV1,2*%
%TO.N,Net-(R5-Pad2)*%
X138537000Y-107358000D03*
%TO.P,RV1,MP*%
%TO.N,GND*%
X136037000Y-107358000D03*
%TO.P,RV1,L*%
%TO.N,N/C*%
X136037000Y-67358000D03*
%TO.P,RV1,3*%
%TO.N,Net-(RV1-Pad3)*%
X138537000Y-67358000D03*
D11*
%TO.P,RV1,1*%
%TO.N,Net-(RV1-Pad1)*%
X141037000Y-109608000D03*
%TO.P,RV1,MP*%
%TO.N,GND*%
X133537000Y-109608000D03*
X133537000Y-65108000D03*
X141037000Y-64858000D03*
%TD*%
D12*
%TO.P,U3,22*%
%TO.N,Net-(U3-Pad22)*%
X107875000Y-85090000D03*
%TO.P,U3,21*%
%TO.N,Net-(U3-Pad21)*%
X105875000Y-85090000D03*
%TO.P,U3,20*%
%TO.N,Net-(U3-Pad20)*%
X103875000Y-85090000D03*
%TO.P,U3,19*%
%TO.N,Net-(U3-Pad19)*%
X101875000Y-85090000D03*
%TO.P,U3,18*%
%TO.N,Net-(U3-Pad18)*%
X99875000Y-85090000D03*
%TO.P,U3,17*%
%TO.N,Net-(U3-Pad17)*%
X97875000Y-85090000D03*
D13*
%TO.P,U3,16*%
%TO.N,Net-(U3-Pad16)*%
X110585000Y-69390000D03*
%TO.P,U3,15*%
%TO.N,Ant*%
X110585000Y-71390000D03*
%TO.P,U3,14*%
%TO.N,Net-(RV1-Pad3)*%
X110585000Y-73390000D03*
%TO.P,U3,13*%
%TO.N,Net-(RV2-Pad3)*%
X110585000Y-75390000D03*
%TO.P,U3,12*%
%TO.N,Net-(U3-Pad12)*%
X110585000Y-77390000D03*
%TO.P,U3,11*%
%TO.N,Net-(U3-Pad11)*%
X110585000Y-79390000D03*
%TO.P,U3,10*%
%TO.N,Net-(U3-Pad10)*%
X110485000Y-81390000D03*
%TO.P,U3,9*%
%TO.N,GND*%
X110585000Y-83390000D03*
%TO.P,U3,8*%
%TO.N,+3V3*%
X95185000Y-83390000D03*
%TO.P,U3,7*%
%TO.N,Net-(U3-Pad7)*%
X95185000Y-81390000D03*
%TO.P,U3,6*%
%TO.N,Net-(U3-Pad6)*%
X95185000Y-79390000D03*
%TO.P,U3,5*%
%TO.N,Net-(U3-Pad5)*%
X95185000Y-77390000D03*
%TO.P,U3,4*%
%TO.N,Net-(U3-Pad4)*%
X95185000Y-75390000D03*
%TO.P,U3,3*%
%TO.N,Net-(U3-Pad3)*%
X95185000Y-73390000D03*
%TO.P,U3,2*%
%TO.N,Net-(R5-Pad2)*%
X95185000Y-71390000D03*
D14*
%TO.P,U3,1*%
%TO.N,Net-(R4-Pad2)*%
X95185000Y-69390000D03*
%TD*%
D15*
%TO.P,J1,6*%
%TO.N,Net-(J1-Pad6)*%
X77145000Y-62897500D03*
X84145000Y-62897500D03*
D16*
X78145000Y-65597500D03*
X83145000Y-65597500D03*
%TD*%
D17*
%TO.P,AE1,1*%
%TO.N,Ant*%
X123063000Y-64056000D03*
%TD*%
D18*
%TO.N,GND*%
X75946000Y-61314606D02*
X75946000Y-62245632D01*
X75927870Y-62305398D01*
X75910000Y-62486835D01*
X75910000Y-63308164D01*
X75927870Y-63489601D01*
X75946000Y-63549367D01*
X75946000Y-66342000D01*
X75948440Y-66366776D01*
X75955667Y-66390601D01*
X75967403Y-66412557D01*
X75983197Y-66431803D01*
X76491197Y-66939803D01*
X76510443Y-66955597D01*
X76532399Y-66967333D01*
X76556224Y-66974560D01*
X76581000Y-66977000D01*
X83693000Y-66977000D01*
X83717776Y-66974560D01*
X83741601Y-66967333D01*
X83763557Y-66955597D01*
X83782803Y-66939803D01*
X84253606Y-66469000D01*
X88466394Y-66469000D01*
X89662000Y-67664606D01*
X89662000Y-68374000D01*
X89664440Y-68398776D01*
X89671667Y-68422601D01*
X89683403Y-68444557D01*
X89699197Y-68463803D01*
X89718443Y-68479597D01*
X89740399Y-68491333D01*
X89764224Y-68498560D01*
X89789000Y-68501000D01*
X93396181Y-68501000D01*
X93345498Y-68595820D01*
X93309188Y-68715518D01*
X93296928Y-68840000D01*
X93296928Y-69940000D01*
X93309188Y-70064482D01*
X93345498Y-70184180D01*
X93404463Y-70294494D01*
X93483815Y-70391185D01*
X93580506Y-70470537D01*
X93675544Y-70521337D01*
X93643025Y-70548025D01*
X93494942Y-70728464D01*
X93384906Y-70934326D01*
X93317147Y-71157700D01*
X93294267Y-71390000D01*
X93317147Y-71622300D01*
X93384906Y-71845674D01*
X93494942Y-72051536D01*
X93643025Y-72231975D01*
X93823464Y-72380058D01*
X93842064Y-72390000D01*
X93823464Y-72399942D01*
X93643025Y-72548025D01*
X93494942Y-72728464D01*
X93384906Y-72934326D01*
X93317147Y-73157700D01*
X93294267Y-73390000D01*
X93317147Y-73622300D01*
X93384906Y-73845674D01*
X93494942Y-74051536D01*
X93643025Y-74231975D01*
X93823464Y-74380058D01*
X93842064Y-74390000D01*
X93823464Y-74399942D01*
X93643025Y-74548025D01*
X93494942Y-74728464D01*
X93384906Y-74934326D01*
X93317147Y-75157700D01*
X93294267Y-75390000D01*
X93317147Y-75622300D01*
X93384906Y-75845674D01*
X93494942Y-76051536D01*
X93643025Y-76231975D01*
X93823464Y-76380058D01*
X93842064Y-76390000D01*
X93823464Y-76399942D01*
X93643025Y-76548025D01*
X93494942Y-76728464D01*
X93384906Y-76934326D01*
X93317147Y-77157700D01*
X93294267Y-77390000D01*
X93317147Y-77622300D01*
X93384906Y-77845674D01*
X93494942Y-78051536D01*
X93643025Y-78231975D01*
X93823464Y-78380058D01*
X93842064Y-78390000D01*
X93823464Y-78399942D01*
X93643025Y-78548025D01*
X93494942Y-78728464D01*
X93384906Y-78934326D01*
X93317147Y-79157700D01*
X93294267Y-79390000D01*
X93317147Y-79622300D01*
X93384906Y-79845674D01*
X93494942Y-80051536D01*
X93643025Y-80231975D01*
X93823464Y-80380058D01*
X93842064Y-80390000D01*
X93823464Y-80399942D01*
X93643025Y-80548025D01*
X93494942Y-80728464D01*
X93384906Y-80934326D01*
X93317147Y-81157700D01*
X93294267Y-81390000D01*
X93317147Y-81622300D01*
X93384906Y-81845674D01*
X93494942Y-82051536D01*
X93643025Y-82231975D01*
X93823464Y-82380058D01*
X93842064Y-82390000D01*
X93823464Y-82399942D01*
X93643025Y-82548025D01*
X93494942Y-82728464D01*
X93384906Y-82934326D01*
X93317147Y-83157700D01*
X93294267Y-83390000D01*
X93317147Y-83622300D01*
X93384906Y-83845674D01*
X93494942Y-84051536D01*
X93643025Y-84231975D01*
X93823464Y-84380058D01*
X94029326Y-84490094D01*
X94252700Y-84557853D01*
X94426793Y-84575000D01*
X95943207Y-84575000D01*
X96117300Y-84557853D01*
X96340674Y-84490094D01*
X96546536Y-84380058D01*
X96697445Y-84256210D01*
X96690000Y-84331794D01*
X96690000Y-85848207D01*
X96707147Y-86022300D01*
X96774906Y-86245674D01*
X96884943Y-86451536D01*
X97033026Y-86631975D01*
X97213465Y-86780058D01*
X97419327Y-86890094D01*
X97642701Y-86957853D01*
X97875000Y-86980733D01*
X98107300Y-86957853D01*
X98330674Y-86890094D01*
X98536536Y-86780058D01*
X98716975Y-86631975D01*
X98865058Y-86451536D01*
X98875000Y-86432935D01*
X98884943Y-86451536D01*
X99033026Y-86631975D01*
X99213465Y-86780058D01*
X99419327Y-86890094D01*
X99642701Y-86957853D01*
X99875000Y-86980733D01*
X100107300Y-86957853D01*
X100330674Y-86890094D01*
X100536536Y-86780058D01*
X100716975Y-86631975D01*
X100865058Y-86451536D01*
X100875000Y-86432935D01*
X100884943Y-86451536D01*
X101033026Y-86631975D01*
X101213465Y-86780058D01*
X101419327Y-86890094D01*
X101642701Y-86957853D01*
X101875000Y-86980733D01*
X102107300Y-86957853D01*
X102330674Y-86890094D01*
X102536536Y-86780058D01*
X102716975Y-86631975D01*
X102865058Y-86451536D01*
X102875000Y-86432935D01*
X102884943Y-86451536D01*
X103033026Y-86631975D01*
X103213465Y-86780058D01*
X103419327Y-86890094D01*
X103642701Y-86957853D01*
X103875000Y-86980733D01*
X104107300Y-86957853D01*
X104330674Y-86890094D01*
X104536536Y-86780058D01*
X104716975Y-86631975D01*
X104865058Y-86451536D01*
X104875000Y-86432935D01*
X104884943Y-86451536D01*
X105033026Y-86631975D01*
X105213465Y-86780058D01*
X105419327Y-86890094D01*
X105642701Y-86957853D01*
X105875000Y-86980733D01*
X106107300Y-86957853D01*
X106330674Y-86890094D01*
X106536536Y-86780058D01*
X106716975Y-86631975D01*
X106865058Y-86451536D01*
X106875000Y-86432935D01*
X106884943Y-86451536D01*
X107033026Y-86631975D01*
X107213465Y-86780058D01*
X107419327Y-86890094D01*
X107642701Y-86957853D01*
X107875000Y-86980733D01*
X108107300Y-86957853D01*
X108330674Y-86890094D01*
X108536536Y-86780058D01*
X108716975Y-86631975D01*
X108865058Y-86451536D01*
X108975094Y-86245674D01*
X109042853Y-86022300D01*
X109060000Y-85848207D01*
X109060000Y-84331793D01*
X109050239Y-84232694D01*
X109121052Y-84304734D01*
X109314187Y-84436196D01*
X109529258Y-84527454D01*
X109758000Y-84575000D01*
X110458000Y-84575000D01*
X110458000Y-83517000D01*
X110712000Y-83517000D01*
X110712000Y-84575000D01*
X111412000Y-84575000D01*
X111640742Y-84527454D01*
X111855813Y-84436196D01*
X112048948Y-84304734D01*
X112212725Y-84138119D01*
X112340850Y-83942754D01*
X112428399Y-83726147D01*
X112428803Y-83699744D01*
X112303361Y-83517000D01*
X110712000Y-83517000D01*
X110458000Y-83517000D01*
X108866639Y-83517000D01*
X108786876Y-83633199D01*
X108716975Y-83548025D01*
X108536535Y-83399942D01*
X108330673Y-83289906D01*
X108107299Y-83222147D01*
X107875000Y-83199267D01*
X107642700Y-83222147D01*
X107419326Y-83289906D01*
X107213464Y-83399942D01*
X107033025Y-83548025D01*
X106884942Y-83728465D01*
X106875000Y-83747065D01*
X106865058Y-83728464D01*
X106716975Y-83548025D01*
X106536535Y-83399942D01*
X106330673Y-83289906D01*
X106107299Y-83222147D01*
X105875000Y-83199267D01*
X105642700Y-83222147D01*
X105419326Y-83289906D01*
X105213464Y-83399942D01*
X105033025Y-83548025D01*
X104884942Y-83728465D01*
X104875000Y-83747065D01*
X104865058Y-83728464D01*
X104716975Y-83548025D01*
X104536535Y-83399942D01*
X104330673Y-83289906D01*
X104107299Y-83222147D01*
X103875000Y-83199267D01*
X103642700Y-83222147D01*
X103419326Y-83289906D01*
X103213464Y-83399942D01*
X103033025Y-83548025D01*
X102884942Y-83728465D01*
X102875000Y-83747065D01*
X102865058Y-83728464D01*
X102716975Y-83548025D01*
X102536535Y-83399942D01*
X102330673Y-83289906D01*
X102107299Y-83222147D01*
X101875000Y-83199267D01*
X101642700Y-83222147D01*
X101419326Y-83289906D01*
X101213464Y-83399942D01*
X101033025Y-83548025D01*
X100884942Y-83728465D01*
X100875000Y-83747065D01*
X100865058Y-83728464D01*
X100716975Y-83548025D01*
X100536535Y-83399942D01*
X100330673Y-83289906D01*
X100107299Y-83222147D01*
X99875000Y-83199267D01*
X99642700Y-83222147D01*
X99419326Y-83289906D01*
X99213464Y-83399942D01*
X99033025Y-83548025D01*
X98884942Y-83728465D01*
X98875000Y-83747065D01*
X98865058Y-83728464D01*
X98716975Y-83548025D01*
X98536535Y-83399942D01*
X98330673Y-83289906D01*
X98107299Y-83222147D01*
X97875000Y-83199267D01*
X97642700Y-83222147D01*
X97419326Y-83289906D01*
X97213464Y-83399942D01*
X97062556Y-83523790D01*
X97075733Y-83390000D01*
X97052853Y-83157700D01*
X96985094Y-82934326D01*
X96875058Y-82728464D01*
X96726975Y-82548025D01*
X96546536Y-82399942D01*
X96527936Y-82390000D01*
X96546536Y-82380058D01*
X96726975Y-82231975D01*
X96875058Y-82051536D01*
X96985094Y-81845674D01*
X97052853Y-81622300D01*
X97075733Y-81390000D01*
X97052853Y-81157700D01*
X96985094Y-80934326D01*
X96875058Y-80728464D01*
X96726975Y-80548025D01*
X96546536Y-80399942D01*
X96527936Y-80390000D01*
X96546536Y-80380058D01*
X96726975Y-80231975D01*
X96875058Y-80051536D01*
X96985094Y-79845674D01*
X97052853Y-79622300D01*
X97075733Y-79390000D01*
X97052853Y-79157700D01*
X96985094Y-78934326D01*
X96875058Y-78728464D01*
X96726975Y-78548025D01*
X96546536Y-78399942D01*
X96527936Y-78390000D01*
X96546536Y-78380058D01*
X96726975Y-78231975D01*
X96875058Y-78051536D01*
X96985094Y-77845674D01*
X97052853Y-77622300D01*
X97075733Y-77390000D01*
X97052853Y-77157700D01*
X96985094Y-76934326D01*
X96875058Y-76728464D01*
X96726975Y-76548025D01*
X96546536Y-76399942D01*
X96527936Y-76390000D01*
X96546536Y-76380058D01*
X96726975Y-76231975D01*
X96875058Y-76051536D01*
X96985094Y-75845674D01*
X97052853Y-75622300D01*
X97075733Y-75390000D01*
X97052853Y-75157700D01*
X96985094Y-74934326D01*
X96875058Y-74728464D01*
X96726975Y-74548025D01*
X96546536Y-74399942D01*
X96527936Y-74390000D01*
X96546536Y-74380058D01*
X96726975Y-74231975D01*
X96875058Y-74051536D01*
X96985094Y-73845674D01*
X97052853Y-73622300D01*
X97075733Y-73390000D01*
X97052853Y-73157700D01*
X96985094Y-72934326D01*
X96875058Y-72728464D01*
X96726975Y-72548025D01*
X96546536Y-72399942D01*
X96527936Y-72390000D01*
X96546536Y-72380058D01*
X96726975Y-72231975D01*
X96875058Y-72051536D01*
X96985094Y-71845674D01*
X97052853Y-71622300D01*
X97075733Y-71390000D01*
X97052853Y-71157700D01*
X96985094Y-70934326D01*
X96875058Y-70728464D01*
X96726975Y-70548025D01*
X96694456Y-70521337D01*
X96789494Y-70470537D01*
X96886185Y-70391185D01*
X96965537Y-70294494D01*
X97024502Y-70184180D01*
X97060812Y-70064482D01*
X97073072Y-69940000D01*
X97073072Y-68840000D01*
X97060812Y-68715518D01*
X97024502Y-68595820D01*
X96973819Y-68501000D01*
X107770394Y-68501000D01*
X108698077Y-69428683D01*
X108712000Y-69570043D01*
X108712000Y-71209957D01*
X108694267Y-71390000D01*
X108712000Y-71570043D01*
X108712000Y-72438000D01*
X108714440Y-72462776D01*
X108721667Y-72486601D01*
X108733403Y-72508557D01*
X108749197Y-72527803D01*
X108768443Y-72543597D01*
X108790399Y-72555333D01*
X108814224Y-72562560D01*
X108839000Y-72565000D01*
X109029094Y-72565000D01*
X108894942Y-72728464D01*
X108784906Y-72934326D01*
X108717147Y-73157700D01*
X108694267Y-73390000D01*
X108717147Y-73622300D01*
X108784906Y-73845674D01*
X108894942Y-74051536D01*
X109043025Y-74231975D01*
X109223464Y-74380058D01*
X109242064Y-74390000D01*
X109223464Y-74399942D01*
X109043025Y-74548025D01*
X108894942Y-74728464D01*
X108784906Y-74934326D01*
X108717147Y-75157700D01*
X108694267Y-75390000D01*
X108717147Y-75622300D01*
X108784906Y-75845674D01*
X108894942Y-76051536D01*
X109043025Y-76231975D01*
X109223464Y-76380058D01*
X109242064Y-76390000D01*
X109223464Y-76399942D01*
X109043025Y-76548025D01*
X108894942Y-76728464D01*
X108784906Y-76934326D01*
X108717147Y-77157700D01*
X108694267Y-77390000D01*
X108717147Y-77622300D01*
X108784906Y-77845674D01*
X108894942Y-78051536D01*
X109043025Y-78231975D01*
X109223464Y-78380058D01*
X109242064Y-78390000D01*
X109223464Y-78399942D01*
X109043025Y-78548025D01*
X108894942Y-78728464D01*
X108784906Y-78934326D01*
X108717147Y-79157700D01*
X108694267Y-79390000D01*
X108717147Y-79622300D01*
X108784906Y-79845674D01*
X108894942Y-80051536D01*
X109043025Y-80231975D01*
X109198695Y-80359730D01*
X109123464Y-80399942D01*
X108943025Y-80548025D01*
X108794942Y-80728464D01*
X108684906Y-80934326D01*
X108617147Y-81157700D01*
X108594267Y-81390000D01*
X108617147Y-81622300D01*
X108684906Y-81845674D01*
X108794942Y-82051536D01*
X108943025Y-82231975D01*
X109123464Y-82380058D01*
X109200461Y-82421214D01*
X109121052Y-82475266D01*
X108957275Y-82641881D01*
X108829150Y-82837246D01*
X108741601Y-83053853D01*
X108741197Y-83080256D01*
X108866639Y-83263000D01*
X110458000Y-83263000D01*
X110458000Y-83243000D01*
X110712000Y-83243000D01*
X110712000Y-83263000D01*
X112303361Y-83263000D01*
X112428803Y-83080256D01*
X112428399Y-83053853D01*
X112340850Y-82837246D01*
X112212725Y-82641881D01*
X112048948Y-82475266D01*
X111874889Y-82356789D01*
X112026975Y-82231975D01*
X112175058Y-82051536D01*
X112285094Y-81845674D01*
X112352853Y-81622300D01*
X112375733Y-81390000D01*
X112352853Y-81157700D01*
X112285094Y-80934326D01*
X112175058Y-80728464D01*
X112026975Y-80548025D01*
X111871305Y-80420270D01*
X111946536Y-80380058D01*
X112126975Y-80231975D01*
X112275058Y-80051536D01*
X112385094Y-79845674D01*
X112452853Y-79622300D01*
X112475733Y-79390000D01*
X112452853Y-79157700D01*
X112385094Y-78934326D01*
X112275058Y-78728464D01*
X112126975Y-78548025D01*
X111946536Y-78399942D01*
X111927936Y-78390000D01*
X111946536Y-78380058D01*
X112126975Y-78231975D01*
X112275058Y-78051536D01*
X112385094Y-77845674D01*
X112452853Y-77622300D01*
X112475733Y-77390000D01*
X112452853Y-77157700D01*
X112385094Y-76934326D01*
X112275058Y-76728464D01*
X112126975Y-76548025D01*
X111946536Y-76399942D01*
X111927936Y-76390000D01*
X111946536Y-76380058D01*
X112126975Y-76231975D01*
X112275058Y-76051536D01*
X112385094Y-75845674D01*
X112452853Y-75622300D01*
X112475733Y-75390000D01*
X112452853Y-75157700D01*
X112385094Y-74934326D01*
X112275058Y-74728464D01*
X112126975Y-74548025D01*
X111946536Y-74399942D01*
X111927936Y-74390000D01*
X111946536Y-74380058D01*
X112126975Y-74231975D01*
X112275058Y-74051536D01*
X112385094Y-73845674D01*
X112452853Y-73622300D01*
X112475733Y-73390000D01*
X112452853Y-73157700D01*
X112385094Y-72934326D01*
X112275058Y-72728464D01*
X112126975Y-72548025D01*
X112033387Y-72471219D01*
X112447606Y-72057000D01*
X120777000Y-72057000D01*
X120801776Y-72054560D01*
X120825601Y-72047333D01*
X120847557Y-72035597D01*
X120866803Y-72019803D01*
X123914803Y-68971803D01*
X123930597Y-68952557D01*
X123942333Y-68930601D01*
X123949560Y-68906776D01*
X123952000Y-68882000D01*
X123952000Y-67216665D01*
X134602000Y-67216665D01*
X134602000Y-67499335D01*
X134657147Y-67776574D01*
X134765320Y-68037727D01*
X134922363Y-68272759D01*
X135122241Y-68472637D01*
X135357273Y-68629680D01*
X135618426Y-68737853D01*
X135895665Y-68793000D01*
X136178335Y-68793000D01*
X136455574Y-68737853D01*
X136716727Y-68629680D01*
X136951759Y-68472637D01*
X137151637Y-68272759D01*
X137287000Y-68070173D01*
X137422363Y-68272759D01*
X137622241Y-68472637D01*
X137857273Y-68629680D01*
X138118426Y-68737853D01*
X138395665Y-68793000D01*
X138678335Y-68793000D01*
X138955574Y-68737853D01*
X139216727Y-68629680D01*
X139451759Y-68472637D01*
X139651637Y-68272759D01*
X139808680Y-68037727D01*
X139916853Y-67776574D01*
X139972000Y-67499335D01*
X139972000Y-67216665D01*
X139916853Y-66939426D01*
X139808680Y-66678273D01*
X139651637Y-66443241D01*
X139451759Y-66243363D01*
X139216727Y-66086320D01*
X138992430Y-65993413D01*
X140081192Y-65993413D01*
X140176956Y-66257814D01*
X140466571Y-66398704D01*
X140778108Y-66480384D01*
X141099595Y-66499718D01*
X141418675Y-66455961D01*
X141723088Y-66350795D01*
X141897044Y-66257814D01*
X141992808Y-65993413D01*
X141037000Y-65037605D01*
X140081192Y-65993413D01*
X138992430Y-65993413D01*
X138955574Y-65978147D01*
X138678335Y-65923000D01*
X138395665Y-65923000D01*
X138118426Y-65978147D01*
X137857273Y-66086320D01*
X137622241Y-66243363D01*
X137422363Y-66443241D01*
X137287000Y-66645827D01*
X137151637Y-66443241D01*
X136951759Y-66243363D01*
X136716727Y-66086320D01*
X136455574Y-65978147D01*
X136178335Y-65923000D01*
X135895665Y-65923000D01*
X135618426Y-65978147D01*
X135357273Y-66086320D01*
X135122241Y-66243363D01*
X134922363Y-66443241D01*
X134765320Y-66678273D01*
X134657147Y-66939426D01*
X134602000Y-67216665D01*
X123952000Y-67216665D01*
X123952000Y-66401483D01*
X124141683Y-66243413D01*
X132581192Y-66243413D01*
X132676956Y-66507814D01*
X132966571Y-66648704D01*
X133278108Y-66730384D01*
X133599595Y-66749718D01*
X133918675Y-66705961D01*
X134223088Y-66600795D01*
X134397044Y-66507814D01*
X134492808Y-66243413D01*
X133537000Y-65287605D01*
X132581192Y-66243413D01*
X124141683Y-66243413D01*
X125429065Y-65170595D01*
X131895282Y-65170595D01*
X131939039Y-65489675D01*
X132044205Y-65794088D01*
X132137186Y-65968044D01*
X132401587Y-66063808D01*
X133357395Y-65108000D01*
X133716605Y-65108000D01*
X134672413Y-66063808D01*
X134936814Y-65968044D01*
X135077704Y-65678429D01*
X135159384Y-65366892D01*
X135178718Y-65045405D01*
X135161603Y-64920595D01*
X139395282Y-64920595D01*
X139439039Y-65239675D01*
X139544205Y-65544088D01*
X139637186Y-65718044D01*
X139901587Y-65813808D01*
X140857395Y-64858000D01*
X141216605Y-64858000D01*
X142172413Y-65813808D01*
X142436814Y-65718044D01*
X142577704Y-65428429D01*
X142659384Y-65116892D01*
X142678718Y-64795405D01*
X142634961Y-64476325D01*
X142529795Y-64171912D01*
X142436814Y-63997956D01*
X142172413Y-63902192D01*
X141216605Y-64858000D01*
X140857395Y-64858000D01*
X139901587Y-63902192D01*
X139637186Y-63997956D01*
X139496296Y-64287571D01*
X139414616Y-64599108D01*
X139395282Y-64920595D01*
X135161603Y-64920595D01*
X135134961Y-64726325D01*
X135029795Y-64421912D01*
X134936814Y-64247956D01*
X134672413Y-64152192D01*
X133716605Y-65108000D01*
X133357395Y-65108000D01*
X132401587Y-64152192D01*
X132137186Y-64247956D01*
X131996296Y-64537571D01*
X131914616Y-64849108D01*
X131895282Y-65170595D01*
X125429065Y-65170595D01*
X125430303Y-65169564D01*
X125447775Y-65151828D01*
X125461451Y-65131024D01*
X125470805Y-65107952D01*
X125476000Y-65072000D01*
X125476000Y-63972587D01*
X132581192Y-63972587D01*
X133537000Y-64928395D01*
X134492808Y-63972587D01*
X134402260Y-63722587D01*
X140081192Y-63722587D01*
X141037000Y-64678395D01*
X141992808Y-63722587D01*
X141897044Y-63458186D01*
X141607429Y-63317296D01*
X141295892Y-63235616D01*
X140974405Y-63216282D01*
X140655325Y-63260039D01*
X140350912Y-63365205D01*
X140176956Y-63458186D01*
X140081192Y-63722587D01*
X134402260Y-63722587D01*
X134397044Y-63708186D01*
X134107429Y-63567296D01*
X133795892Y-63485616D01*
X133474405Y-63466282D01*
X133155325Y-63510039D01*
X132850912Y-63615205D01*
X132676956Y-63708186D01*
X132581192Y-63972587D01*
X125476000Y-63972587D01*
X125476000Y-63040000D01*
X125473560Y-63015224D01*
X125466333Y-62991399D01*
X125454597Y-62969443D01*
X125430303Y-62942436D01*
X123906303Y-61672436D01*
X123885707Y-61658449D01*
X123862778Y-61648749D01*
X123838398Y-61643709D01*
X123825000Y-61643000D01*
X122301000Y-61643000D01*
X122276224Y-61645440D01*
X122252399Y-61652667D01*
X122230443Y-61664403D01*
X122219697Y-61672436D01*
X120695697Y-62942436D01*
X120678225Y-62960172D01*
X120664549Y-62980976D01*
X120655195Y-63004048D01*
X120650000Y-63040000D01*
X120650000Y-65072000D01*
X120652440Y-65096776D01*
X120659667Y-65120601D01*
X120671403Y-65142557D01*
X120687197Y-65161803D01*
X120703183Y-65175344D01*
X122428000Y-66407356D01*
X122428000Y-68575394D01*
X120470394Y-70533000D01*
X115749606Y-70533000D01*
X115062000Y-69845394D01*
X115062000Y-68120000D01*
X115059560Y-68095224D01*
X115052333Y-68071399D01*
X115040597Y-68049443D01*
X115024803Y-68030197D01*
X114262803Y-67268197D01*
X114243557Y-67252403D01*
X114221601Y-67240667D01*
X114197776Y-67233440D01*
X114173000Y-67231000D01*
X113209606Y-67231000D01*
X112268000Y-66289394D01*
X112268000Y-61160000D01*
X140467721Y-61160000D01*
X140953893Y-61207670D01*
X141390498Y-61339489D01*
X141793185Y-61553600D01*
X142146612Y-61841848D01*
X142437327Y-62193261D01*
X142654242Y-62594439D01*
X142789106Y-63030113D01*
X142840000Y-63514344D01*
X142840001Y-111467711D01*
X142792330Y-111953894D01*
X142660512Y-112390497D01*
X142446399Y-112793186D01*
X142158150Y-113146613D01*
X141806739Y-113437327D01*
X141405564Y-113654240D01*
X140969886Y-113789106D01*
X140485664Y-113840000D01*
X63532279Y-113840000D01*
X63046106Y-113792330D01*
X62609503Y-113660512D01*
X62206814Y-113446399D01*
X61853387Y-113158150D01*
X61562673Y-112806739D01*
X61345760Y-112405564D01*
X61210894Y-111969886D01*
X61160000Y-111485664D01*
X61160000Y-111059413D01*
X61949192Y-111059413D01*
X62044956Y-111323814D01*
X62334571Y-111464704D01*
X62646108Y-111546384D01*
X62967595Y-111565718D01*
X63286675Y-111521961D01*
X63591088Y-111416795D01*
X63765044Y-111323814D01*
X63860808Y-111059413D01*
X62905000Y-110103605D01*
X61949192Y-111059413D01*
X61160000Y-111059413D01*
X61160000Y-109986595D01*
X61263282Y-109986595D01*
X61307039Y-110305675D01*
X61412205Y-110610088D01*
X61505186Y-110784044D01*
X61769587Y-110879808D01*
X62725395Y-109924000D01*
X63084605Y-109924000D01*
X64040413Y-110879808D01*
X64234771Y-110809413D01*
X69449192Y-110809413D01*
X69544956Y-111073814D01*
X69834571Y-111214704D01*
X70146108Y-111296384D01*
X70467595Y-111315718D01*
X70786675Y-111271961D01*
X71091088Y-111166795D01*
X71265044Y-111073814D01*
X71360808Y-110809413D01*
X71294808Y-110743413D01*
X132581192Y-110743413D01*
X132676956Y-111007814D01*
X132966571Y-111148704D01*
X133278108Y-111230384D01*
X133599595Y-111249718D01*
X133918675Y-111205961D01*
X134223088Y-111100795D01*
X134397044Y-111007814D01*
X134492808Y-110743413D01*
X133537000Y-109787605D01*
X132581192Y-110743413D01*
X71294808Y-110743413D01*
X70405000Y-109853605D01*
X69449192Y-110809413D01*
X64234771Y-110809413D01*
X64304814Y-110784044D01*
X64445704Y-110494429D01*
X64527384Y-110182892D01*
X64546718Y-109861405D01*
X64529603Y-109736595D01*
X68763282Y-109736595D01*
X68807039Y-110055675D01*
X68912205Y-110360088D01*
X69005186Y-110534044D01*
X69269587Y-110629808D01*
X70225395Y-109674000D01*
X70584605Y-109674000D01*
X71540413Y-110629808D01*
X71804814Y-110534044D01*
X71945704Y-110244429D01*
X72027384Y-109932892D01*
X72043158Y-109670595D01*
X131895282Y-109670595D01*
X131939039Y-109989675D01*
X132044205Y-110294088D01*
X132137186Y-110468044D01*
X132401587Y-110563808D01*
X133357395Y-109608000D01*
X133716605Y-109608000D01*
X134672413Y-110563808D01*
X134936814Y-110468044D01*
X135077704Y-110178429D01*
X135159384Y-109866892D01*
X135178718Y-109545405D01*
X135165219Y-109446967D01*
X139402000Y-109446967D01*
X139402000Y-109769033D01*
X139464832Y-110084912D01*
X139588082Y-110382463D01*
X139767013Y-110650252D01*
X139994748Y-110877987D01*
X140262537Y-111056918D01*
X140560088Y-111180168D01*
X140875967Y-111243000D01*
X141198033Y-111243000D01*
X141513912Y-111180168D01*
X141811463Y-111056918D01*
X142079252Y-110877987D01*
X142306987Y-110650252D01*
X142485918Y-110382463D01*
X142609168Y-110084912D01*
X142672000Y-109769033D01*
X142672000Y-109446967D01*
X142609168Y-109131088D01*
X142485918Y-108833537D01*
X142306987Y-108565748D01*
X142079252Y-108338013D01*
X141811463Y-108159082D01*
X141513912Y-108035832D01*
X141198033Y-107973000D01*
X140875967Y-107973000D01*
X140560088Y-108035832D01*
X140262537Y-108159082D01*
X139994748Y-108338013D01*
X139767013Y-108565748D01*
X139588082Y-108833537D01*
X139464832Y-109131088D01*
X139402000Y-109446967D01*
X135165219Y-109446967D01*
X135134961Y-109226325D01*
X135029795Y-108921912D01*
X134936814Y-108747956D01*
X134672413Y-108652192D01*
X133716605Y-109608000D01*
X133357395Y-109608000D01*
X132401587Y-108652192D01*
X132137186Y-108747956D01*
X131996296Y-109037571D01*
X131914616Y-109349108D01*
X131895282Y-109670595D01*
X72043158Y-109670595D01*
X72046718Y-109611405D01*
X72002961Y-109292325D01*
X71897795Y-108987912D01*
X71804814Y-108813956D01*
X71540413Y-108718192D01*
X70584605Y-109674000D01*
X70225395Y-109674000D01*
X69269587Y-108718192D01*
X69005186Y-108813956D01*
X68864296Y-109103571D01*
X68782616Y-109415108D01*
X68763282Y-109736595D01*
X64529603Y-109736595D01*
X64502961Y-109542325D01*
X64397795Y-109237912D01*
X64304814Y-109063956D01*
X64040413Y-108968192D01*
X63084605Y-109924000D01*
X62725395Y-109924000D01*
X61769587Y-108968192D01*
X61505186Y-109063956D01*
X61364296Y-109353571D01*
X61282616Y-109665108D01*
X61263282Y-109986595D01*
X61160000Y-109986595D01*
X61160000Y-108788587D01*
X61949192Y-108788587D01*
X62905000Y-109744395D01*
X63860808Y-108788587D01*
X63765044Y-108524186D01*
X63475429Y-108383296D01*
X63163892Y-108301616D01*
X62842405Y-108282282D01*
X62523325Y-108326039D01*
X62218912Y-108431205D01*
X62044956Y-108524186D01*
X61949192Y-108788587D01*
X61160000Y-108788587D01*
X61160000Y-107282665D01*
X63970000Y-107282665D01*
X63970000Y-107565335D01*
X64025147Y-107842574D01*
X64133320Y-108103727D01*
X64290363Y-108338759D01*
X64490241Y-108538637D01*
X64725273Y-108695680D01*
X64986426Y-108803853D01*
X65263665Y-108859000D01*
X65546335Y-108859000D01*
X65823574Y-108803853D01*
X66084727Y-108695680D01*
X66319759Y-108538637D01*
X66519637Y-108338759D01*
X66655000Y-108136173D01*
X66790363Y-108338759D01*
X66990241Y-108538637D01*
X67225273Y-108695680D01*
X67486426Y-108803853D01*
X67763665Y-108859000D01*
X68046335Y-108859000D01*
X68323574Y-108803853D01*
X68584727Y-108695680D01*
X68819759Y-108538637D01*
X68819809Y-108538587D01*
X69449192Y-108538587D01*
X70405000Y-109494395D01*
X71360808Y-108538587D01*
X71336904Y-108472587D01*
X132581192Y-108472587D01*
X133537000Y-109428395D01*
X134492808Y-108472587D01*
X134448663Y-108350702D01*
X135223903Y-108350702D01*
X135295486Y-108594671D01*
X135550996Y-108715571D01*
X135825184Y-108784300D01*
X136107512Y-108798217D01*
X136387130Y-108756787D01*
X136653292Y-108661603D01*
X136778514Y-108594671D01*
X136850097Y-108350702D01*
X136037000Y-107537605D01*
X135223903Y-108350702D01*
X134448663Y-108350702D01*
X134397044Y-108208186D01*
X134107429Y-108067296D01*
X133795892Y-107985616D01*
X133474405Y-107966282D01*
X133155325Y-108010039D01*
X132850912Y-108115205D01*
X132676956Y-108208186D01*
X132581192Y-108472587D01*
X71336904Y-108472587D01*
X71265044Y-108274186D01*
X70975429Y-108133296D01*
X70663892Y-108051616D01*
X70342405Y-108032282D01*
X70023325Y-108076039D01*
X69718912Y-108181205D01*
X69544956Y-108274186D01*
X69449192Y-108538587D01*
X68819809Y-108538587D01*
X69019637Y-108338759D01*
X69176680Y-108103727D01*
X69284853Y-107842574D01*
X69340000Y-107565335D01*
X69340000Y-107428512D01*
X134596783Y-107428512D01*
X134638213Y-107708130D01*
X134733397Y-107974292D01*
X134800329Y-108099514D01*
X135044298Y-108171097D01*
X135857395Y-107358000D01*
X136216605Y-107358000D01*
X137029702Y-108171097D01*
X137273671Y-108099514D01*
X137287324Y-108070659D01*
X137422363Y-108272759D01*
X137622241Y-108472637D01*
X137857273Y-108629680D01*
X138118426Y-108737853D01*
X138395665Y-108793000D01*
X138678335Y-108793000D01*
X138955574Y-108737853D01*
X139216727Y-108629680D01*
X139451759Y-108472637D01*
X139651637Y-108272759D01*
X139808680Y-108037727D01*
X139916853Y-107776574D01*
X139972000Y-107499335D01*
X139972000Y-107216665D01*
X139916853Y-106939426D01*
X139808680Y-106678273D01*
X139651637Y-106443241D01*
X139451759Y-106243363D01*
X139216727Y-106086320D01*
X138955574Y-105978147D01*
X138678335Y-105923000D01*
X138395665Y-105923000D01*
X138118426Y-105978147D01*
X137857273Y-106086320D01*
X137622241Y-106243363D01*
X137422363Y-106443241D01*
X137288308Y-106643869D01*
X137273671Y-106616486D01*
X137029702Y-106544903D01*
X136216605Y-107358000D01*
X135857395Y-107358000D01*
X135044298Y-106544903D01*
X134800329Y-106616486D01*
X134679429Y-106871996D01*
X134610700Y-107146184D01*
X134596783Y-107428512D01*
X69340000Y-107428512D01*
X69340000Y-107282665D01*
X69284853Y-107005426D01*
X69176680Y-106744273D01*
X69019637Y-106509241D01*
X68875694Y-106365298D01*
X135223903Y-106365298D01*
X136037000Y-107178395D01*
X136850097Y-106365298D01*
X136778514Y-106121329D01*
X136523004Y-106000429D01*
X136248816Y-105931700D01*
X135966488Y-105917783D01*
X135686870Y-105959213D01*
X135420708Y-106054397D01*
X135295486Y-106121329D01*
X135223903Y-106365298D01*
X68875694Y-106365298D01*
X68819759Y-106309363D01*
X68584727Y-106152320D01*
X68323574Y-106044147D01*
X68046335Y-105989000D01*
X67763665Y-105989000D01*
X67486426Y-106044147D01*
X67225273Y-106152320D01*
X66990241Y-106309363D01*
X66790363Y-106509241D01*
X66655000Y-106711827D01*
X66519637Y-106509241D01*
X66319759Y-106309363D01*
X66084727Y-106152320D01*
X65823574Y-106044147D01*
X65546335Y-105989000D01*
X65263665Y-105989000D01*
X64986426Y-106044147D01*
X64725273Y-106152320D01*
X64490241Y-106309363D01*
X64290363Y-106509241D01*
X64133320Y-106744273D01*
X64025147Y-107005426D01*
X63970000Y-107282665D01*
X61160000Y-107282665D01*
X61160000Y-67282665D01*
X63970000Y-67282665D01*
X63970000Y-67565335D01*
X64025147Y-67842574D01*
X64133320Y-68103727D01*
X64290363Y-68338759D01*
X64490241Y-68538637D01*
X64725273Y-68695680D01*
X64986426Y-68803853D01*
X65263665Y-68859000D01*
X65546335Y-68859000D01*
X65823574Y-68803853D01*
X66084727Y-68695680D01*
X66319759Y-68538637D01*
X66441694Y-68416702D01*
X67091903Y-68416702D01*
X67163486Y-68660671D01*
X67418996Y-68781571D01*
X67693184Y-68850300D01*
X67975512Y-68864217D01*
X68255130Y-68822787D01*
X68521292Y-68727603D01*
X68646514Y-68660671D01*
X68718097Y-68416702D01*
X67905000Y-67603605D01*
X67091903Y-68416702D01*
X66441694Y-68416702D01*
X66519637Y-68338759D01*
X66653692Y-68138131D01*
X66668329Y-68165514D01*
X66912298Y-68237097D01*
X67725395Y-67424000D01*
X68084605Y-67424000D01*
X68897702Y-68237097D01*
X69141671Y-68165514D01*
X69262571Y-67910004D01*
X69331300Y-67635816D01*
X69345217Y-67353488D01*
X69303787Y-67073870D01*
X69208603Y-66807708D01*
X69141671Y-66682486D01*
X68897702Y-66610903D01*
X68084605Y-67424000D01*
X67725395Y-67424000D01*
X66912298Y-66610903D01*
X66668329Y-66682486D01*
X66654676Y-66711341D01*
X66519637Y-66509241D01*
X66441694Y-66431298D01*
X67091903Y-66431298D01*
X67905000Y-67244395D01*
X68718097Y-66431298D01*
X68682335Y-66309413D01*
X69449192Y-66309413D01*
X69544956Y-66573814D01*
X69834571Y-66714704D01*
X70146108Y-66796384D01*
X70467595Y-66815718D01*
X70786675Y-66771961D01*
X71091088Y-66666795D01*
X71265044Y-66573814D01*
X71360808Y-66309413D01*
X70405000Y-65353605D01*
X69449192Y-66309413D01*
X68682335Y-66309413D01*
X68646514Y-66187329D01*
X68391004Y-66066429D01*
X68116816Y-65997700D01*
X67834488Y-65983783D01*
X67554870Y-66025213D01*
X67288708Y-66120397D01*
X67163486Y-66187329D01*
X67091903Y-66431298D01*
X66441694Y-66431298D01*
X66319759Y-66309363D01*
X66084727Y-66152320D01*
X65823574Y-66044147D01*
X65546335Y-65989000D01*
X65263665Y-65989000D01*
X64986426Y-66044147D01*
X64725273Y-66152320D01*
X64490241Y-66309363D01*
X64290363Y-66509241D01*
X64133320Y-66744273D01*
X64025147Y-67005426D01*
X63970000Y-67282665D01*
X61160000Y-67282665D01*
X61160000Y-65012967D01*
X61270000Y-65012967D01*
X61270000Y-65335033D01*
X61332832Y-65650912D01*
X61456082Y-65948463D01*
X61635013Y-66216252D01*
X61862748Y-66443987D01*
X62130537Y-66622918D01*
X62428088Y-66746168D01*
X62743967Y-66809000D01*
X63066033Y-66809000D01*
X63381912Y-66746168D01*
X63679463Y-66622918D01*
X63947252Y-66443987D01*
X64174987Y-66216252D01*
X64353918Y-65948463D01*
X64477168Y-65650912D01*
X64540000Y-65335033D01*
X64540000Y-65236595D01*
X68763282Y-65236595D01*
X68807039Y-65555675D01*
X68912205Y-65860088D01*
X69005186Y-66034044D01*
X69269587Y-66129808D01*
X70225395Y-65174000D01*
X70584605Y-65174000D01*
X71540413Y-66129808D01*
X71804814Y-66034044D01*
X71945704Y-65744429D01*
X72027384Y-65432892D01*
X72046718Y-65111405D01*
X72002961Y-64792325D01*
X71897795Y-64487912D01*
X71804814Y-64313956D01*
X71540413Y-64218192D01*
X70584605Y-65174000D01*
X70225395Y-65174000D01*
X69269587Y-64218192D01*
X69005186Y-64313956D01*
X68864296Y-64603571D01*
X68782616Y-64915108D01*
X68763282Y-65236595D01*
X64540000Y-65236595D01*
X64540000Y-65012967D01*
X64477168Y-64697088D01*
X64353918Y-64399537D01*
X64174987Y-64131748D01*
X64081826Y-64038587D01*
X69449192Y-64038587D01*
X70405000Y-64994395D01*
X71360808Y-64038587D01*
X71265044Y-63774186D01*
X70975429Y-63633296D01*
X70663892Y-63551616D01*
X70342405Y-63532282D01*
X70023325Y-63576039D01*
X69718912Y-63681205D01*
X69544956Y-63774186D01*
X69449192Y-64038587D01*
X64081826Y-64038587D01*
X63947252Y-63904013D01*
X63679463Y-63725082D01*
X63381912Y-63601832D01*
X63066033Y-63539000D01*
X62743967Y-63539000D01*
X62428088Y-63601832D01*
X62130537Y-63725082D01*
X61862748Y-63904013D01*
X61635013Y-64131748D01*
X61456082Y-64399537D01*
X61332832Y-64697088D01*
X61270000Y-65012967D01*
X61160000Y-65012967D01*
X61160000Y-63532279D01*
X61207670Y-63046107D01*
X61339489Y-62609502D01*
X61553600Y-62206815D01*
X61841848Y-61853388D01*
X62193261Y-61562673D01*
X62594439Y-61345758D01*
X63030113Y-61210894D01*
X63514344Y-61160000D01*
X75791394Y-61160000D01*
X75946000Y-61314606D01*
%TA.AperFunction,Conductor*%
D19*
G36*
X75946000Y-61314606D02*
G01*
X75946000Y-62245632D01*
X75927870Y-62305398D01*
X75910000Y-62486835D01*
X75910000Y-63308164D01*
X75927870Y-63489601D01*
X75946000Y-63549367D01*
X75946000Y-66342000D01*
X75948440Y-66366776D01*
X75955667Y-66390601D01*
X75967403Y-66412557D01*
X75983197Y-66431803D01*
X76491197Y-66939803D01*
X76510443Y-66955597D01*
X76532399Y-66967333D01*
X76556224Y-66974560D01*
X76581000Y-66977000D01*
X83693000Y-66977000D01*
X83717776Y-66974560D01*
X83741601Y-66967333D01*
X83763557Y-66955597D01*
X83782803Y-66939803D01*
X84253606Y-66469000D01*
X88466394Y-66469000D01*
X89662000Y-67664606D01*
X89662000Y-68374000D01*
X89664440Y-68398776D01*
X89671667Y-68422601D01*
X89683403Y-68444557D01*
X89699197Y-68463803D01*
X89718443Y-68479597D01*
X89740399Y-68491333D01*
X89764224Y-68498560D01*
X89789000Y-68501000D01*
X93396181Y-68501000D01*
X93345498Y-68595820D01*
X93309188Y-68715518D01*
X93296928Y-68840000D01*
X93296928Y-69940000D01*
X93309188Y-70064482D01*
X93345498Y-70184180D01*
X93404463Y-70294494D01*
X93483815Y-70391185D01*
X93580506Y-70470537D01*
X93675544Y-70521337D01*
X93643025Y-70548025D01*
X93494942Y-70728464D01*
X93384906Y-70934326D01*
X93317147Y-71157700D01*
X93294267Y-71390000D01*
X93317147Y-71622300D01*
X93384906Y-71845674D01*
X93494942Y-72051536D01*
X93643025Y-72231975D01*
X93823464Y-72380058D01*
X93842064Y-72390000D01*
X93823464Y-72399942D01*
X93643025Y-72548025D01*
X93494942Y-72728464D01*
X93384906Y-72934326D01*
X93317147Y-73157700D01*
X93294267Y-73390000D01*
X93317147Y-73622300D01*
X93384906Y-73845674D01*
X93494942Y-74051536D01*
X93643025Y-74231975D01*
X93823464Y-74380058D01*
X93842064Y-74390000D01*
X93823464Y-74399942D01*
X93643025Y-74548025D01*
X93494942Y-74728464D01*
X93384906Y-74934326D01*
X93317147Y-75157700D01*
X93294267Y-75390000D01*
X93317147Y-75622300D01*
X93384906Y-75845674D01*
X93494942Y-76051536D01*
X93643025Y-76231975D01*
X93823464Y-76380058D01*
X93842064Y-76390000D01*
X93823464Y-76399942D01*
X93643025Y-76548025D01*
X93494942Y-76728464D01*
X93384906Y-76934326D01*
X93317147Y-77157700D01*
X93294267Y-77390000D01*
X93317147Y-77622300D01*
X93384906Y-77845674D01*
X93494942Y-78051536D01*
X93643025Y-78231975D01*
X93823464Y-78380058D01*
X93842064Y-78390000D01*
X93823464Y-78399942D01*
X93643025Y-78548025D01*
X93494942Y-78728464D01*
X93384906Y-78934326D01*
X93317147Y-79157700D01*
X93294267Y-79390000D01*
X93317147Y-79622300D01*
X93384906Y-79845674D01*
X93494942Y-80051536D01*
X93643025Y-80231975D01*
X93823464Y-80380058D01*
X93842064Y-80390000D01*
X93823464Y-80399942D01*
X93643025Y-80548025D01*
X93494942Y-80728464D01*
X93384906Y-80934326D01*
X93317147Y-81157700D01*
X93294267Y-81390000D01*
X93317147Y-81622300D01*
X93384906Y-81845674D01*
X93494942Y-82051536D01*
X93643025Y-82231975D01*
X93823464Y-82380058D01*
X93842064Y-82390000D01*
X93823464Y-82399942D01*
X93643025Y-82548025D01*
X93494942Y-82728464D01*
X93384906Y-82934326D01*
X93317147Y-83157700D01*
X93294267Y-83390000D01*
X93317147Y-83622300D01*
X93384906Y-83845674D01*
X93494942Y-84051536D01*
X93643025Y-84231975D01*
X93823464Y-84380058D01*
X94029326Y-84490094D01*
X94252700Y-84557853D01*
X94426793Y-84575000D01*
X95943207Y-84575000D01*
X96117300Y-84557853D01*
X96340674Y-84490094D01*
X96546536Y-84380058D01*
X96697445Y-84256210D01*
X96690000Y-84331794D01*
X96690000Y-85848207D01*
X96707147Y-86022300D01*
X96774906Y-86245674D01*
X96884943Y-86451536D01*
X97033026Y-86631975D01*
X97213465Y-86780058D01*
X97419327Y-86890094D01*
X97642701Y-86957853D01*
X97875000Y-86980733D01*
X98107300Y-86957853D01*
X98330674Y-86890094D01*
X98536536Y-86780058D01*
X98716975Y-86631975D01*
X98865058Y-86451536D01*
X98875000Y-86432935D01*
X98884943Y-86451536D01*
X99033026Y-86631975D01*
X99213465Y-86780058D01*
X99419327Y-86890094D01*
X99642701Y-86957853D01*
X99875000Y-86980733D01*
X100107300Y-86957853D01*
X100330674Y-86890094D01*
X100536536Y-86780058D01*
X100716975Y-86631975D01*
X100865058Y-86451536D01*
X100875000Y-86432935D01*
X100884943Y-86451536D01*
X101033026Y-86631975D01*
X101213465Y-86780058D01*
X101419327Y-86890094D01*
X101642701Y-86957853D01*
X101875000Y-86980733D01*
X102107300Y-86957853D01*
X102330674Y-86890094D01*
X102536536Y-86780058D01*
X102716975Y-86631975D01*
X102865058Y-86451536D01*
X102875000Y-86432935D01*
X102884943Y-86451536D01*
X103033026Y-86631975D01*
X103213465Y-86780058D01*
X103419327Y-86890094D01*
X103642701Y-86957853D01*
X103875000Y-86980733D01*
X104107300Y-86957853D01*
X104330674Y-86890094D01*
X104536536Y-86780058D01*
X104716975Y-86631975D01*
X104865058Y-86451536D01*
X104875000Y-86432935D01*
X104884943Y-86451536D01*
X105033026Y-86631975D01*
X105213465Y-86780058D01*
X105419327Y-86890094D01*
X105642701Y-86957853D01*
X105875000Y-86980733D01*
X106107300Y-86957853D01*
X106330674Y-86890094D01*
X106536536Y-86780058D01*
X106716975Y-86631975D01*
X106865058Y-86451536D01*
X106875000Y-86432935D01*
X106884943Y-86451536D01*
X107033026Y-86631975D01*
X107213465Y-86780058D01*
X107419327Y-86890094D01*
X107642701Y-86957853D01*
X107875000Y-86980733D01*
X108107300Y-86957853D01*
X108330674Y-86890094D01*
X108536536Y-86780058D01*
X108716975Y-86631975D01*
X108865058Y-86451536D01*
X108975094Y-86245674D01*
X109042853Y-86022300D01*
X109060000Y-85848207D01*
X109060000Y-84331793D01*
X109050239Y-84232694D01*
X109121052Y-84304734D01*
X109314187Y-84436196D01*
X109529258Y-84527454D01*
X109758000Y-84575000D01*
X110458000Y-84575000D01*
X110458000Y-83517000D01*
X110712000Y-83517000D01*
X110712000Y-84575000D01*
X111412000Y-84575000D01*
X111640742Y-84527454D01*
X111855813Y-84436196D01*
X112048948Y-84304734D01*
X112212725Y-84138119D01*
X112340850Y-83942754D01*
X112428399Y-83726147D01*
X112428803Y-83699744D01*
X112303361Y-83517000D01*
X110712000Y-83517000D01*
X110458000Y-83517000D01*
X108866639Y-83517000D01*
X108786876Y-83633199D01*
X108716975Y-83548025D01*
X108536535Y-83399942D01*
X108330673Y-83289906D01*
X108107299Y-83222147D01*
X107875000Y-83199267D01*
X107642700Y-83222147D01*
X107419326Y-83289906D01*
X107213464Y-83399942D01*
X107033025Y-83548025D01*
X106884942Y-83728465D01*
X106875000Y-83747065D01*
X106865058Y-83728464D01*
X106716975Y-83548025D01*
X106536535Y-83399942D01*
X106330673Y-83289906D01*
X106107299Y-83222147D01*
X105875000Y-83199267D01*
X105642700Y-83222147D01*
X105419326Y-83289906D01*
X105213464Y-83399942D01*
X105033025Y-83548025D01*
X104884942Y-83728465D01*
X104875000Y-83747065D01*
X104865058Y-83728464D01*
X104716975Y-83548025D01*
X104536535Y-83399942D01*
X104330673Y-83289906D01*
X104107299Y-83222147D01*
X103875000Y-83199267D01*
X103642700Y-83222147D01*
X103419326Y-83289906D01*
X103213464Y-83399942D01*
X103033025Y-83548025D01*
X102884942Y-83728465D01*
X102875000Y-83747065D01*
X102865058Y-83728464D01*
X102716975Y-83548025D01*
X102536535Y-83399942D01*
X102330673Y-83289906D01*
X102107299Y-83222147D01*
X101875000Y-83199267D01*
X101642700Y-83222147D01*
X101419326Y-83289906D01*
X101213464Y-83399942D01*
X101033025Y-83548025D01*
X100884942Y-83728465D01*
X100875000Y-83747065D01*
X100865058Y-83728464D01*
X100716975Y-83548025D01*
X100536535Y-83399942D01*
X100330673Y-83289906D01*
X100107299Y-83222147D01*
X99875000Y-83199267D01*
X99642700Y-83222147D01*
X99419326Y-83289906D01*
X99213464Y-83399942D01*
X99033025Y-83548025D01*
X98884942Y-83728465D01*
X98875000Y-83747065D01*
X98865058Y-83728464D01*
X98716975Y-83548025D01*
X98536535Y-83399942D01*
X98330673Y-83289906D01*
X98107299Y-83222147D01*
X97875000Y-83199267D01*
X97642700Y-83222147D01*
X97419326Y-83289906D01*
X97213464Y-83399942D01*
X97062556Y-83523790D01*
X97075733Y-83390000D01*
X97052853Y-83157700D01*
X96985094Y-82934326D01*
X96875058Y-82728464D01*
X96726975Y-82548025D01*
X96546536Y-82399942D01*
X96527936Y-82390000D01*
X96546536Y-82380058D01*
X96726975Y-82231975D01*
X96875058Y-82051536D01*
X96985094Y-81845674D01*
X97052853Y-81622300D01*
X97075733Y-81390000D01*
X97052853Y-81157700D01*
X96985094Y-80934326D01*
X96875058Y-80728464D01*
X96726975Y-80548025D01*
X96546536Y-80399942D01*
X96527936Y-80390000D01*
X96546536Y-80380058D01*
X96726975Y-80231975D01*
X96875058Y-80051536D01*
X96985094Y-79845674D01*
X97052853Y-79622300D01*
X97075733Y-79390000D01*
X97052853Y-79157700D01*
X96985094Y-78934326D01*
X96875058Y-78728464D01*
X96726975Y-78548025D01*
X96546536Y-78399942D01*
X96527936Y-78390000D01*
X96546536Y-78380058D01*
X96726975Y-78231975D01*
X96875058Y-78051536D01*
X96985094Y-77845674D01*
X97052853Y-77622300D01*
X97075733Y-77390000D01*
X97052853Y-77157700D01*
X96985094Y-76934326D01*
X96875058Y-76728464D01*
X96726975Y-76548025D01*
X96546536Y-76399942D01*
X96527936Y-76390000D01*
X96546536Y-76380058D01*
X96726975Y-76231975D01*
X96875058Y-76051536D01*
X96985094Y-75845674D01*
X97052853Y-75622300D01*
X97075733Y-75390000D01*
X97052853Y-75157700D01*
X96985094Y-74934326D01*
X96875058Y-74728464D01*
X96726975Y-74548025D01*
X96546536Y-74399942D01*
X96527936Y-74390000D01*
X96546536Y-74380058D01*
X96726975Y-74231975D01*
X96875058Y-74051536D01*
X96985094Y-73845674D01*
X97052853Y-73622300D01*
X97075733Y-73390000D01*
X97052853Y-73157700D01*
X96985094Y-72934326D01*
X96875058Y-72728464D01*
X96726975Y-72548025D01*
X96546536Y-72399942D01*
X96527936Y-72390000D01*
X96546536Y-72380058D01*
X96726975Y-72231975D01*
X96875058Y-72051536D01*
X96985094Y-71845674D01*
X97052853Y-71622300D01*
X97075733Y-71390000D01*
X97052853Y-71157700D01*
X96985094Y-70934326D01*
X96875058Y-70728464D01*
X96726975Y-70548025D01*
X96694456Y-70521337D01*
X96789494Y-70470537D01*
X96886185Y-70391185D01*
X96965537Y-70294494D01*
X97024502Y-70184180D01*
X97060812Y-70064482D01*
X97073072Y-69940000D01*
X97073072Y-68840000D01*
X97060812Y-68715518D01*
X97024502Y-68595820D01*
X96973819Y-68501000D01*
X107770394Y-68501000D01*
X108698077Y-69428683D01*
X108712000Y-69570043D01*
X108712000Y-71209957D01*
X108694267Y-71390000D01*
X108712000Y-71570043D01*
X108712000Y-72438000D01*
X108714440Y-72462776D01*
X108721667Y-72486601D01*
X108733403Y-72508557D01*
X108749197Y-72527803D01*
X108768443Y-72543597D01*
X108790399Y-72555333D01*
X108814224Y-72562560D01*
X108839000Y-72565000D01*
X109029094Y-72565000D01*
X108894942Y-72728464D01*
X108784906Y-72934326D01*
X108717147Y-73157700D01*
X108694267Y-73390000D01*
X108717147Y-73622300D01*
X108784906Y-73845674D01*
X108894942Y-74051536D01*
X109043025Y-74231975D01*
X109223464Y-74380058D01*
X109242064Y-74390000D01*
X109223464Y-74399942D01*
X109043025Y-74548025D01*
X108894942Y-74728464D01*
X108784906Y-74934326D01*
X108717147Y-75157700D01*
X108694267Y-75390000D01*
X108717147Y-75622300D01*
X108784906Y-75845674D01*
X108894942Y-76051536D01*
X109043025Y-76231975D01*
X109223464Y-76380058D01*
X109242064Y-76390000D01*
X109223464Y-76399942D01*
X109043025Y-76548025D01*
X108894942Y-76728464D01*
X108784906Y-76934326D01*
X108717147Y-77157700D01*
X108694267Y-77390000D01*
X108717147Y-77622300D01*
X108784906Y-77845674D01*
X108894942Y-78051536D01*
X109043025Y-78231975D01*
X109223464Y-78380058D01*
X109242064Y-78390000D01*
X109223464Y-78399942D01*
X109043025Y-78548025D01*
X108894942Y-78728464D01*
X108784906Y-78934326D01*
X108717147Y-79157700D01*
X108694267Y-79390000D01*
X108717147Y-79622300D01*
X108784906Y-79845674D01*
X108894942Y-80051536D01*
X109043025Y-80231975D01*
X109198695Y-80359730D01*
X109123464Y-80399942D01*
X108943025Y-80548025D01*
X108794942Y-80728464D01*
X108684906Y-80934326D01*
X108617147Y-81157700D01*
X108594267Y-81390000D01*
X108617147Y-81622300D01*
X108684906Y-81845674D01*
X108794942Y-82051536D01*
X108943025Y-82231975D01*
X109123464Y-82380058D01*
X109200461Y-82421214D01*
X109121052Y-82475266D01*
X108957275Y-82641881D01*
X108829150Y-82837246D01*
X108741601Y-83053853D01*
X108741197Y-83080256D01*
X108866639Y-83263000D01*
X110458000Y-83263000D01*
X110458000Y-83243000D01*
X110712000Y-83243000D01*
X110712000Y-83263000D01*
X112303361Y-83263000D01*
X112428803Y-83080256D01*
X112428399Y-83053853D01*
X112340850Y-82837246D01*
X112212725Y-82641881D01*
X112048948Y-82475266D01*
X111874889Y-82356789D01*
X112026975Y-82231975D01*
X112175058Y-82051536D01*
X112285094Y-81845674D01*
X112352853Y-81622300D01*
X112375733Y-81390000D01*
X112352853Y-81157700D01*
X112285094Y-80934326D01*
X112175058Y-80728464D01*
X112026975Y-80548025D01*
X111871305Y-80420270D01*
X111946536Y-80380058D01*
X112126975Y-80231975D01*
X112275058Y-80051536D01*
X112385094Y-79845674D01*
X112452853Y-79622300D01*
X112475733Y-79390000D01*
X112452853Y-79157700D01*
X112385094Y-78934326D01*
X112275058Y-78728464D01*
X112126975Y-78548025D01*
X111946536Y-78399942D01*
X111927936Y-78390000D01*
X111946536Y-78380058D01*
X112126975Y-78231975D01*
X112275058Y-78051536D01*
X112385094Y-77845674D01*
X112452853Y-77622300D01*
X112475733Y-77390000D01*
X112452853Y-77157700D01*
X112385094Y-76934326D01*
X112275058Y-76728464D01*
X112126975Y-76548025D01*
X111946536Y-76399942D01*
X111927936Y-76390000D01*
X111946536Y-76380058D01*
X112126975Y-76231975D01*
X112275058Y-76051536D01*
X112385094Y-75845674D01*
X112452853Y-75622300D01*
X112475733Y-75390000D01*
X112452853Y-75157700D01*
X112385094Y-74934326D01*
X112275058Y-74728464D01*
X112126975Y-74548025D01*
X111946536Y-74399942D01*
X111927936Y-74390000D01*
X111946536Y-74380058D01*
X112126975Y-74231975D01*
X112275058Y-74051536D01*
X112385094Y-73845674D01*
X112452853Y-73622300D01*
X112475733Y-73390000D01*
X112452853Y-73157700D01*
X112385094Y-72934326D01*
X112275058Y-72728464D01*
X112126975Y-72548025D01*
X112033387Y-72471219D01*
X112447606Y-72057000D01*
X120777000Y-72057000D01*
X120801776Y-72054560D01*
X120825601Y-72047333D01*
X120847557Y-72035597D01*
X120866803Y-72019803D01*
X123914803Y-68971803D01*
X123930597Y-68952557D01*
X123942333Y-68930601D01*
X123949560Y-68906776D01*
X123952000Y-68882000D01*
X123952000Y-67216665D01*
X134602000Y-67216665D01*
X134602000Y-67499335D01*
X134657147Y-67776574D01*
X134765320Y-68037727D01*
X134922363Y-68272759D01*
X135122241Y-68472637D01*
X135357273Y-68629680D01*
X135618426Y-68737853D01*
X135895665Y-68793000D01*
X136178335Y-68793000D01*
X136455574Y-68737853D01*
X136716727Y-68629680D01*
X136951759Y-68472637D01*
X137151637Y-68272759D01*
X137287000Y-68070173D01*
X137422363Y-68272759D01*
X137622241Y-68472637D01*
X137857273Y-68629680D01*
X138118426Y-68737853D01*
X138395665Y-68793000D01*
X138678335Y-68793000D01*
X138955574Y-68737853D01*
X139216727Y-68629680D01*
X139451759Y-68472637D01*
X139651637Y-68272759D01*
X139808680Y-68037727D01*
X139916853Y-67776574D01*
X139972000Y-67499335D01*
X139972000Y-67216665D01*
X139916853Y-66939426D01*
X139808680Y-66678273D01*
X139651637Y-66443241D01*
X139451759Y-66243363D01*
X139216727Y-66086320D01*
X138992430Y-65993413D01*
X140081192Y-65993413D01*
X140176956Y-66257814D01*
X140466571Y-66398704D01*
X140778108Y-66480384D01*
X141099595Y-66499718D01*
X141418675Y-66455961D01*
X141723088Y-66350795D01*
X141897044Y-66257814D01*
X141992808Y-65993413D01*
X141037000Y-65037605D01*
X140081192Y-65993413D01*
X138992430Y-65993413D01*
X138955574Y-65978147D01*
X138678335Y-65923000D01*
X138395665Y-65923000D01*
X138118426Y-65978147D01*
X137857273Y-66086320D01*
X137622241Y-66243363D01*
X137422363Y-66443241D01*
X137287000Y-66645827D01*
X137151637Y-66443241D01*
X136951759Y-66243363D01*
X136716727Y-66086320D01*
X136455574Y-65978147D01*
X136178335Y-65923000D01*
X135895665Y-65923000D01*
X135618426Y-65978147D01*
X135357273Y-66086320D01*
X135122241Y-66243363D01*
X134922363Y-66443241D01*
X134765320Y-66678273D01*
X134657147Y-66939426D01*
X134602000Y-67216665D01*
X123952000Y-67216665D01*
X123952000Y-66401483D01*
X124141683Y-66243413D01*
X132581192Y-66243413D01*
X132676956Y-66507814D01*
X132966571Y-66648704D01*
X133278108Y-66730384D01*
X133599595Y-66749718D01*
X133918675Y-66705961D01*
X134223088Y-66600795D01*
X134397044Y-66507814D01*
X134492808Y-66243413D01*
X133537000Y-65287605D01*
X132581192Y-66243413D01*
X124141683Y-66243413D01*
X125429065Y-65170595D01*
X131895282Y-65170595D01*
X131939039Y-65489675D01*
X132044205Y-65794088D01*
X132137186Y-65968044D01*
X132401587Y-66063808D01*
X133357395Y-65108000D01*
X133716605Y-65108000D01*
X134672413Y-66063808D01*
X134936814Y-65968044D01*
X135077704Y-65678429D01*
X135159384Y-65366892D01*
X135178718Y-65045405D01*
X135161603Y-64920595D01*
X139395282Y-64920595D01*
X139439039Y-65239675D01*
X139544205Y-65544088D01*
X139637186Y-65718044D01*
X139901587Y-65813808D01*
X140857395Y-64858000D01*
X141216605Y-64858000D01*
X142172413Y-65813808D01*
X142436814Y-65718044D01*
X142577704Y-65428429D01*
X142659384Y-65116892D01*
X142678718Y-64795405D01*
X142634961Y-64476325D01*
X142529795Y-64171912D01*
X142436814Y-63997956D01*
X142172413Y-63902192D01*
X141216605Y-64858000D01*
X140857395Y-64858000D01*
X139901587Y-63902192D01*
X139637186Y-63997956D01*
X139496296Y-64287571D01*
X139414616Y-64599108D01*
X139395282Y-64920595D01*
X135161603Y-64920595D01*
X135134961Y-64726325D01*
X135029795Y-64421912D01*
X134936814Y-64247956D01*
X134672413Y-64152192D01*
X133716605Y-65108000D01*
X133357395Y-65108000D01*
X132401587Y-64152192D01*
X132137186Y-64247956D01*
X131996296Y-64537571D01*
X131914616Y-64849108D01*
X131895282Y-65170595D01*
X125429065Y-65170595D01*
X125430303Y-65169564D01*
X125447775Y-65151828D01*
X125461451Y-65131024D01*
X125470805Y-65107952D01*
X125476000Y-65072000D01*
X125476000Y-63972587D01*
X132581192Y-63972587D01*
X133537000Y-64928395D01*
X134492808Y-63972587D01*
X134402260Y-63722587D01*
X140081192Y-63722587D01*
X141037000Y-64678395D01*
X141992808Y-63722587D01*
X141897044Y-63458186D01*
X141607429Y-63317296D01*
X141295892Y-63235616D01*
X140974405Y-63216282D01*
X140655325Y-63260039D01*
X140350912Y-63365205D01*
X140176956Y-63458186D01*
X140081192Y-63722587D01*
X134402260Y-63722587D01*
X134397044Y-63708186D01*
X134107429Y-63567296D01*
X133795892Y-63485616D01*
X133474405Y-63466282D01*
X133155325Y-63510039D01*
X132850912Y-63615205D01*
X132676956Y-63708186D01*
X132581192Y-63972587D01*
X125476000Y-63972587D01*
X125476000Y-63040000D01*
X125473560Y-63015224D01*
X125466333Y-62991399D01*
X125454597Y-62969443D01*
X125430303Y-62942436D01*
X123906303Y-61672436D01*
X123885707Y-61658449D01*
X123862778Y-61648749D01*
X123838398Y-61643709D01*
X123825000Y-61643000D01*
X122301000Y-61643000D01*
X122276224Y-61645440D01*
X122252399Y-61652667D01*
X122230443Y-61664403D01*
X122219697Y-61672436D01*
X120695697Y-62942436D01*
X120678225Y-62960172D01*
X120664549Y-62980976D01*
X120655195Y-63004048D01*
X120650000Y-63040000D01*
X120650000Y-65072000D01*
X120652440Y-65096776D01*
X120659667Y-65120601D01*
X120671403Y-65142557D01*
X120687197Y-65161803D01*
X120703183Y-65175344D01*
X122428000Y-66407356D01*
X122428000Y-68575394D01*
X120470394Y-70533000D01*
X115749606Y-70533000D01*
X115062000Y-69845394D01*
X115062000Y-68120000D01*
X115059560Y-68095224D01*
X115052333Y-68071399D01*
X115040597Y-68049443D01*
X115024803Y-68030197D01*
X114262803Y-67268197D01*
X114243557Y-67252403D01*
X114221601Y-67240667D01*
X114197776Y-67233440D01*
X114173000Y-67231000D01*
X113209606Y-67231000D01*
X112268000Y-66289394D01*
X112268000Y-61160000D01*
X140467721Y-61160000D01*
X140953893Y-61207670D01*
X141390498Y-61339489D01*
X141793185Y-61553600D01*
X142146612Y-61841848D01*
X142437327Y-62193261D01*
X142654242Y-62594439D01*
X142789106Y-63030113D01*
X142840000Y-63514344D01*
X142840001Y-111467711D01*
X142792330Y-111953894D01*
X142660512Y-112390497D01*
X142446399Y-112793186D01*
X142158150Y-113146613D01*
X141806739Y-113437327D01*
X141405564Y-113654240D01*
X140969886Y-113789106D01*
X140485664Y-113840000D01*
X63532279Y-113840000D01*
X63046106Y-113792330D01*
X62609503Y-113660512D01*
X62206814Y-113446399D01*
X61853387Y-113158150D01*
X61562673Y-112806739D01*
X61345760Y-112405564D01*
X61210894Y-111969886D01*
X61160000Y-111485664D01*
X61160000Y-111059413D01*
X61949192Y-111059413D01*
X62044956Y-111323814D01*
X62334571Y-111464704D01*
X62646108Y-111546384D01*
X62967595Y-111565718D01*
X63286675Y-111521961D01*
X63591088Y-111416795D01*
X63765044Y-111323814D01*
X63860808Y-111059413D01*
X62905000Y-110103605D01*
X61949192Y-111059413D01*
X61160000Y-111059413D01*
X61160000Y-109986595D01*
X61263282Y-109986595D01*
X61307039Y-110305675D01*
X61412205Y-110610088D01*
X61505186Y-110784044D01*
X61769587Y-110879808D01*
X62725395Y-109924000D01*
X63084605Y-109924000D01*
X64040413Y-110879808D01*
X64234771Y-110809413D01*
X69449192Y-110809413D01*
X69544956Y-111073814D01*
X69834571Y-111214704D01*
X70146108Y-111296384D01*
X70467595Y-111315718D01*
X70786675Y-111271961D01*
X71091088Y-111166795D01*
X71265044Y-111073814D01*
X71360808Y-110809413D01*
X71294808Y-110743413D01*
X132581192Y-110743413D01*
X132676956Y-111007814D01*
X132966571Y-111148704D01*
X133278108Y-111230384D01*
X133599595Y-111249718D01*
X133918675Y-111205961D01*
X134223088Y-111100795D01*
X134397044Y-111007814D01*
X134492808Y-110743413D01*
X133537000Y-109787605D01*
X132581192Y-110743413D01*
X71294808Y-110743413D01*
X70405000Y-109853605D01*
X69449192Y-110809413D01*
X64234771Y-110809413D01*
X64304814Y-110784044D01*
X64445704Y-110494429D01*
X64527384Y-110182892D01*
X64546718Y-109861405D01*
X64529603Y-109736595D01*
X68763282Y-109736595D01*
X68807039Y-110055675D01*
X68912205Y-110360088D01*
X69005186Y-110534044D01*
X69269587Y-110629808D01*
X70225395Y-109674000D01*
X70584605Y-109674000D01*
X71540413Y-110629808D01*
X71804814Y-110534044D01*
X71945704Y-110244429D01*
X72027384Y-109932892D01*
X72043158Y-109670595D01*
X131895282Y-109670595D01*
X131939039Y-109989675D01*
X132044205Y-110294088D01*
X132137186Y-110468044D01*
X132401587Y-110563808D01*
X133357395Y-109608000D01*
X133716605Y-109608000D01*
X134672413Y-110563808D01*
X134936814Y-110468044D01*
X135077704Y-110178429D01*
X135159384Y-109866892D01*
X135178718Y-109545405D01*
X135165219Y-109446967D01*
X139402000Y-109446967D01*
X139402000Y-109769033D01*
X139464832Y-110084912D01*
X139588082Y-110382463D01*
X139767013Y-110650252D01*
X139994748Y-110877987D01*
X140262537Y-111056918D01*
X140560088Y-111180168D01*
X140875967Y-111243000D01*
X141198033Y-111243000D01*
X141513912Y-111180168D01*
X141811463Y-111056918D01*
X142079252Y-110877987D01*
X142306987Y-110650252D01*
X142485918Y-110382463D01*
X142609168Y-110084912D01*
X142672000Y-109769033D01*
X142672000Y-109446967D01*
X142609168Y-109131088D01*
X142485918Y-108833537D01*
X142306987Y-108565748D01*
X142079252Y-108338013D01*
X141811463Y-108159082D01*
X141513912Y-108035832D01*
X141198033Y-107973000D01*
X140875967Y-107973000D01*
X140560088Y-108035832D01*
X140262537Y-108159082D01*
X139994748Y-108338013D01*
X139767013Y-108565748D01*
X139588082Y-108833537D01*
X139464832Y-109131088D01*
X139402000Y-109446967D01*
X135165219Y-109446967D01*
X135134961Y-109226325D01*
X135029795Y-108921912D01*
X134936814Y-108747956D01*
X134672413Y-108652192D01*
X133716605Y-109608000D01*
X133357395Y-109608000D01*
X132401587Y-108652192D01*
X132137186Y-108747956D01*
X131996296Y-109037571D01*
X131914616Y-109349108D01*
X131895282Y-109670595D01*
X72043158Y-109670595D01*
X72046718Y-109611405D01*
X72002961Y-109292325D01*
X71897795Y-108987912D01*
X71804814Y-108813956D01*
X71540413Y-108718192D01*
X70584605Y-109674000D01*
X70225395Y-109674000D01*
X69269587Y-108718192D01*
X69005186Y-108813956D01*
X68864296Y-109103571D01*
X68782616Y-109415108D01*
X68763282Y-109736595D01*
X64529603Y-109736595D01*
X64502961Y-109542325D01*
X64397795Y-109237912D01*
X64304814Y-109063956D01*
X64040413Y-108968192D01*
X63084605Y-109924000D01*
X62725395Y-109924000D01*
X61769587Y-108968192D01*
X61505186Y-109063956D01*
X61364296Y-109353571D01*
X61282616Y-109665108D01*
X61263282Y-109986595D01*
X61160000Y-109986595D01*
X61160000Y-108788587D01*
X61949192Y-108788587D01*
X62905000Y-109744395D01*
X63860808Y-108788587D01*
X63765044Y-108524186D01*
X63475429Y-108383296D01*
X63163892Y-108301616D01*
X62842405Y-108282282D01*
X62523325Y-108326039D01*
X62218912Y-108431205D01*
X62044956Y-108524186D01*
X61949192Y-108788587D01*
X61160000Y-108788587D01*
X61160000Y-107282665D01*
X63970000Y-107282665D01*
X63970000Y-107565335D01*
X64025147Y-107842574D01*
X64133320Y-108103727D01*
X64290363Y-108338759D01*
X64490241Y-108538637D01*
X64725273Y-108695680D01*
X64986426Y-108803853D01*
X65263665Y-108859000D01*
X65546335Y-108859000D01*
X65823574Y-108803853D01*
X66084727Y-108695680D01*
X66319759Y-108538637D01*
X66519637Y-108338759D01*
X66655000Y-108136173D01*
X66790363Y-108338759D01*
X66990241Y-108538637D01*
X67225273Y-108695680D01*
X67486426Y-108803853D01*
X67763665Y-108859000D01*
X68046335Y-108859000D01*
X68323574Y-108803853D01*
X68584727Y-108695680D01*
X68819759Y-108538637D01*
X68819809Y-108538587D01*
X69449192Y-108538587D01*
X70405000Y-109494395D01*
X71360808Y-108538587D01*
X71336904Y-108472587D01*
X132581192Y-108472587D01*
X133537000Y-109428395D01*
X134492808Y-108472587D01*
X134448663Y-108350702D01*
X135223903Y-108350702D01*
X135295486Y-108594671D01*
X135550996Y-108715571D01*
X135825184Y-108784300D01*
X136107512Y-108798217D01*
X136387130Y-108756787D01*
X136653292Y-108661603D01*
X136778514Y-108594671D01*
X136850097Y-108350702D01*
X136037000Y-107537605D01*
X135223903Y-108350702D01*
X134448663Y-108350702D01*
X134397044Y-108208186D01*
X134107429Y-108067296D01*
X133795892Y-107985616D01*
X133474405Y-107966282D01*
X133155325Y-108010039D01*
X132850912Y-108115205D01*
X132676956Y-108208186D01*
X132581192Y-108472587D01*
X71336904Y-108472587D01*
X71265044Y-108274186D01*
X70975429Y-108133296D01*
X70663892Y-108051616D01*
X70342405Y-108032282D01*
X70023325Y-108076039D01*
X69718912Y-108181205D01*
X69544956Y-108274186D01*
X69449192Y-108538587D01*
X68819809Y-108538587D01*
X69019637Y-108338759D01*
X69176680Y-108103727D01*
X69284853Y-107842574D01*
X69340000Y-107565335D01*
X69340000Y-107428512D01*
X134596783Y-107428512D01*
X134638213Y-107708130D01*
X134733397Y-107974292D01*
X134800329Y-108099514D01*
X135044298Y-108171097D01*
X135857395Y-107358000D01*
X136216605Y-107358000D01*
X137029702Y-108171097D01*
X137273671Y-108099514D01*
X137287324Y-108070659D01*
X137422363Y-108272759D01*
X137622241Y-108472637D01*
X137857273Y-108629680D01*
X138118426Y-108737853D01*
X138395665Y-108793000D01*
X138678335Y-108793000D01*
X138955574Y-108737853D01*
X139216727Y-108629680D01*
X139451759Y-108472637D01*
X139651637Y-108272759D01*
X139808680Y-108037727D01*
X139916853Y-107776574D01*
X139972000Y-107499335D01*
X139972000Y-107216665D01*
X139916853Y-106939426D01*
X139808680Y-106678273D01*
X139651637Y-106443241D01*
X139451759Y-106243363D01*
X139216727Y-106086320D01*
X138955574Y-105978147D01*
X138678335Y-105923000D01*
X138395665Y-105923000D01*
X138118426Y-105978147D01*
X137857273Y-106086320D01*
X137622241Y-106243363D01*
X137422363Y-106443241D01*
X137288308Y-106643869D01*
X137273671Y-106616486D01*
X137029702Y-106544903D01*
X136216605Y-107358000D01*
X135857395Y-107358000D01*
X135044298Y-106544903D01*
X134800329Y-106616486D01*
X134679429Y-106871996D01*
X134610700Y-107146184D01*
X134596783Y-107428512D01*
X69340000Y-107428512D01*
X69340000Y-107282665D01*
X69284853Y-107005426D01*
X69176680Y-106744273D01*
X69019637Y-106509241D01*
X68875694Y-106365298D01*
X135223903Y-106365298D01*
X136037000Y-107178395D01*
X136850097Y-106365298D01*
X136778514Y-106121329D01*
X136523004Y-106000429D01*
X136248816Y-105931700D01*
X135966488Y-105917783D01*
X135686870Y-105959213D01*
X135420708Y-106054397D01*
X135295486Y-106121329D01*
X135223903Y-106365298D01*
X68875694Y-106365298D01*
X68819759Y-106309363D01*
X68584727Y-106152320D01*
X68323574Y-106044147D01*
X68046335Y-105989000D01*
X67763665Y-105989000D01*
X67486426Y-106044147D01*
X67225273Y-106152320D01*
X66990241Y-106309363D01*
X66790363Y-106509241D01*
X66655000Y-106711827D01*
X66519637Y-106509241D01*
X66319759Y-106309363D01*
X66084727Y-106152320D01*
X65823574Y-106044147D01*
X65546335Y-105989000D01*
X65263665Y-105989000D01*
X64986426Y-106044147D01*
X64725273Y-106152320D01*
X64490241Y-106309363D01*
X64290363Y-106509241D01*
X64133320Y-106744273D01*
X64025147Y-107005426D01*
X63970000Y-107282665D01*
X61160000Y-107282665D01*
X61160000Y-67282665D01*
X63970000Y-67282665D01*
X63970000Y-67565335D01*
X64025147Y-67842574D01*
X64133320Y-68103727D01*
X64290363Y-68338759D01*
X64490241Y-68538637D01*
X64725273Y-68695680D01*
X64986426Y-68803853D01*
X65263665Y-68859000D01*
X65546335Y-68859000D01*
X65823574Y-68803853D01*
X66084727Y-68695680D01*
X66319759Y-68538637D01*
X66441694Y-68416702D01*
X67091903Y-68416702D01*
X67163486Y-68660671D01*
X67418996Y-68781571D01*
X67693184Y-68850300D01*
X67975512Y-68864217D01*
X68255130Y-68822787D01*
X68521292Y-68727603D01*
X68646514Y-68660671D01*
X68718097Y-68416702D01*
X67905000Y-67603605D01*
X67091903Y-68416702D01*
X66441694Y-68416702D01*
X66519637Y-68338759D01*
X66653692Y-68138131D01*
X66668329Y-68165514D01*
X66912298Y-68237097D01*
X67725395Y-67424000D01*
X68084605Y-67424000D01*
X68897702Y-68237097D01*
X69141671Y-68165514D01*
X69262571Y-67910004D01*
X69331300Y-67635816D01*
X69345217Y-67353488D01*
X69303787Y-67073870D01*
X69208603Y-66807708D01*
X69141671Y-66682486D01*
X68897702Y-66610903D01*
X68084605Y-67424000D01*
X67725395Y-67424000D01*
X66912298Y-66610903D01*
X66668329Y-66682486D01*
X66654676Y-66711341D01*
X66519637Y-66509241D01*
X66441694Y-66431298D01*
X67091903Y-66431298D01*
X67905000Y-67244395D01*
X68718097Y-66431298D01*
X68682335Y-66309413D01*
X69449192Y-66309413D01*
X69544956Y-66573814D01*
X69834571Y-66714704D01*
X70146108Y-66796384D01*
X70467595Y-66815718D01*
X70786675Y-66771961D01*
X71091088Y-66666795D01*
X71265044Y-66573814D01*
X71360808Y-66309413D01*
X70405000Y-65353605D01*
X69449192Y-66309413D01*
X68682335Y-66309413D01*
X68646514Y-66187329D01*
X68391004Y-66066429D01*
X68116816Y-65997700D01*
X67834488Y-65983783D01*
X67554870Y-66025213D01*
X67288708Y-66120397D01*
X67163486Y-66187329D01*
X67091903Y-66431298D01*
X66441694Y-66431298D01*
X66319759Y-66309363D01*
X66084727Y-66152320D01*
X65823574Y-66044147D01*
X65546335Y-65989000D01*
X65263665Y-65989000D01*
X64986426Y-66044147D01*
X64725273Y-66152320D01*
X64490241Y-66309363D01*
X64290363Y-66509241D01*
X64133320Y-66744273D01*
X64025147Y-67005426D01*
X63970000Y-67282665D01*
X61160000Y-67282665D01*
X61160000Y-65012967D01*
X61270000Y-65012967D01*
X61270000Y-65335033D01*
X61332832Y-65650912D01*
X61456082Y-65948463D01*
X61635013Y-66216252D01*
X61862748Y-66443987D01*
X62130537Y-66622918D01*
X62428088Y-66746168D01*
X62743967Y-66809000D01*
X63066033Y-66809000D01*
X63381912Y-66746168D01*
X63679463Y-66622918D01*
X63947252Y-66443987D01*
X64174987Y-66216252D01*
X64353918Y-65948463D01*
X64477168Y-65650912D01*
X64540000Y-65335033D01*
X64540000Y-65236595D01*
X68763282Y-65236595D01*
X68807039Y-65555675D01*
X68912205Y-65860088D01*
X69005186Y-66034044D01*
X69269587Y-66129808D01*
X70225395Y-65174000D01*
X70584605Y-65174000D01*
X71540413Y-66129808D01*
X71804814Y-66034044D01*
X71945704Y-65744429D01*
X72027384Y-65432892D01*
X72046718Y-65111405D01*
X72002961Y-64792325D01*
X71897795Y-64487912D01*
X71804814Y-64313956D01*
X71540413Y-64218192D01*
X70584605Y-65174000D01*
X70225395Y-65174000D01*
X69269587Y-64218192D01*
X69005186Y-64313956D01*
X68864296Y-64603571D01*
X68782616Y-64915108D01*
X68763282Y-65236595D01*
X64540000Y-65236595D01*
X64540000Y-65012967D01*
X64477168Y-64697088D01*
X64353918Y-64399537D01*
X64174987Y-64131748D01*
X64081826Y-64038587D01*
X69449192Y-64038587D01*
X70405000Y-64994395D01*
X71360808Y-64038587D01*
X71265044Y-63774186D01*
X70975429Y-63633296D01*
X70663892Y-63551616D01*
X70342405Y-63532282D01*
X70023325Y-63576039D01*
X69718912Y-63681205D01*
X69544956Y-63774186D01*
X69449192Y-64038587D01*
X64081826Y-64038587D01*
X63947252Y-63904013D01*
X63679463Y-63725082D01*
X63381912Y-63601832D01*
X63066033Y-63539000D01*
X62743967Y-63539000D01*
X62428088Y-63601832D01*
X62130537Y-63725082D01*
X61862748Y-63904013D01*
X61635013Y-64131748D01*
X61456082Y-64399537D01*
X61332832Y-64697088D01*
X61270000Y-65012967D01*
X61160000Y-65012967D01*
X61160000Y-63532279D01*
X61207670Y-63046107D01*
X61339489Y-62609502D01*
X61553600Y-62206815D01*
X61841848Y-61853388D01*
X62193261Y-61562673D01*
X62594439Y-61345758D01*
X63030113Y-61210894D01*
X63514344Y-61160000D01*
X75791394Y-61160000D01*
X75946000Y-61314606D01*
G37*
%TD.AperFunction*%
%TD*%
D20*
X93472000Y-65781394D02*
X93038394Y-66215000D01*
X90603606Y-66215000D01*
X89116803Y-64728197D01*
X89097557Y-64712403D01*
X89075601Y-64700667D01*
X89051776Y-64693440D01*
X89027000Y-64691000D01*
X86031606Y-64691000D01*
X85598000Y-64257394D01*
X85598000Y-61160000D01*
X93472000Y-61160000D01*
X93472000Y-65781394D01*
%TA.AperFunction,NonConductor*%
D21*
G36*
X93472000Y-65781394D02*
G01*
X93038394Y-66215000D01*
X90603606Y-66215000D01*
X89116803Y-64728197D01*
X89097557Y-64712403D01*
X89075601Y-64700667D01*
X89051776Y-64693440D01*
X89027000Y-64691000D01*
X86031606Y-64691000D01*
X85598000Y-64257394D01*
X85598000Y-61160000D01*
X93472000Y-61160000D01*
X93472000Y-65781394D01*
G37*
%TD.AperFunction*%
M02*
