%TF.GenerationSoftware,KiCad,Pcbnew,5.1.12-84ad8e8a86~92~ubuntu20.04.1*%
%TF.CreationDate,2022-11-18T17:27:09+01:00*%
%TF.ProjectId,pongCard,706f6e67-4361-4726-942e-6b696361645f,rev?*%
%TF.SameCoordinates,Original*%
%TF.FileFunction,Paste,Top*%
%TF.FilePolarity,Positive*%
%FSLAX46Y46*%
G04 Gerber Fmt 4.6, Leading zero omitted, Abs format (unit mm)*
G04 Created by KiCad (PCBNEW 5.1.12-84ad8e8a86~92~ubuntu20.04.1) date 2022-11-18 17:27:09*
%MOMM*%
%LPD*%
G01*
G04 APERTURE LIST*
%ADD10C,0.100000*%
%ADD11R,1.300000X0.900000*%
%ADD12R,1.500000X1.900000*%
%ADD13R,0.400000X1.350000*%
G04 APERTURE END LIST*
D10*
%TO.C,U2*%
G36*
X82945000Y-79781500D02*
G01*
X79820000Y-79781500D01*
X79820000Y-79365000D01*
X78345000Y-79365000D01*
X78345000Y-78465000D01*
X79820000Y-78465000D01*
X79820000Y-78048500D01*
X82945000Y-78048500D01*
X82945000Y-79781500D01*
G37*
D11*
X78995000Y-80415000D03*
X78995000Y-77415000D03*
%TD*%
%TO.C,R5*%
G36*
G01*
X91865000Y-71532500D02*
X91865000Y-71057500D01*
G75*
G02*
X92102500Y-70820000I237500J0D01*
G01*
X92602500Y-70820000D01*
G75*
G02*
X92840000Y-71057500I0J-237500D01*
G01*
X92840000Y-71532500D01*
G75*
G02*
X92602500Y-71770000I-237500J0D01*
G01*
X92102500Y-71770000D01*
G75*
G02*
X91865000Y-71532500I0J237500D01*
G01*
G37*
G36*
G01*
X90040000Y-71532500D02*
X90040000Y-71057500D01*
G75*
G02*
X90277500Y-70820000I237500J0D01*
G01*
X90777500Y-70820000D01*
G75*
G02*
X91015000Y-71057500I0J-237500D01*
G01*
X91015000Y-71532500D01*
G75*
G02*
X90777500Y-71770000I-237500J0D01*
G01*
X90277500Y-71770000D01*
G75*
G02*
X90040000Y-71532500I0J237500D01*
G01*
G37*
%TD*%
%TO.C,R4*%
G36*
G01*
X91865000Y-69627500D02*
X91865000Y-69152500D01*
G75*
G02*
X92102500Y-68915000I237500J0D01*
G01*
X92602500Y-68915000D01*
G75*
G02*
X92840000Y-69152500I0J-237500D01*
G01*
X92840000Y-69627500D01*
G75*
G02*
X92602500Y-69865000I-237500J0D01*
G01*
X92102500Y-69865000D01*
G75*
G02*
X91865000Y-69627500I0J237500D01*
G01*
G37*
G36*
G01*
X90040000Y-69627500D02*
X90040000Y-69152500D01*
G75*
G02*
X90277500Y-68915000I237500J0D01*
G01*
X90777500Y-68915000D01*
G75*
G02*
X91015000Y-69152500I0J-237500D01*
G01*
X91015000Y-69627500D01*
G75*
G02*
X90777500Y-69865000I-237500J0D01*
G01*
X90277500Y-69865000D01*
G75*
G02*
X90040000Y-69627500I0J237500D01*
G01*
G37*
%TD*%
D12*
%TO.C,J1*%
X81645000Y-62897500D03*
D13*
X80645000Y-65597500D03*
X79995000Y-65597500D03*
X79345000Y-65597500D03*
X81945000Y-65597500D03*
X81295000Y-65597500D03*
D12*
X79645000Y-62897500D03*
%TD*%
%TO.C,C4*%
G36*
G01*
X80320000Y-70422500D02*
X80320000Y-70897500D01*
G75*
G02*
X80082500Y-71135000I-237500J0D01*
G01*
X79482500Y-71135000D01*
G75*
G02*
X79245000Y-70897500I0J237500D01*
G01*
X79245000Y-70422500D01*
G75*
G02*
X79482500Y-70185000I237500J0D01*
G01*
X80082500Y-70185000D01*
G75*
G02*
X80320000Y-70422500I0J-237500D01*
G01*
G37*
G36*
G01*
X82045000Y-70422500D02*
X82045000Y-70897500D01*
G75*
G02*
X81807500Y-71135000I-237500J0D01*
G01*
X81207500Y-71135000D01*
G75*
G02*
X80970000Y-70897500I0J237500D01*
G01*
X80970000Y-70422500D01*
G75*
G02*
X81207500Y-70185000I237500J0D01*
G01*
X81807500Y-70185000D01*
G75*
G02*
X82045000Y-70422500I0J-237500D01*
G01*
G37*
%TD*%
%TO.C,C3*%
G36*
G01*
X79745000Y-73819999D02*
X79745000Y-75120001D01*
G75*
G02*
X79495001Y-75370000I-249999J0D01*
G01*
X78669999Y-75370000D01*
G75*
G02*
X78420000Y-75120001I0J249999D01*
G01*
X78420000Y-73819999D01*
G75*
G02*
X78669999Y-73570000I249999J0D01*
G01*
X79495001Y-73570000D01*
G75*
G02*
X79745000Y-73819999I0J-249999D01*
G01*
G37*
G36*
G01*
X82870000Y-73819999D02*
X82870000Y-75120001D01*
G75*
G02*
X82620001Y-75370000I-249999J0D01*
G01*
X81794999Y-75370000D01*
G75*
G02*
X81545000Y-75120001I0J249999D01*
G01*
X81545000Y-73819999D01*
G75*
G02*
X81794999Y-73570000I249999J0D01*
G01*
X82620001Y-73570000D01*
G75*
G02*
X82870000Y-73819999I0J-249999D01*
G01*
G37*
%TD*%
%TO.C,C2*%
G36*
G01*
X103195000Y-88042500D02*
X103195000Y-87567500D01*
G75*
G02*
X103432500Y-87330000I237500J0D01*
G01*
X104032500Y-87330000D01*
G75*
G02*
X104270000Y-87567500I0J-237500D01*
G01*
X104270000Y-88042500D01*
G75*
G02*
X104032500Y-88280000I-237500J0D01*
G01*
X103432500Y-88280000D01*
G75*
G02*
X103195000Y-88042500I0J237500D01*
G01*
G37*
G36*
G01*
X101470000Y-88042500D02*
X101470000Y-87567500D01*
G75*
G02*
X101707500Y-87330000I237500J0D01*
G01*
X102307500Y-87330000D01*
G75*
G02*
X102545000Y-87567500I0J-237500D01*
G01*
X102545000Y-88042500D01*
G75*
G02*
X102307500Y-88280000I-237500J0D01*
G01*
X101707500Y-88280000D01*
G75*
G02*
X101470000Y-88042500I0J237500D01*
G01*
G37*
%TD*%
%TO.C,C1*%
G36*
G01*
X103770000Y-90995001D02*
X103770000Y-89694999D01*
G75*
G02*
X104019999Y-89445000I249999J0D01*
G01*
X104845001Y-89445000D01*
G75*
G02*
X105095000Y-89694999I0J-249999D01*
G01*
X105095000Y-90995001D01*
G75*
G02*
X104845001Y-91245000I-249999J0D01*
G01*
X104019999Y-91245000D01*
G75*
G02*
X103770000Y-90995001I0J249999D01*
G01*
G37*
G36*
G01*
X100645000Y-90995001D02*
X100645000Y-89694999D01*
G75*
G02*
X100894999Y-89445000I249999J0D01*
G01*
X101720001Y-89445000D01*
G75*
G02*
X101970000Y-89694999I0J-249999D01*
G01*
X101970000Y-90995001D01*
G75*
G02*
X101720001Y-91245000I-249999J0D01*
G01*
X100894999Y-91245000D01*
G75*
G02*
X100645000Y-90995001I0J249999D01*
G01*
G37*
%TD*%
M02*
