M48
; DRILL file {KiCad 5.1.12-84ad8e8a86~92~ubuntu20.04.1} date Fri Nov 18 17:27:40 2022
; FORMAT={-:-/ absolute / metric / decimal}
; #@! TF.CreationDate,2022-11-18T17:27:40+01:00
; #@! TF.GenerationSoftware,Kicad,Pcbnew,5.1.12-84ad8e8a86~92~ubuntu20.04.1
; #@! TF.FileFunction,Plated,1,2,PTH
FMAT,2
METRIC
T1C0.600
T2C0.650
T3C0.800
T4C0.850
T5C1.600
T6C2.000
%
G90
G05
T2
X95.885Y-69.39
X95.885Y-71.39
X95.885Y-73.39
X95.885Y-75.39
X95.885Y-77.39
X95.885Y-79.39
X95.885Y-81.39
X95.885Y-83.39
X97.875Y-84.39
X99.875Y-84.39
X101.875Y-84.39
X103.875Y-84.39
X105.875Y-84.39
X107.875Y-84.39
X109.885Y-69.39
X109.885Y-71.39
X109.885Y-73.39
X109.885Y-75.39
X109.885Y-77.39
X109.885Y-79.39
X109.885Y-81.39
X109.885Y-83.39
T3
X65.405Y-67.424
X65.405Y-107.424
X67.905Y-67.424
X67.905Y-107.424
X136.037Y-67.358
X136.037Y-107.358
X138.537Y-67.358
X138.537Y-107.358
T4
X78.145Y-65.597
X83.145Y-65.597
T5
X62.905Y-65.174
X62.905Y-109.924
X70.405Y-65.174
X70.405Y-109.674
X133.537Y-65.108
X133.537Y-109.608
X141.037Y-64.858
X141.037Y-109.608
T6
X123.063Y-64.056
T1
X77.145Y-63.247G85X77.145Y-62.547
G05
X84.145Y-62.547G85X84.145Y-63.247
G05
T0
M30
