%TF.GenerationSoftware,KiCad,Pcbnew,5.1.12-84ad8e8a86~92~ubuntu20.04.1*%
%TF.CreationDate,2022-11-18T17:27:09+01:00*%
%TF.ProjectId,pongCard,706f6e67-4361-4726-942e-6b696361645f,rev?*%
%TF.SameCoordinates,Original*%
%TF.FileFunction,Legend,Bot*%
%TF.FilePolarity,Positive*%
%FSLAX46Y46*%
G04 Gerber Fmt 4.6, Leading zero omitted, Abs format (unit mm)*
G04 Created by KiCad (PCBNEW 5.1.12-84ad8e8a86~92~ubuntu20.04.1) date 2022-11-18 17:27:09*
%MOMM*%
%LPD*%
G01*
G04 APERTURE LIST*
%ADD10C,1.600000*%
%ADD11C,2.000000*%
%ADD12O,1.100000X2.500000*%
%ADD13O,2.500000X1.100000*%
%ADD14R,2.500000X1.100000*%
%ADD15O,1.200000X1.900000*%
%ADD16C,1.450000*%
%ADD17C,3.000000*%
G04 APERTURE END LIST*
%LPC*%
D10*
%TO.C,RV2*%
X65405000Y-67424000D03*
X67905000Y-67424000D03*
X67905000Y-107424000D03*
X65405000Y-107424000D03*
D11*
X62905000Y-65174000D03*
X70405000Y-65174000D03*
X70405000Y-109674000D03*
X62905000Y-109924000D03*
%TD*%
D10*
%TO.C,RV1*%
X138537000Y-107358000D03*
X136037000Y-107358000D03*
X136037000Y-67358000D03*
X138537000Y-67358000D03*
D11*
X141037000Y-109608000D03*
X133537000Y-109608000D03*
X133537000Y-65108000D03*
X141037000Y-64858000D03*
%TD*%
D12*
%TO.C,U3*%
X107875000Y-85090000D03*
X105875000Y-85090000D03*
X103875000Y-85090000D03*
X101875000Y-85090000D03*
X99875000Y-85090000D03*
X97875000Y-85090000D03*
D13*
X110585000Y-69390000D03*
X110585000Y-71390000D03*
X110585000Y-73390000D03*
X110585000Y-75390000D03*
X110585000Y-77390000D03*
X110585000Y-79390000D03*
X110485000Y-81390000D03*
X110585000Y-83390000D03*
X95185000Y-83390000D03*
X95185000Y-81390000D03*
X95185000Y-79390000D03*
X95185000Y-77390000D03*
X95185000Y-75390000D03*
X95185000Y-73390000D03*
X95185000Y-71390000D03*
D14*
X95185000Y-69390000D03*
%TD*%
D15*
%TO.C,J1*%
X77145000Y-62897500D03*
X84145000Y-62897500D03*
D16*
X78145000Y-65597500D03*
X83145000Y-65597500D03*
%TD*%
D17*
%TO.C,AE1*%
X123063000Y-64056000D03*
%TD*%
M02*
