%TF.GenerationSoftware,KiCad,Pcbnew,7.0.2-6a45011f42~172~ubuntu20.04.1*%
%TF.CreationDate,2023-07-24T18:38:10+02:00*%
%TF.ProjectId,pongCard,706f6e67-4361-4726-942e-6b696361645f,rev?*%
%TF.SameCoordinates,Original*%
%TF.FileFunction,Drillmap*%
%TF.FilePolarity,Positive*%
%FSLAX45Y45*%
G04 Gerber Fmt 4.5, Leading zero omitted, Abs format (unit mm)*
G04 Created by KiCad (PCBNEW 7.0.2-6a45011f42~172~ubuntu20.04.1) date 2023-07-24 18:38:10*
%MOMM*%
%LPD*%
G01*
G04 APERTURE LIST*
%ADD10C,0.050000*%
%ADD11C,0.200000*%
%ADD12C,0.040000*%
%ADD13C,0.060000*%
%ADD14C,0.065000*%
%ADD15C,0.080000*%
%ADD16C,0.085000*%
%ADD17C,0.100000*%
%ADD18C,0.101600*%
%ADD19C,0.102000*%
%ADD20C,0.160000*%
G04 APERTURE END LIST*
D10*
X6350000Y-6050000D02*
G75*
G03*
X6050000Y-6350000I0J-300000D01*
G01*
X6050000Y-11150000D02*
G75*
G03*
X6350000Y-11450000I300000J0D01*
G01*
X6350000Y-11450000D02*
X14050000Y-11450000D01*
X14350000Y-6350000D02*
G75*
G03*
X14050000Y-6050000I-300000J0D01*
G01*
X14050000Y-11450000D02*
G75*
G03*
X14350000Y-11150000I0J300000D01*
G01*
X14350000Y-6350000D02*
X14350000Y-11150000D01*
X6350000Y-6050000D02*
X14050000Y-6050000D01*
X6050000Y-6350000D02*
X6050000Y-11150000D01*
D11*
D12*
X6088700Y-8722400D02*
X6128700Y-8762400D01*
X6128700Y-8722400D02*
X6088700Y-8762400D01*
X6190300Y-6182400D02*
X6230300Y-6222400D01*
X6230300Y-6182400D02*
X6190300Y-6222400D01*
X6190300Y-11262400D02*
X6230300Y-11302400D01*
X6230300Y-11262400D02*
X6190300Y-11302400D01*
X7130100Y-11110000D02*
X7170100Y-11150000D01*
X7170100Y-11110000D02*
X7130100Y-11150000D01*
X7206300Y-10779800D02*
X7246300Y-10819800D01*
X7246300Y-10779800D02*
X7206300Y-10819800D01*
X7282500Y-7274600D02*
X7322500Y-7314600D01*
X7322500Y-7274600D02*
X7282500Y-7314600D01*
X7282500Y-7782600D02*
X7322500Y-7822600D01*
X7322500Y-7782600D02*
X7282500Y-7822600D01*
X7307900Y-6792000D02*
X7347900Y-6832000D01*
X7347900Y-6792000D02*
X7307900Y-6832000D01*
X7409500Y-6284000D02*
X7449500Y-6324000D01*
X7449500Y-6284000D02*
X7409500Y-6324000D01*
X7536500Y-6080800D02*
X7576500Y-6120800D01*
X7576500Y-6080800D02*
X7536500Y-6120800D01*
X7612700Y-6893600D02*
X7652700Y-6933600D01*
X7652700Y-6893600D02*
X7612700Y-6933600D01*
X7612700Y-7757200D02*
X7652700Y-7797200D01*
X7652700Y-7757200D02*
X7612700Y-7797200D01*
X7638100Y-7274600D02*
X7678100Y-7314600D01*
X7678100Y-7274600D02*
X7638100Y-7314600D01*
X7663500Y-6309400D02*
X7703500Y-6349400D01*
X7703500Y-6309400D02*
X7663500Y-6349400D01*
X7663500Y-11008400D02*
X7703500Y-11048400D01*
X7703500Y-11008400D02*
X7663500Y-11048400D01*
X7765100Y-7096800D02*
X7805100Y-7136800D01*
X7805100Y-7096800D02*
X7765100Y-7136800D01*
X7917500Y-6309400D02*
X7957500Y-6349400D01*
X7957500Y-6309400D02*
X7917500Y-6349400D01*
X7917500Y-8595400D02*
X7957500Y-8635400D01*
X7957500Y-8595400D02*
X7917500Y-8635400D01*
X8019100Y-6538000D02*
X8059100Y-6578000D01*
X8059100Y-6538000D02*
X8019100Y-6578000D01*
X8171500Y-8595400D02*
X8211500Y-8635400D01*
X8211500Y-8595400D02*
X8171500Y-8635400D01*
X8298500Y-6309400D02*
X8338500Y-6349400D01*
X8338500Y-6309400D02*
X8298500Y-6349400D01*
X8298500Y-6538000D02*
X8338500Y-6578000D01*
X8338500Y-6538000D02*
X8298500Y-6578000D01*
X8425500Y-8595400D02*
X8465500Y-8635400D01*
X8465500Y-8595400D02*
X8425500Y-8635400D01*
X8755700Y-6385600D02*
X8795700Y-6425600D01*
X8795700Y-6385600D02*
X8755700Y-6425600D01*
X8781100Y-8722400D02*
X8821100Y-8762400D01*
X8821100Y-8722400D02*
X8781100Y-8762400D01*
X8781100Y-9078000D02*
X8821100Y-9118000D01*
X8821100Y-9078000D02*
X8781100Y-9118000D01*
X8781100Y-9433600D02*
X8821100Y-9473600D01*
X8821100Y-9433600D02*
X8781100Y-9473600D01*
X9136700Y-8722400D02*
X9176700Y-8762400D01*
X9176700Y-8722400D02*
X9136700Y-8762400D01*
X9136700Y-9078000D02*
X9176700Y-9118000D01*
X9176700Y-9078000D02*
X9136700Y-9118000D01*
X9136700Y-9433600D02*
X9176700Y-9473600D01*
X9176700Y-9433600D02*
X9136700Y-9473600D01*
X9212900Y-6411000D02*
X9252900Y-6451000D01*
X9252900Y-6411000D02*
X9212900Y-6451000D01*
X10559100Y-8747800D02*
X10599100Y-8787800D01*
X10599100Y-8747800D02*
X10559100Y-8787800D01*
X10559100Y-9027200D02*
X10599100Y-9067200D01*
X10599100Y-9027200D02*
X10559100Y-9067200D01*
X10559100Y-9433600D02*
X10599100Y-9473600D01*
X10599100Y-9433600D02*
X10559100Y-9473600D01*
X11143300Y-8519200D02*
X11183300Y-8559200D01*
X11183300Y-8519200D02*
X11143300Y-8559200D01*
X11523769Y-7225401D02*
X11563769Y-7265401D01*
X11563769Y-7225401D02*
X11523769Y-7265401D01*
X11524300Y-6919000D02*
X11564300Y-6959000D01*
X11564300Y-6919000D02*
X11524300Y-6959000D01*
X11524300Y-8519200D02*
X11564300Y-8559200D01*
X11564300Y-8519200D02*
X11524300Y-8559200D01*
X11854500Y-6919000D02*
X11894500Y-6959000D01*
X11894500Y-6919000D02*
X11854500Y-6959000D01*
X11854500Y-7223800D02*
X11894500Y-7263800D01*
X11894500Y-7223800D02*
X11854500Y-7263800D01*
X11854500Y-7401600D02*
X11894500Y-7441600D01*
X11894500Y-7401600D02*
X11854500Y-7441600D01*
X11854500Y-7655600D02*
X11894500Y-7695600D01*
X11894500Y-7655600D02*
X11854500Y-7695600D01*
X12057700Y-6106200D02*
X12097700Y-6146200D01*
X12097700Y-6106200D02*
X12057700Y-6146200D01*
X12464100Y-6588800D02*
X12504100Y-6628800D01*
X12504100Y-6588800D02*
X12464100Y-6628800D01*
X12464100Y-6817400D02*
X12504100Y-6857400D01*
X12504100Y-6817400D02*
X12464100Y-6857400D01*
X12464100Y-7147600D02*
X12504100Y-7187600D01*
X12504100Y-7147600D02*
X12464100Y-7187600D01*
X12464100Y-7401600D02*
X12504100Y-7441600D01*
X12504100Y-7401600D02*
X12464100Y-7441600D01*
X12667300Y-11008400D02*
X12707300Y-11048400D01*
X12707300Y-11008400D02*
X12667300Y-11048400D01*
X13708700Y-7198400D02*
X13748700Y-7238400D01*
X13748700Y-7198400D02*
X13708700Y-7238400D01*
X13708700Y-7401600D02*
X13748700Y-7441600D01*
X13748700Y-7401600D02*
X13708700Y-7441600D01*
X13708700Y-7655600D02*
X13748700Y-7695600D01*
X13748700Y-7655600D02*
X13708700Y-7695600D01*
X13708700Y-10373400D02*
X13748700Y-10413400D01*
X13748700Y-10373400D02*
X13708700Y-10413400D01*
X14013500Y-7198400D02*
X14053500Y-7238400D01*
X14053500Y-7198400D02*
X14013500Y-7238400D01*
X14013500Y-7655600D02*
X14053500Y-7695600D01*
X14053500Y-7655600D02*
X14013500Y-7695600D01*
X14013500Y-10373400D02*
X14053500Y-10413400D01*
X14053500Y-10373400D02*
X14013500Y-10413400D01*
X14165900Y-6182400D02*
X14205900Y-6222400D01*
X14205900Y-6182400D02*
X14165900Y-6222400D01*
X14165900Y-11262400D02*
X14205900Y-11302400D01*
X14205900Y-11262400D02*
X14165900Y-11302400D01*
X14242100Y-8722400D02*
X14282100Y-8762400D01*
X14282100Y-8722400D02*
X14242100Y-8762400D01*
D13*
X8459700Y-6288000D02*
G75*
G03*
X8459700Y-6288000I-30000J0D01*
G01*
D11*
X8459700Y-6323000D02*
X8459700Y-6253000D01*
X8459700Y-6253000D02*
G75*
G03*
X8399700Y-6253000I-30000J0D01*
G01*
X8399700Y-6253000D02*
X8399700Y-6323000D01*
X8399700Y-6323000D02*
G75*
G03*
X8459700Y-6323000I30000J0D01*
G01*
D13*
X9159700Y-6288000D02*
G75*
G03*
X9159700Y-6288000I-30000J0D01*
G01*
D11*
X9099700Y-6253000D02*
X9099700Y-6323000D01*
X9099700Y-6323000D02*
G75*
G03*
X9159700Y-6323000I30000J0D01*
G01*
X9159700Y-6323000D02*
X9159700Y-6253000D01*
X9159700Y-6253000D02*
G75*
G03*
X9099700Y-6253000I-30000J0D01*
G01*
D14*
X9588500Y-6906500D02*
X9588500Y-6971500D01*
X9556000Y-6939000D02*
X9621000Y-6939000D01*
X9588500Y-7106500D02*
X9588500Y-7171500D01*
X9556000Y-7139000D02*
X9621000Y-7139000D01*
X9588500Y-7306500D02*
X9588500Y-7371500D01*
X9556000Y-7339000D02*
X9621000Y-7339000D01*
X9588500Y-7506500D02*
X9588500Y-7571500D01*
X9556000Y-7539000D02*
X9621000Y-7539000D01*
X9588500Y-7706500D02*
X9588500Y-7771500D01*
X9556000Y-7739000D02*
X9621000Y-7739000D01*
X9588500Y-7906500D02*
X9588500Y-7971500D01*
X9556000Y-7939000D02*
X9621000Y-7939000D01*
X9588500Y-8106500D02*
X9588500Y-8171500D01*
X9556000Y-8139000D02*
X9621000Y-8139000D01*
X9588500Y-8306500D02*
X9588500Y-8371500D01*
X9556000Y-8339000D02*
X9621000Y-8339000D01*
X9787500Y-8406500D02*
X9787500Y-8471500D01*
X9755000Y-8439000D02*
X9820000Y-8439000D01*
X9987500Y-8406500D02*
X9987500Y-8471500D01*
X9955000Y-8439000D02*
X10020000Y-8439000D01*
X10187500Y-8406500D02*
X10187500Y-8471500D01*
X10155000Y-8439000D02*
X10220000Y-8439000D01*
X10387500Y-8406500D02*
X10387500Y-8471500D01*
X10355000Y-8439000D02*
X10420000Y-8439000D01*
X10587500Y-8406500D02*
X10587500Y-8471500D01*
X10555000Y-8439000D02*
X10620000Y-8439000D01*
X10787500Y-8406500D02*
X10787500Y-8471500D01*
X10755000Y-8439000D02*
X10820000Y-8439000D01*
X10988500Y-6906500D02*
X10988500Y-6971500D01*
X10956000Y-6939000D02*
X11021000Y-6939000D01*
X10988500Y-7106500D02*
X10988500Y-7171500D01*
X10956000Y-7139000D02*
X11021000Y-7139000D01*
X10988500Y-7306500D02*
X10988500Y-7371500D01*
X10956000Y-7339000D02*
X11021000Y-7339000D01*
X10988500Y-7506500D02*
X10988500Y-7571500D01*
X10956000Y-7539000D02*
X11021000Y-7539000D01*
X10988500Y-7706500D02*
X10988500Y-7771500D01*
X10956000Y-7739000D02*
X11021000Y-7739000D01*
X10988500Y-7906500D02*
X10988500Y-7971500D01*
X10956000Y-7939000D02*
X11021000Y-7939000D01*
X10988500Y-8106500D02*
X10988500Y-8171500D01*
X10956000Y-8139000D02*
X11021000Y-8139000D01*
X10988500Y-8306500D02*
X10988500Y-8371500D01*
X10956000Y-8339000D02*
X11021000Y-8339000D01*
D15*
X6576784Y-6760484D02*
X6576784Y-6703915D01*
X6520215Y-6703915D01*
X6520215Y-6760484D01*
X6576784Y-6760484D01*
X6576784Y-10760485D02*
X6576784Y-10703916D01*
X6520215Y-10703916D01*
X6520215Y-10760485D01*
X6576784Y-10760485D01*
X6826784Y-6760484D02*
X6826784Y-6703915D01*
X6770215Y-6703915D01*
X6770215Y-6760484D01*
X6826784Y-6760484D01*
X6826784Y-10760485D02*
X6826784Y-10703916D01*
X6770215Y-10703916D01*
X6770215Y-10760485D01*
X6826784Y-10760485D01*
X13637984Y-6760084D02*
X13637984Y-6703515D01*
X13581415Y-6703515D01*
X13581415Y-6760084D01*
X13637984Y-6760084D01*
X13637984Y-10760085D02*
X13637984Y-10703516D01*
X13581415Y-10703516D01*
X13581415Y-10760085D01*
X13637984Y-10760085D01*
X13887984Y-6760084D02*
X13887984Y-6703515D01*
X13831415Y-6703515D01*
X13831415Y-6760084D01*
X13887984Y-6760084D01*
X13887984Y-10760085D02*
X13887984Y-10703516D01*
X13831415Y-10703516D01*
X13831415Y-10760085D01*
X13887984Y-10760085D01*
D16*
X8529700Y-6600500D02*
X8572200Y-6558000D01*
X8529700Y-6515500D01*
X8487200Y-6558000D01*
X8529700Y-6600500D01*
X9029700Y-6600500D02*
X9072200Y-6558000D01*
X9029700Y-6515500D01*
X8987200Y-6558000D01*
X9029700Y-6600500D01*
D17*
X12129300Y-7803400D02*
X12229300Y-7903400D01*
X12229300Y-7803400D02*
X12129300Y-7903400D01*
X12229300Y-7853400D02*
G75*
G03*
X12229300Y-7853400I-50000J0D01*
G01*
X12129300Y-8057400D02*
X12229300Y-8157400D01*
X12229300Y-8057400D02*
X12129300Y-8157400D01*
X12229300Y-8107400D02*
G75*
G03*
X12229300Y-8107400I-50000J0D01*
G01*
X12129300Y-8311400D02*
X12229300Y-8411400D01*
X12229300Y-8311400D02*
X12129300Y-8411400D01*
X12229300Y-8361400D02*
G75*
G03*
X12229300Y-8361400I-50000J0D01*
G01*
X12129300Y-8565400D02*
X12229300Y-8665400D01*
X12229300Y-8565400D02*
X12129300Y-8665400D01*
X12229300Y-8615400D02*
G75*
G03*
X12229300Y-8615400I-50000J0D01*
G01*
X12383300Y-7803400D02*
X12483300Y-7903400D01*
X12483300Y-7803400D02*
X12383300Y-7903400D01*
X12483300Y-7853400D02*
G75*
G03*
X12483300Y-7853400I-50000J0D01*
G01*
X12383300Y-8057400D02*
X12483300Y-8157400D01*
X12483300Y-8057400D02*
X12383300Y-8157400D01*
X12483300Y-8107400D02*
G75*
G03*
X12483300Y-8107400I-50000J0D01*
G01*
X12383300Y-8311400D02*
X12483300Y-8411400D01*
X12483300Y-8311400D02*
X12383300Y-8411400D01*
X12483300Y-8361400D02*
G75*
G03*
X12483300Y-8361400I-50000J0D01*
G01*
X12383300Y-8565400D02*
X12483300Y-8665400D01*
X12483300Y-8565400D02*
X12383300Y-8665400D01*
X12483300Y-8615400D02*
G75*
G03*
X12483300Y-8615400I-50000J0D01*
G01*
X12637300Y-7803400D02*
X12737300Y-7903400D01*
X12737300Y-7803400D02*
X12637300Y-7903400D01*
X12737300Y-7853400D02*
G75*
G03*
X12737300Y-7853400I-50000J0D01*
G01*
X12637300Y-8057400D02*
X12737300Y-8157400D01*
X12737300Y-8057400D02*
X12637300Y-8157400D01*
X12737300Y-8107400D02*
G75*
G03*
X12737300Y-8107400I-50000J0D01*
G01*
X12637300Y-8311400D02*
X12737300Y-8411400D01*
X12737300Y-8311400D02*
X12637300Y-8411400D01*
X12737300Y-8361400D02*
G75*
G03*
X12737300Y-8361400I-50000J0D01*
G01*
X12637300Y-8565400D02*
X12737300Y-8665400D01*
X12737300Y-8565400D02*
X12637300Y-8665400D01*
X12737300Y-8615400D02*
G75*
G03*
X12737300Y-8615400I-50000J0D01*
G01*
X12891300Y-7803400D02*
X12991300Y-7903400D01*
X12991300Y-7803400D02*
X12891300Y-7903400D01*
X12991300Y-7853400D02*
G75*
G03*
X12991300Y-7853400I-50000J0D01*
G01*
X12891300Y-8057400D02*
X12991300Y-8157400D01*
X12991300Y-8057400D02*
X12891300Y-8157400D01*
X12991300Y-8107400D02*
G75*
G03*
X12991300Y-8107400I-50000J0D01*
G01*
X12891300Y-8311400D02*
X12991300Y-8411400D01*
X12991300Y-8311400D02*
X12891300Y-8411400D01*
X12991300Y-8361400D02*
G75*
G03*
X12991300Y-8361400I-50000J0D01*
G01*
X12891300Y-8565400D02*
X12991300Y-8665400D01*
X12991300Y-8565400D02*
X12891300Y-8665400D01*
X12991300Y-8615400D02*
G75*
G03*
X12991300Y-8615400I-50000J0D01*
G01*
D18*
X7759700Y-8793200D02*
X7861300Y-8894800D01*
X7861300Y-8793200D02*
X7759700Y-8894800D01*
X7810500Y-8793200D02*
X7810500Y-8894800D01*
X7759700Y-8844000D02*
X7861300Y-8844000D01*
X7759700Y-9047200D02*
X7861300Y-9148800D01*
X7861300Y-9047200D02*
X7759700Y-9148800D01*
X7810500Y-9047200D02*
X7810500Y-9148800D01*
X7759700Y-9098000D02*
X7861300Y-9098000D01*
X8013700Y-8793200D02*
X8115300Y-8894800D01*
X8115300Y-8793200D02*
X8013700Y-8894800D01*
X8064500Y-8793200D02*
X8064500Y-8894800D01*
X8013700Y-8844000D02*
X8115300Y-8844000D01*
X8013700Y-9047200D02*
X8115300Y-9148800D01*
X8115300Y-9047200D02*
X8013700Y-9148800D01*
X8064500Y-9047200D02*
X8064500Y-9148800D01*
X8013700Y-9098000D02*
X8115300Y-9098000D01*
X8267700Y-8793200D02*
X8369300Y-8894800D01*
X8369300Y-8793200D02*
X8267700Y-8894800D01*
X8318500Y-8793200D02*
X8318500Y-8894800D01*
X8267700Y-8844000D02*
X8369300Y-8844000D01*
X8267700Y-9047200D02*
X8369300Y-9148800D01*
X8369300Y-9047200D02*
X8267700Y-9148800D01*
X8318500Y-9047200D02*
X8318500Y-9148800D01*
X8267700Y-9098000D02*
X8369300Y-9098000D01*
X8521700Y-8793200D02*
X8623300Y-8894800D01*
X8623300Y-8793200D02*
X8521700Y-8894800D01*
X8572500Y-8793200D02*
X8572500Y-8894800D01*
X8521700Y-8844000D02*
X8623300Y-8844000D01*
X8521700Y-9047200D02*
X8623300Y-9148800D01*
X8623300Y-9047200D02*
X8521700Y-9148800D01*
X8572500Y-9047200D02*
X8572500Y-9148800D01*
X8521700Y-9098000D02*
X8623300Y-9098000D01*
D19*
X7327700Y-6456200D02*
X7429700Y-6558200D01*
X7429700Y-6456200D02*
X7327700Y-6558200D01*
X7414763Y-6543263D02*
X7414763Y-6471137D01*
X7342637Y-6471137D01*
X7342637Y-6543263D01*
X7414763Y-6543263D01*
X7327700Y-11006200D02*
X7429700Y-11108200D01*
X7429700Y-11006200D02*
X7327700Y-11108200D01*
X7414763Y-11093263D02*
X7414763Y-11021137D01*
X7342637Y-11021137D01*
X7342637Y-11093263D01*
X7414763Y-11093263D01*
X12941100Y-6456200D02*
X13043100Y-6558200D01*
X13043100Y-6456200D02*
X12941100Y-6558200D01*
X13028163Y-6543263D02*
X13028163Y-6471137D01*
X12956037Y-6471137D01*
X12956037Y-6543263D01*
X13028163Y-6543263D01*
X12941100Y-11006200D02*
X13043100Y-11108200D01*
X13043100Y-11006200D02*
X12941100Y-11108200D01*
X13028163Y-11093263D02*
X13028163Y-11021137D01*
X12956037Y-11021137D01*
X12956037Y-11093263D01*
X13028163Y-11093263D01*
D20*
X6218500Y-6427200D02*
X6378500Y-6587200D01*
X6378500Y-6427200D02*
X6218500Y-6587200D01*
X6298500Y-6587200D02*
X6378500Y-6507200D01*
X6298500Y-6427200D01*
X6218500Y-6507200D01*
X6298500Y-6587200D01*
X6218500Y-10902200D02*
X6378500Y-11062200D01*
X6378500Y-10902200D02*
X6218500Y-11062200D01*
X6298500Y-11062200D02*
X6378500Y-10982200D01*
X6298500Y-10902200D01*
X6218500Y-10982200D01*
X6298500Y-11062200D01*
X6593500Y-6429700D02*
X6753500Y-6589700D01*
X6753500Y-6429700D02*
X6593500Y-6589700D01*
X6673500Y-6589700D02*
X6753500Y-6509700D01*
X6673500Y-6429700D01*
X6593500Y-6509700D01*
X6673500Y-6589700D01*
X6968500Y-6427200D02*
X7128500Y-6587200D01*
X7128500Y-6427200D02*
X6968500Y-6587200D01*
X7048500Y-6587200D02*
X7128500Y-6507200D01*
X7048500Y-6427200D01*
X6968500Y-6507200D01*
X7048500Y-6587200D01*
X6968500Y-10877200D02*
X7128500Y-11037200D01*
X7128500Y-10877200D02*
X6968500Y-11037200D01*
X7048500Y-11037200D02*
X7128500Y-10957200D01*
X7048500Y-10877200D01*
X6968500Y-10957200D01*
X7048500Y-11037200D01*
X13279700Y-6426800D02*
X13439700Y-6586800D01*
X13439700Y-6426800D02*
X13279700Y-6586800D01*
X13359700Y-6586800D02*
X13439700Y-6506800D01*
X13359700Y-6426800D01*
X13279700Y-6506800D01*
X13359700Y-6586800D01*
X13279700Y-10876800D02*
X13439700Y-11036800D01*
X13439700Y-10876800D02*
X13279700Y-11036800D01*
X13359700Y-11036800D02*
X13439700Y-10956800D01*
X13359700Y-10876800D01*
X13279700Y-10956800D01*
X13359700Y-11036800D01*
X13654700Y-10874300D02*
X13814700Y-11034300D01*
X13814700Y-10874300D02*
X13654700Y-11034300D01*
X13734700Y-11034300D02*
X13814700Y-10954300D01*
X13734700Y-10874300D01*
X13654700Y-10954300D01*
X13734700Y-11034300D01*
X14029700Y-6401800D02*
X14189700Y-6561800D01*
X14189700Y-6401800D02*
X14029700Y-6561800D01*
X14109700Y-6561800D02*
X14189700Y-6481800D01*
X14109700Y-6401800D01*
X14029700Y-6481800D01*
X14109700Y-6561800D01*
X14029700Y-10876800D02*
X14189700Y-11036800D01*
X14189700Y-10876800D02*
X14029700Y-11036800D01*
X14109700Y-11036800D02*
X14189700Y-10956800D01*
X14109700Y-10876800D01*
X14029700Y-10956800D01*
X14109700Y-11036800D01*
D11*
X6295119Y-11765024D02*
X6295119Y-11565024D01*
X6295119Y-11565024D02*
X6342738Y-11565024D01*
X6342738Y-11565024D02*
X6371309Y-11574548D01*
X6371309Y-11574548D02*
X6390357Y-11593595D01*
X6390357Y-11593595D02*
X6399881Y-11612643D01*
X6399881Y-11612643D02*
X6409405Y-11650738D01*
X6409405Y-11650738D02*
X6409405Y-11679309D01*
X6409405Y-11679309D02*
X6399881Y-11717405D01*
X6399881Y-11717405D02*
X6390357Y-11736452D01*
X6390357Y-11736452D02*
X6371309Y-11755500D01*
X6371309Y-11755500D02*
X6342738Y-11765024D01*
X6342738Y-11765024D02*
X6295119Y-11765024D01*
X6495119Y-11765024D02*
X6495119Y-11631690D01*
X6495119Y-11669786D02*
X6504643Y-11650738D01*
X6504643Y-11650738D02*
X6514167Y-11641214D01*
X6514167Y-11641214D02*
X6533214Y-11631690D01*
X6533214Y-11631690D02*
X6552262Y-11631690D01*
X6618928Y-11765024D02*
X6618928Y-11631690D01*
X6618928Y-11565024D02*
X6609405Y-11574548D01*
X6609405Y-11574548D02*
X6618928Y-11584071D01*
X6618928Y-11584071D02*
X6628452Y-11574548D01*
X6628452Y-11574548D02*
X6618928Y-11565024D01*
X6618928Y-11565024D02*
X6618928Y-11584071D01*
X6742738Y-11765024D02*
X6723690Y-11755500D01*
X6723690Y-11755500D02*
X6714167Y-11736452D01*
X6714167Y-11736452D02*
X6714167Y-11565024D01*
X6847500Y-11765024D02*
X6828452Y-11755500D01*
X6828452Y-11755500D02*
X6818928Y-11736452D01*
X6818928Y-11736452D02*
X6818928Y-11565024D01*
X7076071Y-11765024D02*
X7076071Y-11565024D01*
X7076071Y-11565024D02*
X7142738Y-11707881D01*
X7142738Y-11707881D02*
X7209405Y-11565024D01*
X7209405Y-11565024D02*
X7209405Y-11765024D01*
X7390357Y-11765024D02*
X7390357Y-11660262D01*
X7390357Y-11660262D02*
X7380833Y-11641214D01*
X7380833Y-11641214D02*
X7361786Y-11631690D01*
X7361786Y-11631690D02*
X7323690Y-11631690D01*
X7323690Y-11631690D02*
X7304643Y-11641214D01*
X7390357Y-11755500D02*
X7371309Y-11765024D01*
X7371309Y-11765024D02*
X7323690Y-11765024D01*
X7323690Y-11765024D02*
X7304643Y-11755500D01*
X7304643Y-11755500D02*
X7295119Y-11736452D01*
X7295119Y-11736452D02*
X7295119Y-11717405D01*
X7295119Y-11717405D02*
X7304643Y-11698357D01*
X7304643Y-11698357D02*
X7323690Y-11688833D01*
X7323690Y-11688833D02*
X7371309Y-11688833D01*
X7371309Y-11688833D02*
X7390357Y-11679309D01*
X7485595Y-11631690D02*
X7485595Y-11831690D01*
X7485595Y-11641214D02*
X7504643Y-11631690D01*
X7504643Y-11631690D02*
X7542738Y-11631690D01*
X7542738Y-11631690D02*
X7561786Y-11641214D01*
X7561786Y-11641214D02*
X7571309Y-11650738D01*
X7571309Y-11650738D02*
X7580833Y-11669786D01*
X7580833Y-11669786D02*
X7580833Y-11726928D01*
X7580833Y-11726928D02*
X7571309Y-11745976D01*
X7571309Y-11745976D02*
X7561786Y-11755500D01*
X7561786Y-11755500D02*
X7542738Y-11765024D01*
X7542738Y-11765024D02*
X7504643Y-11765024D01*
X7504643Y-11765024D02*
X7485595Y-11755500D01*
X7666548Y-11745976D02*
X7676071Y-11755500D01*
X7676071Y-11755500D02*
X7666548Y-11765024D01*
X7666548Y-11765024D02*
X7657024Y-11755500D01*
X7657024Y-11755500D02*
X7666548Y-11745976D01*
X7666548Y-11745976D02*
X7666548Y-11765024D01*
X7666548Y-11641214D02*
X7676071Y-11650738D01*
X7676071Y-11650738D02*
X7666548Y-11660262D01*
X7666548Y-11660262D02*
X7657024Y-11650738D01*
X7657024Y-11650738D02*
X7666548Y-11641214D01*
X7666548Y-11641214D02*
X7666548Y-11660262D01*
D12*
X6007500Y-12072500D02*
X6047500Y-12112500D01*
X6047500Y-12072500D02*
X6007500Y-12112500D01*
D11*
X6333214Y-11985024D02*
X6352262Y-11985024D01*
X6352262Y-11985024D02*
X6371309Y-11994548D01*
X6371309Y-11994548D02*
X6380833Y-12004071D01*
X6380833Y-12004071D02*
X6390357Y-12023119D01*
X6390357Y-12023119D02*
X6399881Y-12061214D01*
X6399881Y-12061214D02*
X6399881Y-12108833D01*
X6399881Y-12108833D02*
X6390357Y-12146928D01*
X6390357Y-12146928D02*
X6380833Y-12165976D01*
X6380833Y-12165976D02*
X6371309Y-12175500D01*
X6371309Y-12175500D02*
X6352262Y-12185024D01*
X6352262Y-12185024D02*
X6333214Y-12185024D01*
X6333214Y-12185024D02*
X6314167Y-12175500D01*
X6314167Y-12175500D02*
X6304643Y-12165976D01*
X6304643Y-12165976D02*
X6295119Y-12146928D01*
X6295119Y-12146928D02*
X6285595Y-12108833D01*
X6285595Y-12108833D02*
X6285595Y-12061214D01*
X6285595Y-12061214D02*
X6295119Y-12023119D01*
X6295119Y-12023119D02*
X6304643Y-12004071D01*
X6304643Y-12004071D02*
X6314167Y-11994548D01*
X6314167Y-11994548D02*
X6333214Y-11985024D01*
X6485595Y-12165976D02*
X6495119Y-12175500D01*
X6495119Y-12175500D02*
X6485595Y-12185024D01*
X6485595Y-12185024D02*
X6476071Y-12175500D01*
X6476071Y-12175500D02*
X6485595Y-12165976D01*
X6485595Y-12165976D02*
X6485595Y-12185024D01*
X6666548Y-12051690D02*
X6666548Y-12185024D01*
X6618928Y-11975500D02*
X6571309Y-12118357D01*
X6571309Y-12118357D02*
X6695119Y-12118357D01*
X6809405Y-11985024D02*
X6828452Y-11985024D01*
X6828452Y-11985024D02*
X6847500Y-11994548D01*
X6847500Y-11994548D02*
X6857024Y-12004071D01*
X6857024Y-12004071D02*
X6866548Y-12023119D01*
X6866548Y-12023119D02*
X6876071Y-12061214D01*
X6876071Y-12061214D02*
X6876071Y-12108833D01*
X6876071Y-12108833D02*
X6866548Y-12146928D01*
X6866548Y-12146928D02*
X6857024Y-12165976D01*
X6857024Y-12165976D02*
X6847500Y-12175500D01*
X6847500Y-12175500D02*
X6828452Y-12185024D01*
X6828452Y-12185024D02*
X6809405Y-12185024D01*
X6809405Y-12185024D02*
X6790357Y-12175500D01*
X6790357Y-12175500D02*
X6780833Y-12165976D01*
X6780833Y-12165976D02*
X6771309Y-12146928D01*
X6771309Y-12146928D02*
X6761786Y-12108833D01*
X6761786Y-12108833D02*
X6761786Y-12061214D01*
X6761786Y-12061214D02*
X6771309Y-12023119D01*
X6771309Y-12023119D02*
X6780833Y-12004071D01*
X6780833Y-12004071D02*
X6790357Y-11994548D01*
X6790357Y-11994548D02*
X6809405Y-11985024D01*
X6999881Y-11985024D02*
X7018929Y-11985024D01*
X7018929Y-11985024D02*
X7037976Y-11994548D01*
X7037976Y-11994548D02*
X7047500Y-12004071D01*
X7047500Y-12004071D02*
X7057024Y-12023119D01*
X7057024Y-12023119D02*
X7066548Y-12061214D01*
X7066548Y-12061214D02*
X7066548Y-12108833D01*
X7066548Y-12108833D02*
X7057024Y-12146928D01*
X7057024Y-12146928D02*
X7047500Y-12165976D01*
X7047500Y-12165976D02*
X7037976Y-12175500D01*
X7037976Y-12175500D02*
X7018929Y-12185024D01*
X7018929Y-12185024D02*
X6999881Y-12185024D01*
X6999881Y-12185024D02*
X6980833Y-12175500D01*
X6980833Y-12175500D02*
X6971309Y-12165976D01*
X6971309Y-12165976D02*
X6961786Y-12146928D01*
X6961786Y-12146928D02*
X6952262Y-12108833D01*
X6952262Y-12108833D02*
X6952262Y-12061214D01*
X6952262Y-12061214D02*
X6961786Y-12023119D01*
X6961786Y-12023119D02*
X6971309Y-12004071D01*
X6971309Y-12004071D02*
X6980833Y-11994548D01*
X6980833Y-11994548D02*
X6999881Y-11985024D01*
X7152262Y-12185024D02*
X7152262Y-12051690D01*
X7152262Y-12070738D02*
X7161786Y-12061214D01*
X7161786Y-12061214D02*
X7180833Y-12051690D01*
X7180833Y-12051690D02*
X7209405Y-12051690D01*
X7209405Y-12051690D02*
X7228452Y-12061214D01*
X7228452Y-12061214D02*
X7237976Y-12080262D01*
X7237976Y-12080262D02*
X7237976Y-12185024D01*
X7237976Y-12080262D02*
X7247500Y-12061214D01*
X7247500Y-12061214D02*
X7266548Y-12051690D01*
X7266548Y-12051690D02*
X7295119Y-12051690D01*
X7295119Y-12051690D02*
X7314167Y-12061214D01*
X7314167Y-12061214D02*
X7323690Y-12080262D01*
X7323690Y-12080262D02*
X7323690Y-12185024D01*
X7418929Y-12185024D02*
X7418929Y-12051690D01*
X7418929Y-12070738D02*
X7428452Y-12061214D01*
X7428452Y-12061214D02*
X7447500Y-12051690D01*
X7447500Y-12051690D02*
X7476071Y-12051690D01*
X7476071Y-12051690D02*
X7495119Y-12061214D01*
X7495119Y-12061214D02*
X7504643Y-12080262D01*
X7504643Y-12080262D02*
X7504643Y-12185024D01*
X7504643Y-12080262D02*
X7514167Y-12061214D01*
X7514167Y-12061214D02*
X7533214Y-12051690D01*
X7533214Y-12051690D02*
X7561786Y-12051690D01*
X7561786Y-12051690D02*
X7580833Y-12061214D01*
X7580833Y-12061214D02*
X7590357Y-12080262D01*
X7590357Y-12080262D02*
X7590357Y-12185024D01*
X7980833Y-11975500D02*
X7809405Y-12232643D01*
X8237976Y-11985024D02*
X8257024Y-11985024D01*
X8257024Y-11985024D02*
X8276072Y-11994548D01*
X8276072Y-11994548D02*
X8285595Y-12004071D01*
X8285595Y-12004071D02*
X8295119Y-12023119D01*
X8295119Y-12023119D02*
X8304643Y-12061214D01*
X8304643Y-12061214D02*
X8304643Y-12108833D01*
X8304643Y-12108833D02*
X8295119Y-12146928D01*
X8295119Y-12146928D02*
X8285595Y-12165976D01*
X8285595Y-12165976D02*
X8276072Y-12175500D01*
X8276072Y-12175500D02*
X8257024Y-12185024D01*
X8257024Y-12185024D02*
X8237976Y-12185024D01*
X8237976Y-12185024D02*
X8218929Y-12175500D01*
X8218929Y-12175500D02*
X8209405Y-12165976D01*
X8209405Y-12165976D02*
X8199881Y-12146928D01*
X8199881Y-12146928D02*
X8190357Y-12108833D01*
X8190357Y-12108833D02*
X8190357Y-12061214D01*
X8190357Y-12061214D02*
X8199881Y-12023119D01*
X8199881Y-12023119D02*
X8209405Y-12004071D01*
X8209405Y-12004071D02*
X8218929Y-11994548D01*
X8218929Y-11994548D02*
X8237976Y-11985024D01*
X8390357Y-12165976D02*
X8399881Y-12175500D01*
X8399881Y-12175500D02*
X8390357Y-12185024D01*
X8390357Y-12185024D02*
X8380833Y-12175500D01*
X8380833Y-12175500D02*
X8390357Y-12165976D01*
X8390357Y-12165976D02*
X8390357Y-12185024D01*
X8523691Y-11985024D02*
X8542738Y-11985024D01*
X8542738Y-11985024D02*
X8561786Y-11994548D01*
X8561786Y-11994548D02*
X8571310Y-12004071D01*
X8571310Y-12004071D02*
X8580834Y-12023119D01*
X8580834Y-12023119D02*
X8590357Y-12061214D01*
X8590357Y-12061214D02*
X8590357Y-12108833D01*
X8590357Y-12108833D02*
X8580834Y-12146928D01*
X8580834Y-12146928D02*
X8571310Y-12165976D01*
X8571310Y-12165976D02*
X8561786Y-12175500D01*
X8561786Y-12175500D02*
X8542738Y-12185024D01*
X8542738Y-12185024D02*
X8523691Y-12185024D01*
X8523691Y-12185024D02*
X8504643Y-12175500D01*
X8504643Y-12175500D02*
X8495119Y-12165976D01*
X8495119Y-12165976D02*
X8485595Y-12146928D01*
X8485595Y-12146928D02*
X8476072Y-12108833D01*
X8476072Y-12108833D02*
X8476072Y-12061214D01*
X8476072Y-12061214D02*
X8485595Y-12023119D01*
X8485595Y-12023119D02*
X8495119Y-12004071D01*
X8495119Y-12004071D02*
X8504643Y-11994548D01*
X8504643Y-11994548D02*
X8523691Y-11985024D01*
X8780834Y-12185024D02*
X8666548Y-12185024D01*
X8723691Y-12185024D02*
X8723691Y-11985024D01*
X8723691Y-11985024D02*
X8704643Y-12013595D01*
X8704643Y-12013595D02*
X8685595Y-12032643D01*
X8685595Y-12032643D02*
X8666548Y-12042167D01*
X8961786Y-11985024D02*
X8866548Y-11985024D01*
X8866548Y-11985024D02*
X8857024Y-12080262D01*
X8857024Y-12080262D02*
X8866548Y-12070738D01*
X8866548Y-12070738D02*
X8885595Y-12061214D01*
X8885595Y-12061214D02*
X8933215Y-12061214D01*
X8933215Y-12061214D02*
X8952262Y-12070738D01*
X8952262Y-12070738D02*
X8961786Y-12080262D01*
X8961786Y-12080262D02*
X8971310Y-12099309D01*
X8971310Y-12099309D02*
X8971310Y-12146928D01*
X8971310Y-12146928D02*
X8961786Y-12165976D01*
X8961786Y-12165976D02*
X8952262Y-12175500D01*
X8952262Y-12175500D02*
X8933215Y-12185024D01*
X8933215Y-12185024D02*
X8885595Y-12185024D01*
X8885595Y-12185024D02*
X8866548Y-12175500D01*
X8866548Y-12175500D02*
X8857024Y-12165976D01*
X9037976Y-11985024D02*
X9171310Y-11985024D01*
X9171310Y-11985024D02*
X9085595Y-12185024D01*
X9237976Y-11985024D02*
X9237976Y-12023119D01*
X9314167Y-11985024D02*
X9314167Y-12023119D01*
X9609405Y-12261214D02*
X9599881Y-12251690D01*
X9599881Y-12251690D02*
X9580834Y-12223119D01*
X9580834Y-12223119D02*
X9571310Y-12204071D01*
X9571310Y-12204071D02*
X9561786Y-12175500D01*
X9561786Y-12175500D02*
X9552262Y-12127881D01*
X9552262Y-12127881D02*
X9552262Y-12089786D01*
X9552262Y-12089786D02*
X9561786Y-12042167D01*
X9561786Y-12042167D02*
X9571310Y-12013595D01*
X9571310Y-12013595D02*
X9580834Y-11994548D01*
X9580834Y-11994548D02*
X9599881Y-11965976D01*
X9599881Y-11965976D02*
X9609405Y-11956452D01*
X9780834Y-11985024D02*
X9685596Y-11985024D01*
X9685596Y-11985024D02*
X9676072Y-12080262D01*
X9676072Y-12080262D02*
X9685596Y-12070738D01*
X9685596Y-12070738D02*
X9704643Y-12061214D01*
X9704643Y-12061214D02*
X9752262Y-12061214D01*
X9752262Y-12061214D02*
X9771310Y-12070738D01*
X9771310Y-12070738D02*
X9780834Y-12080262D01*
X9780834Y-12080262D02*
X9790357Y-12099309D01*
X9790357Y-12099309D02*
X9790357Y-12146928D01*
X9790357Y-12146928D02*
X9780834Y-12165976D01*
X9780834Y-12165976D02*
X9771310Y-12175500D01*
X9771310Y-12175500D02*
X9752262Y-12185024D01*
X9752262Y-12185024D02*
X9704643Y-12185024D01*
X9704643Y-12185024D02*
X9685596Y-12175500D01*
X9685596Y-12175500D02*
X9676072Y-12165976D01*
X9904643Y-12070738D02*
X9885596Y-12061214D01*
X9885596Y-12061214D02*
X9876072Y-12051690D01*
X9876072Y-12051690D02*
X9866548Y-12032643D01*
X9866548Y-12032643D02*
X9866548Y-12023119D01*
X9866548Y-12023119D02*
X9876072Y-12004071D01*
X9876072Y-12004071D02*
X9885596Y-11994548D01*
X9885596Y-11994548D02*
X9904643Y-11985024D01*
X9904643Y-11985024D02*
X9942738Y-11985024D01*
X9942738Y-11985024D02*
X9961786Y-11994548D01*
X9961786Y-11994548D02*
X9971310Y-12004071D01*
X9971310Y-12004071D02*
X9980834Y-12023119D01*
X9980834Y-12023119D02*
X9980834Y-12032643D01*
X9980834Y-12032643D02*
X9971310Y-12051690D01*
X9971310Y-12051690D02*
X9961786Y-12061214D01*
X9961786Y-12061214D02*
X9942738Y-12070738D01*
X9942738Y-12070738D02*
X9904643Y-12070738D01*
X9904643Y-12070738D02*
X9885596Y-12080262D01*
X9885596Y-12080262D02*
X9876072Y-12089786D01*
X9876072Y-12089786D02*
X9866548Y-12108833D01*
X9866548Y-12108833D02*
X9866548Y-12146928D01*
X9866548Y-12146928D02*
X9876072Y-12165976D01*
X9876072Y-12165976D02*
X9885596Y-12175500D01*
X9885596Y-12175500D02*
X9904643Y-12185024D01*
X9904643Y-12185024D02*
X9942738Y-12185024D01*
X9942738Y-12185024D02*
X9961786Y-12175500D01*
X9961786Y-12175500D02*
X9971310Y-12165976D01*
X9971310Y-12165976D02*
X9980834Y-12146928D01*
X9980834Y-12146928D02*
X9980834Y-12108833D01*
X9980834Y-12108833D02*
X9971310Y-12089786D01*
X9971310Y-12089786D02*
X9961786Y-12080262D01*
X9961786Y-12080262D02*
X9942738Y-12070738D01*
X10218929Y-12185024D02*
X10218929Y-11985024D01*
X10304643Y-12185024D02*
X10304643Y-12080262D01*
X10304643Y-12080262D02*
X10295119Y-12061214D01*
X10295119Y-12061214D02*
X10276072Y-12051690D01*
X10276072Y-12051690D02*
X10247500Y-12051690D01*
X10247500Y-12051690D02*
X10228453Y-12061214D01*
X10228453Y-12061214D02*
X10218929Y-12070738D01*
X10428453Y-12185024D02*
X10409405Y-12175500D01*
X10409405Y-12175500D02*
X10399881Y-12165976D01*
X10399881Y-12165976D02*
X10390358Y-12146928D01*
X10390358Y-12146928D02*
X10390358Y-12089786D01*
X10390358Y-12089786D02*
X10399881Y-12070738D01*
X10399881Y-12070738D02*
X10409405Y-12061214D01*
X10409405Y-12061214D02*
X10428453Y-12051690D01*
X10428453Y-12051690D02*
X10457024Y-12051690D01*
X10457024Y-12051690D02*
X10476072Y-12061214D01*
X10476072Y-12061214D02*
X10485596Y-12070738D01*
X10485596Y-12070738D02*
X10495119Y-12089786D01*
X10495119Y-12089786D02*
X10495119Y-12146928D01*
X10495119Y-12146928D02*
X10485596Y-12165976D01*
X10485596Y-12165976D02*
X10476072Y-12175500D01*
X10476072Y-12175500D02*
X10457024Y-12185024D01*
X10457024Y-12185024D02*
X10428453Y-12185024D01*
X10609405Y-12185024D02*
X10590358Y-12175500D01*
X10590358Y-12175500D02*
X10580834Y-12156452D01*
X10580834Y-12156452D02*
X10580834Y-11985024D01*
X10761786Y-12175500D02*
X10742739Y-12185024D01*
X10742739Y-12185024D02*
X10704643Y-12185024D01*
X10704643Y-12185024D02*
X10685596Y-12175500D01*
X10685596Y-12175500D02*
X10676072Y-12156452D01*
X10676072Y-12156452D02*
X10676072Y-12080262D01*
X10676072Y-12080262D02*
X10685596Y-12061214D01*
X10685596Y-12061214D02*
X10704643Y-12051690D01*
X10704643Y-12051690D02*
X10742739Y-12051690D01*
X10742739Y-12051690D02*
X10761786Y-12061214D01*
X10761786Y-12061214D02*
X10771310Y-12080262D01*
X10771310Y-12080262D02*
X10771310Y-12099309D01*
X10771310Y-12099309D02*
X10676072Y-12118357D01*
X10847500Y-12175500D02*
X10866548Y-12185024D01*
X10866548Y-12185024D02*
X10904643Y-12185024D01*
X10904643Y-12185024D02*
X10923691Y-12175500D01*
X10923691Y-12175500D02*
X10933215Y-12156452D01*
X10933215Y-12156452D02*
X10933215Y-12146928D01*
X10933215Y-12146928D02*
X10923691Y-12127881D01*
X10923691Y-12127881D02*
X10904643Y-12118357D01*
X10904643Y-12118357D02*
X10876072Y-12118357D01*
X10876072Y-12118357D02*
X10857024Y-12108833D01*
X10857024Y-12108833D02*
X10847500Y-12089786D01*
X10847500Y-12089786D02*
X10847500Y-12080262D01*
X10847500Y-12080262D02*
X10857024Y-12061214D01*
X10857024Y-12061214D02*
X10876072Y-12051690D01*
X10876072Y-12051690D02*
X10904643Y-12051690D01*
X10904643Y-12051690D02*
X10923691Y-12061214D01*
X10999881Y-12261214D02*
X11009405Y-12251690D01*
X11009405Y-12251690D02*
X11028453Y-12223119D01*
X11028453Y-12223119D02*
X11037977Y-12204071D01*
X11037977Y-12204071D02*
X11047500Y-12175500D01*
X11047500Y-12175500D02*
X11057024Y-12127881D01*
X11057024Y-12127881D02*
X11057024Y-12089786D01*
X11057024Y-12089786D02*
X11047500Y-12042167D01*
X11047500Y-12042167D02*
X11037977Y-12013595D01*
X11037977Y-12013595D02*
X11028453Y-11994548D01*
X11028453Y-11994548D02*
X11009405Y-11965976D01*
X11009405Y-11965976D02*
X10999881Y-11956452D01*
D13*
X6047500Y-12356500D02*
G75*
G03*
X6047500Y-12356500I-30000J0D01*
G01*
D11*
X6333214Y-12249024D02*
X6352262Y-12249024D01*
X6352262Y-12249024D02*
X6371309Y-12258548D01*
X6371309Y-12258548D02*
X6380833Y-12268071D01*
X6380833Y-12268071D02*
X6390357Y-12287119D01*
X6390357Y-12287119D02*
X6399881Y-12325214D01*
X6399881Y-12325214D02*
X6399881Y-12372833D01*
X6399881Y-12372833D02*
X6390357Y-12410928D01*
X6390357Y-12410928D02*
X6380833Y-12429976D01*
X6380833Y-12429976D02*
X6371309Y-12439500D01*
X6371309Y-12439500D02*
X6352262Y-12449024D01*
X6352262Y-12449024D02*
X6333214Y-12449024D01*
X6333214Y-12449024D02*
X6314167Y-12439500D01*
X6314167Y-12439500D02*
X6304643Y-12429976D01*
X6304643Y-12429976D02*
X6295119Y-12410928D01*
X6295119Y-12410928D02*
X6285595Y-12372833D01*
X6285595Y-12372833D02*
X6285595Y-12325214D01*
X6285595Y-12325214D02*
X6295119Y-12287119D01*
X6295119Y-12287119D02*
X6304643Y-12268071D01*
X6304643Y-12268071D02*
X6314167Y-12258548D01*
X6314167Y-12258548D02*
X6333214Y-12249024D01*
X6485595Y-12429976D02*
X6495119Y-12439500D01*
X6495119Y-12439500D02*
X6485595Y-12449024D01*
X6485595Y-12449024D02*
X6476071Y-12439500D01*
X6476071Y-12439500D02*
X6485595Y-12429976D01*
X6485595Y-12429976D02*
X6485595Y-12449024D01*
X6666548Y-12249024D02*
X6628452Y-12249024D01*
X6628452Y-12249024D02*
X6609405Y-12258548D01*
X6609405Y-12258548D02*
X6599881Y-12268071D01*
X6599881Y-12268071D02*
X6580833Y-12296643D01*
X6580833Y-12296643D02*
X6571309Y-12334738D01*
X6571309Y-12334738D02*
X6571309Y-12410928D01*
X6571309Y-12410928D02*
X6580833Y-12429976D01*
X6580833Y-12429976D02*
X6590357Y-12439500D01*
X6590357Y-12439500D02*
X6609405Y-12449024D01*
X6609405Y-12449024D02*
X6647500Y-12449024D01*
X6647500Y-12449024D02*
X6666548Y-12439500D01*
X6666548Y-12439500D02*
X6676071Y-12429976D01*
X6676071Y-12429976D02*
X6685595Y-12410928D01*
X6685595Y-12410928D02*
X6685595Y-12363309D01*
X6685595Y-12363309D02*
X6676071Y-12344262D01*
X6676071Y-12344262D02*
X6666548Y-12334738D01*
X6666548Y-12334738D02*
X6647500Y-12325214D01*
X6647500Y-12325214D02*
X6609405Y-12325214D01*
X6609405Y-12325214D02*
X6590357Y-12334738D01*
X6590357Y-12334738D02*
X6580833Y-12344262D01*
X6580833Y-12344262D02*
X6571309Y-12363309D01*
X6809405Y-12249024D02*
X6828452Y-12249024D01*
X6828452Y-12249024D02*
X6847500Y-12258548D01*
X6847500Y-12258548D02*
X6857024Y-12268071D01*
X6857024Y-12268071D02*
X6866548Y-12287119D01*
X6866548Y-12287119D02*
X6876071Y-12325214D01*
X6876071Y-12325214D02*
X6876071Y-12372833D01*
X6876071Y-12372833D02*
X6866548Y-12410928D01*
X6866548Y-12410928D02*
X6857024Y-12429976D01*
X6857024Y-12429976D02*
X6847500Y-12439500D01*
X6847500Y-12439500D02*
X6828452Y-12449024D01*
X6828452Y-12449024D02*
X6809405Y-12449024D01*
X6809405Y-12449024D02*
X6790357Y-12439500D01*
X6790357Y-12439500D02*
X6780833Y-12429976D01*
X6780833Y-12429976D02*
X6771309Y-12410928D01*
X6771309Y-12410928D02*
X6761786Y-12372833D01*
X6761786Y-12372833D02*
X6761786Y-12325214D01*
X6761786Y-12325214D02*
X6771309Y-12287119D01*
X6771309Y-12287119D02*
X6780833Y-12268071D01*
X6780833Y-12268071D02*
X6790357Y-12258548D01*
X6790357Y-12258548D02*
X6809405Y-12249024D01*
X6999881Y-12249024D02*
X7018929Y-12249024D01*
X7018929Y-12249024D02*
X7037976Y-12258548D01*
X7037976Y-12258548D02*
X7047500Y-12268071D01*
X7047500Y-12268071D02*
X7057024Y-12287119D01*
X7057024Y-12287119D02*
X7066548Y-12325214D01*
X7066548Y-12325214D02*
X7066548Y-12372833D01*
X7066548Y-12372833D02*
X7057024Y-12410928D01*
X7057024Y-12410928D02*
X7047500Y-12429976D01*
X7047500Y-12429976D02*
X7037976Y-12439500D01*
X7037976Y-12439500D02*
X7018929Y-12449024D01*
X7018929Y-12449024D02*
X6999881Y-12449024D01*
X6999881Y-12449024D02*
X6980833Y-12439500D01*
X6980833Y-12439500D02*
X6971309Y-12429976D01*
X6971309Y-12429976D02*
X6961786Y-12410928D01*
X6961786Y-12410928D02*
X6952262Y-12372833D01*
X6952262Y-12372833D02*
X6952262Y-12325214D01*
X6952262Y-12325214D02*
X6961786Y-12287119D01*
X6961786Y-12287119D02*
X6971309Y-12268071D01*
X6971309Y-12268071D02*
X6980833Y-12258548D01*
X6980833Y-12258548D02*
X6999881Y-12249024D01*
X7152262Y-12449024D02*
X7152262Y-12315690D01*
X7152262Y-12334738D02*
X7161786Y-12325214D01*
X7161786Y-12325214D02*
X7180833Y-12315690D01*
X7180833Y-12315690D02*
X7209405Y-12315690D01*
X7209405Y-12315690D02*
X7228452Y-12325214D01*
X7228452Y-12325214D02*
X7237976Y-12344262D01*
X7237976Y-12344262D02*
X7237976Y-12449024D01*
X7237976Y-12344262D02*
X7247500Y-12325214D01*
X7247500Y-12325214D02*
X7266548Y-12315690D01*
X7266548Y-12315690D02*
X7295119Y-12315690D01*
X7295119Y-12315690D02*
X7314167Y-12325214D01*
X7314167Y-12325214D02*
X7323690Y-12344262D01*
X7323690Y-12344262D02*
X7323690Y-12449024D01*
X7418929Y-12449024D02*
X7418929Y-12315690D01*
X7418929Y-12334738D02*
X7428452Y-12325214D01*
X7428452Y-12325214D02*
X7447500Y-12315690D01*
X7447500Y-12315690D02*
X7476071Y-12315690D01*
X7476071Y-12315690D02*
X7495119Y-12325214D01*
X7495119Y-12325214D02*
X7504643Y-12344262D01*
X7504643Y-12344262D02*
X7504643Y-12449024D01*
X7504643Y-12344262D02*
X7514167Y-12325214D01*
X7514167Y-12325214D02*
X7533214Y-12315690D01*
X7533214Y-12315690D02*
X7561786Y-12315690D01*
X7561786Y-12315690D02*
X7580833Y-12325214D01*
X7580833Y-12325214D02*
X7590357Y-12344262D01*
X7590357Y-12344262D02*
X7590357Y-12449024D01*
X7980833Y-12239500D02*
X7809405Y-12496643D01*
X8237976Y-12249024D02*
X8257024Y-12249024D01*
X8257024Y-12249024D02*
X8276072Y-12258548D01*
X8276072Y-12258548D02*
X8285595Y-12268071D01*
X8285595Y-12268071D02*
X8295119Y-12287119D01*
X8295119Y-12287119D02*
X8304643Y-12325214D01*
X8304643Y-12325214D02*
X8304643Y-12372833D01*
X8304643Y-12372833D02*
X8295119Y-12410928D01*
X8295119Y-12410928D02*
X8285595Y-12429976D01*
X8285595Y-12429976D02*
X8276072Y-12439500D01*
X8276072Y-12439500D02*
X8257024Y-12449024D01*
X8257024Y-12449024D02*
X8237976Y-12449024D01*
X8237976Y-12449024D02*
X8218929Y-12439500D01*
X8218929Y-12439500D02*
X8209405Y-12429976D01*
X8209405Y-12429976D02*
X8199881Y-12410928D01*
X8199881Y-12410928D02*
X8190357Y-12372833D01*
X8190357Y-12372833D02*
X8190357Y-12325214D01*
X8190357Y-12325214D02*
X8199881Y-12287119D01*
X8199881Y-12287119D02*
X8209405Y-12268071D01*
X8209405Y-12268071D02*
X8218929Y-12258548D01*
X8218929Y-12258548D02*
X8237976Y-12249024D01*
X8390357Y-12429976D02*
X8399881Y-12439500D01*
X8399881Y-12439500D02*
X8390357Y-12449024D01*
X8390357Y-12449024D02*
X8380833Y-12439500D01*
X8380833Y-12439500D02*
X8390357Y-12429976D01*
X8390357Y-12429976D02*
X8390357Y-12449024D01*
X8523691Y-12249024D02*
X8542738Y-12249024D01*
X8542738Y-12249024D02*
X8561786Y-12258548D01*
X8561786Y-12258548D02*
X8571310Y-12268071D01*
X8571310Y-12268071D02*
X8580834Y-12287119D01*
X8580834Y-12287119D02*
X8590357Y-12325214D01*
X8590357Y-12325214D02*
X8590357Y-12372833D01*
X8590357Y-12372833D02*
X8580834Y-12410928D01*
X8580834Y-12410928D02*
X8571310Y-12429976D01*
X8571310Y-12429976D02*
X8561786Y-12439500D01*
X8561786Y-12439500D02*
X8542738Y-12449024D01*
X8542738Y-12449024D02*
X8523691Y-12449024D01*
X8523691Y-12449024D02*
X8504643Y-12439500D01*
X8504643Y-12439500D02*
X8495119Y-12429976D01*
X8495119Y-12429976D02*
X8485595Y-12410928D01*
X8485595Y-12410928D02*
X8476072Y-12372833D01*
X8476072Y-12372833D02*
X8476072Y-12325214D01*
X8476072Y-12325214D02*
X8485595Y-12287119D01*
X8485595Y-12287119D02*
X8495119Y-12268071D01*
X8495119Y-12268071D02*
X8504643Y-12258548D01*
X8504643Y-12258548D02*
X8523691Y-12249024D01*
X8666548Y-12268071D02*
X8676072Y-12258548D01*
X8676072Y-12258548D02*
X8695119Y-12249024D01*
X8695119Y-12249024D02*
X8742738Y-12249024D01*
X8742738Y-12249024D02*
X8761786Y-12258548D01*
X8761786Y-12258548D02*
X8771310Y-12268071D01*
X8771310Y-12268071D02*
X8780834Y-12287119D01*
X8780834Y-12287119D02*
X8780834Y-12306167D01*
X8780834Y-12306167D02*
X8771310Y-12334738D01*
X8771310Y-12334738D02*
X8657024Y-12449024D01*
X8657024Y-12449024D02*
X8780834Y-12449024D01*
X8847500Y-12249024D02*
X8971310Y-12249024D01*
X8971310Y-12249024D02*
X8904643Y-12325214D01*
X8904643Y-12325214D02*
X8933215Y-12325214D01*
X8933215Y-12325214D02*
X8952262Y-12334738D01*
X8952262Y-12334738D02*
X8961786Y-12344262D01*
X8961786Y-12344262D02*
X8971310Y-12363309D01*
X8971310Y-12363309D02*
X8971310Y-12410928D01*
X8971310Y-12410928D02*
X8961786Y-12429976D01*
X8961786Y-12429976D02*
X8952262Y-12439500D01*
X8952262Y-12439500D02*
X8933215Y-12449024D01*
X8933215Y-12449024D02*
X8876072Y-12449024D01*
X8876072Y-12449024D02*
X8857024Y-12439500D01*
X8857024Y-12439500D02*
X8847500Y-12429976D01*
X9142738Y-12249024D02*
X9104643Y-12249024D01*
X9104643Y-12249024D02*
X9085595Y-12258548D01*
X9085595Y-12258548D02*
X9076072Y-12268071D01*
X9076072Y-12268071D02*
X9057024Y-12296643D01*
X9057024Y-12296643D02*
X9047500Y-12334738D01*
X9047500Y-12334738D02*
X9047500Y-12410928D01*
X9047500Y-12410928D02*
X9057024Y-12429976D01*
X9057024Y-12429976D02*
X9066548Y-12439500D01*
X9066548Y-12439500D02*
X9085595Y-12449024D01*
X9085595Y-12449024D02*
X9123691Y-12449024D01*
X9123691Y-12449024D02*
X9142738Y-12439500D01*
X9142738Y-12439500D02*
X9152262Y-12429976D01*
X9152262Y-12429976D02*
X9161786Y-12410928D01*
X9161786Y-12410928D02*
X9161786Y-12363309D01*
X9161786Y-12363309D02*
X9152262Y-12344262D01*
X9152262Y-12344262D02*
X9142738Y-12334738D01*
X9142738Y-12334738D02*
X9123691Y-12325214D01*
X9123691Y-12325214D02*
X9085595Y-12325214D01*
X9085595Y-12325214D02*
X9066548Y-12334738D01*
X9066548Y-12334738D02*
X9057024Y-12344262D01*
X9057024Y-12344262D02*
X9047500Y-12363309D01*
X9237976Y-12249024D02*
X9237976Y-12287119D01*
X9314167Y-12249024D02*
X9314167Y-12287119D01*
X9609405Y-12525214D02*
X9599881Y-12515690D01*
X9599881Y-12515690D02*
X9580834Y-12487119D01*
X9580834Y-12487119D02*
X9571310Y-12468071D01*
X9571310Y-12468071D02*
X9561786Y-12439500D01*
X9561786Y-12439500D02*
X9552262Y-12391881D01*
X9552262Y-12391881D02*
X9552262Y-12353786D01*
X9552262Y-12353786D02*
X9561786Y-12306167D01*
X9561786Y-12306167D02*
X9571310Y-12277595D01*
X9571310Y-12277595D02*
X9580834Y-12258548D01*
X9580834Y-12258548D02*
X9599881Y-12229976D01*
X9599881Y-12229976D02*
X9609405Y-12220452D01*
X9723691Y-12249024D02*
X9742738Y-12249024D01*
X9742738Y-12249024D02*
X9761786Y-12258548D01*
X9761786Y-12258548D02*
X9771310Y-12268071D01*
X9771310Y-12268071D02*
X9780834Y-12287119D01*
X9780834Y-12287119D02*
X9790357Y-12325214D01*
X9790357Y-12325214D02*
X9790357Y-12372833D01*
X9790357Y-12372833D02*
X9780834Y-12410928D01*
X9780834Y-12410928D02*
X9771310Y-12429976D01*
X9771310Y-12429976D02*
X9761786Y-12439500D01*
X9761786Y-12439500D02*
X9742738Y-12449024D01*
X9742738Y-12449024D02*
X9723691Y-12449024D01*
X9723691Y-12449024D02*
X9704643Y-12439500D01*
X9704643Y-12439500D02*
X9695119Y-12429976D01*
X9695119Y-12429976D02*
X9685596Y-12410928D01*
X9685596Y-12410928D02*
X9676072Y-12372833D01*
X9676072Y-12372833D02*
X9676072Y-12325214D01*
X9676072Y-12325214D02*
X9685596Y-12287119D01*
X9685596Y-12287119D02*
X9695119Y-12268071D01*
X9695119Y-12268071D02*
X9704643Y-12258548D01*
X9704643Y-12258548D02*
X9723691Y-12249024D01*
X10028453Y-12449024D02*
X10028453Y-12249024D01*
X10114167Y-12449024D02*
X10114167Y-12344262D01*
X10114167Y-12344262D02*
X10104643Y-12325214D01*
X10104643Y-12325214D02*
X10085596Y-12315690D01*
X10085596Y-12315690D02*
X10057024Y-12315690D01*
X10057024Y-12315690D02*
X10037977Y-12325214D01*
X10037977Y-12325214D02*
X10028453Y-12334738D01*
X10237977Y-12449024D02*
X10218929Y-12439500D01*
X10218929Y-12439500D02*
X10209405Y-12429976D01*
X10209405Y-12429976D02*
X10199881Y-12410928D01*
X10199881Y-12410928D02*
X10199881Y-12353786D01*
X10199881Y-12353786D02*
X10209405Y-12334738D01*
X10209405Y-12334738D02*
X10218929Y-12325214D01*
X10218929Y-12325214D02*
X10237977Y-12315690D01*
X10237977Y-12315690D02*
X10266548Y-12315690D01*
X10266548Y-12315690D02*
X10285596Y-12325214D01*
X10285596Y-12325214D02*
X10295119Y-12334738D01*
X10295119Y-12334738D02*
X10304643Y-12353786D01*
X10304643Y-12353786D02*
X10304643Y-12410928D01*
X10304643Y-12410928D02*
X10295119Y-12429976D01*
X10295119Y-12429976D02*
X10285596Y-12439500D01*
X10285596Y-12439500D02*
X10266548Y-12449024D01*
X10266548Y-12449024D02*
X10237977Y-12449024D01*
X10418929Y-12449024D02*
X10399881Y-12439500D01*
X10399881Y-12439500D02*
X10390358Y-12420452D01*
X10390358Y-12420452D02*
X10390358Y-12249024D01*
X10571310Y-12439500D02*
X10552262Y-12449024D01*
X10552262Y-12449024D02*
X10514167Y-12449024D01*
X10514167Y-12449024D02*
X10495119Y-12439500D01*
X10495119Y-12439500D02*
X10485596Y-12420452D01*
X10485596Y-12420452D02*
X10485596Y-12344262D01*
X10485596Y-12344262D02*
X10495119Y-12325214D01*
X10495119Y-12325214D02*
X10514167Y-12315690D01*
X10514167Y-12315690D02*
X10552262Y-12315690D01*
X10552262Y-12315690D02*
X10571310Y-12325214D01*
X10571310Y-12325214D02*
X10580834Y-12344262D01*
X10580834Y-12344262D02*
X10580834Y-12363309D01*
X10580834Y-12363309D02*
X10485596Y-12382357D01*
X10657024Y-12439500D02*
X10676072Y-12449024D01*
X10676072Y-12449024D02*
X10714167Y-12449024D01*
X10714167Y-12449024D02*
X10733215Y-12439500D01*
X10733215Y-12439500D02*
X10742739Y-12420452D01*
X10742739Y-12420452D02*
X10742739Y-12410928D01*
X10742739Y-12410928D02*
X10733215Y-12391881D01*
X10733215Y-12391881D02*
X10714167Y-12382357D01*
X10714167Y-12382357D02*
X10685596Y-12382357D01*
X10685596Y-12382357D02*
X10666548Y-12372833D01*
X10666548Y-12372833D02*
X10657024Y-12353786D01*
X10657024Y-12353786D02*
X10657024Y-12344262D01*
X10657024Y-12344262D02*
X10666548Y-12325214D01*
X10666548Y-12325214D02*
X10685596Y-12315690D01*
X10685596Y-12315690D02*
X10714167Y-12315690D01*
X10714167Y-12315690D02*
X10733215Y-12325214D01*
X10980834Y-12372833D02*
X11133215Y-12372833D01*
X11057024Y-12449024D02*
X11057024Y-12296643D01*
X11371310Y-12268071D02*
X11380834Y-12258548D01*
X11380834Y-12258548D02*
X11399881Y-12249024D01*
X11399881Y-12249024D02*
X11447500Y-12249024D01*
X11447500Y-12249024D02*
X11466548Y-12258548D01*
X11466548Y-12258548D02*
X11476072Y-12268071D01*
X11476072Y-12268071D02*
X11485596Y-12287119D01*
X11485596Y-12287119D02*
X11485596Y-12306167D01*
X11485596Y-12306167D02*
X11476072Y-12334738D01*
X11476072Y-12334738D02*
X11361786Y-12449024D01*
X11361786Y-12449024D02*
X11485596Y-12449024D01*
X11714167Y-12439500D02*
X11733215Y-12449024D01*
X11733215Y-12449024D02*
X11771310Y-12449024D01*
X11771310Y-12449024D02*
X11790358Y-12439500D01*
X11790358Y-12439500D02*
X11799881Y-12420452D01*
X11799881Y-12420452D02*
X11799881Y-12410928D01*
X11799881Y-12410928D02*
X11790358Y-12391881D01*
X11790358Y-12391881D02*
X11771310Y-12382357D01*
X11771310Y-12382357D02*
X11742739Y-12382357D01*
X11742739Y-12382357D02*
X11723691Y-12372833D01*
X11723691Y-12372833D02*
X11714167Y-12353786D01*
X11714167Y-12353786D02*
X11714167Y-12344262D01*
X11714167Y-12344262D02*
X11723691Y-12325214D01*
X11723691Y-12325214D02*
X11742739Y-12315690D01*
X11742739Y-12315690D02*
X11771310Y-12315690D01*
X11771310Y-12315690D02*
X11790358Y-12325214D01*
X11914167Y-12449024D02*
X11895120Y-12439500D01*
X11895120Y-12439500D02*
X11885596Y-12420452D01*
X11885596Y-12420452D02*
X11885596Y-12249024D01*
X12018929Y-12449024D02*
X11999881Y-12439500D01*
X11999881Y-12439500D02*
X11990358Y-12429976D01*
X11990358Y-12429976D02*
X11980834Y-12410928D01*
X11980834Y-12410928D02*
X11980834Y-12353786D01*
X11980834Y-12353786D02*
X11990358Y-12334738D01*
X11990358Y-12334738D02*
X11999881Y-12325214D01*
X11999881Y-12325214D02*
X12018929Y-12315690D01*
X12018929Y-12315690D02*
X12047501Y-12315690D01*
X12047501Y-12315690D02*
X12066548Y-12325214D01*
X12066548Y-12325214D02*
X12076072Y-12334738D01*
X12076072Y-12334738D02*
X12085596Y-12353786D01*
X12085596Y-12353786D02*
X12085596Y-12410928D01*
X12085596Y-12410928D02*
X12076072Y-12429976D01*
X12076072Y-12429976D02*
X12066548Y-12439500D01*
X12066548Y-12439500D02*
X12047501Y-12449024D01*
X12047501Y-12449024D02*
X12018929Y-12449024D01*
X12142739Y-12315690D02*
X12218929Y-12315690D01*
X12171310Y-12249024D02*
X12171310Y-12420452D01*
X12171310Y-12420452D02*
X12180834Y-12439500D01*
X12180834Y-12439500D02*
X12199881Y-12449024D01*
X12199881Y-12449024D02*
X12218929Y-12449024D01*
X12276072Y-12439500D02*
X12295120Y-12449024D01*
X12295120Y-12449024D02*
X12333215Y-12449024D01*
X12333215Y-12449024D02*
X12352262Y-12439500D01*
X12352262Y-12439500D02*
X12361786Y-12420452D01*
X12361786Y-12420452D02*
X12361786Y-12410928D01*
X12361786Y-12410928D02*
X12352262Y-12391881D01*
X12352262Y-12391881D02*
X12333215Y-12382357D01*
X12333215Y-12382357D02*
X12304643Y-12382357D01*
X12304643Y-12382357D02*
X12285596Y-12372833D01*
X12285596Y-12372833D02*
X12276072Y-12353786D01*
X12276072Y-12353786D02*
X12276072Y-12344262D01*
X12276072Y-12344262D02*
X12285596Y-12325214D01*
X12285596Y-12325214D02*
X12304643Y-12315690D01*
X12304643Y-12315690D02*
X12333215Y-12315690D01*
X12333215Y-12315690D02*
X12352262Y-12325214D01*
X12428453Y-12525214D02*
X12437977Y-12515690D01*
X12437977Y-12515690D02*
X12457024Y-12487119D01*
X12457024Y-12487119D02*
X12466548Y-12468071D01*
X12466548Y-12468071D02*
X12476072Y-12439500D01*
X12476072Y-12439500D02*
X12485596Y-12391881D01*
X12485596Y-12391881D02*
X12485596Y-12353786D01*
X12485596Y-12353786D02*
X12476072Y-12306167D01*
X12476072Y-12306167D02*
X12466548Y-12277595D01*
X12466548Y-12277595D02*
X12457024Y-12258548D01*
X12457024Y-12258548D02*
X12437977Y-12229976D01*
X12437977Y-12229976D02*
X12428453Y-12220452D01*
D14*
X6015000Y-12588000D02*
X6015000Y-12653000D01*
X5982500Y-12620500D02*
X6047500Y-12620500D01*
D11*
X6333214Y-12513024D02*
X6352262Y-12513024D01*
X6352262Y-12513024D02*
X6371309Y-12522548D01*
X6371309Y-12522548D02*
X6380833Y-12532071D01*
X6380833Y-12532071D02*
X6390357Y-12551119D01*
X6390357Y-12551119D02*
X6399881Y-12589214D01*
X6399881Y-12589214D02*
X6399881Y-12636833D01*
X6399881Y-12636833D02*
X6390357Y-12674928D01*
X6390357Y-12674928D02*
X6380833Y-12693976D01*
X6380833Y-12693976D02*
X6371309Y-12703500D01*
X6371309Y-12703500D02*
X6352262Y-12713024D01*
X6352262Y-12713024D02*
X6333214Y-12713024D01*
X6333214Y-12713024D02*
X6314167Y-12703500D01*
X6314167Y-12703500D02*
X6304643Y-12693976D01*
X6304643Y-12693976D02*
X6295119Y-12674928D01*
X6295119Y-12674928D02*
X6285595Y-12636833D01*
X6285595Y-12636833D02*
X6285595Y-12589214D01*
X6285595Y-12589214D02*
X6295119Y-12551119D01*
X6295119Y-12551119D02*
X6304643Y-12532071D01*
X6304643Y-12532071D02*
X6314167Y-12522548D01*
X6314167Y-12522548D02*
X6333214Y-12513024D01*
X6485595Y-12693976D02*
X6495119Y-12703500D01*
X6495119Y-12703500D02*
X6485595Y-12713024D01*
X6485595Y-12713024D02*
X6476071Y-12703500D01*
X6476071Y-12703500D02*
X6485595Y-12693976D01*
X6485595Y-12693976D02*
X6485595Y-12713024D01*
X6666548Y-12513024D02*
X6628452Y-12513024D01*
X6628452Y-12513024D02*
X6609405Y-12522548D01*
X6609405Y-12522548D02*
X6599881Y-12532071D01*
X6599881Y-12532071D02*
X6580833Y-12560643D01*
X6580833Y-12560643D02*
X6571309Y-12598738D01*
X6571309Y-12598738D02*
X6571309Y-12674928D01*
X6571309Y-12674928D02*
X6580833Y-12693976D01*
X6580833Y-12693976D02*
X6590357Y-12703500D01*
X6590357Y-12703500D02*
X6609405Y-12713024D01*
X6609405Y-12713024D02*
X6647500Y-12713024D01*
X6647500Y-12713024D02*
X6666548Y-12703500D01*
X6666548Y-12703500D02*
X6676071Y-12693976D01*
X6676071Y-12693976D02*
X6685595Y-12674928D01*
X6685595Y-12674928D02*
X6685595Y-12627309D01*
X6685595Y-12627309D02*
X6676071Y-12608262D01*
X6676071Y-12608262D02*
X6666548Y-12598738D01*
X6666548Y-12598738D02*
X6647500Y-12589214D01*
X6647500Y-12589214D02*
X6609405Y-12589214D01*
X6609405Y-12589214D02*
X6590357Y-12598738D01*
X6590357Y-12598738D02*
X6580833Y-12608262D01*
X6580833Y-12608262D02*
X6571309Y-12627309D01*
X6866548Y-12513024D02*
X6771309Y-12513024D01*
X6771309Y-12513024D02*
X6761786Y-12608262D01*
X6761786Y-12608262D02*
X6771309Y-12598738D01*
X6771309Y-12598738D02*
X6790357Y-12589214D01*
X6790357Y-12589214D02*
X6837976Y-12589214D01*
X6837976Y-12589214D02*
X6857024Y-12598738D01*
X6857024Y-12598738D02*
X6866548Y-12608262D01*
X6866548Y-12608262D02*
X6876071Y-12627309D01*
X6876071Y-12627309D02*
X6876071Y-12674928D01*
X6876071Y-12674928D02*
X6866548Y-12693976D01*
X6866548Y-12693976D02*
X6857024Y-12703500D01*
X6857024Y-12703500D02*
X6837976Y-12713024D01*
X6837976Y-12713024D02*
X6790357Y-12713024D01*
X6790357Y-12713024D02*
X6771309Y-12703500D01*
X6771309Y-12703500D02*
X6761786Y-12693976D01*
X6999881Y-12513024D02*
X7018929Y-12513024D01*
X7018929Y-12513024D02*
X7037976Y-12522548D01*
X7037976Y-12522548D02*
X7047500Y-12532071D01*
X7047500Y-12532071D02*
X7057024Y-12551119D01*
X7057024Y-12551119D02*
X7066548Y-12589214D01*
X7066548Y-12589214D02*
X7066548Y-12636833D01*
X7066548Y-12636833D02*
X7057024Y-12674928D01*
X7057024Y-12674928D02*
X7047500Y-12693976D01*
X7047500Y-12693976D02*
X7037976Y-12703500D01*
X7037976Y-12703500D02*
X7018929Y-12713024D01*
X7018929Y-12713024D02*
X6999881Y-12713024D01*
X6999881Y-12713024D02*
X6980833Y-12703500D01*
X6980833Y-12703500D02*
X6971309Y-12693976D01*
X6971309Y-12693976D02*
X6961786Y-12674928D01*
X6961786Y-12674928D02*
X6952262Y-12636833D01*
X6952262Y-12636833D02*
X6952262Y-12589214D01*
X6952262Y-12589214D02*
X6961786Y-12551119D01*
X6961786Y-12551119D02*
X6971309Y-12532071D01*
X6971309Y-12532071D02*
X6980833Y-12522548D01*
X6980833Y-12522548D02*
X6999881Y-12513024D01*
X7152262Y-12713024D02*
X7152262Y-12579690D01*
X7152262Y-12598738D02*
X7161786Y-12589214D01*
X7161786Y-12589214D02*
X7180833Y-12579690D01*
X7180833Y-12579690D02*
X7209405Y-12579690D01*
X7209405Y-12579690D02*
X7228452Y-12589214D01*
X7228452Y-12589214D02*
X7237976Y-12608262D01*
X7237976Y-12608262D02*
X7237976Y-12713024D01*
X7237976Y-12608262D02*
X7247500Y-12589214D01*
X7247500Y-12589214D02*
X7266548Y-12579690D01*
X7266548Y-12579690D02*
X7295119Y-12579690D01*
X7295119Y-12579690D02*
X7314167Y-12589214D01*
X7314167Y-12589214D02*
X7323690Y-12608262D01*
X7323690Y-12608262D02*
X7323690Y-12713024D01*
X7418929Y-12713024D02*
X7418929Y-12579690D01*
X7418929Y-12598738D02*
X7428452Y-12589214D01*
X7428452Y-12589214D02*
X7447500Y-12579690D01*
X7447500Y-12579690D02*
X7476071Y-12579690D01*
X7476071Y-12579690D02*
X7495119Y-12589214D01*
X7495119Y-12589214D02*
X7504643Y-12608262D01*
X7504643Y-12608262D02*
X7504643Y-12713024D01*
X7504643Y-12608262D02*
X7514167Y-12589214D01*
X7514167Y-12589214D02*
X7533214Y-12579690D01*
X7533214Y-12579690D02*
X7561786Y-12579690D01*
X7561786Y-12579690D02*
X7580833Y-12589214D01*
X7580833Y-12589214D02*
X7590357Y-12608262D01*
X7590357Y-12608262D02*
X7590357Y-12713024D01*
X7980833Y-12503500D02*
X7809405Y-12760643D01*
X8237976Y-12513024D02*
X8257024Y-12513024D01*
X8257024Y-12513024D02*
X8276072Y-12522548D01*
X8276072Y-12522548D02*
X8285595Y-12532071D01*
X8285595Y-12532071D02*
X8295119Y-12551119D01*
X8295119Y-12551119D02*
X8304643Y-12589214D01*
X8304643Y-12589214D02*
X8304643Y-12636833D01*
X8304643Y-12636833D02*
X8295119Y-12674928D01*
X8295119Y-12674928D02*
X8285595Y-12693976D01*
X8285595Y-12693976D02*
X8276072Y-12703500D01*
X8276072Y-12703500D02*
X8257024Y-12713024D01*
X8257024Y-12713024D02*
X8237976Y-12713024D01*
X8237976Y-12713024D02*
X8218929Y-12703500D01*
X8218929Y-12703500D02*
X8209405Y-12693976D01*
X8209405Y-12693976D02*
X8199881Y-12674928D01*
X8199881Y-12674928D02*
X8190357Y-12636833D01*
X8190357Y-12636833D02*
X8190357Y-12589214D01*
X8190357Y-12589214D02*
X8199881Y-12551119D01*
X8199881Y-12551119D02*
X8209405Y-12532071D01*
X8209405Y-12532071D02*
X8218929Y-12522548D01*
X8218929Y-12522548D02*
X8237976Y-12513024D01*
X8390357Y-12693976D02*
X8399881Y-12703500D01*
X8399881Y-12703500D02*
X8390357Y-12713024D01*
X8390357Y-12713024D02*
X8380833Y-12703500D01*
X8380833Y-12703500D02*
X8390357Y-12693976D01*
X8390357Y-12693976D02*
X8390357Y-12713024D01*
X8523691Y-12513024D02*
X8542738Y-12513024D01*
X8542738Y-12513024D02*
X8561786Y-12522548D01*
X8561786Y-12522548D02*
X8571310Y-12532071D01*
X8571310Y-12532071D02*
X8580834Y-12551119D01*
X8580834Y-12551119D02*
X8590357Y-12589214D01*
X8590357Y-12589214D02*
X8590357Y-12636833D01*
X8590357Y-12636833D02*
X8580834Y-12674928D01*
X8580834Y-12674928D02*
X8571310Y-12693976D01*
X8571310Y-12693976D02*
X8561786Y-12703500D01*
X8561786Y-12703500D02*
X8542738Y-12713024D01*
X8542738Y-12713024D02*
X8523691Y-12713024D01*
X8523691Y-12713024D02*
X8504643Y-12703500D01*
X8504643Y-12703500D02*
X8495119Y-12693976D01*
X8495119Y-12693976D02*
X8485595Y-12674928D01*
X8485595Y-12674928D02*
X8476072Y-12636833D01*
X8476072Y-12636833D02*
X8476072Y-12589214D01*
X8476072Y-12589214D02*
X8485595Y-12551119D01*
X8485595Y-12551119D02*
X8495119Y-12532071D01*
X8495119Y-12532071D02*
X8504643Y-12522548D01*
X8504643Y-12522548D02*
X8523691Y-12513024D01*
X8666548Y-12532071D02*
X8676072Y-12522548D01*
X8676072Y-12522548D02*
X8695119Y-12513024D01*
X8695119Y-12513024D02*
X8742738Y-12513024D01*
X8742738Y-12513024D02*
X8761786Y-12522548D01*
X8761786Y-12522548D02*
X8771310Y-12532071D01*
X8771310Y-12532071D02*
X8780834Y-12551119D01*
X8780834Y-12551119D02*
X8780834Y-12570167D01*
X8780834Y-12570167D02*
X8771310Y-12598738D01*
X8771310Y-12598738D02*
X8657024Y-12713024D01*
X8657024Y-12713024D02*
X8780834Y-12713024D01*
X8961786Y-12513024D02*
X8866548Y-12513024D01*
X8866548Y-12513024D02*
X8857024Y-12608262D01*
X8857024Y-12608262D02*
X8866548Y-12598738D01*
X8866548Y-12598738D02*
X8885595Y-12589214D01*
X8885595Y-12589214D02*
X8933215Y-12589214D01*
X8933215Y-12589214D02*
X8952262Y-12598738D01*
X8952262Y-12598738D02*
X8961786Y-12608262D01*
X8961786Y-12608262D02*
X8971310Y-12627309D01*
X8971310Y-12627309D02*
X8971310Y-12674928D01*
X8971310Y-12674928D02*
X8961786Y-12693976D01*
X8961786Y-12693976D02*
X8952262Y-12703500D01*
X8952262Y-12703500D02*
X8933215Y-12713024D01*
X8933215Y-12713024D02*
X8885595Y-12713024D01*
X8885595Y-12713024D02*
X8866548Y-12703500D01*
X8866548Y-12703500D02*
X8857024Y-12693976D01*
X9142738Y-12513024D02*
X9104643Y-12513024D01*
X9104643Y-12513024D02*
X9085595Y-12522548D01*
X9085595Y-12522548D02*
X9076072Y-12532071D01*
X9076072Y-12532071D02*
X9057024Y-12560643D01*
X9057024Y-12560643D02*
X9047500Y-12598738D01*
X9047500Y-12598738D02*
X9047500Y-12674928D01*
X9047500Y-12674928D02*
X9057024Y-12693976D01*
X9057024Y-12693976D02*
X9066548Y-12703500D01*
X9066548Y-12703500D02*
X9085595Y-12713024D01*
X9085595Y-12713024D02*
X9123691Y-12713024D01*
X9123691Y-12713024D02*
X9142738Y-12703500D01*
X9142738Y-12703500D02*
X9152262Y-12693976D01*
X9152262Y-12693976D02*
X9161786Y-12674928D01*
X9161786Y-12674928D02*
X9161786Y-12627309D01*
X9161786Y-12627309D02*
X9152262Y-12608262D01*
X9152262Y-12608262D02*
X9142738Y-12598738D01*
X9142738Y-12598738D02*
X9123691Y-12589214D01*
X9123691Y-12589214D02*
X9085595Y-12589214D01*
X9085595Y-12589214D02*
X9066548Y-12598738D01*
X9066548Y-12598738D02*
X9057024Y-12608262D01*
X9057024Y-12608262D02*
X9047500Y-12627309D01*
X9237976Y-12513024D02*
X9237976Y-12551119D01*
X9314167Y-12513024D02*
X9314167Y-12551119D01*
X9609405Y-12789214D02*
X9599881Y-12779690D01*
X9599881Y-12779690D02*
X9580834Y-12751119D01*
X9580834Y-12751119D02*
X9571310Y-12732071D01*
X9571310Y-12732071D02*
X9561786Y-12703500D01*
X9561786Y-12703500D02*
X9552262Y-12655881D01*
X9552262Y-12655881D02*
X9552262Y-12617786D01*
X9552262Y-12617786D02*
X9561786Y-12570167D01*
X9561786Y-12570167D02*
X9571310Y-12541595D01*
X9571310Y-12541595D02*
X9580834Y-12522548D01*
X9580834Y-12522548D02*
X9599881Y-12493976D01*
X9599881Y-12493976D02*
X9609405Y-12484452D01*
X9676072Y-12532071D02*
X9685596Y-12522548D01*
X9685596Y-12522548D02*
X9704643Y-12513024D01*
X9704643Y-12513024D02*
X9752262Y-12513024D01*
X9752262Y-12513024D02*
X9771310Y-12522548D01*
X9771310Y-12522548D02*
X9780834Y-12532071D01*
X9780834Y-12532071D02*
X9790357Y-12551119D01*
X9790357Y-12551119D02*
X9790357Y-12570167D01*
X9790357Y-12570167D02*
X9780834Y-12598738D01*
X9780834Y-12598738D02*
X9666548Y-12713024D01*
X9666548Y-12713024D02*
X9790357Y-12713024D01*
X9866548Y-12532071D02*
X9876072Y-12522548D01*
X9876072Y-12522548D02*
X9895119Y-12513024D01*
X9895119Y-12513024D02*
X9942738Y-12513024D01*
X9942738Y-12513024D02*
X9961786Y-12522548D01*
X9961786Y-12522548D02*
X9971310Y-12532071D01*
X9971310Y-12532071D02*
X9980834Y-12551119D01*
X9980834Y-12551119D02*
X9980834Y-12570167D01*
X9980834Y-12570167D02*
X9971310Y-12598738D01*
X9971310Y-12598738D02*
X9857024Y-12713024D01*
X9857024Y-12713024D02*
X9980834Y-12713024D01*
X10218929Y-12713024D02*
X10218929Y-12513024D01*
X10304643Y-12713024D02*
X10304643Y-12608262D01*
X10304643Y-12608262D02*
X10295119Y-12589214D01*
X10295119Y-12589214D02*
X10276072Y-12579690D01*
X10276072Y-12579690D02*
X10247500Y-12579690D01*
X10247500Y-12579690D02*
X10228453Y-12589214D01*
X10228453Y-12589214D02*
X10218929Y-12598738D01*
X10428453Y-12713024D02*
X10409405Y-12703500D01*
X10409405Y-12703500D02*
X10399881Y-12693976D01*
X10399881Y-12693976D02*
X10390358Y-12674928D01*
X10390358Y-12674928D02*
X10390358Y-12617786D01*
X10390358Y-12617786D02*
X10399881Y-12598738D01*
X10399881Y-12598738D02*
X10409405Y-12589214D01*
X10409405Y-12589214D02*
X10428453Y-12579690D01*
X10428453Y-12579690D02*
X10457024Y-12579690D01*
X10457024Y-12579690D02*
X10476072Y-12589214D01*
X10476072Y-12589214D02*
X10485596Y-12598738D01*
X10485596Y-12598738D02*
X10495119Y-12617786D01*
X10495119Y-12617786D02*
X10495119Y-12674928D01*
X10495119Y-12674928D02*
X10485596Y-12693976D01*
X10485596Y-12693976D02*
X10476072Y-12703500D01*
X10476072Y-12703500D02*
X10457024Y-12713024D01*
X10457024Y-12713024D02*
X10428453Y-12713024D01*
X10609405Y-12713024D02*
X10590358Y-12703500D01*
X10590358Y-12703500D02*
X10580834Y-12684452D01*
X10580834Y-12684452D02*
X10580834Y-12513024D01*
X10761786Y-12703500D02*
X10742739Y-12713024D01*
X10742739Y-12713024D02*
X10704643Y-12713024D01*
X10704643Y-12713024D02*
X10685596Y-12703500D01*
X10685596Y-12703500D02*
X10676072Y-12684452D01*
X10676072Y-12684452D02*
X10676072Y-12608262D01*
X10676072Y-12608262D02*
X10685596Y-12589214D01*
X10685596Y-12589214D02*
X10704643Y-12579690D01*
X10704643Y-12579690D02*
X10742739Y-12579690D01*
X10742739Y-12579690D02*
X10761786Y-12589214D01*
X10761786Y-12589214D02*
X10771310Y-12608262D01*
X10771310Y-12608262D02*
X10771310Y-12627309D01*
X10771310Y-12627309D02*
X10676072Y-12646357D01*
X10847500Y-12703500D02*
X10866548Y-12713024D01*
X10866548Y-12713024D02*
X10904643Y-12713024D01*
X10904643Y-12713024D02*
X10923691Y-12703500D01*
X10923691Y-12703500D02*
X10933215Y-12684452D01*
X10933215Y-12684452D02*
X10933215Y-12674928D01*
X10933215Y-12674928D02*
X10923691Y-12655881D01*
X10923691Y-12655881D02*
X10904643Y-12646357D01*
X10904643Y-12646357D02*
X10876072Y-12646357D01*
X10876072Y-12646357D02*
X10857024Y-12636833D01*
X10857024Y-12636833D02*
X10847500Y-12617786D01*
X10847500Y-12617786D02*
X10847500Y-12608262D01*
X10847500Y-12608262D02*
X10857024Y-12589214D01*
X10857024Y-12589214D02*
X10876072Y-12579690D01*
X10876072Y-12579690D02*
X10904643Y-12579690D01*
X10904643Y-12579690D02*
X10923691Y-12589214D01*
X10999881Y-12789214D02*
X11009405Y-12779690D01*
X11009405Y-12779690D02*
X11028453Y-12751119D01*
X11028453Y-12751119D02*
X11037977Y-12732071D01*
X11037977Y-12732071D02*
X11047500Y-12703500D01*
X11047500Y-12703500D02*
X11057024Y-12655881D01*
X11057024Y-12655881D02*
X11057024Y-12617786D01*
X11057024Y-12617786D02*
X11047500Y-12570167D01*
X11047500Y-12570167D02*
X11037977Y-12541595D01*
X11037977Y-12541595D02*
X11028453Y-12522548D01*
X11028453Y-12522548D02*
X11009405Y-12493976D01*
X11009405Y-12493976D02*
X10999881Y-12484452D01*
D15*
X6035784Y-12912784D02*
X6035784Y-12856215D01*
X5979215Y-12856215D01*
X5979215Y-12912784D01*
X6035784Y-12912784D01*
D11*
X6333214Y-12777024D02*
X6352262Y-12777024D01*
X6352262Y-12777024D02*
X6371309Y-12786548D01*
X6371309Y-12786548D02*
X6380833Y-12796071D01*
X6380833Y-12796071D02*
X6390357Y-12815119D01*
X6390357Y-12815119D02*
X6399881Y-12853214D01*
X6399881Y-12853214D02*
X6399881Y-12900833D01*
X6399881Y-12900833D02*
X6390357Y-12938928D01*
X6390357Y-12938928D02*
X6380833Y-12957976D01*
X6380833Y-12957976D02*
X6371309Y-12967500D01*
X6371309Y-12967500D02*
X6352262Y-12977024D01*
X6352262Y-12977024D02*
X6333214Y-12977024D01*
X6333214Y-12977024D02*
X6314167Y-12967500D01*
X6314167Y-12967500D02*
X6304643Y-12957976D01*
X6304643Y-12957976D02*
X6295119Y-12938928D01*
X6295119Y-12938928D02*
X6285595Y-12900833D01*
X6285595Y-12900833D02*
X6285595Y-12853214D01*
X6285595Y-12853214D02*
X6295119Y-12815119D01*
X6295119Y-12815119D02*
X6304643Y-12796071D01*
X6304643Y-12796071D02*
X6314167Y-12786548D01*
X6314167Y-12786548D02*
X6333214Y-12777024D01*
X6485595Y-12957976D02*
X6495119Y-12967500D01*
X6495119Y-12967500D02*
X6485595Y-12977024D01*
X6485595Y-12977024D02*
X6476071Y-12967500D01*
X6476071Y-12967500D02*
X6485595Y-12957976D01*
X6485595Y-12957976D02*
X6485595Y-12977024D01*
X6609405Y-12862738D02*
X6590357Y-12853214D01*
X6590357Y-12853214D02*
X6580833Y-12843690D01*
X6580833Y-12843690D02*
X6571309Y-12824643D01*
X6571309Y-12824643D02*
X6571309Y-12815119D01*
X6571309Y-12815119D02*
X6580833Y-12796071D01*
X6580833Y-12796071D02*
X6590357Y-12786548D01*
X6590357Y-12786548D02*
X6609405Y-12777024D01*
X6609405Y-12777024D02*
X6647500Y-12777024D01*
X6647500Y-12777024D02*
X6666548Y-12786548D01*
X6666548Y-12786548D02*
X6676071Y-12796071D01*
X6676071Y-12796071D02*
X6685595Y-12815119D01*
X6685595Y-12815119D02*
X6685595Y-12824643D01*
X6685595Y-12824643D02*
X6676071Y-12843690D01*
X6676071Y-12843690D02*
X6666548Y-12853214D01*
X6666548Y-12853214D02*
X6647500Y-12862738D01*
X6647500Y-12862738D02*
X6609405Y-12862738D01*
X6609405Y-12862738D02*
X6590357Y-12872262D01*
X6590357Y-12872262D02*
X6580833Y-12881786D01*
X6580833Y-12881786D02*
X6571309Y-12900833D01*
X6571309Y-12900833D02*
X6571309Y-12938928D01*
X6571309Y-12938928D02*
X6580833Y-12957976D01*
X6580833Y-12957976D02*
X6590357Y-12967500D01*
X6590357Y-12967500D02*
X6609405Y-12977024D01*
X6609405Y-12977024D02*
X6647500Y-12977024D01*
X6647500Y-12977024D02*
X6666548Y-12967500D01*
X6666548Y-12967500D02*
X6676071Y-12957976D01*
X6676071Y-12957976D02*
X6685595Y-12938928D01*
X6685595Y-12938928D02*
X6685595Y-12900833D01*
X6685595Y-12900833D02*
X6676071Y-12881786D01*
X6676071Y-12881786D02*
X6666548Y-12872262D01*
X6666548Y-12872262D02*
X6647500Y-12862738D01*
X6809405Y-12777024D02*
X6828452Y-12777024D01*
X6828452Y-12777024D02*
X6847500Y-12786548D01*
X6847500Y-12786548D02*
X6857024Y-12796071D01*
X6857024Y-12796071D02*
X6866548Y-12815119D01*
X6866548Y-12815119D02*
X6876071Y-12853214D01*
X6876071Y-12853214D02*
X6876071Y-12900833D01*
X6876071Y-12900833D02*
X6866548Y-12938928D01*
X6866548Y-12938928D02*
X6857024Y-12957976D01*
X6857024Y-12957976D02*
X6847500Y-12967500D01*
X6847500Y-12967500D02*
X6828452Y-12977024D01*
X6828452Y-12977024D02*
X6809405Y-12977024D01*
X6809405Y-12977024D02*
X6790357Y-12967500D01*
X6790357Y-12967500D02*
X6780833Y-12957976D01*
X6780833Y-12957976D02*
X6771309Y-12938928D01*
X6771309Y-12938928D02*
X6761786Y-12900833D01*
X6761786Y-12900833D02*
X6761786Y-12853214D01*
X6761786Y-12853214D02*
X6771309Y-12815119D01*
X6771309Y-12815119D02*
X6780833Y-12796071D01*
X6780833Y-12796071D02*
X6790357Y-12786548D01*
X6790357Y-12786548D02*
X6809405Y-12777024D01*
X6999881Y-12777024D02*
X7018929Y-12777024D01*
X7018929Y-12777024D02*
X7037976Y-12786548D01*
X7037976Y-12786548D02*
X7047500Y-12796071D01*
X7047500Y-12796071D02*
X7057024Y-12815119D01*
X7057024Y-12815119D02*
X7066548Y-12853214D01*
X7066548Y-12853214D02*
X7066548Y-12900833D01*
X7066548Y-12900833D02*
X7057024Y-12938928D01*
X7057024Y-12938928D02*
X7047500Y-12957976D01*
X7047500Y-12957976D02*
X7037976Y-12967500D01*
X7037976Y-12967500D02*
X7018929Y-12977024D01*
X7018929Y-12977024D02*
X6999881Y-12977024D01*
X6999881Y-12977024D02*
X6980833Y-12967500D01*
X6980833Y-12967500D02*
X6971309Y-12957976D01*
X6971309Y-12957976D02*
X6961786Y-12938928D01*
X6961786Y-12938928D02*
X6952262Y-12900833D01*
X6952262Y-12900833D02*
X6952262Y-12853214D01*
X6952262Y-12853214D02*
X6961786Y-12815119D01*
X6961786Y-12815119D02*
X6971309Y-12796071D01*
X6971309Y-12796071D02*
X6980833Y-12786548D01*
X6980833Y-12786548D02*
X6999881Y-12777024D01*
X7152262Y-12977024D02*
X7152262Y-12843690D01*
X7152262Y-12862738D02*
X7161786Y-12853214D01*
X7161786Y-12853214D02*
X7180833Y-12843690D01*
X7180833Y-12843690D02*
X7209405Y-12843690D01*
X7209405Y-12843690D02*
X7228452Y-12853214D01*
X7228452Y-12853214D02*
X7237976Y-12872262D01*
X7237976Y-12872262D02*
X7237976Y-12977024D01*
X7237976Y-12872262D02*
X7247500Y-12853214D01*
X7247500Y-12853214D02*
X7266548Y-12843690D01*
X7266548Y-12843690D02*
X7295119Y-12843690D01*
X7295119Y-12843690D02*
X7314167Y-12853214D01*
X7314167Y-12853214D02*
X7323690Y-12872262D01*
X7323690Y-12872262D02*
X7323690Y-12977024D01*
X7418929Y-12977024D02*
X7418929Y-12843690D01*
X7418929Y-12862738D02*
X7428452Y-12853214D01*
X7428452Y-12853214D02*
X7447500Y-12843690D01*
X7447500Y-12843690D02*
X7476071Y-12843690D01*
X7476071Y-12843690D02*
X7495119Y-12853214D01*
X7495119Y-12853214D02*
X7504643Y-12872262D01*
X7504643Y-12872262D02*
X7504643Y-12977024D01*
X7504643Y-12872262D02*
X7514167Y-12853214D01*
X7514167Y-12853214D02*
X7533214Y-12843690D01*
X7533214Y-12843690D02*
X7561786Y-12843690D01*
X7561786Y-12843690D02*
X7580833Y-12853214D01*
X7580833Y-12853214D02*
X7590357Y-12872262D01*
X7590357Y-12872262D02*
X7590357Y-12977024D01*
X7980833Y-12767500D02*
X7809405Y-13024643D01*
X8237976Y-12777024D02*
X8257024Y-12777024D01*
X8257024Y-12777024D02*
X8276072Y-12786548D01*
X8276072Y-12786548D02*
X8285595Y-12796071D01*
X8285595Y-12796071D02*
X8295119Y-12815119D01*
X8295119Y-12815119D02*
X8304643Y-12853214D01*
X8304643Y-12853214D02*
X8304643Y-12900833D01*
X8304643Y-12900833D02*
X8295119Y-12938928D01*
X8295119Y-12938928D02*
X8285595Y-12957976D01*
X8285595Y-12957976D02*
X8276072Y-12967500D01*
X8276072Y-12967500D02*
X8257024Y-12977024D01*
X8257024Y-12977024D02*
X8237976Y-12977024D01*
X8237976Y-12977024D02*
X8218929Y-12967500D01*
X8218929Y-12967500D02*
X8209405Y-12957976D01*
X8209405Y-12957976D02*
X8199881Y-12938928D01*
X8199881Y-12938928D02*
X8190357Y-12900833D01*
X8190357Y-12900833D02*
X8190357Y-12853214D01*
X8190357Y-12853214D02*
X8199881Y-12815119D01*
X8199881Y-12815119D02*
X8209405Y-12796071D01*
X8209405Y-12796071D02*
X8218929Y-12786548D01*
X8218929Y-12786548D02*
X8237976Y-12777024D01*
X8390357Y-12957976D02*
X8399881Y-12967500D01*
X8399881Y-12967500D02*
X8390357Y-12977024D01*
X8390357Y-12977024D02*
X8380833Y-12967500D01*
X8380833Y-12967500D02*
X8390357Y-12957976D01*
X8390357Y-12957976D02*
X8390357Y-12977024D01*
X8523691Y-12777024D02*
X8542738Y-12777024D01*
X8542738Y-12777024D02*
X8561786Y-12786548D01*
X8561786Y-12786548D02*
X8571310Y-12796071D01*
X8571310Y-12796071D02*
X8580834Y-12815119D01*
X8580834Y-12815119D02*
X8590357Y-12853214D01*
X8590357Y-12853214D02*
X8590357Y-12900833D01*
X8590357Y-12900833D02*
X8580834Y-12938928D01*
X8580834Y-12938928D02*
X8571310Y-12957976D01*
X8571310Y-12957976D02*
X8561786Y-12967500D01*
X8561786Y-12967500D02*
X8542738Y-12977024D01*
X8542738Y-12977024D02*
X8523691Y-12977024D01*
X8523691Y-12977024D02*
X8504643Y-12967500D01*
X8504643Y-12967500D02*
X8495119Y-12957976D01*
X8495119Y-12957976D02*
X8485595Y-12938928D01*
X8485595Y-12938928D02*
X8476072Y-12900833D01*
X8476072Y-12900833D02*
X8476072Y-12853214D01*
X8476072Y-12853214D02*
X8485595Y-12815119D01*
X8485595Y-12815119D02*
X8495119Y-12796071D01*
X8495119Y-12796071D02*
X8504643Y-12786548D01*
X8504643Y-12786548D02*
X8523691Y-12777024D01*
X8657024Y-12777024D02*
X8780834Y-12777024D01*
X8780834Y-12777024D02*
X8714167Y-12853214D01*
X8714167Y-12853214D02*
X8742738Y-12853214D01*
X8742738Y-12853214D02*
X8761786Y-12862738D01*
X8761786Y-12862738D02*
X8771310Y-12872262D01*
X8771310Y-12872262D02*
X8780834Y-12891309D01*
X8780834Y-12891309D02*
X8780834Y-12938928D01*
X8780834Y-12938928D02*
X8771310Y-12957976D01*
X8771310Y-12957976D02*
X8761786Y-12967500D01*
X8761786Y-12967500D02*
X8742738Y-12977024D01*
X8742738Y-12977024D02*
X8685595Y-12977024D01*
X8685595Y-12977024D02*
X8666548Y-12967500D01*
X8666548Y-12967500D02*
X8657024Y-12957976D01*
X8971310Y-12977024D02*
X8857024Y-12977024D01*
X8914167Y-12977024D02*
X8914167Y-12777024D01*
X8914167Y-12777024D02*
X8895119Y-12805595D01*
X8895119Y-12805595D02*
X8876072Y-12824643D01*
X8876072Y-12824643D02*
X8857024Y-12834167D01*
X9152262Y-12777024D02*
X9057024Y-12777024D01*
X9057024Y-12777024D02*
X9047500Y-12872262D01*
X9047500Y-12872262D02*
X9057024Y-12862738D01*
X9057024Y-12862738D02*
X9076072Y-12853214D01*
X9076072Y-12853214D02*
X9123691Y-12853214D01*
X9123691Y-12853214D02*
X9142738Y-12862738D01*
X9142738Y-12862738D02*
X9152262Y-12872262D01*
X9152262Y-12872262D02*
X9161786Y-12891309D01*
X9161786Y-12891309D02*
X9161786Y-12938928D01*
X9161786Y-12938928D02*
X9152262Y-12957976D01*
X9152262Y-12957976D02*
X9142738Y-12967500D01*
X9142738Y-12967500D02*
X9123691Y-12977024D01*
X9123691Y-12977024D02*
X9076072Y-12977024D01*
X9076072Y-12977024D02*
X9057024Y-12967500D01*
X9057024Y-12967500D02*
X9047500Y-12957976D01*
X9237976Y-12777024D02*
X9237976Y-12815119D01*
X9314167Y-12777024D02*
X9314167Y-12815119D01*
X9609405Y-13053214D02*
X9599881Y-13043690D01*
X9599881Y-13043690D02*
X9580834Y-13015119D01*
X9580834Y-13015119D02*
X9571310Y-12996071D01*
X9571310Y-12996071D02*
X9561786Y-12967500D01*
X9561786Y-12967500D02*
X9552262Y-12919881D01*
X9552262Y-12919881D02*
X9552262Y-12881786D01*
X9552262Y-12881786D02*
X9561786Y-12834167D01*
X9561786Y-12834167D02*
X9571310Y-12805595D01*
X9571310Y-12805595D02*
X9580834Y-12786548D01*
X9580834Y-12786548D02*
X9599881Y-12757976D01*
X9599881Y-12757976D02*
X9609405Y-12748452D01*
X9714167Y-12862738D02*
X9695119Y-12853214D01*
X9695119Y-12853214D02*
X9685596Y-12843690D01*
X9685596Y-12843690D02*
X9676072Y-12824643D01*
X9676072Y-12824643D02*
X9676072Y-12815119D01*
X9676072Y-12815119D02*
X9685596Y-12796071D01*
X9685596Y-12796071D02*
X9695119Y-12786548D01*
X9695119Y-12786548D02*
X9714167Y-12777024D01*
X9714167Y-12777024D02*
X9752262Y-12777024D01*
X9752262Y-12777024D02*
X9771310Y-12786548D01*
X9771310Y-12786548D02*
X9780834Y-12796071D01*
X9780834Y-12796071D02*
X9790357Y-12815119D01*
X9790357Y-12815119D02*
X9790357Y-12824643D01*
X9790357Y-12824643D02*
X9780834Y-12843690D01*
X9780834Y-12843690D02*
X9771310Y-12853214D01*
X9771310Y-12853214D02*
X9752262Y-12862738D01*
X9752262Y-12862738D02*
X9714167Y-12862738D01*
X9714167Y-12862738D02*
X9695119Y-12872262D01*
X9695119Y-12872262D02*
X9685596Y-12881786D01*
X9685596Y-12881786D02*
X9676072Y-12900833D01*
X9676072Y-12900833D02*
X9676072Y-12938928D01*
X9676072Y-12938928D02*
X9685596Y-12957976D01*
X9685596Y-12957976D02*
X9695119Y-12967500D01*
X9695119Y-12967500D02*
X9714167Y-12977024D01*
X9714167Y-12977024D02*
X9752262Y-12977024D01*
X9752262Y-12977024D02*
X9771310Y-12967500D01*
X9771310Y-12967500D02*
X9780834Y-12957976D01*
X9780834Y-12957976D02*
X9790357Y-12938928D01*
X9790357Y-12938928D02*
X9790357Y-12900833D01*
X9790357Y-12900833D02*
X9780834Y-12881786D01*
X9780834Y-12881786D02*
X9771310Y-12872262D01*
X9771310Y-12872262D02*
X9752262Y-12862738D01*
X10028453Y-12977024D02*
X10028453Y-12777024D01*
X10114167Y-12977024D02*
X10114167Y-12872262D01*
X10114167Y-12872262D02*
X10104643Y-12853214D01*
X10104643Y-12853214D02*
X10085596Y-12843690D01*
X10085596Y-12843690D02*
X10057024Y-12843690D01*
X10057024Y-12843690D02*
X10037977Y-12853214D01*
X10037977Y-12853214D02*
X10028453Y-12862738D01*
X10237977Y-12977024D02*
X10218929Y-12967500D01*
X10218929Y-12967500D02*
X10209405Y-12957976D01*
X10209405Y-12957976D02*
X10199881Y-12938928D01*
X10199881Y-12938928D02*
X10199881Y-12881786D01*
X10199881Y-12881786D02*
X10209405Y-12862738D01*
X10209405Y-12862738D02*
X10218929Y-12853214D01*
X10218929Y-12853214D02*
X10237977Y-12843690D01*
X10237977Y-12843690D02*
X10266548Y-12843690D01*
X10266548Y-12843690D02*
X10285596Y-12853214D01*
X10285596Y-12853214D02*
X10295119Y-12862738D01*
X10295119Y-12862738D02*
X10304643Y-12881786D01*
X10304643Y-12881786D02*
X10304643Y-12938928D01*
X10304643Y-12938928D02*
X10295119Y-12957976D01*
X10295119Y-12957976D02*
X10285596Y-12967500D01*
X10285596Y-12967500D02*
X10266548Y-12977024D01*
X10266548Y-12977024D02*
X10237977Y-12977024D01*
X10418929Y-12977024D02*
X10399881Y-12967500D01*
X10399881Y-12967500D02*
X10390358Y-12948452D01*
X10390358Y-12948452D02*
X10390358Y-12777024D01*
X10571310Y-12967500D02*
X10552262Y-12977024D01*
X10552262Y-12977024D02*
X10514167Y-12977024D01*
X10514167Y-12977024D02*
X10495119Y-12967500D01*
X10495119Y-12967500D02*
X10485596Y-12948452D01*
X10485596Y-12948452D02*
X10485596Y-12872262D01*
X10485596Y-12872262D02*
X10495119Y-12853214D01*
X10495119Y-12853214D02*
X10514167Y-12843690D01*
X10514167Y-12843690D02*
X10552262Y-12843690D01*
X10552262Y-12843690D02*
X10571310Y-12853214D01*
X10571310Y-12853214D02*
X10580834Y-12872262D01*
X10580834Y-12872262D02*
X10580834Y-12891309D01*
X10580834Y-12891309D02*
X10485596Y-12910357D01*
X10657024Y-12967500D02*
X10676072Y-12977024D01*
X10676072Y-12977024D02*
X10714167Y-12977024D01*
X10714167Y-12977024D02*
X10733215Y-12967500D01*
X10733215Y-12967500D02*
X10742739Y-12948452D01*
X10742739Y-12948452D02*
X10742739Y-12938928D01*
X10742739Y-12938928D02*
X10733215Y-12919881D01*
X10733215Y-12919881D02*
X10714167Y-12910357D01*
X10714167Y-12910357D02*
X10685596Y-12910357D01*
X10685596Y-12910357D02*
X10666548Y-12900833D01*
X10666548Y-12900833D02*
X10657024Y-12881786D01*
X10657024Y-12881786D02*
X10657024Y-12872262D01*
X10657024Y-12872262D02*
X10666548Y-12853214D01*
X10666548Y-12853214D02*
X10685596Y-12843690D01*
X10685596Y-12843690D02*
X10714167Y-12843690D01*
X10714167Y-12843690D02*
X10733215Y-12853214D01*
X10809405Y-13053214D02*
X10818929Y-13043690D01*
X10818929Y-13043690D02*
X10837977Y-13015119D01*
X10837977Y-13015119D02*
X10847500Y-12996071D01*
X10847500Y-12996071D02*
X10857024Y-12967500D01*
X10857024Y-12967500D02*
X10866548Y-12919881D01*
X10866548Y-12919881D02*
X10866548Y-12881786D01*
X10866548Y-12881786D02*
X10857024Y-12834167D01*
X10857024Y-12834167D02*
X10847500Y-12805595D01*
X10847500Y-12805595D02*
X10837977Y-12786548D01*
X10837977Y-12786548D02*
X10818929Y-12757976D01*
X10818929Y-12757976D02*
X10809405Y-12748452D01*
D16*
X6005000Y-13191000D02*
X6047500Y-13148500D01*
X6005000Y-13106000D01*
X5962500Y-13148500D01*
X6005000Y-13191000D01*
D11*
X6333214Y-13041024D02*
X6352262Y-13041024D01*
X6352262Y-13041024D02*
X6371309Y-13050548D01*
X6371309Y-13050548D02*
X6380833Y-13060071D01*
X6380833Y-13060071D02*
X6390357Y-13079119D01*
X6390357Y-13079119D02*
X6399881Y-13117214D01*
X6399881Y-13117214D02*
X6399881Y-13164833D01*
X6399881Y-13164833D02*
X6390357Y-13202928D01*
X6390357Y-13202928D02*
X6380833Y-13221976D01*
X6380833Y-13221976D02*
X6371309Y-13231500D01*
X6371309Y-13231500D02*
X6352262Y-13241024D01*
X6352262Y-13241024D02*
X6333214Y-13241024D01*
X6333214Y-13241024D02*
X6314167Y-13231500D01*
X6314167Y-13231500D02*
X6304643Y-13221976D01*
X6304643Y-13221976D02*
X6295119Y-13202928D01*
X6295119Y-13202928D02*
X6285595Y-13164833D01*
X6285595Y-13164833D02*
X6285595Y-13117214D01*
X6285595Y-13117214D02*
X6295119Y-13079119D01*
X6295119Y-13079119D02*
X6304643Y-13060071D01*
X6304643Y-13060071D02*
X6314167Y-13050548D01*
X6314167Y-13050548D02*
X6333214Y-13041024D01*
X6485595Y-13221976D02*
X6495119Y-13231500D01*
X6495119Y-13231500D02*
X6485595Y-13241024D01*
X6485595Y-13241024D02*
X6476071Y-13231500D01*
X6476071Y-13231500D02*
X6485595Y-13221976D01*
X6485595Y-13221976D02*
X6485595Y-13241024D01*
X6609405Y-13126738D02*
X6590357Y-13117214D01*
X6590357Y-13117214D02*
X6580833Y-13107690D01*
X6580833Y-13107690D02*
X6571309Y-13088643D01*
X6571309Y-13088643D02*
X6571309Y-13079119D01*
X6571309Y-13079119D02*
X6580833Y-13060071D01*
X6580833Y-13060071D02*
X6590357Y-13050548D01*
X6590357Y-13050548D02*
X6609405Y-13041024D01*
X6609405Y-13041024D02*
X6647500Y-13041024D01*
X6647500Y-13041024D02*
X6666548Y-13050548D01*
X6666548Y-13050548D02*
X6676071Y-13060071D01*
X6676071Y-13060071D02*
X6685595Y-13079119D01*
X6685595Y-13079119D02*
X6685595Y-13088643D01*
X6685595Y-13088643D02*
X6676071Y-13107690D01*
X6676071Y-13107690D02*
X6666548Y-13117214D01*
X6666548Y-13117214D02*
X6647500Y-13126738D01*
X6647500Y-13126738D02*
X6609405Y-13126738D01*
X6609405Y-13126738D02*
X6590357Y-13136262D01*
X6590357Y-13136262D02*
X6580833Y-13145786D01*
X6580833Y-13145786D02*
X6571309Y-13164833D01*
X6571309Y-13164833D02*
X6571309Y-13202928D01*
X6571309Y-13202928D02*
X6580833Y-13221976D01*
X6580833Y-13221976D02*
X6590357Y-13231500D01*
X6590357Y-13231500D02*
X6609405Y-13241024D01*
X6609405Y-13241024D02*
X6647500Y-13241024D01*
X6647500Y-13241024D02*
X6666548Y-13231500D01*
X6666548Y-13231500D02*
X6676071Y-13221976D01*
X6676071Y-13221976D02*
X6685595Y-13202928D01*
X6685595Y-13202928D02*
X6685595Y-13164833D01*
X6685595Y-13164833D02*
X6676071Y-13145786D01*
X6676071Y-13145786D02*
X6666548Y-13136262D01*
X6666548Y-13136262D02*
X6647500Y-13126738D01*
X6866548Y-13041024D02*
X6771309Y-13041024D01*
X6771309Y-13041024D02*
X6761786Y-13136262D01*
X6761786Y-13136262D02*
X6771309Y-13126738D01*
X6771309Y-13126738D02*
X6790357Y-13117214D01*
X6790357Y-13117214D02*
X6837976Y-13117214D01*
X6837976Y-13117214D02*
X6857024Y-13126738D01*
X6857024Y-13126738D02*
X6866548Y-13136262D01*
X6866548Y-13136262D02*
X6876071Y-13155309D01*
X6876071Y-13155309D02*
X6876071Y-13202928D01*
X6876071Y-13202928D02*
X6866548Y-13221976D01*
X6866548Y-13221976D02*
X6857024Y-13231500D01*
X6857024Y-13231500D02*
X6837976Y-13241024D01*
X6837976Y-13241024D02*
X6790357Y-13241024D01*
X6790357Y-13241024D02*
X6771309Y-13231500D01*
X6771309Y-13231500D02*
X6761786Y-13221976D01*
X6999881Y-13041024D02*
X7018929Y-13041024D01*
X7018929Y-13041024D02*
X7037976Y-13050548D01*
X7037976Y-13050548D02*
X7047500Y-13060071D01*
X7047500Y-13060071D02*
X7057024Y-13079119D01*
X7057024Y-13079119D02*
X7066548Y-13117214D01*
X7066548Y-13117214D02*
X7066548Y-13164833D01*
X7066548Y-13164833D02*
X7057024Y-13202928D01*
X7057024Y-13202928D02*
X7047500Y-13221976D01*
X7047500Y-13221976D02*
X7037976Y-13231500D01*
X7037976Y-13231500D02*
X7018929Y-13241024D01*
X7018929Y-13241024D02*
X6999881Y-13241024D01*
X6999881Y-13241024D02*
X6980833Y-13231500D01*
X6980833Y-13231500D02*
X6971309Y-13221976D01*
X6971309Y-13221976D02*
X6961786Y-13202928D01*
X6961786Y-13202928D02*
X6952262Y-13164833D01*
X6952262Y-13164833D02*
X6952262Y-13117214D01*
X6952262Y-13117214D02*
X6961786Y-13079119D01*
X6961786Y-13079119D02*
X6971309Y-13060071D01*
X6971309Y-13060071D02*
X6980833Y-13050548D01*
X6980833Y-13050548D02*
X6999881Y-13041024D01*
X7152262Y-13241024D02*
X7152262Y-13107690D01*
X7152262Y-13126738D02*
X7161786Y-13117214D01*
X7161786Y-13117214D02*
X7180833Y-13107690D01*
X7180833Y-13107690D02*
X7209405Y-13107690D01*
X7209405Y-13107690D02*
X7228452Y-13117214D01*
X7228452Y-13117214D02*
X7237976Y-13136262D01*
X7237976Y-13136262D02*
X7237976Y-13241024D01*
X7237976Y-13136262D02*
X7247500Y-13117214D01*
X7247500Y-13117214D02*
X7266548Y-13107690D01*
X7266548Y-13107690D02*
X7295119Y-13107690D01*
X7295119Y-13107690D02*
X7314167Y-13117214D01*
X7314167Y-13117214D02*
X7323690Y-13136262D01*
X7323690Y-13136262D02*
X7323690Y-13241024D01*
X7418929Y-13241024D02*
X7418929Y-13107690D01*
X7418929Y-13126738D02*
X7428452Y-13117214D01*
X7428452Y-13117214D02*
X7447500Y-13107690D01*
X7447500Y-13107690D02*
X7476071Y-13107690D01*
X7476071Y-13107690D02*
X7495119Y-13117214D01*
X7495119Y-13117214D02*
X7504643Y-13136262D01*
X7504643Y-13136262D02*
X7504643Y-13241024D01*
X7504643Y-13136262D02*
X7514167Y-13117214D01*
X7514167Y-13117214D02*
X7533214Y-13107690D01*
X7533214Y-13107690D02*
X7561786Y-13107690D01*
X7561786Y-13107690D02*
X7580833Y-13117214D01*
X7580833Y-13117214D02*
X7590357Y-13136262D01*
X7590357Y-13136262D02*
X7590357Y-13241024D01*
X7980833Y-13031500D02*
X7809405Y-13288643D01*
X8237976Y-13041024D02*
X8257024Y-13041024D01*
X8257024Y-13041024D02*
X8276072Y-13050548D01*
X8276072Y-13050548D02*
X8285595Y-13060071D01*
X8285595Y-13060071D02*
X8295119Y-13079119D01*
X8295119Y-13079119D02*
X8304643Y-13117214D01*
X8304643Y-13117214D02*
X8304643Y-13164833D01*
X8304643Y-13164833D02*
X8295119Y-13202928D01*
X8295119Y-13202928D02*
X8285595Y-13221976D01*
X8285595Y-13221976D02*
X8276072Y-13231500D01*
X8276072Y-13231500D02*
X8257024Y-13241024D01*
X8257024Y-13241024D02*
X8237976Y-13241024D01*
X8237976Y-13241024D02*
X8218929Y-13231500D01*
X8218929Y-13231500D02*
X8209405Y-13221976D01*
X8209405Y-13221976D02*
X8199881Y-13202928D01*
X8199881Y-13202928D02*
X8190357Y-13164833D01*
X8190357Y-13164833D02*
X8190357Y-13117214D01*
X8190357Y-13117214D02*
X8199881Y-13079119D01*
X8199881Y-13079119D02*
X8209405Y-13060071D01*
X8209405Y-13060071D02*
X8218929Y-13050548D01*
X8218929Y-13050548D02*
X8237976Y-13041024D01*
X8390357Y-13221976D02*
X8399881Y-13231500D01*
X8399881Y-13231500D02*
X8390357Y-13241024D01*
X8390357Y-13241024D02*
X8380833Y-13231500D01*
X8380833Y-13231500D02*
X8390357Y-13221976D01*
X8390357Y-13221976D02*
X8390357Y-13241024D01*
X8523691Y-13041024D02*
X8542738Y-13041024D01*
X8542738Y-13041024D02*
X8561786Y-13050548D01*
X8561786Y-13050548D02*
X8571310Y-13060071D01*
X8571310Y-13060071D02*
X8580834Y-13079119D01*
X8580834Y-13079119D02*
X8590357Y-13117214D01*
X8590357Y-13117214D02*
X8590357Y-13164833D01*
X8590357Y-13164833D02*
X8580834Y-13202928D01*
X8580834Y-13202928D02*
X8571310Y-13221976D01*
X8571310Y-13221976D02*
X8561786Y-13231500D01*
X8561786Y-13231500D02*
X8542738Y-13241024D01*
X8542738Y-13241024D02*
X8523691Y-13241024D01*
X8523691Y-13241024D02*
X8504643Y-13231500D01*
X8504643Y-13231500D02*
X8495119Y-13221976D01*
X8495119Y-13221976D02*
X8485595Y-13202928D01*
X8485595Y-13202928D02*
X8476072Y-13164833D01*
X8476072Y-13164833D02*
X8476072Y-13117214D01*
X8476072Y-13117214D02*
X8485595Y-13079119D01*
X8485595Y-13079119D02*
X8495119Y-13060071D01*
X8495119Y-13060071D02*
X8504643Y-13050548D01*
X8504643Y-13050548D02*
X8523691Y-13041024D01*
X8657024Y-13041024D02*
X8780834Y-13041024D01*
X8780834Y-13041024D02*
X8714167Y-13117214D01*
X8714167Y-13117214D02*
X8742738Y-13117214D01*
X8742738Y-13117214D02*
X8761786Y-13126738D01*
X8761786Y-13126738D02*
X8771310Y-13136262D01*
X8771310Y-13136262D02*
X8780834Y-13155309D01*
X8780834Y-13155309D02*
X8780834Y-13202928D01*
X8780834Y-13202928D02*
X8771310Y-13221976D01*
X8771310Y-13221976D02*
X8761786Y-13231500D01*
X8761786Y-13231500D02*
X8742738Y-13241024D01*
X8742738Y-13241024D02*
X8685595Y-13241024D01*
X8685595Y-13241024D02*
X8666548Y-13231500D01*
X8666548Y-13231500D02*
X8657024Y-13221976D01*
X8847500Y-13041024D02*
X8971310Y-13041024D01*
X8971310Y-13041024D02*
X8904643Y-13117214D01*
X8904643Y-13117214D02*
X8933215Y-13117214D01*
X8933215Y-13117214D02*
X8952262Y-13126738D01*
X8952262Y-13126738D02*
X8961786Y-13136262D01*
X8961786Y-13136262D02*
X8971310Y-13155309D01*
X8971310Y-13155309D02*
X8971310Y-13202928D01*
X8971310Y-13202928D02*
X8961786Y-13221976D01*
X8961786Y-13221976D02*
X8952262Y-13231500D01*
X8952262Y-13231500D02*
X8933215Y-13241024D01*
X8933215Y-13241024D02*
X8876072Y-13241024D01*
X8876072Y-13241024D02*
X8857024Y-13231500D01*
X8857024Y-13231500D02*
X8847500Y-13221976D01*
X9152262Y-13041024D02*
X9057024Y-13041024D01*
X9057024Y-13041024D02*
X9047500Y-13136262D01*
X9047500Y-13136262D02*
X9057024Y-13126738D01*
X9057024Y-13126738D02*
X9076072Y-13117214D01*
X9076072Y-13117214D02*
X9123691Y-13117214D01*
X9123691Y-13117214D02*
X9142738Y-13126738D01*
X9142738Y-13126738D02*
X9152262Y-13136262D01*
X9152262Y-13136262D02*
X9161786Y-13155309D01*
X9161786Y-13155309D02*
X9161786Y-13202928D01*
X9161786Y-13202928D02*
X9152262Y-13221976D01*
X9152262Y-13221976D02*
X9142738Y-13231500D01*
X9142738Y-13231500D02*
X9123691Y-13241024D01*
X9123691Y-13241024D02*
X9076072Y-13241024D01*
X9076072Y-13241024D02*
X9057024Y-13231500D01*
X9057024Y-13231500D02*
X9047500Y-13221976D01*
X9237976Y-13041024D02*
X9237976Y-13079119D01*
X9314167Y-13041024D02*
X9314167Y-13079119D01*
X9609405Y-13317214D02*
X9599881Y-13307690D01*
X9599881Y-13307690D02*
X9580834Y-13279119D01*
X9580834Y-13279119D02*
X9571310Y-13260071D01*
X9571310Y-13260071D02*
X9561786Y-13231500D01*
X9561786Y-13231500D02*
X9552262Y-13183881D01*
X9552262Y-13183881D02*
X9552262Y-13145786D01*
X9552262Y-13145786D02*
X9561786Y-13098167D01*
X9561786Y-13098167D02*
X9571310Y-13069595D01*
X9571310Y-13069595D02*
X9580834Y-13050548D01*
X9580834Y-13050548D02*
X9599881Y-13021976D01*
X9599881Y-13021976D02*
X9609405Y-13012452D01*
X9676072Y-13060071D02*
X9685596Y-13050548D01*
X9685596Y-13050548D02*
X9704643Y-13041024D01*
X9704643Y-13041024D02*
X9752262Y-13041024D01*
X9752262Y-13041024D02*
X9771310Y-13050548D01*
X9771310Y-13050548D02*
X9780834Y-13060071D01*
X9780834Y-13060071D02*
X9790357Y-13079119D01*
X9790357Y-13079119D02*
X9790357Y-13098167D01*
X9790357Y-13098167D02*
X9780834Y-13126738D01*
X9780834Y-13126738D02*
X9666548Y-13241024D01*
X9666548Y-13241024D02*
X9790357Y-13241024D01*
X10028453Y-13241024D02*
X10028453Y-13041024D01*
X10114167Y-13241024D02*
X10114167Y-13136262D01*
X10114167Y-13136262D02*
X10104643Y-13117214D01*
X10104643Y-13117214D02*
X10085596Y-13107690D01*
X10085596Y-13107690D02*
X10057024Y-13107690D01*
X10057024Y-13107690D02*
X10037977Y-13117214D01*
X10037977Y-13117214D02*
X10028453Y-13126738D01*
X10237977Y-13241024D02*
X10218929Y-13231500D01*
X10218929Y-13231500D02*
X10209405Y-13221976D01*
X10209405Y-13221976D02*
X10199881Y-13202928D01*
X10199881Y-13202928D02*
X10199881Y-13145786D01*
X10199881Y-13145786D02*
X10209405Y-13126738D01*
X10209405Y-13126738D02*
X10218929Y-13117214D01*
X10218929Y-13117214D02*
X10237977Y-13107690D01*
X10237977Y-13107690D02*
X10266548Y-13107690D01*
X10266548Y-13107690D02*
X10285596Y-13117214D01*
X10285596Y-13117214D02*
X10295119Y-13126738D01*
X10295119Y-13126738D02*
X10304643Y-13145786D01*
X10304643Y-13145786D02*
X10304643Y-13202928D01*
X10304643Y-13202928D02*
X10295119Y-13221976D01*
X10295119Y-13221976D02*
X10285596Y-13231500D01*
X10285596Y-13231500D02*
X10266548Y-13241024D01*
X10266548Y-13241024D02*
X10237977Y-13241024D01*
X10418929Y-13241024D02*
X10399881Y-13231500D01*
X10399881Y-13231500D02*
X10390358Y-13212452D01*
X10390358Y-13212452D02*
X10390358Y-13041024D01*
X10571310Y-13231500D02*
X10552262Y-13241024D01*
X10552262Y-13241024D02*
X10514167Y-13241024D01*
X10514167Y-13241024D02*
X10495119Y-13231500D01*
X10495119Y-13231500D02*
X10485596Y-13212452D01*
X10485596Y-13212452D02*
X10485596Y-13136262D01*
X10485596Y-13136262D02*
X10495119Y-13117214D01*
X10495119Y-13117214D02*
X10514167Y-13107690D01*
X10514167Y-13107690D02*
X10552262Y-13107690D01*
X10552262Y-13107690D02*
X10571310Y-13117214D01*
X10571310Y-13117214D02*
X10580834Y-13136262D01*
X10580834Y-13136262D02*
X10580834Y-13155309D01*
X10580834Y-13155309D02*
X10485596Y-13174357D01*
X10657024Y-13231500D02*
X10676072Y-13241024D01*
X10676072Y-13241024D02*
X10714167Y-13241024D01*
X10714167Y-13241024D02*
X10733215Y-13231500D01*
X10733215Y-13231500D02*
X10742739Y-13212452D01*
X10742739Y-13212452D02*
X10742739Y-13202928D01*
X10742739Y-13202928D02*
X10733215Y-13183881D01*
X10733215Y-13183881D02*
X10714167Y-13174357D01*
X10714167Y-13174357D02*
X10685596Y-13174357D01*
X10685596Y-13174357D02*
X10666548Y-13164833D01*
X10666548Y-13164833D02*
X10657024Y-13145786D01*
X10657024Y-13145786D02*
X10657024Y-13136262D01*
X10657024Y-13136262D02*
X10666548Y-13117214D01*
X10666548Y-13117214D02*
X10685596Y-13107690D01*
X10685596Y-13107690D02*
X10714167Y-13107690D01*
X10714167Y-13107690D02*
X10733215Y-13117214D01*
X10809405Y-13317214D02*
X10818929Y-13307690D01*
X10818929Y-13307690D02*
X10837977Y-13279119D01*
X10837977Y-13279119D02*
X10847500Y-13260071D01*
X10847500Y-13260071D02*
X10857024Y-13231500D01*
X10857024Y-13231500D02*
X10866548Y-13183881D01*
X10866548Y-13183881D02*
X10866548Y-13145786D01*
X10866548Y-13145786D02*
X10857024Y-13098167D01*
X10857024Y-13098167D02*
X10847500Y-13069595D01*
X10847500Y-13069595D02*
X10837977Y-13050548D01*
X10837977Y-13050548D02*
X10818929Y-13021976D01*
X10818929Y-13021976D02*
X10809405Y-13012452D01*
D17*
X5947500Y-13362500D02*
X6047500Y-13462500D01*
X6047500Y-13362500D02*
X5947500Y-13462500D01*
X6047500Y-13412500D02*
G75*
G03*
X6047500Y-13412500I-50000J0D01*
G01*
D11*
X6399881Y-13505024D02*
X6285595Y-13505024D01*
X6342738Y-13505024D02*
X6342738Y-13305024D01*
X6342738Y-13305024D02*
X6323690Y-13333595D01*
X6323690Y-13333595D02*
X6304643Y-13352643D01*
X6304643Y-13352643D02*
X6285595Y-13362167D01*
X6485595Y-13485976D02*
X6495119Y-13495500D01*
X6495119Y-13495500D02*
X6485595Y-13505024D01*
X6485595Y-13505024D02*
X6476071Y-13495500D01*
X6476071Y-13495500D02*
X6485595Y-13485976D01*
X6485595Y-13485976D02*
X6485595Y-13505024D01*
X6618928Y-13305024D02*
X6637976Y-13305024D01*
X6637976Y-13305024D02*
X6657024Y-13314548D01*
X6657024Y-13314548D02*
X6666548Y-13324071D01*
X6666548Y-13324071D02*
X6676071Y-13343119D01*
X6676071Y-13343119D02*
X6685595Y-13381214D01*
X6685595Y-13381214D02*
X6685595Y-13428833D01*
X6685595Y-13428833D02*
X6676071Y-13466928D01*
X6676071Y-13466928D02*
X6666548Y-13485976D01*
X6666548Y-13485976D02*
X6657024Y-13495500D01*
X6657024Y-13495500D02*
X6637976Y-13505024D01*
X6637976Y-13505024D02*
X6618928Y-13505024D01*
X6618928Y-13505024D02*
X6599881Y-13495500D01*
X6599881Y-13495500D02*
X6590357Y-13485976D01*
X6590357Y-13485976D02*
X6580833Y-13466928D01*
X6580833Y-13466928D02*
X6571309Y-13428833D01*
X6571309Y-13428833D02*
X6571309Y-13381214D01*
X6571309Y-13381214D02*
X6580833Y-13343119D01*
X6580833Y-13343119D02*
X6590357Y-13324071D01*
X6590357Y-13324071D02*
X6599881Y-13314548D01*
X6599881Y-13314548D02*
X6618928Y-13305024D01*
X6809405Y-13305024D02*
X6828452Y-13305024D01*
X6828452Y-13305024D02*
X6847500Y-13314548D01*
X6847500Y-13314548D02*
X6857024Y-13324071D01*
X6857024Y-13324071D02*
X6866548Y-13343119D01*
X6866548Y-13343119D02*
X6876071Y-13381214D01*
X6876071Y-13381214D02*
X6876071Y-13428833D01*
X6876071Y-13428833D02*
X6866548Y-13466928D01*
X6866548Y-13466928D02*
X6857024Y-13485976D01*
X6857024Y-13485976D02*
X6847500Y-13495500D01*
X6847500Y-13495500D02*
X6828452Y-13505024D01*
X6828452Y-13505024D02*
X6809405Y-13505024D01*
X6809405Y-13505024D02*
X6790357Y-13495500D01*
X6790357Y-13495500D02*
X6780833Y-13485976D01*
X6780833Y-13485976D02*
X6771309Y-13466928D01*
X6771309Y-13466928D02*
X6761786Y-13428833D01*
X6761786Y-13428833D02*
X6761786Y-13381214D01*
X6761786Y-13381214D02*
X6771309Y-13343119D01*
X6771309Y-13343119D02*
X6780833Y-13324071D01*
X6780833Y-13324071D02*
X6790357Y-13314548D01*
X6790357Y-13314548D02*
X6809405Y-13305024D01*
X6999881Y-13305024D02*
X7018929Y-13305024D01*
X7018929Y-13305024D02*
X7037976Y-13314548D01*
X7037976Y-13314548D02*
X7047500Y-13324071D01*
X7047500Y-13324071D02*
X7057024Y-13343119D01*
X7057024Y-13343119D02*
X7066548Y-13381214D01*
X7066548Y-13381214D02*
X7066548Y-13428833D01*
X7066548Y-13428833D02*
X7057024Y-13466928D01*
X7057024Y-13466928D02*
X7047500Y-13485976D01*
X7047500Y-13485976D02*
X7037976Y-13495500D01*
X7037976Y-13495500D02*
X7018929Y-13505024D01*
X7018929Y-13505024D02*
X6999881Y-13505024D01*
X6999881Y-13505024D02*
X6980833Y-13495500D01*
X6980833Y-13495500D02*
X6971309Y-13485976D01*
X6971309Y-13485976D02*
X6961786Y-13466928D01*
X6961786Y-13466928D02*
X6952262Y-13428833D01*
X6952262Y-13428833D02*
X6952262Y-13381214D01*
X6952262Y-13381214D02*
X6961786Y-13343119D01*
X6961786Y-13343119D02*
X6971309Y-13324071D01*
X6971309Y-13324071D02*
X6980833Y-13314548D01*
X6980833Y-13314548D02*
X6999881Y-13305024D01*
X7152262Y-13505024D02*
X7152262Y-13371690D01*
X7152262Y-13390738D02*
X7161786Y-13381214D01*
X7161786Y-13381214D02*
X7180833Y-13371690D01*
X7180833Y-13371690D02*
X7209405Y-13371690D01*
X7209405Y-13371690D02*
X7228452Y-13381214D01*
X7228452Y-13381214D02*
X7237976Y-13400262D01*
X7237976Y-13400262D02*
X7237976Y-13505024D01*
X7237976Y-13400262D02*
X7247500Y-13381214D01*
X7247500Y-13381214D02*
X7266548Y-13371690D01*
X7266548Y-13371690D02*
X7295119Y-13371690D01*
X7295119Y-13371690D02*
X7314167Y-13381214D01*
X7314167Y-13381214D02*
X7323690Y-13400262D01*
X7323690Y-13400262D02*
X7323690Y-13505024D01*
X7418929Y-13505024D02*
X7418929Y-13371690D01*
X7418929Y-13390738D02*
X7428452Y-13381214D01*
X7428452Y-13381214D02*
X7447500Y-13371690D01*
X7447500Y-13371690D02*
X7476071Y-13371690D01*
X7476071Y-13371690D02*
X7495119Y-13381214D01*
X7495119Y-13381214D02*
X7504643Y-13400262D01*
X7504643Y-13400262D02*
X7504643Y-13505024D01*
X7504643Y-13400262D02*
X7514167Y-13381214D01*
X7514167Y-13381214D02*
X7533214Y-13371690D01*
X7533214Y-13371690D02*
X7561786Y-13371690D01*
X7561786Y-13371690D02*
X7580833Y-13381214D01*
X7580833Y-13381214D02*
X7590357Y-13400262D01*
X7590357Y-13400262D02*
X7590357Y-13505024D01*
X7980833Y-13295500D02*
X7809405Y-13552643D01*
X8237976Y-13305024D02*
X8257024Y-13305024D01*
X8257024Y-13305024D02*
X8276072Y-13314548D01*
X8276072Y-13314548D02*
X8285595Y-13324071D01*
X8285595Y-13324071D02*
X8295119Y-13343119D01*
X8295119Y-13343119D02*
X8304643Y-13381214D01*
X8304643Y-13381214D02*
X8304643Y-13428833D01*
X8304643Y-13428833D02*
X8295119Y-13466928D01*
X8295119Y-13466928D02*
X8285595Y-13485976D01*
X8285595Y-13485976D02*
X8276072Y-13495500D01*
X8276072Y-13495500D02*
X8257024Y-13505024D01*
X8257024Y-13505024D02*
X8237976Y-13505024D01*
X8237976Y-13505024D02*
X8218929Y-13495500D01*
X8218929Y-13495500D02*
X8209405Y-13485976D01*
X8209405Y-13485976D02*
X8199881Y-13466928D01*
X8199881Y-13466928D02*
X8190357Y-13428833D01*
X8190357Y-13428833D02*
X8190357Y-13381214D01*
X8190357Y-13381214D02*
X8199881Y-13343119D01*
X8199881Y-13343119D02*
X8209405Y-13324071D01*
X8209405Y-13324071D02*
X8218929Y-13314548D01*
X8218929Y-13314548D02*
X8237976Y-13305024D01*
X8390357Y-13485976D02*
X8399881Y-13495500D01*
X8399881Y-13495500D02*
X8390357Y-13505024D01*
X8390357Y-13505024D02*
X8380833Y-13495500D01*
X8380833Y-13495500D02*
X8390357Y-13485976D01*
X8390357Y-13485976D02*
X8390357Y-13505024D01*
X8523691Y-13305024D02*
X8542738Y-13305024D01*
X8542738Y-13305024D02*
X8561786Y-13314548D01*
X8561786Y-13314548D02*
X8571310Y-13324071D01*
X8571310Y-13324071D02*
X8580834Y-13343119D01*
X8580834Y-13343119D02*
X8590357Y-13381214D01*
X8590357Y-13381214D02*
X8590357Y-13428833D01*
X8590357Y-13428833D02*
X8580834Y-13466928D01*
X8580834Y-13466928D02*
X8571310Y-13485976D01*
X8571310Y-13485976D02*
X8561786Y-13495500D01*
X8561786Y-13495500D02*
X8542738Y-13505024D01*
X8542738Y-13505024D02*
X8523691Y-13505024D01*
X8523691Y-13505024D02*
X8504643Y-13495500D01*
X8504643Y-13495500D02*
X8495119Y-13485976D01*
X8495119Y-13485976D02*
X8485595Y-13466928D01*
X8485595Y-13466928D02*
X8476072Y-13428833D01*
X8476072Y-13428833D02*
X8476072Y-13381214D01*
X8476072Y-13381214D02*
X8485595Y-13343119D01*
X8485595Y-13343119D02*
X8495119Y-13324071D01*
X8495119Y-13324071D02*
X8504643Y-13314548D01*
X8504643Y-13314548D02*
X8523691Y-13305024D01*
X8657024Y-13305024D02*
X8780834Y-13305024D01*
X8780834Y-13305024D02*
X8714167Y-13381214D01*
X8714167Y-13381214D02*
X8742738Y-13381214D01*
X8742738Y-13381214D02*
X8761786Y-13390738D01*
X8761786Y-13390738D02*
X8771310Y-13400262D01*
X8771310Y-13400262D02*
X8780834Y-13419309D01*
X8780834Y-13419309D02*
X8780834Y-13466928D01*
X8780834Y-13466928D02*
X8771310Y-13485976D01*
X8771310Y-13485976D02*
X8761786Y-13495500D01*
X8761786Y-13495500D02*
X8742738Y-13505024D01*
X8742738Y-13505024D02*
X8685595Y-13505024D01*
X8685595Y-13505024D02*
X8666548Y-13495500D01*
X8666548Y-13495500D02*
X8657024Y-13485976D01*
X8876072Y-13505024D02*
X8914167Y-13505024D01*
X8914167Y-13505024D02*
X8933215Y-13495500D01*
X8933215Y-13495500D02*
X8942738Y-13485976D01*
X8942738Y-13485976D02*
X8961786Y-13457405D01*
X8961786Y-13457405D02*
X8971310Y-13419309D01*
X8971310Y-13419309D02*
X8971310Y-13343119D01*
X8971310Y-13343119D02*
X8961786Y-13324071D01*
X8961786Y-13324071D02*
X8952262Y-13314548D01*
X8952262Y-13314548D02*
X8933215Y-13305024D01*
X8933215Y-13305024D02*
X8895119Y-13305024D01*
X8895119Y-13305024D02*
X8876072Y-13314548D01*
X8876072Y-13314548D02*
X8866548Y-13324071D01*
X8866548Y-13324071D02*
X8857024Y-13343119D01*
X8857024Y-13343119D02*
X8857024Y-13390738D01*
X8857024Y-13390738D02*
X8866548Y-13409786D01*
X8866548Y-13409786D02*
X8876072Y-13419309D01*
X8876072Y-13419309D02*
X8895119Y-13428833D01*
X8895119Y-13428833D02*
X8933215Y-13428833D01*
X8933215Y-13428833D02*
X8952262Y-13419309D01*
X8952262Y-13419309D02*
X8961786Y-13409786D01*
X8961786Y-13409786D02*
X8971310Y-13390738D01*
X9142738Y-13371690D02*
X9142738Y-13505024D01*
X9095119Y-13295500D02*
X9047500Y-13438357D01*
X9047500Y-13438357D02*
X9171310Y-13438357D01*
X9237976Y-13305024D02*
X9237976Y-13343119D01*
X9314167Y-13305024D02*
X9314167Y-13343119D01*
X9609405Y-13581214D02*
X9599881Y-13571690D01*
X9599881Y-13571690D02*
X9580834Y-13543119D01*
X9580834Y-13543119D02*
X9571310Y-13524071D01*
X9571310Y-13524071D02*
X9561786Y-13495500D01*
X9561786Y-13495500D02*
X9552262Y-13447881D01*
X9552262Y-13447881D02*
X9552262Y-13409786D01*
X9552262Y-13409786D02*
X9561786Y-13362167D01*
X9561786Y-13362167D02*
X9571310Y-13333595D01*
X9571310Y-13333595D02*
X9580834Y-13314548D01*
X9580834Y-13314548D02*
X9599881Y-13285976D01*
X9599881Y-13285976D02*
X9609405Y-13276452D01*
X9790357Y-13505024D02*
X9676072Y-13505024D01*
X9733215Y-13505024D02*
X9733215Y-13305024D01*
X9733215Y-13305024D02*
X9714167Y-13333595D01*
X9714167Y-13333595D02*
X9695119Y-13352643D01*
X9695119Y-13352643D02*
X9676072Y-13362167D01*
X9961786Y-13305024D02*
X9923691Y-13305024D01*
X9923691Y-13305024D02*
X9904643Y-13314548D01*
X9904643Y-13314548D02*
X9895119Y-13324071D01*
X9895119Y-13324071D02*
X9876072Y-13352643D01*
X9876072Y-13352643D02*
X9866548Y-13390738D01*
X9866548Y-13390738D02*
X9866548Y-13466928D01*
X9866548Y-13466928D02*
X9876072Y-13485976D01*
X9876072Y-13485976D02*
X9885596Y-13495500D01*
X9885596Y-13495500D02*
X9904643Y-13505024D01*
X9904643Y-13505024D02*
X9942738Y-13505024D01*
X9942738Y-13505024D02*
X9961786Y-13495500D01*
X9961786Y-13495500D02*
X9971310Y-13485976D01*
X9971310Y-13485976D02*
X9980834Y-13466928D01*
X9980834Y-13466928D02*
X9980834Y-13419309D01*
X9980834Y-13419309D02*
X9971310Y-13400262D01*
X9971310Y-13400262D02*
X9961786Y-13390738D01*
X9961786Y-13390738D02*
X9942738Y-13381214D01*
X9942738Y-13381214D02*
X9904643Y-13381214D01*
X9904643Y-13381214D02*
X9885596Y-13390738D01*
X9885596Y-13390738D02*
X9876072Y-13400262D01*
X9876072Y-13400262D02*
X9866548Y-13419309D01*
X10218929Y-13505024D02*
X10218929Y-13305024D01*
X10304643Y-13505024D02*
X10304643Y-13400262D01*
X10304643Y-13400262D02*
X10295119Y-13381214D01*
X10295119Y-13381214D02*
X10276072Y-13371690D01*
X10276072Y-13371690D02*
X10247500Y-13371690D01*
X10247500Y-13371690D02*
X10228453Y-13381214D01*
X10228453Y-13381214D02*
X10218929Y-13390738D01*
X10428453Y-13505024D02*
X10409405Y-13495500D01*
X10409405Y-13495500D02*
X10399881Y-13485976D01*
X10399881Y-13485976D02*
X10390358Y-13466928D01*
X10390358Y-13466928D02*
X10390358Y-13409786D01*
X10390358Y-13409786D02*
X10399881Y-13390738D01*
X10399881Y-13390738D02*
X10409405Y-13381214D01*
X10409405Y-13381214D02*
X10428453Y-13371690D01*
X10428453Y-13371690D02*
X10457024Y-13371690D01*
X10457024Y-13371690D02*
X10476072Y-13381214D01*
X10476072Y-13381214D02*
X10485596Y-13390738D01*
X10485596Y-13390738D02*
X10495119Y-13409786D01*
X10495119Y-13409786D02*
X10495119Y-13466928D01*
X10495119Y-13466928D02*
X10485596Y-13485976D01*
X10485596Y-13485976D02*
X10476072Y-13495500D01*
X10476072Y-13495500D02*
X10457024Y-13505024D01*
X10457024Y-13505024D02*
X10428453Y-13505024D01*
X10609405Y-13505024D02*
X10590358Y-13495500D01*
X10590358Y-13495500D02*
X10580834Y-13476452D01*
X10580834Y-13476452D02*
X10580834Y-13305024D01*
X10761786Y-13495500D02*
X10742739Y-13505024D01*
X10742739Y-13505024D02*
X10704643Y-13505024D01*
X10704643Y-13505024D02*
X10685596Y-13495500D01*
X10685596Y-13495500D02*
X10676072Y-13476452D01*
X10676072Y-13476452D02*
X10676072Y-13400262D01*
X10676072Y-13400262D02*
X10685596Y-13381214D01*
X10685596Y-13381214D02*
X10704643Y-13371690D01*
X10704643Y-13371690D02*
X10742739Y-13371690D01*
X10742739Y-13371690D02*
X10761786Y-13381214D01*
X10761786Y-13381214D02*
X10771310Y-13400262D01*
X10771310Y-13400262D02*
X10771310Y-13419309D01*
X10771310Y-13419309D02*
X10676072Y-13438357D01*
X10847500Y-13495500D02*
X10866548Y-13505024D01*
X10866548Y-13505024D02*
X10904643Y-13505024D01*
X10904643Y-13505024D02*
X10923691Y-13495500D01*
X10923691Y-13495500D02*
X10933215Y-13476452D01*
X10933215Y-13476452D02*
X10933215Y-13466928D01*
X10933215Y-13466928D02*
X10923691Y-13447881D01*
X10923691Y-13447881D02*
X10904643Y-13438357D01*
X10904643Y-13438357D02*
X10876072Y-13438357D01*
X10876072Y-13438357D02*
X10857024Y-13428833D01*
X10857024Y-13428833D02*
X10847500Y-13409786D01*
X10847500Y-13409786D02*
X10847500Y-13400262D01*
X10847500Y-13400262D02*
X10857024Y-13381214D01*
X10857024Y-13381214D02*
X10876072Y-13371690D01*
X10876072Y-13371690D02*
X10904643Y-13371690D01*
X10904643Y-13371690D02*
X10923691Y-13381214D01*
X10999881Y-13581214D02*
X11009405Y-13571690D01*
X11009405Y-13571690D02*
X11028453Y-13543119D01*
X11028453Y-13543119D02*
X11037977Y-13524071D01*
X11037977Y-13524071D02*
X11047500Y-13495500D01*
X11047500Y-13495500D02*
X11057024Y-13447881D01*
X11057024Y-13447881D02*
X11057024Y-13409786D01*
X11057024Y-13409786D02*
X11047500Y-13362167D01*
X11047500Y-13362167D02*
X11037977Y-13333595D01*
X11037977Y-13333595D02*
X11028453Y-13314548D01*
X11028453Y-13314548D02*
X11009405Y-13285976D01*
X11009405Y-13285976D02*
X10999881Y-13276452D01*
D18*
X5945900Y-13625700D02*
X6047500Y-13727300D01*
X6047500Y-13625700D02*
X5945900Y-13727300D01*
X5996700Y-13625700D02*
X5996700Y-13727300D01*
X5945900Y-13676500D02*
X6047500Y-13676500D01*
D11*
X6399881Y-13769024D02*
X6285595Y-13769024D01*
X6342738Y-13769024D02*
X6342738Y-13569024D01*
X6342738Y-13569024D02*
X6323690Y-13597595D01*
X6323690Y-13597595D02*
X6304643Y-13616643D01*
X6304643Y-13616643D02*
X6285595Y-13626167D01*
X6485595Y-13749976D02*
X6495119Y-13759500D01*
X6495119Y-13759500D02*
X6485595Y-13769024D01*
X6485595Y-13769024D02*
X6476071Y-13759500D01*
X6476071Y-13759500D02*
X6485595Y-13749976D01*
X6485595Y-13749976D02*
X6485595Y-13769024D01*
X6618928Y-13569024D02*
X6637976Y-13569024D01*
X6637976Y-13569024D02*
X6657024Y-13578548D01*
X6657024Y-13578548D02*
X6666548Y-13588071D01*
X6666548Y-13588071D02*
X6676071Y-13607119D01*
X6676071Y-13607119D02*
X6685595Y-13645214D01*
X6685595Y-13645214D02*
X6685595Y-13692833D01*
X6685595Y-13692833D02*
X6676071Y-13730928D01*
X6676071Y-13730928D02*
X6666548Y-13749976D01*
X6666548Y-13749976D02*
X6657024Y-13759500D01*
X6657024Y-13759500D02*
X6637976Y-13769024D01*
X6637976Y-13769024D02*
X6618928Y-13769024D01*
X6618928Y-13769024D02*
X6599881Y-13759500D01*
X6599881Y-13759500D02*
X6590357Y-13749976D01*
X6590357Y-13749976D02*
X6580833Y-13730928D01*
X6580833Y-13730928D02*
X6571309Y-13692833D01*
X6571309Y-13692833D02*
X6571309Y-13645214D01*
X6571309Y-13645214D02*
X6580833Y-13607119D01*
X6580833Y-13607119D02*
X6590357Y-13588071D01*
X6590357Y-13588071D02*
X6599881Y-13578548D01*
X6599881Y-13578548D02*
X6618928Y-13569024D01*
X6876071Y-13769024D02*
X6761786Y-13769024D01*
X6818928Y-13769024D02*
X6818928Y-13569024D01*
X6818928Y-13569024D02*
X6799881Y-13597595D01*
X6799881Y-13597595D02*
X6780833Y-13616643D01*
X6780833Y-13616643D02*
X6761786Y-13626167D01*
X7047500Y-13569024D02*
X7009405Y-13569024D01*
X7009405Y-13569024D02*
X6990357Y-13578548D01*
X6990357Y-13578548D02*
X6980833Y-13588071D01*
X6980833Y-13588071D02*
X6961786Y-13616643D01*
X6961786Y-13616643D02*
X6952262Y-13654738D01*
X6952262Y-13654738D02*
X6952262Y-13730928D01*
X6952262Y-13730928D02*
X6961786Y-13749976D01*
X6961786Y-13749976D02*
X6971309Y-13759500D01*
X6971309Y-13759500D02*
X6990357Y-13769024D01*
X6990357Y-13769024D02*
X7028452Y-13769024D01*
X7028452Y-13769024D02*
X7047500Y-13759500D01*
X7047500Y-13759500D02*
X7057024Y-13749976D01*
X7057024Y-13749976D02*
X7066548Y-13730928D01*
X7066548Y-13730928D02*
X7066548Y-13683309D01*
X7066548Y-13683309D02*
X7057024Y-13664262D01*
X7057024Y-13664262D02*
X7047500Y-13654738D01*
X7047500Y-13654738D02*
X7028452Y-13645214D01*
X7028452Y-13645214D02*
X6990357Y-13645214D01*
X6990357Y-13645214D02*
X6971309Y-13654738D01*
X6971309Y-13654738D02*
X6961786Y-13664262D01*
X6961786Y-13664262D02*
X6952262Y-13683309D01*
X7152262Y-13769024D02*
X7152262Y-13635690D01*
X7152262Y-13654738D02*
X7161786Y-13645214D01*
X7161786Y-13645214D02*
X7180833Y-13635690D01*
X7180833Y-13635690D02*
X7209405Y-13635690D01*
X7209405Y-13635690D02*
X7228452Y-13645214D01*
X7228452Y-13645214D02*
X7237976Y-13664262D01*
X7237976Y-13664262D02*
X7237976Y-13769024D01*
X7237976Y-13664262D02*
X7247500Y-13645214D01*
X7247500Y-13645214D02*
X7266548Y-13635690D01*
X7266548Y-13635690D02*
X7295119Y-13635690D01*
X7295119Y-13635690D02*
X7314167Y-13645214D01*
X7314167Y-13645214D02*
X7323690Y-13664262D01*
X7323690Y-13664262D02*
X7323690Y-13769024D01*
X7418929Y-13769024D02*
X7418929Y-13635690D01*
X7418929Y-13654738D02*
X7428452Y-13645214D01*
X7428452Y-13645214D02*
X7447500Y-13635690D01*
X7447500Y-13635690D02*
X7476071Y-13635690D01*
X7476071Y-13635690D02*
X7495119Y-13645214D01*
X7495119Y-13645214D02*
X7504643Y-13664262D01*
X7504643Y-13664262D02*
X7504643Y-13769024D01*
X7504643Y-13664262D02*
X7514167Y-13645214D01*
X7514167Y-13645214D02*
X7533214Y-13635690D01*
X7533214Y-13635690D02*
X7561786Y-13635690D01*
X7561786Y-13635690D02*
X7580833Y-13645214D01*
X7580833Y-13645214D02*
X7590357Y-13664262D01*
X7590357Y-13664262D02*
X7590357Y-13769024D01*
X7980833Y-13559500D02*
X7809405Y-13816643D01*
X8237976Y-13569024D02*
X8257024Y-13569024D01*
X8257024Y-13569024D02*
X8276072Y-13578548D01*
X8276072Y-13578548D02*
X8285595Y-13588071D01*
X8285595Y-13588071D02*
X8295119Y-13607119D01*
X8295119Y-13607119D02*
X8304643Y-13645214D01*
X8304643Y-13645214D02*
X8304643Y-13692833D01*
X8304643Y-13692833D02*
X8295119Y-13730928D01*
X8295119Y-13730928D02*
X8285595Y-13749976D01*
X8285595Y-13749976D02*
X8276072Y-13759500D01*
X8276072Y-13759500D02*
X8257024Y-13769024D01*
X8257024Y-13769024D02*
X8237976Y-13769024D01*
X8237976Y-13769024D02*
X8218929Y-13759500D01*
X8218929Y-13759500D02*
X8209405Y-13749976D01*
X8209405Y-13749976D02*
X8199881Y-13730928D01*
X8199881Y-13730928D02*
X8190357Y-13692833D01*
X8190357Y-13692833D02*
X8190357Y-13645214D01*
X8190357Y-13645214D02*
X8199881Y-13607119D01*
X8199881Y-13607119D02*
X8209405Y-13588071D01*
X8209405Y-13588071D02*
X8218929Y-13578548D01*
X8218929Y-13578548D02*
X8237976Y-13569024D01*
X8390357Y-13749976D02*
X8399881Y-13759500D01*
X8399881Y-13759500D02*
X8390357Y-13769024D01*
X8390357Y-13769024D02*
X8380833Y-13759500D01*
X8380833Y-13759500D02*
X8390357Y-13749976D01*
X8390357Y-13749976D02*
X8390357Y-13769024D01*
X8523691Y-13569024D02*
X8542738Y-13569024D01*
X8542738Y-13569024D02*
X8561786Y-13578548D01*
X8561786Y-13578548D02*
X8571310Y-13588071D01*
X8571310Y-13588071D02*
X8580834Y-13607119D01*
X8580834Y-13607119D02*
X8590357Y-13645214D01*
X8590357Y-13645214D02*
X8590357Y-13692833D01*
X8590357Y-13692833D02*
X8580834Y-13730928D01*
X8580834Y-13730928D02*
X8571310Y-13749976D01*
X8571310Y-13749976D02*
X8561786Y-13759500D01*
X8561786Y-13759500D02*
X8542738Y-13769024D01*
X8542738Y-13769024D02*
X8523691Y-13769024D01*
X8523691Y-13769024D02*
X8504643Y-13759500D01*
X8504643Y-13759500D02*
X8495119Y-13749976D01*
X8495119Y-13749976D02*
X8485595Y-13730928D01*
X8485595Y-13730928D02*
X8476072Y-13692833D01*
X8476072Y-13692833D02*
X8476072Y-13645214D01*
X8476072Y-13645214D02*
X8485595Y-13607119D01*
X8485595Y-13607119D02*
X8495119Y-13588071D01*
X8495119Y-13588071D02*
X8504643Y-13578548D01*
X8504643Y-13578548D02*
X8523691Y-13569024D01*
X8761786Y-13635690D02*
X8761786Y-13769024D01*
X8714167Y-13559500D02*
X8666548Y-13702357D01*
X8666548Y-13702357D02*
X8790357Y-13702357D01*
X8904643Y-13569024D02*
X8923691Y-13569024D01*
X8923691Y-13569024D02*
X8942738Y-13578548D01*
X8942738Y-13578548D02*
X8952262Y-13588071D01*
X8952262Y-13588071D02*
X8961786Y-13607119D01*
X8961786Y-13607119D02*
X8971310Y-13645214D01*
X8971310Y-13645214D02*
X8971310Y-13692833D01*
X8971310Y-13692833D02*
X8961786Y-13730928D01*
X8961786Y-13730928D02*
X8952262Y-13749976D01*
X8952262Y-13749976D02*
X8942738Y-13759500D01*
X8942738Y-13759500D02*
X8923691Y-13769024D01*
X8923691Y-13769024D02*
X8904643Y-13769024D01*
X8904643Y-13769024D02*
X8885595Y-13759500D01*
X8885595Y-13759500D02*
X8876072Y-13749976D01*
X8876072Y-13749976D02*
X8866548Y-13730928D01*
X8866548Y-13730928D02*
X8857024Y-13692833D01*
X8857024Y-13692833D02*
X8857024Y-13645214D01*
X8857024Y-13645214D02*
X8866548Y-13607119D01*
X8866548Y-13607119D02*
X8876072Y-13588071D01*
X8876072Y-13588071D02*
X8885595Y-13578548D01*
X8885595Y-13578548D02*
X8904643Y-13569024D01*
X9095119Y-13569024D02*
X9114167Y-13569024D01*
X9114167Y-13569024D02*
X9133215Y-13578548D01*
X9133215Y-13578548D02*
X9142738Y-13588071D01*
X9142738Y-13588071D02*
X9152262Y-13607119D01*
X9152262Y-13607119D02*
X9161786Y-13645214D01*
X9161786Y-13645214D02*
X9161786Y-13692833D01*
X9161786Y-13692833D02*
X9152262Y-13730928D01*
X9152262Y-13730928D02*
X9142738Y-13749976D01*
X9142738Y-13749976D02*
X9133215Y-13759500D01*
X9133215Y-13759500D02*
X9114167Y-13769024D01*
X9114167Y-13769024D02*
X9095119Y-13769024D01*
X9095119Y-13769024D02*
X9076072Y-13759500D01*
X9076072Y-13759500D02*
X9066548Y-13749976D01*
X9066548Y-13749976D02*
X9057024Y-13730928D01*
X9057024Y-13730928D02*
X9047500Y-13692833D01*
X9047500Y-13692833D02*
X9047500Y-13645214D01*
X9047500Y-13645214D02*
X9057024Y-13607119D01*
X9057024Y-13607119D02*
X9066548Y-13588071D01*
X9066548Y-13588071D02*
X9076072Y-13578548D01*
X9076072Y-13578548D02*
X9095119Y-13569024D01*
X9237976Y-13569024D02*
X9237976Y-13607119D01*
X9314167Y-13569024D02*
X9314167Y-13607119D01*
X9609405Y-13845214D02*
X9599881Y-13835690D01*
X9599881Y-13835690D02*
X9580834Y-13807119D01*
X9580834Y-13807119D02*
X9571310Y-13788071D01*
X9571310Y-13788071D02*
X9561786Y-13759500D01*
X9561786Y-13759500D02*
X9552262Y-13711881D01*
X9552262Y-13711881D02*
X9552262Y-13673786D01*
X9552262Y-13673786D02*
X9561786Y-13626167D01*
X9561786Y-13626167D02*
X9571310Y-13597595D01*
X9571310Y-13597595D02*
X9580834Y-13578548D01*
X9580834Y-13578548D02*
X9599881Y-13549976D01*
X9599881Y-13549976D02*
X9609405Y-13540452D01*
X9714167Y-13654738D02*
X9695119Y-13645214D01*
X9695119Y-13645214D02*
X9685596Y-13635690D01*
X9685596Y-13635690D02*
X9676072Y-13616643D01*
X9676072Y-13616643D02*
X9676072Y-13607119D01*
X9676072Y-13607119D02*
X9685596Y-13588071D01*
X9685596Y-13588071D02*
X9695119Y-13578548D01*
X9695119Y-13578548D02*
X9714167Y-13569024D01*
X9714167Y-13569024D02*
X9752262Y-13569024D01*
X9752262Y-13569024D02*
X9771310Y-13578548D01*
X9771310Y-13578548D02*
X9780834Y-13588071D01*
X9780834Y-13588071D02*
X9790357Y-13607119D01*
X9790357Y-13607119D02*
X9790357Y-13616643D01*
X9790357Y-13616643D02*
X9780834Y-13635690D01*
X9780834Y-13635690D02*
X9771310Y-13645214D01*
X9771310Y-13645214D02*
X9752262Y-13654738D01*
X9752262Y-13654738D02*
X9714167Y-13654738D01*
X9714167Y-13654738D02*
X9695119Y-13664262D01*
X9695119Y-13664262D02*
X9685596Y-13673786D01*
X9685596Y-13673786D02*
X9676072Y-13692833D01*
X9676072Y-13692833D02*
X9676072Y-13730928D01*
X9676072Y-13730928D02*
X9685596Y-13749976D01*
X9685596Y-13749976D02*
X9695119Y-13759500D01*
X9695119Y-13759500D02*
X9714167Y-13769024D01*
X9714167Y-13769024D02*
X9752262Y-13769024D01*
X9752262Y-13769024D02*
X9771310Y-13759500D01*
X9771310Y-13759500D02*
X9780834Y-13749976D01*
X9780834Y-13749976D02*
X9790357Y-13730928D01*
X9790357Y-13730928D02*
X9790357Y-13692833D01*
X9790357Y-13692833D02*
X9780834Y-13673786D01*
X9780834Y-13673786D02*
X9771310Y-13664262D01*
X9771310Y-13664262D02*
X9752262Y-13654738D01*
X10028453Y-13769024D02*
X10028453Y-13569024D01*
X10114167Y-13769024D02*
X10114167Y-13664262D01*
X10114167Y-13664262D02*
X10104643Y-13645214D01*
X10104643Y-13645214D02*
X10085596Y-13635690D01*
X10085596Y-13635690D02*
X10057024Y-13635690D01*
X10057024Y-13635690D02*
X10037977Y-13645214D01*
X10037977Y-13645214D02*
X10028453Y-13654738D01*
X10237977Y-13769024D02*
X10218929Y-13759500D01*
X10218929Y-13759500D02*
X10209405Y-13749976D01*
X10209405Y-13749976D02*
X10199881Y-13730928D01*
X10199881Y-13730928D02*
X10199881Y-13673786D01*
X10199881Y-13673786D02*
X10209405Y-13654738D01*
X10209405Y-13654738D02*
X10218929Y-13645214D01*
X10218929Y-13645214D02*
X10237977Y-13635690D01*
X10237977Y-13635690D02*
X10266548Y-13635690D01*
X10266548Y-13635690D02*
X10285596Y-13645214D01*
X10285596Y-13645214D02*
X10295119Y-13654738D01*
X10295119Y-13654738D02*
X10304643Y-13673786D01*
X10304643Y-13673786D02*
X10304643Y-13730928D01*
X10304643Y-13730928D02*
X10295119Y-13749976D01*
X10295119Y-13749976D02*
X10285596Y-13759500D01*
X10285596Y-13759500D02*
X10266548Y-13769024D01*
X10266548Y-13769024D02*
X10237977Y-13769024D01*
X10418929Y-13769024D02*
X10399881Y-13759500D01*
X10399881Y-13759500D02*
X10390358Y-13740452D01*
X10390358Y-13740452D02*
X10390358Y-13569024D01*
X10571310Y-13759500D02*
X10552262Y-13769024D01*
X10552262Y-13769024D02*
X10514167Y-13769024D01*
X10514167Y-13769024D02*
X10495119Y-13759500D01*
X10495119Y-13759500D02*
X10485596Y-13740452D01*
X10485596Y-13740452D02*
X10485596Y-13664262D01*
X10485596Y-13664262D02*
X10495119Y-13645214D01*
X10495119Y-13645214D02*
X10514167Y-13635690D01*
X10514167Y-13635690D02*
X10552262Y-13635690D01*
X10552262Y-13635690D02*
X10571310Y-13645214D01*
X10571310Y-13645214D02*
X10580834Y-13664262D01*
X10580834Y-13664262D02*
X10580834Y-13683309D01*
X10580834Y-13683309D02*
X10485596Y-13702357D01*
X10657024Y-13759500D02*
X10676072Y-13769024D01*
X10676072Y-13769024D02*
X10714167Y-13769024D01*
X10714167Y-13769024D02*
X10733215Y-13759500D01*
X10733215Y-13759500D02*
X10742739Y-13740452D01*
X10742739Y-13740452D02*
X10742739Y-13730928D01*
X10742739Y-13730928D02*
X10733215Y-13711881D01*
X10733215Y-13711881D02*
X10714167Y-13702357D01*
X10714167Y-13702357D02*
X10685596Y-13702357D01*
X10685596Y-13702357D02*
X10666548Y-13692833D01*
X10666548Y-13692833D02*
X10657024Y-13673786D01*
X10657024Y-13673786D02*
X10657024Y-13664262D01*
X10657024Y-13664262D02*
X10666548Y-13645214D01*
X10666548Y-13645214D02*
X10685596Y-13635690D01*
X10685596Y-13635690D02*
X10714167Y-13635690D01*
X10714167Y-13635690D02*
X10733215Y-13645214D01*
X10809405Y-13845214D02*
X10818929Y-13835690D01*
X10818929Y-13835690D02*
X10837977Y-13807119D01*
X10837977Y-13807119D02*
X10847500Y-13788071D01*
X10847500Y-13788071D02*
X10857024Y-13759500D01*
X10857024Y-13759500D02*
X10866548Y-13711881D01*
X10866548Y-13711881D02*
X10866548Y-13673786D01*
X10866548Y-13673786D02*
X10857024Y-13626167D01*
X10857024Y-13626167D02*
X10847500Y-13597595D01*
X10847500Y-13597595D02*
X10837977Y-13578548D01*
X10837977Y-13578548D02*
X10818929Y-13549976D01*
X10818929Y-13549976D02*
X10809405Y-13540452D01*
D19*
X5945500Y-13889500D02*
X6047500Y-13991500D01*
X6047500Y-13889500D02*
X5945500Y-13991500D01*
X6032563Y-13976563D02*
X6032563Y-13904437D01*
X5960437Y-13904437D01*
X5960437Y-13976563D01*
X6032563Y-13976563D01*
D11*
X6399881Y-14033024D02*
X6285595Y-14033024D01*
X6342738Y-14033024D02*
X6342738Y-13833024D01*
X6342738Y-13833024D02*
X6323690Y-13861595D01*
X6323690Y-13861595D02*
X6304643Y-13880643D01*
X6304643Y-13880643D02*
X6285595Y-13890167D01*
X6485595Y-14013976D02*
X6495119Y-14023500D01*
X6495119Y-14023500D02*
X6485595Y-14033024D01*
X6485595Y-14033024D02*
X6476071Y-14023500D01*
X6476071Y-14023500D02*
X6485595Y-14013976D01*
X6485595Y-14013976D02*
X6485595Y-14033024D01*
X6618928Y-13833024D02*
X6637976Y-13833024D01*
X6637976Y-13833024D02*
X6657024Y-13842548D01*
X6657024Y-13842548D02*
X6666548Y-13852071D01*
X6666548Y-13852071D02*
X6676071Y-13871119D01*
X6676071Y-13871119D02*
X6685595Y-13909214D01*
X6685595Y-13909214D02*
X6685595Y-13956833D01*
X6685595Y-13956833D02*
X6676071Y-13994928D01*
X6676071Y-13994928D02*
X6666548Y-14013976D01*
X6666548Y-14013976D02*
X6657024Y-14023500D01*
X6657024Y-14023500D02*
X6637976Y-14033024D01*
X6637976Y-14033024D02*
X6618928Y-14033024D01*
X6618928Y-14033024D02*
X6599881Y-14023500D01*
X6599881Y-14023500D02*
X6590357Y-14013976D01*
X6590357Y-14013976D02*
X6580833Y-13994928D01*
X6580833Y-13994928D02*
X6571309Y-13956833D01*
X6571309Y-13956833D02*
X6571309Y-13909214D01*
X6571309Y-13909214D02*
X6580833Y-13871119D01*
X6580833Y-13871119D02*
X6590357Y-13852071D01*
X6590357Y-13852071D02*
X6599881Y-13842548D01*
X6599881Y-13842548D02*
X6618928Y-13833024D01*
X6761786Y-13852071D02*
X6771309Y-13842548D01*
X6771309Y-13842548D02*
X6790357Y-13833024D01*
X6790357Y-13833024D02*
X6837976Y-13833024D01*
X6837976Y-13833024D02*
X6857024Y-13842548D01*
X6857024Y-13842548D02*
X6866548Y-13852071D01*
X6866548Y-13852071D02*
X6876071Y-13871119D01*
X6876071Y-13871119D02*
X6876071Y-13890167D01*
X6876071Y-13890167D02*
X6866548Y-13918738D01*
X6866548Y-13918738D02*
X6752262Y-14033024D01*
X6752262Y-14033024D02*
X6876071Y-14033024D01*
X6999881Y-13833024D02*
X7018929Y-13833024D01*
X7018929Y-13833024D02*
X7037976Y-13842548D01*
X7037976Y-13842548D02*
X7047500Y-13852071D01*
X7047500Y-13852071D02*
X7057024Y-13871119D01*
X7057024Y-13871119D02*
X7066548Y-13909214D01*
X7066548Y-13909214D02*
X7066548Y-13956833D01*
X7066548Y-13956833D02*
X7057024Y-13994928D01*
X7057024Y-13994928D02*
X7047500Y-14013976D01*
X7047500Y-14013976D02*
X7037976Y-14023500D01*
X7037976Y-14023500D02*
X7018929Y-14033024D01*
X7018929Y-14033024D02*
X6999881Y-14033024D01*
X6999881Y-14033024D02*
X6980833Y-14023500D01*
X6980833Y-14023500D02*
X6971309Y-14013976D01*
X6971309Y-14013976D02*
X6961786Y-13994928D01*
X6961786Y-13994928D02*
X6952262Y-13956833D01*
X6952262Y-13956833D02*
X6952262Y-13909214D01*
X6952262Y-13909214D02*
X6961786Y-13871119D01*
X6961786Y-13871119D02*
X6971309Y-13852071D01*
X6971309Y-13852071D02*
X6980833Y-13842548D01*
X6980833Y-13842548D02*
X6999881Y-13833024D01*
X7152262Y-14033024D02*
X7152262Y-13899690D01*
X7152262Y-13918738D02*
X7161786Y-13909214D01*
X7161786Y-13909214D02*
X7180833Y-13899690D01*
X7180833Y-13899690D02*
X7209405Y-13899690D01*
X7209405Y-13899690D02*
X7228452Y-13909214D01*
X7228452Y-13909214D02*
X7237976Y-13928262D01*
X7237976Y-13928262D02*
X7237976Y-14033024D01*
X7237976Y-13928262D02*
X7247500Y-13909214D01*
X7247500Y-13909214D02*
X7266548Y-13899690D01*
X7266548Y-13899690D02*
X7295119Y-13899690D01*
X7295119Y-13899690D02*
X7314167Y-13909214D01*
X7314167Y-13909214D02*
X7323690Y-13928262D01*
X7323690Y-13928262D02*
X7323690Y-14033024D01*
X7418929Y-14033024D02*
X7418929Y-13899690D01*
X7418929Y-13918738D02*
X7428452Y-13909214D01*
X7428452Y-13909214D02*
X7447500Y-13899690D01*
X7447500Y-13899690D02*
X7476071Y-13899690D01*
X7476071Y-13899690D02*
X7495119Y-13909214D01*
X7495119Y-13909214D02*
X7504643Y-13928262D01*
X7504643Y-13928262D02*
X7504643Y-14033024D01*
X7504643Y-13928262D02*
X7514167Y-13909214D01*
X7514167Y-13909214D02*
X7533214Y-13899690D01*
X7533214Y-13899690D02*
X7561786Y-13899690D01*
X7561786Y-13899690D02*
X7580833Y-13909214D01*
X7580833Y-13909214D02*
X7590357Y-13928262D01*
X7590357Y-13928262D02*
X7590357Y-14033024D01*
X7980833Y-13823500D02*
X7809405Y-14080643D01*
X8237976Y-13833024D02*
X8257024Y-13833024D01*
X8257024Y-13833024D02*
X8276072Y-13842548D01*
X8276072Y-13842548D02*
X8285595Y-13852071D01*
X8285595Y-13852071D02*
X8295119Y-13871119D01*
X8295119Y-13871119D02*
X8304643Y-13909214D01*
X8304643Y-13909214D02*
X8304643Y-13956833D01*
X8304643Y-13956833D02*
X8295119Y-13994928D01*
X8295119Y-13994928D02*
X8285595Y-14013976D01*
X8285595Y-14013976D02*
X8276072Y-14023500D01*
X8276072Y-14023500D02*
X8257024Y-14033024D01*
X8257024Y-14033024D02*
X8237976Y-14033024D01*
X8237976Y-14033024D02*
X8218929Y-14023500D01*
X8218929Y-14023500D02*
X8209405Y-14013976D01*
X8209405Y-14013976D02*
X8199881Y-13994928D01*
X8199881Y-13994928D02*
X8190357Y-13956833D01*
X8190357Y-13956833D02*
X8190357Y-13909214D01*
X8190357Y-13909214D02*
X8199881Y-13871119D01*
X8199881Y-13871119D02*
X8209405Y-13852071D01*
X8209405Y-13852071D02*
X8218929Y-13842548D01*
X8218929Y-13842548D02*
X8237976Y-13833024D01*
X8390357Y-14013976D02*
X8399881Y-14023500D01*
X8399881Y-14023500D02*
X8390357Y-14033024D01*
X8390357Y-14033024D02*
X8380833Y-14023500D01*
X8380833Y-14023500D02*
X8390357Y-14013976D01*
X8390357Y-14013976D02*
X8390357Y-14033024D01*
X8523691Y-13833024D02*
X8542738Y-13833024D01*
X8542738Y-13833024D02*
X8561786Y-13842548D01*
X8561786Y-13842548D02*
X8571310Y-13852071D01*
X8571310Y-13852071D02*
X8580834Y-13871119D01*
X8580834Y-13871119D02*
X8590357Y-13909214D01*
X8590357Y-13909214D02*
X8590357Y-13956833D01*
X8590357Y-13956833D02*
X8580834Y-13994928D01*
X8580834Y-13994928D02*
X8571310Y-14013976D01*
X8571310Y-14013976D02*
X8561786Y-14023500D01*
X8561786Y-14023500D02*
X8542738Y-14033024D01*
X8542738Y-14033024D02*
X8523691Y-14033024D01*
X8523691Y-14033024D02*
X8504643Y-14023500D01*
X8504643Y-14023500D02*
X8495119Y-14013976D01*
X8495119Y-14013976D02*
X8485595Y-13994928D01*
X8485595Y-13994928D02*
X8476072Y-13956833D01*
X8476072Y-13956833D02*
X8476072Y-13909214D01*
X8476072Y-13909214D02*
X8485595Y-13871119D01*
X8485595Y-13871119D02*
X8495119Y-13852071D01*
X8495119Y-13852071D02*
X8504643Y-13842548D01*
X8504643Y-13842548D02*
X8523691Y-13833024D01*
X8761786Y-13899690D02*
X8761786Y-14033024D01*
X8714167Y-13823500D02*
X8666548Y-13966357D01*
X8666548Y-13966357D02*
X8790357Y-13966357D01*
X8904643Y-13833024D02*
X8923691Y-13833024D01*
X8923691Y-13833024D02*
X8942738Y-13842548D01*
X8942738Y-13842548D02*
X8952262Y-13852071D01*
X8952262Y-13852071D02*
X8961786Y-13871119D01*
X8961786Y-13871119D02*
X8971310Y-13909214D01*
X8971310Y-13909214D02*
X8971310Y-13956833D01*
X8971310Y-13956833D02*
X8961786Y-13994928D01*
X8961786Y-13994928D02*
X8952262Y-14013976D01*
X8952262Y-14013976D02*
X8942738Y-14023500D01*
X8942738Y-14023500D02*
X8923691Y-14033024D01*
X8923691Y-14033024D02*
X8904643Y-14033024D01*
X8904643Y-14033024D02*
X8885595Y-14023500D01*
X8885595Y-14023500D02*
X8876072Y-14013976D01*
X8876072Y-14013976D02*
X8866548Y-13994928D01*
X8866548Y-13994928D02*
X8857024Y-13956833D01*
X8857024Y-13956833D02*
X8857024Y-13909214D01*
X8857024Y-13909214D02*
X8866548Y-13871119D01*
X8866548Y-13871119D02*
X8876072Y-13852071D01*
X8876072Y-13852071D02*
X8885595Y-13842548D01*
X8885595Y-13842548D02*
X8904643Y-13833024D01*
X9047500Y-13852071D02*
X9057024Y-13842548D01*
X9057024Y-13842548D02*
X9076072Y-13833024D01*
X9076072Y-13833024D02*
X9123691Y-13833024D01*
X9123691Y-13833024D02*
X9142738Y-13842548D01*
X9142738Y-13842548D02*
X9152262Y-13852071D01*
X9152262Y-13852071D02*
X9161786Y-13871119D01*
X9161786Y-13871119D02*
X9161786Y-13890167D01*
X9161786Y-13890167D02*
X9152262Y-13918738D01*
X9152262Y-13918738D02*
X9037976Y-14033024D01*
X9037976Y-14033024D02*
X9161786Y-14033024D01*
X9237976Y-13833024D02*
X9237976Y-13871119D01*
X9314167Y-13833024D02*
X9314167Y-13871119D01*
X9609405Y-14109214D02*
X9599881Y-14099690D01*
X9599881Y-14099690D02*
X9580834Y-14071119D01*
X9580834Y-14071119D02*
X9571310Y-14052071D01*
X9571310Y-14052071D02*
X9561786Y-14023500D01*
X9561786Y-14023500D02*
X9552262Y-13975881D01*
X9552262Y-13975881D02*
X9552262Y-13937786D01*
X9552262Y-13937786D02*
X9561786Y-13890167D01*
X9561786Y-13890167D02*
X9571310Y-13861595D01*
X9571310Y-13861595D02*
X9580834Y-13842548D01*
X9580834Y-13842548D02*
X9599881Y-13813976D01*
X9599881Y-13813976D02*
X9609405Y-13804452D01*
X9771310Y-13899690D02*
X9771310Y-14033024D01*
X9723691Y-13823500D02*
X9676072Y-13966357D01*
X9676072Y-13966357D02*
X9799881Y-13966357D01*
X10028453Y-14033024D02*
X10028453Y-13833024D01*
X10114167Y-14033024D02*
X10114167Y-13928262D01*
X10114167Y-13928262D02*
X10104643Y-13909214D01*
X10104643Y-13909214D02*
X10085596Y-13899690D01*
X10085596Y-13899690D02*
X10057024Y-13899690D01*
X10057024Y-13899690D02*
X10037977Y-13909214D01*
X10037977Y-13909214D02*
X10028453Y-13918738D01*
X10237977Y-14033024D02*
X10218929Y-14023500D01*
X10218929Y-14023500D02*
X10209405Y-14013976D01*
X10209405Y-14013976D02*
X10199881Y-13994928D01*
X10199881Y-13994928D02*
X10199881Y-13937786D01*
X10199881Y-13937786D02*
X10209405Y-13918738D01*
X10209405Y-13918738D02*
X10218929Y-13909214D01*
X10218929Y-13909214D02*
X10237977Y-13899690D01*
X10237977Y-13899690D02*
X10266548Y-13899690D01*
X10266548Y-13899690D02*
X10285596Y-13909214D01*
X10285596Y-13909214D02*
X10295119Y-13918738D01*
X10295119Y-13918738D02*
X10304643Y-13937786D01*
X10304643Y-13937786D02*
X10304643Y-13994928D01*
X10304643Y-13994928D02*
X10295119Y-14013976D01*
X10295119Y-14013976D02*
X10285596Y-14023500D01*
X10285596Y-14023500D02*
X10266548Y-14033024D01*
X10266548Y-14033024D02*
X10237977Y-14033024D01*
X10418929Y-14033024D02*
X10399881Y-14023500D01*
X10399881Y-14023500D02*
X10390358Y-14004452D01*
X10390358Y-14004452D02*
X10390358Y-13833024D01*
X10571310Y-14023500D02*
X10552262Y-14033024D01*
X10552262Y-14033024D02*
X10514167Y-14033024D01*
X10514167Y-14033024D02*
X10495119Y-14023500D01*
X10495119Y-14023500D02*
X10485596Y-14004452D01*
X10485596Y-14004452D02*
X10485596Y-13928262D01*
X10485596Y-13928262D02*
X10495119Y-13909214D01*
X10495119Y-13909214D02*
X10514167Y-13899690D01*
X10514167Y-13899690D02*
X10552262Y-13899690D01*
X10552262Y-13899690D02*
X10571310Y-13909214D01*
X10571310Y-13909214D02*
X10580834Y-13928262D01*
X10580834Y-13928262D02*
X10580834Y-13947309D01*
X10580834Y-13947309D02*
X10485596Y-13966357D01*
X10657024Y-14023500D02*
X10676072Y-14033024D01*
X10676072Y-14033024D02*
X10714167Y-14033024D01*
X10714167Y-14033024D02*
X10733215Y-14023500D01*
X10733215Y-14023500D02*
X10742739Y-14004452D01*
X10742739Y-14004452D02*
X10742739Y-13994928D01*
X10742739Y-13994928D02*
X10733215Y-13975881D01*
X10733215Y-13975881D02*
X10714167Y-13966357D01*
X10714167Y-13966357D02*
X10685596Y-13966357D01*
X10685596Y-13966357D02*
X10666548Y-13956833D01*
X10666548Y-13956833D02*
X10657024Y-13937786D01*
X10657024Y-13937786D02*
X10657024Y-13928262D01*
X10657024Y-13928262D02*
X10666548Y-13909214D01*
X10666548Y-13909214D02*
X10685596Y-13899690D01*
X10685596Y-13899690D02*
X10714167Y-13899690D01*
X10714167Y-13899690D02*
X10733215Y-13909214D01*
X10809405Y-14109214D02*
X10818929Y-14099690D01*
X10818929Y-14099690D02*
X10837977Y-14071119D01*
X10837977Y-14071119D02*
X10847500Y-14052071D01*
X10847500Y-14052071D02*
X10857024Y-14023500D01*
X10857024Y-14023500D02*
X10866548Y-13975881D01*
X10866548Y-13975881D02*
X10866548Y-13937786D01*
X10866548Y-13937786D02*
X10857024Y-13890167D01*
X10857024Y-13890167D02*
X10847500Y-13861595D01*
X10847500Y-13861595D02*
X10837977Y-13842548D01*
X10837977Y-13842548D02*
X10818929Y-13813976D01*
X10818929Y-13813976D02*
X10809405Y-13804452D01*
D20*
X5887500Y-14124500D02*
X6047500Y-14284500D01*
X6047500Y-14124500D02*
X5887500Y-14284500D01*
X5967500Y-14284500D02*
X6047500Y-14204500D01*
X5967500Y-14124500D01*
X5887500Y-14204500D01*
X5967500Y-14284500D01*
D11*
X6399881Y-14297024D02*
X6285595Y-14297024D01*
X6342738Y-14297024D02*
X6342738Y-14097024D01*
X6342738Y-14097024D02*
X6323690Y-14125595D01*
X6323690Y-14125595D02*
X6304643Y-14144643D01*
X6304643Y-14144643D02*
X6285595Y-14154167D01*
X6485595Y-14277976D02*
X6495119Y-14287500D01*
X6495119Y-14287500D02*
X6485595Y-14297024D01*
X6485595Y-14297024D02*
X6476071Y-14287500D01*
X6476071Y-14287500D02*
X6485595Y-14277976D01*
X6485595Y-14277976D02*
X6485595Y-14297024D01*
X6666548Y-14097024D02*
X6628452Y-14097024D01*
X6628452Y-14097024D02*
X6609405Y-14106548D01*
X6609405Y-14106548D02*
X6599881Y-14116071D01*
X6599881Y-14116071D02*
X6580833Y-14144643D01*
X6580833Y-14144643D02*
X6571309Y-14182738D01*
X6571309Y-14182738D02*
X6571309Y-14258928D01*
X6571309Y-14258928D02*
X6580833Y-14277976D01*
X6580833Y-14277976D02*
X6590357Y-14287500D01*
X6590357Y-14287500D02*
X6609405Y-14297024D01*
X6609405Y-14297024D02*
X6647500Y-14297024D01*
X6647500Y-14297024D02*
X6666548Y-14287500D01*
X6666548Y-14287500D02*
X6676071Y-14277976D01*
X6676071Y-14277976D02*
X6685595Y-14258928D01*
X6685595Y-14258928D02*
X6685595Y-14211309D01*
X6685595Y-14211309D02*
X6676071Y-14192262D01*
X6676071Y-14192262D02*
X6666548Y-14182738D01*
X6666548Y-14182738D02*
X6647500Y-14173214D01*
X6647500Y-14173214D02*
X6609405Y-14173214D01*
X6609405Y-14173214D02*
X6590357Y-14182738D01*
X6590357Y-14182738D02*
X6580833Y-14192262D01*
X6580833Y-14192262D02*
X6571309Y-14211309D01*
X6809405Y-14097024D02*
X6828452Y-14097024D01*
X6828452Y-14097024D02*
X6847500Y-14106548D01*
X6847500Y-14106548D02*
X6857024Y-14116071D01*
X6857024Y-14116071D02*
X6866548Y-14135119D01*
X6866548Y-14135119D02*
X6876071Y-14173214D01*
X6876071Y-14173214D02*
X6876071Y-14220833D01*
X6876071Y-14220833D02*
X6866548Y-14258928D01*
X6866548Y-14258928D02*
X6857024Y-14277976D01*
X6857024Y-14277976D02*
X6847500Y-14287500D01*
X6847500Y-14287500D02*
X6828452Y-14297024D01*
X6828452Y-14297024D02*
X6809405Y-14297024D01*
X6809405Y-14297024D02*
X6790357Y-14287500D01*
X6790357Y-14287500D02*
X6780833Y-14277976D01*
X6780833Y-14277976D02*
X6771309Y-14258928D01*
X6771309Y-14258928D02*
X6761786Y-14220833D01*
X6761786Y-14220833D02*
X6761786Y-14173214D01*
X6761786Y-14173214D02*
X6771309Y-14135119D01*
X6771309Y-14135119D02*
X6780833Y-14116071D01*
X6780833Y-14116071D02*
X6790357Y-14106548D01*
X6790357Y-14106548D02*
X6809405Y-14097024D01*
X6999881Y-14097024D02*
X7018929Y-14097024D01*
X7018929Y-14097024D02*
X7037976Y-14106548D01*
X7037976Y-14106548D02*
X7047500Y-14116071D01*
X7047500Y-14116071D02*
X7057024Y-14135119D01*
X7057024Y-14135119D02*
X7066548Y-14173214D01*
X7066548Y-14173214D02*
X7066548Y-14220833D01*
X7066548Y-14220833D02*
X7057024Y-14258928D01*
X7057024Y-14258928D02*
X7047500Y-14277976D01*
X7047500Y-14277976D02*
X7037976Y-14287500D01*
X7037976Y-14287500D02*
X7018929Y-14297024D01*
X7018929Y-14297024D02*
X6999881Y-14297024D01*
X6999881Y-14297024D02*
X6980833Y-14287500D01*
X6980833Y-14287500D02*
X6971309Y-14277976D01*
X6971309Y-14277976D02*
X6961786Y-14258928D01*
X6961786Y-14258928D02*
X6952262Y-14220833D01*
X6952262Y-14220833D02*
X6952262Y-14173214D01*
X6952262Y-14173214D02*
X6961786Y-14135119D01*
X6961786Y-14135119D02*
X6971309Y-14116071D01*
X6971309Y-14116071D02*
X6980833Y-14106548D01*
X6980833Y-14106548D02*
X6999881Y-14097024D01*
X7152262Y-14297024D02*
X7152262Y-14163690D01*
X7152262Y-14182738D02*
X7161786Y-14173214D01*
X7161786Y-14173214D02*
X7180833Y-14163690D01*
X7180833Y-14163690D02*
X7209405Y-14163690D01*
X7209405Y-14163690D02*
X7228452Y-14173214D01*
X7228452Y-14173214D02*
X7237976Y-14192262D01*
X7237976Y-14192262D02*
X7237976Y-14297024D01*
X7237976Y-14192262D02*
X7247500Y-14173214D01*
X7247500Y-14173214D02*
X7266548Y-14163690D01*
X7266548Y-14163690D02*
X7295119Y-14163690D01*
X7295119Y-14163690D02*
X7314167Y-14173214D01*
X7314167Y-14173214D02*
X7323690Y-14192262D01*
X7323690Y-14192262D02*
X7323690Y-14297024D01*
X7418929Y-14297024D02*
X7418929Y-14163690D01*
X7418929Y-14182738D02*
X7428452Y-14173214D01*
X7428452Y-14173214D02*
X7447500Y-14163690D01*
X7447500Y-14163690D02*
X7476071Y-14163690D01*
X7476071Y-14163690D02*
X7495119Y-14173214D01*
X7495119Y-14173214D02*
X7504643Y-14192262D01*
X7504643Y-14192262D02*
X7504643Y-14297024D01*
X7504643Y-14192262D02*
X7514167Y-14173214D01*
X7514167Y-14173214D02*
X7533214Y-14163690D01*
X7533214Y-14163690D02*
X7561786Y-14163690D01*
X7561786Y-14163690D02*
X7580833Y-14173214D01*
X7580833Y-14173214D02*
X7590357Y-14192262D01*
X7590357Y-14192262D02*
X7590357Y-14297024D01*
X7980833Y-14087500D02*
X7809405Y-14344643D01*
X8237976Y-14097024D02*
X8257024Y-14097024D01*
X8257024Y-14097024D02*
X8276072Y-14106548D01*
X8276072Y-14106548D02*
X8285595Y-14116071D01*
X8285595Y-14116071D02*
X8295119Y-14135119D01*
X8295119Y-14135119D02*
X8304643Y-14173214D01*
X8304643Y-14173214D02*
X8304643Y-14220833D01*
X8304643Y-14220833D02*
X8295119Y-14258928D01*
X8295119Y-14258928D02*
X8285595Y-14277976D01*
X8285595Y-14277976D02*
X8276072Y-14287500D01*
X8276072Y-14287500D02*
X8257024Y-14297024D01*
X8257024Y-14297024D02*
X8237976Y-14297024D01*
X8237976Y-14297024D02*
X8218929Y-14287500D01*
X8218929Y-14287500D02*
X8209405Y-14277976D01*
X8209405Y-14277976D02*
X8199881Y-14258928D01*
X8199881Y-14258928D02*
X8190357Y-14220833D01*
X8190357Y-14220833D02*
X8190357Y-14173214D01*
X8190357Y-14173214D02*
X8199881Y-14135119D01*
X8199881Y-14135119D02*
X8209405Y-14116071D01*
X8209405Y-14116071D02*
X8218929Y-14106548D01*
X8218929Y-14106548D02*
X8237976Y-14097024D01*
X8390357Y-14277976D02*
X8399881Y-14287500D01*
X8399881Y-14287500D02*
X8390357Y-14297024D01*
X8390357Y-14297024D02*
X8380833Y-14287500D01*
X8380833Y-14287500D02*
X8390357Y-14277976D01*
X8390357Y-14277976D02*
X8390357Y-14297024D01*
X8523691Y-14097024D02*
X8542738Y-14097024D01*
X8542738Y-14097024D02*
X8561786Y-14106548D01*
X8561786Y-14106548D02*
X8571310Y-14116071D01*
X8571310Y-14116071D02*
X8580834Y-14135119D01*
X8580834Y-14135119D02*
X8590357Y-14173214D01*
X8590357Y-14173214D02*
X8590357Y-14220833D01*
X8590357Y-14220833D02*
X8580834Y-14258928D01*
X8580834Y-14258928D02*
X8571310Y-14277976D01*
X8571310Y-14277976D02*
X8561786Y-14287500D01*
X8561786Y-14287500D02*
X8542738Y-14297024D01*
X8542738Y-14297024D02*
X8523691Y-14297024D01*
X8523691Y-14297024D02*
X8504643Y-14287500D01*
X8504643Y-14287500D02*
X8495119Y-14277976D01*
X8495119Y-14277976D02*
X8485595Y-14258928D01*
X8485595Y-14258928D02*
X8476072Y-14220833D01*
X8476072Y-14220833D02*
X8476072Y-14173214D01*
X8476072Y-14173214D02*
X8485595Y-14135119D01*
X8485595Y-14135119D02*
X8495119Y-14116071D01*
X8495119Y-14116071D02*
X8504643Y-14106548D01*
X8504643Y-14106548D02*
X8523691Y-14097024D01*
X8761786Y-14097024D02*
X8723691Y-14097024D01*
X8723691Y-14097024D02*
X8704643Y-14106548D01*
X8704643Y-14106548D02*
X8695119Y-14116071D01*
X8695119Y-14116071D02*
X8676072Y-14144643D01*
X8676072Y-14144643D02*
X8666548Y-14182738D01*
X8666548Y-14182738D02*
X8666548Y-14258928D01*
X8666548Y-14258928D02*
X8676072Y-14277976D01*
X8676072Y-14277976D02*
X8685595Y-14287500D01*
X8685595Y-14287500D02*
X8704643Y-14297024D01*
X8704643Y-14297024D02*
X8742738Y-14297024D01*
X8742738Y-14297024D02*
X8761786Y-14287500D01*
X8761786Y-14287500D02*
X8771310Y-14277976D01*
X8771310Y-14277976D02*
X8780834Y-14258928D01*
X8780834Y-14258928D02*
X8780834Y-14211309D01*
X8780834Y-14211309D02*
X8771310Y-14192262D01*
X8771310Y-14192262D02*
X8761786Y-14182738D01*
X8761786Y-14182738D02*
X8742738Y-14173214D01*
X8742738Y-14173214D02*
X8704643Y-14173214D01*
X8704643Y-14173214D02*
X8685595Y-14182738D01*
X8685595Y-14182738D02*
X8676072Y-14192262D01*
X8676072Y-14192262D02*
X8666548Y-14211309D01*
X8847500Y-14097024D02*
X8971310Y-14097024D01*
X8971310Y-14097024D02*
X8904643Y-14173214D01*
X8904643Y-14173214D02*
X8933215Y-14173214D01*
X8933215Y-14173214D02*
X8952262Y-14182738D01*
X8952262Y-14182738D02*
X8961786Y-14192262D01*
X8961786Y-14192262D02*
X8971310Y-14211309D01*
X8971310Y-14211309D02*
X8971310Y-14258928D01*
X8971310Y-14258928D02*
X8961786Y-14277976D01*
X8961786Y-14277976D02*
X8952262Y-14287500D01*
X8952262Y-14287500D02*
X8933215Y-14297024D01*
X8933215Y-14297024D02*
X8876072Y-14297024D01*
X8876072Y-14297024D02*
X8857024Y-14287500D01*
X8857024Y-14287500D02*
X8847500Y-14277976D01*
X9095119Y-14097024D02*
X9114167Y-14097024D01*
X9114167Y-14097024D02*
X9133215Y-14106548D01*
X9133215Y-14106548D02*
X9142738Y-14116071D01*
X9142738Y-14116071D02*
X9152262Y-14135119D01*
X9152262Y-14135119D02*
X9161786Y-14173214D01*
X9161786Y-14173214D02*
X9161786Y-14220833D01*
X9161786Y-14220833D02*
X9152262Y-14258928D01*
X9152262Y-14258928D02*
X9142738Y-14277976D01*
X9142738Y-14277976D02*
X9133215Y-14287500D01*
X9133215Y-14287500D02*
X9114167Y-14297024D01*
X9114167Y-14297024D02*
X9095119Y-14297024D01*
X9095119Y-14297024D02*
X9076072Y-14287500D01*
X9076072Y-14287500D02*
X9066548Y-14277976D01*
X9066548Y-14277976D02*
X9057024Y-14258928D01*
X9057024Y-14258928D02*
X9047500Y-14220833D01*
X9047500Y-14220833D02*
X9047500Y-14173214D01*
X9047500Y-14173214D02*
X9057024Y-14135119D01*
X9057024Y-14135119D02*
X9066548Y-14116071D01*
X9066548Y-14116071D02*
X9076072Y-14106548D01*
X9076072Y-14106548D02*
X9095119Y-14097024D01*
X9237976Y-14097024D02*
X9237976Y-14135119D01*
X9314167Y-14097024D02*
X9314167Y-14135119D01*
X9609405Y-14373214D02*
X9599881Y-14363690D01*
X9599881Y-14363690D02*
X9580834Y-14335119D01*
X9580834Y-14335119D02*
X9571310Y-14316071D01*
X9571310Y-14316071D02*
X9561786Y-14287500D01*
X9561786Y-14287500D02*
X9552262Y-14239881D01*
X9552262Y-14239881D02*
X9552262Y-14201786D01*
X9552262Y-14201786D02*
X9561786Y-14154167D01*
X9561786Y-14154167D02*
X9571310Y-14125595D01*
X9571310Y-14125595D02*
X9580834Y-14106548D01*
X9580834Y-14106548D02*
X9599881Y-14077976D01*
X9599881Y-14077976D02*
X9609405Y-14068452D01*
X9790357Y-14297024D02*
X9676072Y-14297024D01*
X9733215Y-14297024D02*
X9733215Y-14097024D01*
X9733215Y-14097024D02*
X9714167Y-14125595D01*
X9714167Y-14125595D02*
X9695119Y-14144643D01*
X9695119Y-14144643D02*
X9676072Y-14154167D01*
X9914167Y-14097024D02*
X9933215Y-14097024D01*
X9933215Y-14097024D02*
X9952262Y-14106548D01*
X9952262Y-14106548D02*
X9961786Y-14116071D01*
X9961786Y-14116071D02*
X9971310Y-14135119D01*
X9971310Y-14135119D02*
X9980834Y-14173214D01*
X9980834Y-14173214D02*
X9980834Y-14220833D01*
X9980834Y-14220833D02*
X9971310Y-14258928D01*
X9971310Y-14258928D02*
X9961786Y-14277976D01*
X9961786Y-14277976D02*
X9952262Y-14287500D01*
X9952262Y-14287500D02*
X9933215Y-14297024D01*
X9933215Y-14297024D02*
X9914167Y-14297024D01*
X9914167Y-14297024D02*
X9895119Y-14287500D01*
X9895119Y-14287500D02*
X9885596Y-14277976D01*
X9885596Y-14277976D02*
X9876072Y-14258928D01*
X9876072Y-14258928D02*
X9866548Y-14220833D01*
X9866548Y-14220833D02*
X9866548Y-14173214D01*
X9866548Y-14173214D02*
X9876072Y-14135119D01*
X9876072Y-14135119D02*
X9885596Y-14116071D01*
X9885596Y-14116071D02*
X9895119Y-14106548D01*
X9895119Y-14106548D02*
X9914167Y-14097024D01*
X10218929Y-14297024D02*
X10218929Y-14097024D01*
X10304643Y-14297024D02*
X10304643Y-14192262D01*
X10304643Y-14192262D02*
X10295119Y-14173214D01*
X10295119Y-14173214D02*
X10276072Y-14163690D01*
X10276072Y-14163690D02*
X10247500Y-14163690D01*
X10247500Y-14163690D02*
X10228453Y-14173214D01*
X10228453Y-14173214D02*
X10218929Y-14182738D01*
X10428453Y-14297024D02*
X10409405Y-14287500D01*
X10409405Y-14287500D02*
X10399881Y-14277976D01*
X10399881Y-14277976D02*
X10390358Y-14258928D01*
X10390358Y-14258928D02*
X10390358Y-14201786D01*
X10390358Y-14201786D02*
X10399881Y-14182738D01*
X10399881Y-14182738D02*
X10409405Y-14173214D01*
X10409405Y-14173214D02*
X10428453Y-14163690D01*
X10428453Y-14163690D02*
X10457024Y-14163690D01*
X10457024Y-14163690D02*
X10476072Y-14173214D01*
X10476072Y-14173214D02*
X10485596Y-14182738D01*
X10485596Y-14182738D02*
X10495119Y-14201786D01*
X10495119Y-14201786D02*
X10495119Y-14258928D01*
X10495119Y-14258928D02*
X10485596Y-14277976D01*
X10485596Y-14277976D02*
X10476072Y-14287500D01*
X10476072Y-14287500D02*
X10457024Y-14297024D01*
X10457024Y-14297024D02*
X10428453Y-14297024D01*
X10609405Y-14297024D02*
X10590358Y-14287500D01*
X10590358Y-14287500D02*
X10580834Y-14268452D01*
X10580834Y-14268452D02*
X10580834Y-14097024D01*
X10761786Y-14287500D02*
X10742739Y-14297024D01*
X10742739Y-14297024D02*
X10704643Y-14297024D01*
X10704643Y-14297024D02*
X10685596Y-14287500D01*
X10685596Y-14287500D02*
X10676072Y-14268452D01*
X10676072Y-14268452D02*
X10676072Y-14192262D01*
X10676072Y-14192262D02*
X10685596Y-14173214D01*
X10685596Y-14173214D02*
X10704643Y-14163690D01*
X10704643Y-14163690D02*
X10742739Y-14163690D01*
X10742739Y-14163690D02*
X10761786Y-14173214D01*
X10761786Y-14173214D02*
X10771310Y-14192262D01*
X10771310Y-14192262D02*
X10771310Y-14211309D01*
X10771310Y-14211309D02*
X10676072Y-14230357D01*
X10847500Y-14287500D02*
X10866548Y-14297024D01*
X10866548Y-14297024D02*
X10904643Y-14297024D01*
X10904643Y-14297024D02*
X10923691Y-14287500D01*
X10923691Y-14287500D02*
X10933215Y-14268452D01*
X10933215Y-14268452D02*
X10933215Y-14258928D01*
X10933215Y-14258928D02*
X10923691Y-14239881D01*
X10923691Y-14239881D02*
X10904643Y-14230357D01*
X10904643Y-14230357D02*
X10876072Y-14230357D01*
X10876072Y-14230357D02*
X10857024Y-14220833D01*
X10857024Y-14220833D02*
X10847500Y-14201786D01*
X10847500Y-14201786D02*
X10847500Y-14192262D01*
X10847500Y-14192262D02*
X10857024Y-14173214D01*
X10857024Y-14173214D02*
X10876072Y-14163690D01*
X10876072Y-14163690D02*
X10904643Y-14163690D01*
X10904643Y-14163690D02*
X10923691Y-14173214D01*
X10999881Y-14373214D02*
X11009405Y-14363690D01*
X11009405Y-14363690D02*
X11028453Y-14335119D01*
X11028453Y-14335119D02*
X11037977Y-14316071D01*
X11037977Y-14316071D02*
X11047500Y-14287500D01*
X11047500Y-14287500D02*
X11057024Y-14239881D01*
X11057024Y-14239881D02*
X11057024Y-14201786D01*
X11057024Y-14201786D02*
X11047500Y-14154167D01*
X11047500Y-14154167D02*
X11037977Y-14125595D01*
X11037977Y-14125595D02*
X11028453Y-14106548D01*
X11028453Y-14106548D02*
X11009405Y-14077976D01*
X11009405Y-14077976D02*
X10999881Y-14068452D01*
M02*
