%TF.GenerationSoftware,KiCad,Pcbnew,7.0.2-6a45011f42~172~ubuntu20.04.1*%
%TF.CreationDate,2023-07-24T18:38:05+02:00*%
%TF.ProjectId,pongCard,706f6e67-4361-4726-942e-6b696361645f,rev?*%
%TF.SameCoordinates,Original*%
%TF.FileFunction,Paste,Top*%
%TF.FilePolarity,Positive*%
%FSLAX46Y46*%
G04 Gerber Fmt 4.6, Leading zero omitted, Abs format (unit mm)*
G04 Created by KiCad (PCBNEW 7.0.2-6a45011f42~172~ubuntu20.04.1) date 2023-07-24 18:38:05*
%MOMM*%
%LPD*%
G01*
G04 APERTURE LIST*
G04 Aperture macros list*
%AMRoundRect*
0 Rectangle with rounded corners*
0 $1 Rounding radius*
0 $2 $3 $4 $5 $6 $7 $8 $9 X,Y pos of 4 corners*
0 Add a 4 corners polygon primitive as box body*
4,1,4,$2,$3,$4,$5,$6,$7,$8,$9,$2,$3,0*
0 Add four circle primitives for the rounded corners*
1,1,$1+$1,$2,$3*
1,1,$1+$1,$4,$5*
1,1,$1+$1,$6,$7*
1,1,$1+$1,$8,$9*
0 Add four rect primitives between the rounded corners*
20,1,$1+$1,$2,$3,$4,$5,0*
20,1,$1+$1,$4,$5,$6,$7,0*
20,1,$1+$1,$6,$7,$8,$9,0*
20,1,$1+$1,$8,$9,$2,$3,0*%
%AMFreePoly0*
4,1,9,5.362500,-0.866500,1.237500,-0.866500,1.237500,-0.450000,-1.237500,-0.450000,-1.237500,0.450000,1.237500,0.450000,1.237500,0.866500,5.362500,0.866500,5.362500,-0.866500,5.362500,-0.866500,$1*%
G04 Aperture macros list end*
%ADD10RoundRect,0.249999X0.412501X0.650001X-0.412501X0.650001X-0.412501X-0.650001X0.412501X-0.650001X0*%
%ADD11RoundRect,0.237500X0.300000X0.237500X-0.300000X0.237500X-0.300000X-0.237500X0.300000X-0.237500X0*%
%ADD12R,0.400000X1.350000*%
%ADD13R,1.500000X1.900000*%
%ADD14RoundRect,0.237500X-0.250000X-0.237500X0.250000X-0.237500X0.250000X0.237500X-0.250000X0.237500X0*%
%ADD15R,2.300000X0.900000*%
%ADD16FreePoly0,0.000000*%
%ADD17RoundRect,0.237500X0.250000X0.237500X-0.250000X0.237500X-0.250000X-0.237500X0.250000X-0.237500X0*%
%ADD18RoundRect,0.250000X-0.412500X-0.650000X0.412500X-0.650000X0.412500X0.650000X-0.412500X0.650000X0*%
%ADD19R,0.700000X1.500000*%
%ADD20R,1.000000X0.800000*%
%ADD21RoundRect,0.225000X-0.375000X0.225000X-0.375000X-0.225000X0.375000X-0.225000X0.375000X0.225000X0*%
%ADD22RoundRect,0.237500X0.237500X-0.300000X0.237500X0.300000X-0.237500X0.300000X-0.237500X-0.300000X0*%
%ADD23RoundRect,0.237500X-0.300000X-0.237500X0.300000X-0.237500X0.300000X0.237500X-0.300000X0.237500X0*%
%ADD24RoundRect,0.250001X-1.074999X0.462499X-1.074999X-0.462499X1.074999X-0.462499X1.074999X0.462499X0*%
G04 APERTURE END LIST*
D10*
X83439000Y-70406000D03*
X80314000Y-70406000D03*
D11*
X82015500Y-68374000D03*
X80290500Y-68374000D03*
D12*
X89097000Y-65580000D03*
X88447000Y-65580000D03*
X87797000Y-65580000D03*
X87147000Y-65580000D03*
X86497000Y-65580000D03*
D13*
X88797000Y-62880000D03*
X86797000Y-62880000D03*
D14*
X90527500Y-69390000D03*
X92352500Y-69390000D03*
X90527500Y-71295000D03*
X92352500Y-71295000D03*
D15*
X80735000Y-72716000D03*
D16*
X80822500Y-74216000D03*
D15*
X80735000Y-75716000D03*
X78703000Y-79828000D03*
D16*
X78790500Y-81328000D03*
D15*
X78703000Y-82828000D03*
D17*
X115339500Y-77264000D03*
X113514500Y-77264000D03*
D18*
X74764500Y-69136000D03*
X77889500Y-69136000D03*
D19*
X81719000Y-65138000D03*
X78719000Y-65138000D03*
X77219000Y-65138000D03*
D20*
X83119000Y-64488000D03*
X83119000Y-62278000D03*
X75819000Y-64488000D03*
X75819000Y-62278000D03*
D21*
X85725000Y-81328000D03*
X85725000Y-84628000D03*
D18*
X101396000Y-90218000D03*
X104521000Y-90218000D03*
D22*
X120269000Y-63902500D03*
X120269000Y-62177500D03*
D23*
X102034000Y-88186000D03*
X103759000Y-88186000D03*
D17*
X92376000Y-73200000D03*
X90551000Y-73200000D03*
D24*
X75057000Y-79586500D03*
X75057000Y-82561500D03*
D23*
X121084000Y-65580000D03*
X122809000Y-65580000D03*
D14*
X115951000Y-71422000D03*
X117776000Y-71422000D03*
D23*
X74702500Y-71422000D03*
X76427500Y-71422000D03*
D17*
X115085500Y-81328000D03*
X113260500Y-81328000D03*
D23*
X117628500Y-65580000D03*
X119353500Y-65580000D03*
M02*
