M48
; DRILL file {KiCad 7.0.2-6a45011f42~172~ubuntu20.04.1} date Mo 24 Jul 2023 18:38:09 CEST
; FORMAT={-:-/ absolute / metric / decimal}
; #@! TF.CreationDate,2023-07-24T18:38:09+02:00
; #@! TF.GenerationSoftware,Kicad,Pcbnew,7.0.2-6a45011f42~172~ubuntu20.04.1
; #@! TF.FileFunction,Plated,1,2,PTH
FMAT,2
METRIC
; #@! TA.AperFunction,Plated,PTH,ViaDrill
T1C0.400
; #@! TA.AperFunction,Plated,PTH,ComponentDrill
T2C0.600
; #@! TA.AperFunction,Plated,PTH,ComponentDrill
T3C0.650
; #@! TA.AperFunction,Plated,PTH,ComponentDrill
T4C0.800
; #@! TA.AperFunction,Plated,PTH,ComponentDrill
T5C0.850
; #@! TA.AperFunction,Plated,PTH,ComponentDrill
T6C1.000
; #@! TA.AperFunction,Plated,PTH,ComponentDrill
T7C1.016
; #@! TA.AperFunction,Plated,PTH,ComponentDrill
T8C1.020
; #@! TA.AperFunction,Plated,PTH,ComponentDrill
T9C1.600
%
G90
G05
T1
X61.087Y-87.424
X62.103Y-62.024
X62.103Y-112.824
X71.501Y-111.3
X72.263Y-107.998
X73.025Y-72.946
X73.025Y-78.026
X73.279Y-68.12
X74.295Y-63.04
X75.565Y-61.008
X76.327Y-69.136
X76.327Y-77.772
X76.581Y-72.946
X76.835Y-63.294
X76.835Y-110.284
X77.851Y-71.168
X79.375Y-63.294
X79.375Y-86.154
X80.391Y-65.58
X81.915Y-86.154
X83.185Y-63.294
X83.185Y-65.58
X84.455Y-86.154
X87.757Y-64.056
X88.011Y-87.424
X88.011Y-90.98
X88.011Y-94.536
X91.567Y-87.424
X91.567Y-90.98
X91.567Y-94.536
X92.329Y-64.31
X105.791Y-87.678
X105.791Y-90.472
X105.791Y-94.536
X111.633Y-85.392
X115.438Y-72.454
X115.443Y-69.39
X115.443Y-85.392
X118.745Y-69.39
X118.745Y-72.438
X118.745Y-74.216
X118.745Y-76.756
X120.777Y-61.262
X124.841Y-66.088
X124.841Y-68.374
X124.841Y-71.676
X124.841Y-74.216
X126.873Y-110.284
X137.287Y-72.184
X137.287Y-74.216
X137.287Y-76.756
X137.287Y-103.934
X140.335Y-72.184
X140.335Y-76.756
X140.335Y-103.934
X141.859Y-62.024
X141.859Y-112.824
X142.621Y-87.424
T3
X95.885Y-69.39
X95.885Y-71.39
X95.885Y-73.39
X95.885Y-75.39
X95.885Y-77.39
X95.885Y-79.39
X95.885Y-81.39
X95.885Y-83.39
X97.875Y-84.39
X99.875Y-84.39
X101.875Y-84.39
X103.875Y-84.39
X105.875Y-84.39
X107.875Y-84.39
X109.885Y-69.39
X109.885Y-71.39
X109.885Y-73.39
X109.885Y-75.39
X109.885Y-77.39
X109.885Y-79.39
X109.885Y-81.39
X109.885Y-83.39
T4
X65.485Y-67.322
X65.485Y-107.322
X67.985Y-67.322
X67.985Y-107.322
X136.097Y-67.318
X136.097Y-107.318
X138.597Y-67.318
X138.597Y-107.318
T5
X85.297Y-65.58
X90.297Y-65.58
T6
X121.793Y-78.534
X121.793Y-81.074
X121.793Y-83.614
X121.793Y-86.154
X124.333Y-78.534
X124.333Y-81.074
X124.333Y-83.614
X124.333Y-86.154
X126.873Y-78.534
X126.873Y-81.074
X126.873Y-83.614
X126.873Y-86.154
X129.413Y-78.534
X129.413Y-81.074
X129.413Y-83.614
X129.413Y-86.154
T7
X78.105Y-88.44
X78.105Y-90.98
X80.645Y-88.44
X80.645Y-90.98
X83.185Y-88.44
X83.185Y-90.98
X85.725Y-88.44
X85.725Y-90.98
T8
X73.787Y-65.072
X73.787Y-110.572
X129.921Y-65.072
X129.921Y-110.572
T9
X62.985Y-65.072
X62.985Y-109.822
X66.735Y-65.097
X70.485Y-65.072
X70.485Y-109.572
X133.597Y-65.068
X133.597Y-109.568
X137.347Y-109.543
X141.097Y-64.818
X141.097Y-109.568
T2
X84.297Y-63.23G85X84.297Y-62.53
G05
X91.297Y-62.53G85X91.297Y-63.23
G05
T0
M30
