%TF.GenerationSoftware,KiCad,Pcbnew,7.0.2-6a45011f42~172~ubuntu20.04.1*%
%TF.CreationDate,2023-07-24T18:38:05+02:00*%
%TF.ProjectId,pongCard,706f6e67-4361-4726-942e-6b696361645f,rev?*%
%TF.SameCoordinates,Original*%
%TF.FileFunction,Copper,L2,Bot*%
%TF.FilePolarity,Positive*%
%FSLAX46Y46*%
G04 Gerber Fmt 4.6, Leading zero omitted, Abs format (unit mm)*
G04 Created by KiCad (PCBNEW 7.0.2-6a45011f42~172~ubuntu20.04.1) date 2023-07-24 18:38:05*
%MOMM*%
%LPD*%
G01*
G04 APERTURE LIST*
G04 Aperture macros list*
%AMFreePoly0*
4,1,19,0.500000,-0.750000,0.000000,-0.750000,0.000000,-0.744911,-0.071157,-0.744911,-0.207708,-0.704816,-0.327430,-0.627875,-0.420627,-0.520320,-0.479746,-0.390866,-0.500000,-0.250000,-0.500000,0.250000,-0.479746,0.390866,-0.420627,0.520320,-0.327430,0.627875,-0.207708,0.704816,-0.071157,0.744911,0.000000,0.744911,0.000000,0.750000,0.500000,0.750000,0.500000,-0.750000,0.500000,-0.750000,
$1*%
%AMFreePoly1*
4,1,19,0.000000,0.744911,0.071157,0.744911,0.207708,0.704816,0.327430,0.627875,0.420627,0.520320,0.479746,0.390866,0.500000,0.250000,0.500000,-0.250000,0.479746,-0.390866,0.420627,-0.520320,0.327430,-0.627875,0.207708,-0.704816,0.071157,-0.744911,0.000000,-0.744911,0.000000,-0.750000,-0.500000,-0.750000,-0.500000,0.750000,0.000000,0.750000,0.000000,0.744911,0.000000,0.744911,
$1*%
G04 Aperture macros list end*
%TA.AperFunction,ComponentPad*%
%ADD10O,1.200000X1.900000*%
%TD*%
%TA.AperFunction,ComponentPad*%
%ADD11C,1.450000*%
%TD*%
%TA.AperFunction,ComponentPad*%
%ADD12R,2.500000X1.100000*%
%TD*%
%TA.AperFunction,ComponentPad*%
%ADD13O,2.500000X1.100000*%
%TD*%
%TA.AperFunction,ComponentPad*%
%ADD14O,1.100000X2.500000*%
%TD*%
%TA.AperFunction,ComponentPad*%
%ADD15C,1.700000*%
%TD*%
%TA.AperFunction,ComponentPad*%
%ADD16O,1.700000X1.700000*%
%TD*%
%TA.AperFunction,ComponentPad*%
%ADD17R,1.727200X1.727200*%
%TD*%
%TA.AperFunction,ComponentPad*%
%ADD18O,1.727200X1.727200*%
%TD*%
%TA.AperFunction,ComponentPad*%
%ADD19C,2.000000*%
%TD*%
%TA.AperFunction,ComponentPad*%
%ADD20C,1.600000*%
%TD*%
%TA.AperFunction,ComponentPad*%
%ADD21R,2.000000X2.000000*%
%TD*%
%TA.AperFunction,SMDPad,CuDef*%
%ADD22FreePoly0,270.000000*%
%TD*%
%TA.AperFunction,SMDPad,CuDef*%
%ADD23FreePoly1,270.000000*%
%TD*%
%TA.AperFunction,SMDPad,CuDef*%
%ADD24FreePoly0,90.000000*%
%TD*%
%TA.AperFunction,SMDPad,CuDef*%
%ADD25FreePoly1,90.000000*%
%TD*%
%TA.AperFunction,SMDPad,CuDef*%
%ADD26FreePoly0,180.000000*%
%TD*%
%TA.AperFunction,SMDPad,CuDef*%
%ADD27FreePoly1,180.000000*%
%TD*%
%TA.AperFunction,SMDPad,CuDef*%
%ADD28FreePoly0,0.000000*%
%TD*%
%TA.AperFunction,SMDPad,CuDef*%
%ADD29FreePoly1,0.000000*%
%TD*%
%TA.AperFunction,ViaPad*%
%ADD30C,0.800000*%
%TD*%
%TA.AperFunction,Conductor*%
%ADD31C,0.250000*%
%TD*%
%TA.AperFunction,Conductor*%
%ADD32C,0.500000*%
%TD*%
G04 APERTURE END LIST*
D10*
X91297000Y-62880000D03*
D11*
X90297000Y-65580000D03*
X85297000Y-65580000D03*
D10*
X84297000Y-62880000D03*
D12*
X95185000Y-69390000D03*
D13*
X95185000Y-71390000D03*
X95185000Y-73390000D03*
X95185000Y-75390000D03*
X95185000Y-77390000D03*
X95185000Y-79390000D03*
X95185000Y-81390000D03*
X95185000Y-83390000D03*
X110585000Y-83390000D03*
X110485000Y-81390000D03*
X110585000Y-79390000D03*
X110585000Y-77390000D03*
X110585000Y-75390000D03*
X110585000Y-73390000D03*
X110585000Y-71390000D03*
X110585000Y-69390000D03*
D14*
X97875000Y-85090000D03*
X99875000Y-85090000D03*
X101875000Y-85090000D03*
X103875000Y-85090000D03*
X105875000Y-85090000D03*
X107875000Y-85090000D03*
D15*
X129413000Y-83614000D03*
D16*
X129413000Y-86154000D03*
X126873000Y-83614000D03*
X126873000Y-86154000D03*
X124333000Y-83614000D03*
X124333000Y-86154000D03*
X121793000Y-83614000D03*
X121793000Y-86154000D03*
D17*
X85725000Y-88440000D03*
D18*
X85725000Y-90980000D03*
X83185000Y-88440000D03*
X83185000Y-90980000D03*
X80645000Y-88440000D03*
X80645000Y-90980000D03*
X78105000Y-88440000D03*
X78105000Y-90980000D03*
D15*
X121793000Y-81074000D03*
D16*
X121793000Y-78534000D03*
X124333000Y-81074000D03*
X124333000Y-78534000D03*
X126873000Y-81074000D03*
X126873000Y-78534000D03*
X129413000Y-81074000D03*
X129413000Y-78534000D03*
D19*
X62985000Y-65072000D03*
D20*
X65485000Y-67322000D03*
D19*
X66735000Y-65097000D03*
D20*
X65485000Y-107322000D03*
D19*
X62985000Y-109822000D03*
D20*
X67985000Y-107322000D03*
D19*
X70485000Y-109572000D03*
D20*
X67985000Y-67322000D03*
D19*
X70485000Y-65072000D03*
X141097000Y-109568000D03*
D20*
X138597000Y-107318000D03*
D19*
X137347000Y-109543000D03*
D20*
X138597000Y-67318000D03*
D19*
X141097000Y-64818000D03*
D20*
X136097000Y-67318000D03*
D19*
X133597000Y-65068000D03*
D20*
X136097000Y-107318000D03*
D19*
X133597000Y-109568000D03*
D21*
X73787000Y-65072000D03*
D19*
X73787000Y-110572000D03*
D22*
X63119000Y-67470000D03*
D23*
X63119000Y-68770000D03*
D24*
X140843000Y-107378000D03*
D25*
X140843000Y-106078000D03*
D21*
X129921000Y-110572000D03*
D19*
X129921000Y-65072000D03*
D26*
X66309000Y-109776000D03*
D27*
X65009000Y-109776000D03*
D28*
X137907000Y-64818000D03*
D29*
X139207000Y-64818000D03*
D30*
X140335000Y-76756000D03*
X140335000Y-72184000D03*
X76835000Y-63294000D03*
X76327000Y-77772000D03*
X71501000Y-111300000D03*
X118745000Y-74216000D03*
X140335000Y-103934000D03*
X73025000Y-72946000D03*
X88011000Y-87424000D03*
X72263000Y-107998000D03*
X91567000Y-90980000D03*
X115437695Y-72454007D03*
X74295000Y-63040000D03*
X92329000Y-64310000D03*
X79375000Y-86154000D03*
X126873000Y-110284000D03*
X81915000Y-86154000D03*
X124841000Y-71676000D03*
X124841000Y-68374000D03*
X88011000Y-90980000D03*
X84455000Y-86154000D03*
X80391000Y-65580000D03*
X137287000Y-76756000D03*
X76327000Y-69136000D03*
X76835000Y-110284000D03*
X118745000Y-69390000D03*
X115443000Y-85392000D03*
X87757000Y-64056000D03*
X83185000Y-65580000D03*
X105791000Y-90472000D03*
X73279000Y-68120000D03*
X77851000Y-71168000D03*
X73025000Y-78026000D03*
X118745000Y-76756000D03*
X124841000Y-66088000D03*
X91567000Y-87424000D03*
X91567000Y-94536000D03*
X137287000Y-74216000D03*
X124841000Y-74216000D03*
X111633000Y-85392000D03*
X115443000Y-69390000D03*
X137287000Y-72184000D03*
X88011000Y-94536000D03*
X118745000Y-72438000D03*
X137287000Y-103934000D03*
X105791000Y-94536000D03*
X105791000Y-87678000D03*
X83185000Y-63294000D03*
X76581000Y-72946000D03*
X79375000Y-63294000D03*
X141859000Y-62024000D03*
X141859000Y-112824000D03*
X61087000Y-87424000D03*
X62103000Y-62024000D03*
X120777000Y-61262000D03*
X75565000Y-61008000D03*
X62103000Y-112824000D03*
X142621000Y-87424000D03*
D31*
X126873000Y-83614000D02*
X129413000Y-83614000D01*
X121793000Y-83614000D02*
X124333000Y-83614000D01*
X124333000Y-83614000D02*
X126873000Y-83614000D01*
D32*
X95885000Y-83390000D02*
X95885000Y-88694000D01*
D31*
X120269000Y-84630000D02*
X121793000Y-86154000D01*
X78105000Y-88440000D02*
X79293600Y-89628600D01*
X120269000Y-71422000D02*
X120269000Y-84630000D01*
D32*
X95885000Y-88694000D02*
X95123000Y-89456000D01*
D31*
X87330400Y-89628600D02*
X87503000Y-89456000D01*
X108585000Y-71452563D02*
X109522563Y-70515000D01*
X119362000Y-70515000D02*
X120269000Y-71422000D01*
D32*
X106651396Y-83390000D02*
X106681396Y-83360000D01*
X95123000Y-89456000D02*
X87503000Y-89456000D01*
D31*
X79293600Y-89628600D02*
X87330400Y-89628600D01*
X106681396Y-83360000D02*
X108585000Y-81456396D01*
X126873000Y-86154000D02*
X124333000Y-86154000D01*
X109522563Y-70515000D02*
X119362000Y-70515000D01*
D32*
X95885000Y-83390000D02*
X106651396Y-83390000D01*
D31*
X129413000Y-86154000D02*
X126873000Y-86154000D01*
X124333000Y-86154000D02*
X121793000Y-86154000D01*
X108585000Y-81456396D02*
X108585000Y-71452563D01*
X83185000Y-74978000D02*
X84455000Y-73708000D01*
X83185000Y-88440000D02*
X83185000Y-74978000D01*
X84455000Y-73708000D02*
X95567000Y-73708000D01*
X95567000Y-73708000D02*
X95885000Y-73390000D01*
X137907000Y-64818000D02*
X137907000Y-66628000D01*
X137907000Y-66628000D02*
X138597000Y-67318000D01*
X80645000Y-90980000D02*
X82283600Y-92618600D01*
X112521000Y-77390000D02*
X109885000Y-77390000D01*
X111010400Y-92618600D02*
X113665000Y-89964000D01*
X113665000Y-89964000D02*
X113665000Y-78534000D01*
X82283600Y-92618600D02*
X111010400Y-92618600D01*
X113665000Y-78534000D02*
X112521000Y-77390000D01*
X80645000Y-70660000D02*
X81915000Y-69390000D01*
X80645000Y-88440000D02*
X80645000Y-70660000D01*
X81915000Y-69390000D02*
X95885000Y-69390000D01*
X139207000Y-64818000D02*
X141097000Y-64818000D01*
X65485000Y-107322000D02*
X66309000Y-108146000D01*
X66309000Y-108146000D02*
X66309000Y-109776000D01*
X94372563Y-82265000D02*
X107140000Y-82265000D01*
X107140000Y-82265000D02*
X108077000Y-81328000D01*
X92075000Y-88440000D02*
X93091000Y-87424000D01*
X85725000Y-88440000D02*
X92075000Y-88440000D01*
X108077000Y-81328000D02*
X108077000Y-71198000D01*
X108077000Y-71198000D02*
X109885000Y-69390000D01*
X93091000Y-83546563D02*
X94372563Y-82265000D01*
X93091000Y-87424000D02*
X93091000Y-83546563D01*
X84373600Y-92168600D02*
X110698400Y-92168600D01*
X113157000Y-89710000D02*
X113157000Y-80820000D01*
X111727000Y-79390000D02*
X109885000Y-79390000D01*
X110698400Y-92168600D02*
X113157000Y-89710000D01*
X113157000Y-80820000D02*
X111727000Y-79390000D01*
X83185000Y-90980000D02*
X84373600Y-92168600D01*
X129413000Y-78534000D02*
X127185000Y-76306000D01*
X127185000Y-76306000D02*
X124908604Y-76306000D01*
X123259000Y-74656396D02*
X123259000Y-69200812D01*
X103659000Y-75390000D02*
X95885000Y-75390000D01*
X107517812Y-66770000D02*
X105595000Y-68692812D01*
X120828188Y-66770000D02*
X107517812Y-66770000D01*
X105595000Y-68692812D02*
X105595000Y-73454000D01*
X105595000Y-73454000D02*
X103659000Y-75390000D01*
X123259000Y-69200812D02*
X120828188Y-66770000D01*
X124908604Y-76306000D02*
X123259000Y-74656396D01*
X122809000Y-69387208D02*
X120641792Y-67220000D01*
X126500208Y-78534000D02*
X126873000Y-78534000D01*
X120641792Y-67220000D02*
X107704208Y-67220000D01*
X106045000Y-68879208D02*
X106045000Y-75994000D01*
X106045000Y-75994000D02*
X104649000Y-77390000D01*
X107704208Y-67220000D02*
X106045000Y-68879208D01*
X104649000Y-77390000D02*
X95885000Y-77390000D01*
X122809000Y-74842792D02*
X126500208Y-78534000D01*
X122809000Y-69387208D02*
X122809000Y-74842792D01*
X107890604Y-67670000D02*
X106553000Y-69007604D01*
X122301000Y-69515604D02*
X122301000Y-76502000D01*
X120455396Y-67670000D02*
X107890604Y-67670000D01*
X122301000Y-69515604D02*
X120455396Y-67670000D01*
X106553000Y-78280000D02*
X105443000Y-79390000D01*
X105443000Y-79390000D02*
X95885000Y-79390000D01*
X122301000Y-76502000D02*
X124333000Y-78534000D01*
X106553000Y-69007604D02*
X106553000Y-78280000D01*
X108077000Y-68120000D02*
X107061000Y-69136000D01*
X121793000Y-78534000D02*
X121793000Y-69644000D01*
X106299000Y-81582000D02*
X96077000Y-81582000D01*
X96077000Y-81582000D02*
X95885000Y-81390000D01*
X107061000Y-80820000D02*
X106299000Y-81582000D01*
X120269000Y-68120000D02*
X108077000Y-68120000D01*
X121793000Y-69644000D02*
X120269000Y-68120000D01*
X107061000Y-69136000D02*
X107061000Y-80820000D01*
X78105000Y-90980000D02*
X80193600Y-93068600D01*
X114173000Y-90092396D02*
X114173000Y-72438000D01*
X113125000Y-71390000D02*
X109885000Y-71390000D01*
X111196796Y-93068600D02*
X114173000Y-90092396D01*
X80193600Y-93068600D02*
X111196796Y-93068600D01*
X114173000Y-72438000D02*
X113125000Y-71390000D01*
X62985000Y-109822000D02*
X64963000Y-109822000D01*
X64963000Y-109822000D02*
X65009000Y-109776000D01*
X137347000Y-109543000D02*
X138678000Y-109543000D01*
X138678000Y-109543000D02*
X140843000Y-107378000D01*
X133985000Y-67104000D02*
X138537000Y-71656000D01*
X139157000Y-106078000D02*
X138537000Y-105458000D01*
X96901000Y-67104000D02*
X70485000Y-67104000D01*
X95885000Y-71390000D02*
X96425000Y-71390000D01*
X96425000Y-71390000D02*
X97663000Y-70152000D01*
X138537000Y-105458000D02*
X138537000Y-107358000D01*
X98425000Y-67104000D02*
X106547416Y-67104000D01*
X97663000Y-67866000D02*
X98425000Y-67104000D01*
X67183000Y-69136000D02*
X67117000Y-69136000D01*
X97663000Y-70152000D02*
X97663000Y-68120000D01*
X121263000Y-66320000D02*
X122047000Y-67104000D01*
X63119000Y-68770000D02*
X63485000Y-69136000D01*
X63485000Y-69136000D02*
X67183000Y-69136000D01*
X97663000Y-68120000D02*
X97663000Y-67866000D01*
X138537000Y-71656000D02*
X138537000Y-105458000D01*
X140843000Y-106078000D02*
X139157000Y-106078000D01*
X70485000Y-67104000D02*
X68453000Y-69136000D01*
X106547416Y-67104000D02*
X107331416Y-66320000D01*
X107331416Y-66320000D02*
X121263000Y-66320000D01*
X97663000Y-67866000D02*
X96901000Y-67104000D01*
X122047000Y-67104000D02*
X133985000Y-67104000D01*
X68453000Y-69136000D02*
X67183000Y-69136000D01*
X67117000Y-69136000D02*
X65405000Y-67424000D01*
X66735000Y-65097000D02*
X65492000Y-65097000D01*
X65492000Y-65097000D02*
X63119000Y-67470000D01*
%TA.AperFunction,Conductor*%
G36*
X76016039Y-60545185D02*
G01*
X76061794Y-60597989D01*
X76073000Y-60649500D01*
X76073000Y-61138000D01*
X76053315Y-61205039D01*
X76000511Y-61250794D01*
X75949000Y-61262000D01*
X63118999Y-61262000D01*
X61341000Y-63039998D01*
X61340999Y-63040000D01*
X61087000Y-111553998D01*
X61087000Y-111554000D01*
X63119000Y-113586000D01*
X140843000Y-113586000D01*
X142621000Y-111808000D01*
X142621000Y-63294000D01*
X140589000Y-61262000D01*
X121792999Y-61262000D01*
X121031000Y-62023999D01*
X121031000Y-62916000D01*
X121011315Y-62983039D01*
X120958511Y-63028794D01*
X120907000Y-63040000D01*
X119631000Y-63040000D01*
X119563961Y-63020315D01*
X119518206Y-62967511D01*
X119507000Y-62916000D01*
X119507000Y-61567362D01*
X119526685Y-61500323D01*
X119543319Y-61479681D01*
X120461181Y-60561819D01*
X120522504Y-60528334D01*
X120548862Y-60525500D01*
X140491715Y-60525500D01*
X140496754Y-60525500D01*
X140503244Y-60525670D01*
X140804433Y-60541455D01*
X140817340Y-60542812D01*
X140876810Y-60552231D01*
X141112022Y-60589484D01*
X141124690Y-60592176D01*
X141412901Y-60669402D01*
X141425228Y-60673407D01*
X141703781Y-60780334D01*
X141715617Y-60785603D01*
X141981477Y-60921065D01*
X141992683Y-60927535D01*
X142242923Y-61090044D01*
X142253414Y-61097666D01*
X142485282Y-61285429D01*
X142494927Y-61294114D01*
X142705885Y-61505072D01*
X142714570Y-61514717D01*
X142902333Y-61746585D01*
X142909958Y-61757079D01*
X143072460Y-62007310D01*
X143078937Y-62018529D01*
X143136499Y-62131500D01*
X143214391Y-62284372D01*
X143219670Y-62296229D01*
X143326589Y-62574762D01*
X143330599Y-62587104D01*
X143378775Y-62766900D01*
X143383000Y-62798991D01*
X143383000Y-112201007D01*
X143378775Y-112233100D01*
X143330600Y-112412892D01*
X143326589Y-112425237D01*
X143219670Y-112703770D01*
X143214391Y-112715627D01*
X143078941Y-112981464D01*
X143072455Y-112992697D01*
X142970258Y-113150067D01*
X142909962Y-113242914D01*
X142902333Y-113253414D01*
X142714570Y-113485282D01*
X142705885Y-113494927D01*
X142494927Y-113705885D01*
X142485282Y-113714570D01*
X142253414Y-113902333D01*
X142242914Y-113909962D01*
X141992697Y-114072455D01*
X141981464Y-114078941D01*
X141715627Y-114214391D01*
X141703770Y-114219670D01*
X141425239Y-114326588D01*
X141412896Y-114330598D01*
X141363725Y-114343774D01*
X141331630Y-114348000D01*
X62668370Y-114348000D01*
X62636276Y-114343775D01*
X62636272Y-114343774D01*
X62624702Y-114340673D01*
X62587104Y-114330599D01*
X62574760Y-114326588D01*
X62296229Y-114219670D01*
X62284372Y-114214391D01*
X62255029Y-114199440D01*
X62018529Y-114078937D01*
X62007310Y-114072460D01*
X61757079Y-113909958D01*
X61746585Y-113902333D01*
X61514717Y-113714570D01*
X61505072Y-113705885D01*
X61294114Y-113494927D01*
X61285429Y-113485282D01*
X61097666Y-113253414D01*
X61090044Y-113242923D01*
X60927535Y-112992683D01*
X60921065Y-112981477D01*
X60785603Y-112715617D01*
X60780334Y-112703781D01*
X60673407Y-112425228D01*
X60669402Y-112412901D01*
X60592176Y-112124690D01*
X60589487Y-112112037D01*
X60580524Y-112055449D01*
X60579000Y-112036073D01*
X60579000Y-62963924D01*
X60580524Y-62944552D01*
X60589487Y-62887958D01*
X60592175Y-62875312D01*
X60669403Y-62587092D01*
X60673404Y-62574777D01*
X60780336Y-62296211D01*
X60785600Y-62284389D01*
X60921069Y-62018514D01*
X60927530Y-62007324D01*
X61090050Y-61757066D01*
X61097659Y-61746594D01*
X61285437Y-61514707D01*
X61294104Y-61505082D01*
X61505082Y-61294104D01*
X61514707Y-61285437D01*
X61746594Y-61097659D01*
X61757066Y-61090050D01*
X62007324Y-60927530D01*
X62018514Y-60921069D01*
X62284389Y-60785600D01*
X62296211Y-60780336D01*
X62574777Y-60673404D01*
X62587092Y-60669403D01*
X62875312Y-60592175D01*
X62887973Y-60589485D01*
X63182658Y-60542812D01*
X63195564Y-60541455D01*
X63496756Y-60525669D01*
X63503246Y-60525500D01*
X63508285Y-60525500D01*
X75949000Y-60525500D01*
X76016039Y-60545185D01*
G37*
%TD.AperFunction*%
%TA.AperFunction,Conductor*%
G36*
X93859362Y-67757502D02*
G01*
X93889630Y-67784788D01*
X94163230Y-68126788D01*
X94190166Y-68192477D01*
X94177312Y-68262300D01*
X94128749Y-68314090D01*
X94064841Y-68331500D01*
X93886362Y-68331500D01*
X93883013Y-68331859D01*
X93883013Y-68331860D01*
X93825799Y-68338011D01*
X93688794Y-68389111D01*
X93571738Y-68476738D01*
X93484111Y-68593794D01*
X93453998Y-68674532D01*
X93411451Y-68731368D01*
X93344931Y-68756179D01*
X93335942Y-68756500D01*
X81998853Y-68756500D01*
X81978064Y-68754204D01*
X81907014Y-68756438D01*
X81903055Y-68756500D01*
X81875144Y-68756500D01*
X81871218Y-68756995D01*
X81871200Y-68756997D01*
X81871108Y-68757009D01*
X81859303Y-68757937D01*
X81815110Y-68759326D01*
X81795657Y-68764978D01*
X81776303Y-68768986D01*
X81756204Y-68771525D01*
X81715096Y-68787801D01*
X81703870Y-68791644D01*
X81661408Y-68803981D01*
X81643964Y-68814297D01*
X81626215Y-68822991D01*
X81607384Y-68830446D01*
X81571625Y-68856427D01*
X81561706Y-68862943D01*
X81523636Y-68885457D01*
X81509309Y-68899785D01*
X81494279Y-68912622D01*
X81477894Y-68924526D01*
X81449711Y-68958593D01*
X81441723Y-68967370D01*
X80256336Y-70152757D01*
X80240016Y-70165833D01*
X80191370Y-70217635D01*
X80188621Y-70220472D01*
X80171667Y-70237427D01*
X80171660Y-70237434D01*
X80168865Y-70240230D01*
X80166442Y-70243352D01*
X80166426Y-70243371D01*
X80166365Y-70243451D01*
X80158689Y-70252436D01*
X80128414Y-70284677D01*
X80118652Y-70302434D01*
X80107801Y-70318952D01*
X80095385Y-70334959D01*
X80077824Y-70375539D01*
X80072604Y-70386195D01*
X80051304Y-70424940D01*
X80046267Y-70444559D01*
X80039864Y-70463261D01*
X80031818Y-70481855D01*
X80024901Y-70525524D01*
X80022495Y-70537144D01*
X80011500Y-70579969D01*
X80011500Y-70600223D01*
X80009949Y-70619933D01*
X80006779Y-70639942D01*
X80010941Y-70683961D01*
X80011500Y-70695819D01*
X80011500Y-87147616D01*
X79991498Y-87215737D01*
X79945471Y-87258429D01*
X79891959Y-87287389D01*
X79712515Y-87427054D01*
X79558510Y-87594349D01*
X79480483Y-87713779D01*
X79426479Y-87759868D01*
X79356131Y-87769443D01*
X79291774Y-87739466D01*
X79269517Y-87713779D01*
X79191489Y-87594349D01*
X79037484Y-87427054D01*
X78858039Y-87287387D01*
X78658056Y-87179161D01*
X78442982Y-87105327D01*
X78218698Y-87067900D01*
X78218695Y-87067900D01*
X77991305Y-87067900D01*
X77991302Y-87067900D01*
X77767017Y-87105327D01*
X77551943Y-87179161D01*
X77351960Y-87287387D01*
X77172515Y-87427054D01*
X77018510Y-87594349D01*
X76894139Y-87784714D01*
X76802796Y-87992954D01*
X76756978Y-88173887D01*
X76746976Y-88213386D01*
X76728198Y-88440000D01*
X76746976Y-88666614D01*
X76746976Y-88666617D01*
X76746977Y-88666618D01*
X76802796Y-88887045D01*
X76894139Y-89095285D01*
X77018510Y-89285650D01*
X77172515Y-89452945D01*
X77351960Y-89592612D01*
X77364110Y-89599187D01*
X77414500Y-89649200D01*
X77429852Y-89718517D01*
X77405291Y-89785130D01*
X77364110Y-89820813D01*
X77351960Y-89827387D01*
X77172515Y-89967054D01*
X77018510Y-90134349D01*
X76894139Y-90324714D01*
X76802796Y-90532954D01*
X76746977Y-90753381D01*
X76746976Y-90753386D01*
X76728198Y-90980000D01*
X76746976Y-91206614D01*
X76746976Y-91206617D01*
X76746977Y-91206618D01*
X76802796Y-91427045D01*
X76894139Y-91635285D01*
X77018510Y-91825650D01*
X77172515Y-91992945D01*
X77351960Y-92132612D01*
X77551943Y-92240838D01*
X77551945Y-92240839D01*
X77767015Y-92314672D01*
X77856730Y-92329643D01*
X77991302Y-92352100D01*
X77991305Y-92352100D01*
X78218698Y-92352100D01*
X78442973Y-92314674D01*
X78442972Y-92314674D01*
X78442985Y-92314672D01*
X78443611Y-92314456D01*
X78444526Y-92314415D01*
X78453284Y-92312954D01*
X78453460Y-92314011D01*
X78514531Y-92311249D01*
X78573627Y-92344531D01*
X79686351Y-93457255D01*
X79699435Y-93473585D01*
X79751266Y-93522257D01*
X79754109Y-93525013D01*
X79773830Y-93544734D01*
X79776951Y-93547155D01*
X79776959Y-93547162D01*
X79777025Y-93547213D01*
X79786045Y-93554917D01*
X79818279Y-93585186D01*
X79836035Y-93594947D01*
X79852551Y-93605796D01*
X79868559Y-93618213D01*
X79908753Y-93635606D01*
X79909125Y-93635767D01*
X79919788Y-93640991D01*
X79958538Y-93662294D01*
X79958540Y-93662295D01*
X79978162Y-93667333D01*
X79996867Y-93673737D01*
X80015455Y-93681781D01*
X80059122Y-93688696D01*
X80070729Y-93691100D01*
X80113570Y-93702100D01*
X80133831Y-93702100D01*
X80153539Y-93703650D01*
X80173543Y-93706819D01*
X80173543Y-93706818D01*
X80173544Y-93706819D01*
X80217554Y-93702659D01*
X80229411Y-93702100D01*
X111112943Y-93702100D01*
X111133731Y-93704395D01*
X111136703Y-93704301D01*
X111136705Y-93704302D01*
X111204781Y-93702162D01*
X111208741Y-93702100D01*
X111232690Y-93702100D01*
X111236652Y-93702100D01*
X111240652Y-93701594D01*
X111252495Y-93700661D01*
X111296685Y-93699273D01*
X111316134Y-93693621D01*
X111335494Y-93689612D01*
X111355593Y-93687074D01*
X111396711Y-93670793D01*
X111407913Y-93666957D01*
X111450389Y-93654618D01*
X111467835Y-93644299D01*
X111485576Y-93635609D01*
X111504413Y-93628152D01*
X111540188Y-93602158D01*
X111550099Y-93595648D01*
X111588158Y-93573142D01*
X111602487Y-93558812D01*
X111617515Y-93545977D01*
X111633903Y-93534072D01*
X111662099Y-93499986D01*
X111670068Y-93491230D01*
X114561659Y-90599640D01*
X114577980Y-90586565D01*
X114580014Y-90584397D01*
X114580018Y-90584396D01*
X114626660Y-90534725D01*
X114629352Y-90531947D01*
X114649135Y-90512166D01*
X114651613Y-90508970D01*
X114659308Y-90499959D01*
X114689586Y-90467717D01*
X114699342Y-90449967D01*
X114710195Y-90433446D01*
X114722614Y-90417437D01*
X114740175Y-90376850D01*
X114745388Y-90366209D01*
X114766695Y-90327456D01*
X114771733Y-90307830D01*
X114778137Y-90289128D01*
X114786181Y-90270540D01*
X114787597Y-90261603D01*
X114793096Y-90226877D01*
X114795504Y-90215249D01*
X114806500Y-90172426D01*
X114806500Y-90152170D01*
X114808051Y-90132459D01*
X114811220Y-90112453D01*
X114807059Y-90068432D01*
X114806500Y-90056575D01*
X114806500Y-72521852D01*
X114808795Y-72501061D01*
X114807649Y-72464606D01*
X114806562Y-72430000D01*
X114806500Y-72426042D01*
X114806500Y-72402108D01*
X114806500Y-72398144D01*
X114805995Y-72394152D01*
X114805062Y-72382306D01*
X114804759Y-72372659D01*
X114803674Y-72338111D01*
X114798020Y-72318652D01*
X114794013Y-72299306D01*
X114791474Y-72279203D01*
X114775194Y-72238086D01*
X114771353Y-72226866D01*
X114759017Y-72184405D01*
X114748706Y-72166970D01*
X114740008Y-72149215D01*
X114732552Y-72130383D01*
X114706565Y-72094616D01*
X114700047Y-72084693D01*
X114685683Y-72060404D01*
X114677542Y-72046638D01*
X114663212Y-72032308D01*
X114650378Y-72017281D01*
X114638472Y-72000893D01*
X114638471Y-72000892D01*
X114604400Y-71972705D01*
X114595621Y-71964717D01*
X113994500Y-71363595D01*
X113960475Y-71301283D01*
X113965540Y-71230467D01*
X114008087Y-71173632D01*
X114074607Y-71148821D01*
X114083596Y-71148500D01*
X119047406Y-71148500D01*
X119115527Y-71168502D01*
X119136501Y-71185405D01*
X119598594Y-71647498D01*
X119632620Y-71709810D01*
X119635499Y-71736593D01*
X119635499Y-84546152D01*
X119633204Y-84566941D01*
X119635438Y-84637984D01*
X119635500Y-84641943D01*
X119635500Y-84669856D01*
X119635995Y-84673774D01*
X119635997Y-84673806D01*
X119636008Y-84673888D01*
X119636937Y-84685697D01*
X119638326Y-84729892D01*
X119643977Y-84749341D01*
X119647986Y-84768696D01*
X119650525Y-84788794D01*
X119666801Y-84829903D01*
X119670644Y-84841130D01*
X119682980Y-84883590D01*
X119693294Y-84901030D01*
X119701987Y-84918774D01*
X119709448Y-84937617D01*
X119709449Y-84937619D01*
X119735431Y-84973380D01*
X119741948Y-84983301D01*
X119764458Y-85021363D01*
X119778778Y-85035683D01*
X119791618Y-85050716D01*
X119803526Y-85067105D01*
X119837598Y-85095292D01*
X119846378Y-85103282D01*
X120443132Y-85700036D01*
X120477158Y-85762348D01*
X120476182Y-85820060D01*
X120448436Y-85929629D01*
X120448436Y-85929632D01*
X120429844Y-86154000D01*
X120448436Y-86378368D01*
X120448436Y-86378371D01*
X120448437Y-86378372D01*
X120503702Y-86596611D01*
X120594139Y-86802790D01*
X120717278Y-86991268D01*
X120869762Y-87156908D01*
X121047421Y-87295187D01*
X121047424Y-87295189D01*
X121245426Y-87402342D01*
X121458365Y-87475444D01*
X121680431Y-87512500D01*
X121680434Y-87512500D01*
X121905566Y-87512500D01*
X121905569Y-87512500D01*
X122127635Y-87475444D01*
X122340574Y-87402342D01*
X122538576Y-87295189D01*
X122716240Y-87156906D01*
X122868722Y-86991268D01*
X122957518Y-86855354D01*
X123011521Y-86809268D01*
X123081869Y-86799693D01*
X123146226Y-86829670D01*
X123168480Y-86855353D01*
X123189193Y-86887056D01*
X123257278Y-86991268D01*
X123409762Y-87156908D01*
X123587421Y-87295187D01*
X123587424Y-87295189D01*
X123785426Y-87402342D01*
X123998365Y-87475444D01*
X124220431Y-87512500D01*
X124220434Y-87512500D01*
X124445566Y-87512500D01*
X124445569Y-87512500D01*
X124667635Y-87475444D01*
X124880574Y-87402342D01*
X125078576Y-87295189D01*
X125256240Y-87156906D01*
X125408722Y-86991268D01*
X125497518Y-86855354D01*
X125551521Y-86809268D01*
X125621869Y-86799693D01*
X125686226Y-86829670D01*
X125708480Y-86855353D01*
X125729193Y-86887056D01*
X125797278Y-86991268D01*
X125949762Y-87156908D01*
X126127421Y-87295187D01*
X126127424Y-87295189D01*
X126325426Y-87402342D01*
X126538365Y-87475444D01*
X126760431Y-87512500D01*
X126760434Y-87512500D01*
X126985566Y-87512500D01*
X126985569Y-87512500D01*
X127207635Y-87475444D01*
X127420574Y-87402342D01*
X127618576Y-87295189D01*
X127796240Y-87156906D01*
X127948722Y-86991268D01*
X128037518Y-86855354D01*
X128091521Y-86809268D01*
X128161869Y-86799693D01*
X128226226Y-86829670D01*
X128248480Y-86855353D01*
X128269193Y-86887056D01*
X128337278Y-86991268D01*
X128489762Y-87156908D01*
X128667421Y-87295187D01*
X128667424Y-87295189D01*
X128865426Y-87402342D01*
X129078365Y-87475444D01*
X129300431Y-87512500D01*
X129300434Y-87512500D01*
X129525566Y-87512500D01*
X129525569Y-87512500D01*
X129747635Y-87475444D01*
X129960574Y-87402342D01*
X130158576Y-87295189D01*
X130336240Y-87156906D01*
X130488722Y-86991268D01*
X130611860Y-86802791D01*
X130702296Y-86596616D01*
X130757564Y-86378368D01*
X130776156Y-86154000D01*
X130757564Y-85929632D01*
X130702296Y-85711384D01*
X130611860Y-85505209D01*
X130488722Y-85316732D01*
X130336240Y-85151094D01*
X130336239Y-85151093D01*
X130336237Y-85151091D01*
X130196973Y-85042697D01*
X130158576Y-85012811D01*
X130124792Y-84994528D01*
X130074402Y-84944516D01*
X130059050Y-84875199D01*
X130083611Y-84808586D01*
X130124793Y-84772901D01*
X130158303Y-84754765D01*
X130178688Y-84738899D01*
X130178689Y-84738898D01*
X129540588Y-84100797D01*
X129555315Y-84098680D01*
X129686100Y-84038952D01*
X129794761Y-83944798D01*
X129872493Y-83823844D01*
X129897361Y-83739150D01*
X130536077Y-84377866D01*
X130611418Y-84262551D01*
X130701819Y-84056457D01*
X130757068Y-83838283D01*
X130775653Y-83614000D01*
X130757068Y-83389716D01*
X130701819Y-83171543D01*
X130611417Y-82965446D01*
X130536077Y-82850132D01*
X130536075Y-82850132D01*
X129897360Y-83488847D01*
X129872493Y-83404156D01*
X129794761Y-83283202D01*
X129686100Y-83189048D01*
X129555315Y-83129320D01*
X129540587Y-83127202D01*
X130178689Y-82489100D01*
X130178688Y-82489099D01*
X130158300Y-82473230D01*
X130124792Y-82455097D01*
X130074402Y-82405084D01*
X130059050Y-82335767D01*
X130083611Y-82269154D01*
X130124790Y-82233472D01*
X130158576Y-82215189D01*
X130336240Y-82076906D01*
X130488722Y-81911268D01*
X130611860Y-81722791D01*
X130702296Y-81516616D01*
X130757564Y-81298368D01*
X130776156Y-81074000D01*
X130757564Y-80849632D01*
X130702296Y-80631384D01*
X130611860Y-80425209D01*
X130488722Y-80236732D01*
X130336240Y-80071094D01*
X130336239Y-80071093D01*
X130336237Y-80071091D01*
X130158579Y-79932813D01*
X130158577Y-79932812D01*
X130158576Y-79932811D01*
X130125317Y-79914812D01*
X130074929Y-79864801D01*
X130059576Y-79795484D01*
X130084136Y-79728871D01*
X130125316Y-79693187D01*
X130158576Y-79675189D01*
X130336240Y-79536906D01*
X130488722Y-79371268D01*
X130611860Y-79182791D01*
X130702296Y-78976616D01*
X130757564Y-78758368D01*
X130776156Y-78534000D01*
X130757564Y-78309632D01*
X130702296Y-78091384D01*
X130611860Y-77885209D01*
X130488722Y-77696732D01*
X130336240Y-77531094D01*
X130336239Y-77531093D01*
X130336237Y-77531091D01*
X130158578Y-77392812D01*
X129960573Y-77285657D01*
X129799898Y-77230498D01*
X129747635Y-77212556D01*
X129525569Y-77175500D01*
X129300431Y-77175500D01*
X129078365Y-77212556D01*
X129078361Y-77212557D01*
X129068067Y-77214275D01*
X129067528Y-77211046D01*
X129014118Y-77213440D01*
X128955075Y-77180171D01*
X128342564Y-76567660D01*
X127692244Y-75917339D01*
X127679172Y-75901022D01*
X127672272Y-75894543D01*
X127627362Y-75852371D01*
X127624518Y-75849614D01*
X127607572Y-75832667D01*
X127607570Y-75832666D01*
X127604770Y-75829865D01*
X127601641Y-75827437D01*
X127601637Y-75827434D01*
X127601577Y-75827388D01*
X127592554Y-75819682D01*
X127585032Y-75812619D01*
X127560321Y-75789414D01*
X127560320Y-75789413D01*
X127542567Y-75779653D01*
X127526041Y-75768797D01*
X127510041Y-75756386D01*
X127469466Y-75738828D01*
X127458804Y-75733604D01*
X127420063Y-75712305D01*
X127406313Y-75708775D01*
X127400437Y-75707266D01*
X127381731Y-75700862D01*
X127363145Y-75692819D01*
X127319475Y-75685902D01*
X127307853Y-75683495D01*
X127265030Y-75672500D01*
X127265029Y-75672500D01*
X127244776Y-75672500D01*
X127225066Y-75670949D01*
X127205057Y-75667779D01*
X127161039Y-75671941D01*
X127149181Y-75672500D01*
X125223199Y-75672500D01*
X125155078Y-75652498D01*
X125134104Y-75635595D01*
X123929404Y-74430895D01*
X123895378Y-74368583D01*
X123892499Y-74341800D01*
X123892499Y-71855472D01*
X123892499Y-69284654D01*
X123894795Y-69263878D01*
X123894701Y-69260905D01*
X123894702Y-69260903D01*
X123892560Y-69192823D01*
X123892499Y-69188860D01*
X123892499Y-69182498D01*
X123892500Y-69160956D01*
X123891994Y-69156959D01*
X123891061Y-69145109D01*
X123890416Y-69124577D01*
X123889673Y-69100922D01*
X123884020Y-69081468D01*
X123880012Y-69062110D01*
X123877474Y-69042015D01*
X123861190Y-69000889D01*
X123857359Y-68989700D01*
X123845018Y-68947219D01*
X123834704Y-68929780D01*
X123826008Y-68912028D01*
X123825619Y-68911046D01*
X123818552Y-68893195D01*
X123792571Y-68857436D01*
X123786050Y-68847510D01*
X123763542Y-68809449D01*
X123757187Y-68803094D01*
X123749213Y-68795120D01*
X123736376Y-68780089D01*
X123724473Y-68763705D01*
X123690406Y-68735523D01*
X123681626Y-68727533D01*
X122906688Y-67952595D01*
X122872662Y-67890283D01*
X122877727Y-67819468D01*
X122920274Y-67762632D01*
X122986794Y-67737821D01*
X122995783Y-67737500D01*
X133670406Y-67737500D01*
X133738527Y-67757502D01*
X133759501Y-67774405D01*
X137866595Y-71881499D01*
X137900621Y-71943811D01*
X137903500Y-71970594D01*
X137903500Y-105374147D01*
X137901204Y-105394935D01*
X137903438Y-105465984D01*
X137903500Y-105469943D01*
X137903500Y-106140618D01*
X137883498Y-106208739D01*
X137849771Y-106243831D01*
X137752696Y-106311804D01*
X137590804Y-106473696D01*
X137453154Y-106670281D01*
X137451356Y-106669022D01*
X137413983Y-106711454D01*
X137345702Y-106730904D01*
X137277746Y-106710351D01*
X137242178Y-106669293D01*
X137240411Y-106670531D01*
X137184100Y-106590110D01*
X137184098Y-106590110D01*
X136495727Y-107278482D01*
X136482165Y-107192852D01*
X136424641Y-107079955D01*
X136335045Y-106990359D01*
X136222148Y-106932835D01*
X136136517Y-106919272D01*
X136824888Y-106230899D01*
X136753497Y-106180912D01*
X136546070Y-106084186D01*
X136324999Y-106024951D01*
X136096999Y-106005004D01*
X135869000Y-106024951D01*
X135647929Y-106084186D01*
X135440499Y-106180913D01*
X135369109Y-106230900D01*
X136057481Y-106919272D01*
X135971852Y-106932835D01*
X135858955Y-106990359D01*
X135769359Y-107079955D01*
X135711835Y-107192852D01*
X135698272Y-107278481D01*
X135009900Y-106590109D01*
X134959913Y-106661499D01*
X134863186Y-106868929D01*
X134803951Y-107090000D01*
X134784004Y-107317999D01*
X134803951Y-107545999D01*
X134863186Y-107767070D01*
X134959912Y-107974497D01*
X135009900Y-108045888D01*
X135698272Y-107357515D01*
X135711835Y-107443148D01*
X135769359Y-107556045D01*
X135858955Y-107645641D01*
X135971852Y-107703165D01*
X136057483Y-107716727D01*
X135369110Y-108405098D01*
X135369110Y-108405100D01*
X135440497Y-108455085D01*
X135647929Y-108551813D01*
X135868999Y-108611048D01*
X135931807Y-108616543D01*
X135997925Y-108642406D01*
X136039565Y-108699909D01*
X136043506Y-108770796D01*
X136028259Y-108807898D01*
X135998760Y-108856034D01*
X135907895Y-109075405D01*
X135852464Y-109306288D01*
X135833835Y-109543000D01*
X135852464Y-109779711D01*
X135907895Y-110010594D01*
X135998761Y-110229966D01*
X136122823Y-110432415D01*
X136277030Y-110612969D01*
X136457584Y-110767176D01*
X136660033Y-110891238D01*
X136660035Y-110891238D01*
X136660037Y-110891240D01*
X136879406Y-110982105D01*
X137053220Y-111023834D01*
X137110288Y-111037535D01*
X137127558Y-111038894D01*
X137347000Y-111056165D01*
X137583711Y-111037535D01*
X137814594Y-110982105D01*
X138033963Y-110891240D01*
X138236416Y-110767176D01*
X138416969Y-110612969D01*
X138571176Y-110432416D01*
X138693835Y-110232254D01*
X138746482Y-110184625D01*
X138766111Y-110177095D01*
X138777888Y-110173673D01*
X138777889Y-110173673D01*
X138797335Y-110168022D01*
X138816698Y-110164012D01*
X138836797Y-110161474D01*
X138877915Y-110145193D01*
X138889117Y-110141357D01*
X138931593Y-110129018D01*
X138949039Y-110118699D01*
X138966780Y-110110009D01*
X138985617Y-110102552D01*
X139021392Y-110076558D01*
X139031303Y-110070048D01*
X139069362Y-110047542D01*
X139083691Y-110033212D01*
X139098719Y-110020377D01*
X139115107Y-110008472D01*
X139143303Y-109974386D01*
X139151272Y-109965630D01*
X139388025Y-109728877D01*
X139450335Y-109694853D01*
X139521150Y-109699918D01*
X139577986Y-109742465D01*
X139598016Y-109795581D01*
X139600150Y-109795069D01*
X139657895Y-110035594D01*
X139748761Y-110254966D01*
X139872823Y-110457415D01*
X140027030Y-110637969D01*
X140207584Y-110792176D01*
X140410033Y-110916238D01*
X140410035Y-110916238D01*
X140410037Y-110916240D01*
X140629406Y-111007105D01*
X140792149Y-111046176D01*
X140860288Y-111062535D01*
X140877558Y-111063894D01*
X141097000Y-111081165D01*
X141333711Y-111062535D01*
X141564594Y-111007105D01*
X141783963Y-110916240D01*
X141915667Y-110835531D01*
X141984198Y-110816993D01*
X142051875Y-110838449D01*
X142097208Y-110893088D01*
X142107500Y-110942964D01*
X142107500Y-111543111D01*
X142087498Y-111611232D01*
X142070595Y-111632206D01*
X141820115Y-111882686D01*
X141757803Y-111916712D01*
X141757217Y-111916837D01*
X141576715Y-111955204D01*
X141402246Y-112032883D01*
X141247747Y-112145133D01*
X141119958Y-112287057D01*
X141024472Y-112452443D01*
X140965458Y-112634070D01*
X140957993Y-112705098D01*
X140930979Y-112770754D01*
X140921779Y-112781021D01*
X140667207Y-113035595D01*
X140604895Y-113069620D01*
X140578111Y-113072500D01*
X63383888Y-113072500D01*
X63315767Y-113052498D01*
X63294793Y-113035595D01*
X63040221Y-112781023D01*
X63006195Y-112718711D01*
X63004006Y-112705101D01*
X62996542Y-112634072D01*
X62937527Y-112452444D01*
X62887620Y-112366003D01*
X62842041Y-112287057D01*
X62714252Y-112145133D01*
X62559753Y-112032883D01*
X62559752Y-112032882D01*
X62385288Y-111955206D01*
X62385284Y-111955204D01*
X62204782Y-111916837D01*
X62142308Y-111883109D01*
X62141884Y-111882686D01*
X61638792Y-111379594D01*
X61604766Y-111317282D01*
X61601889Y-111289839D01*
X61604093Y-110868781D01*
X61624451Y-110800768D01*
X61678349Y-110754557D01*
X61748675Y-110744821D01*
X61813101Y-110774652D01*
X61825902Y-110787613D01*
X61915030Y-110891969D01*
X62095584Y-111046176D01*
X62298033Y-111170238D01*
X62298035Y-111170238D01*
X62298037Y-111170240D01*
X62517406Y-111261105D01*
X62692857Y-111303227D01*
X62748288Y-111316535D01*
X62757780Y-111317282D01*
X62985000Y-111335165D01*
X63221711Y-111316535D01*
X63452594Y-111261105D01*
X63671963Y-111170240D01*
X63874416Y-111046176D01*
X64054969Y-110891969D01*
X64145033Y-110786516D01*
X64204479Y-110747711D01*
X64275474Y-110747203D01*
X64323353Y-110773125D01*
X64400460Y-110839938D01*
X64521414Y-110917670D01*
X64654423Y-110978413D01*
X64792378Y-111018920D01*
X64937111Y-111039729D01*
X64937114Y-111039729D01*
X65506743Y-111039729D01*
X65509000Y-111039729D01*
X65582111Y-111034500D01*
X65618434Y-111023833D01*
X65671867Y-111020012D01*
X65808997Y-111039729D01*
X65809000Y-111039729D01*
X66380886Y-111039729D01*
X66380889Y-111039729D01*
X66525622Y-111018920D01*
X66663577Y-110978413D01*
X66796586Y-110917670D01*
X66917540Y-110839938D01*
X66917544Y-110839935D01*
X67028051Y-110744179D01*
X67122205Y-110635518D01*
X67201256Y-110512512D01*
X67260984Y-110381727D01*
X67260984Y-110381726D01*
X67264785Y-110373404D01*
X67266088Y-110364343D01*
X67274619Y-110335289D01*
X67302180Y-110241427D01*
X67303828Y-110229966D01*
X67322642Y-110099115D01*
X67322642Y-110042514D01*
X67322729Y-110042217D01*
X67322729Y-109572000D01*
X68972337Y-109572000D01*
X68990960Y-109808633D01*
X69046372Y-110039440D01*
X69137208Y-110258738D01*
X69251896Y-110445891D01*
X69251897Y-110445891D01*
X69766155Y-109931633D01*
X69855577Y-110073948D01*
X69983052Y-110201423D01*
X70125365Y-110290844D01*
X69611107Y-110805101D01*
X69611107Y-110805102D01*
X69798261Y-110919791D01*
X70017559Y-111010627D01*
X70248366Y-111066039D01*
X70485000Y-111084662D01*
X70721633Y-111066039D01*
X70952440Y-111010627D01*
X71171738Y-110919791D01*
X71358891Y-110805102D01*
X71358892Y-110805101D01*
X71125790Y-110571999D01*
X72273835Y-110571999D01*
X72292464Y-110808711D01*
X72347895Y-111039594D01*
X72438761Y-111258966D01*
X72562823Y-111461415D01*
X72717030Y-111641969D01*
X72897584Y-111796176D01*
X73100033Y-111920238D01*
X73100035Y-111920238D01*
X73100037Y-111920240D01*
X73319406Y-112011105D01*
X73494858Y-112053227D01*
X73550288Y-112066535D01*
X73567558Y-112067894D01*
X73787000Y-112085165D01*
X74023711Y-112066535D01*
X74254594Y-112011105D01*
X74473963Y-111920240D01*
X74676416Y-111796176D01*
X74856969Y-111641969D01*
X74875187Y-111620638D01*
X128412500Y-111620638D01*
X128412860Y-111623986D01*
X128419011Y-111681200D01*
X128470111Y-111818205D01*
X128557738Y-111935261D01*
X128674794Y-112022888D01*
X128674795Y-112022888D01*
X128674796Y-112022889D01*
X128811799Y-112073989D01*
X128872362Y-112080500D01*
X128875731Y-112080500D01*
X130966269Y-112080500D01*
X130969638Y-112080500D01*
X131030201Y-112073989D01*
X131167204Y-112022889D01*
X131284261Y-111935261D01*
X131371889Y-111818204D01*
X131422989Y-111681201D01*
X131429500Y-111620638D01*
X131429500Y-109568000D01*
X132084337Y-109568000D01*
X132102960Y-109804633D01*
X132158372Y-110035440D01*
X132249208Y-110254738D01*
X132363896Y-110441891D01*
X132363898Y-110441891D01*
X132878155Y-109927633D01*
X132967577Y-110069948D01*
X133095052Y-110197423D01*
X133237365Y-110286844D01*
X132723107Y-110801101D01*
X132723107Y-110801102D01*
X132910261Y-110915791D01*
X133129559Y-111006627D01*
X133360366Y-111062039D01*
X133596999Y-111080662D01*
X133833633Y-111062039D01*
X134064440Y-111006627D01*
X134283738Y-110915791D01*
X134470891Y-110801102D01*
X134470892Y-110801101D01*
X133956634Y-110286843D01*
X134098948Y-110197423D01*
X134226423Y-110069948D01*
X134315844Y-109927634D01*
X134830101Y-110441892D01*
X134830102Y-110441891D01*
X134944791Y-110254738D01*
X135035627Y-110035440D01*
X135091039Y-109804633D01*
X135109662Y-109568000D01*
X135091039Y-109331366D01*
X135035627Y-109100559D01*
X134944791Y-108881261D01*
X134830102Y-108694107D01*
X134830101Y-108694107D01*
X134315843Y-109208364D01*
X134226423Y-109066052D01*
X134098948Y-108938577D01*
X133956634Y-108849155D01*
X134470891Y-108334898D01*
X134470891Y-108334896D01*
X134283738Y-108220208D01*
X134064440Y-108129372D01*
X133833633Y-108073960D01*
X133596999Y-108055337D01*
X133360366Y-108073960D01*
X133129559Y-108129372D01*
X132910264Y-108220207D01*
X132723107Y-108334896D01*
X132723107Y-108334897D01*
X133237365Y-108849155D01*
X133095052Y-108938577D01*
X132967577Y-109066052D01*
X132878155Y-109208365D01*
X132363897Y-108694107D01*
X132363896Y-108694107D01*
X132249207Y-108881264D01*
X132158372Y-109100559D01*
X132102960Y-109331366D01*
X132084337Y-109568000D01*
X131429500Y-109568000D01*
X131429500Y-109523362D01*
X131422989Y-109462799D01*
X131371889Y-109325796D01*
X131362665Y-109313474D01*
X131284261Y-109208738D01*
X131167205Y-109121111D01*
X131098702Y-109095561D01*
X131030201Y-109070011D01*
X130969638Y-109063500D01*
X128872362Y-109063500D01*
X128869013Y-109063859D01*
X128869013Y-109063860D01*
X128811799Y-109070011D01*
X128674794Y-109121111D01*
X128557738Y-109208738D01*
X128470111Y-109325794D01*
X128446590Y-109388857D01*
X128419011Y-109462799D01*
X128412500Y-109523362D01*
X128412500Y-111620638D01*
X74875187Y-111620638D01*
X75011176Y-111461416D01*
X75135240Y-111258963D01*
X75226105Y-111039594D01*
X75281535Y-110808711D01*
X75300165Y-110572000D01*
X75281535Y-110335289D01*
X75226105Y-110104406D01*
X75135240Y-109885037D01*
X75088419Y-109808633D01*
X75011176Y-109682584D01*
X74856969Y-109502030D01*
X74676415Y-109347823D01*
X74473966Y-109223761D01*
X74254594Y-109132895D01*
X74023711Y-109077464D01*
X73804269Y-109060194D01*
X73787000Y-109058835D01*
X73786999Y-109058835D01*
X73550288Y-109077464D01*
X73319405Y-109132895D01*
X73100033Y-109223761D01*
X72897584Y-109347823D01*
X72717030Y-109502030D01*
X72562823Y-109682584D01*
X72438761Y-109885033D01*
X72347895Y-110104405D01*
X72292464Y-110335288D01*
X72273835Y-110571999D01*
X71125790Y-110571999D01*
X70844634Y-110290843D01*
X70986948Y-110201423D01*
X71114423Y-110073948D01*
X71203843Y-109931634D01*
X71718101Y-110445892D01*
X71718102Y-110445891D01*
X71832791Y-110258738D01*
X71923627Y-110039440D01*
X71979039Y-109808633D01*
X71997662Y-109571999D01*
X71979039Y-109335366D01*
X71923627Y-109104559D01*
X71832791Y-108885261D01*
X71718102Y-108698107D01*
X71718101Y-108698107D01*
X71203843Y-109212364D01*
X71114423Y-109070052D01*
X70986948Y-108942577D01*
X70844633Y-108853155D01*
X71358891Y-108338897D01*
X71358891Y-108338896D01*
X71171738Y-108224208D01*
X70952440Y-108133372D01*
X70721633Y-108077960D01*
X70484999Y-108059337D01*
X70248366Y-108077960D01*
X70017559Y-108133372D01*
X69798264Y-108224207D01*
X69611107Y-108338896D01*
X69611107Y-108338898D01*
X70125365Y-108853156D01*
X69983052Y-108942577D01*
X69855577Y-109070052D01*
X69766156Y-109212365D01*
X69251898Y-108698107D01*
X69251896Y-108698107D01*
X69137207Y-108885264D01*
X69046372Y-109104559D01*
X68990960Y-109335366D01*
X68972337Y-109572000D01*
X67322729Y-109572000D01*
X67322729Y-109510295D01*
X67322642Y-109509486D01*
X67322642Y-109452884D01*
X67303463Y-109319496D01*
X67303032Y-109313474D01*
X67300922Y-109306288D01*
X67260984Y-109170273D01*
X67201256Y-109039488D01*
X67122205Y-108916482D01*
X67069830Y-108856037D01*
X67030960Y-108811177D01*
X67028716Y-108808396D01*
X66985987Y-108771370D01*
X66947604Y-108711643D01*
X66942500Y-108676146D01*
X66942500Y-108431460D01*
X66962502Y-108363339D01*
X67016158Y-108316846D01*
X67086432Y-108306742D01*
X67140768Y-108328246D01*
X67328251Y-108459523D01*
X67438995Y-108511163D01*
X67535756Y-108556284D01*
X67594436Y-108572007D01*
X67756913Y-108615543D01*
X67985000Y-108635498D01*
X68213087Y-108615543D01*
X68434243Y-108556284D01*
X68641749Y-108459523D01*
X68829300Y-108328198D01*
X68991198Y-108166300D01*
X69122523Y-107978749D01*
X69219284Y-107771243D01*
X69278543Y-107550087D01*
X69298498Y-107322000D01*
X69278543Y-107093913D01*
X69219284Y-106872757D01*
X69122523Y-106665251D01*
X69119722Y-106661251D01*
X68991195Y-106477696D01*
X68829303Y-106315804D01*
X68641750Y-106184477D01*
X68434243Y-106087715D01*
X68213087Y-106028457D01*
X68173013Y-106024951D01*
X67985000Y-106008502D01*
X67984999Y-106008502D01*
X67756912Y-106028457D01*
X67535756Y-106087715D01*
X67328249Y-106184477D01*
X67140696Y-106315804D01*
X66978804Y-106477696D01*
X66841154Y-106674281D01*
X66839203Y-106672915D01*
X66802278Y-106714852D01*
X66734000Y-106734313D01*
X66666041Y-106713771D01*
X66630698Y-106672984D01*
X66628846Y-106674281D01*
X66491195Y-106477696D01*
X66329303Y-106315804D01*
X66141750Y-106184477D01*
X65934243Y-106087715D01*
X65713087Y-106028457D01*
X65485000Y-106008502D01*
X65256912Y-106028457D01*
X65035756Y-106087715D01*
X64828249Y-106184477D01*
X64640696Y-106315804D01*
X64478804Y-106477696D01*
X64347477Y-106665249D01*
X64250715Y-106872756D01*
X64191457Y-107093912D01*
X64171502Y-107322000D01*
X64191457Y-107550087D01*
X64250715Y-107771243D01*
X64347477Y-107978750D01*
X64478804Y-108166303D01*
X64640698Y-108328197D01*
X64677807Y-108354181D01*
X64722136Y-108409638D01*
X64729445Y-108480257D01*
X64697415Y-108543618D01*
X64657880Y-108572007D01*
X64521414Y-108634329D01*
X64402390Y-108710821D01*
X64402377Y-108710829D01*
X64400460Y-108712062D01*
X64400456Y-108712065D01*
X64398800Y-108713499D01*
X64398785Y-108713512D01*
X64283138Y-108813723D01*
X64281842Y-108812228D01*
X64231783Y-108844393D01*
X64160787Y-108844387D01*
X64101064Y-108805998D01*
X64100582Y-108805437D01*
X64062609Y-108760976D01*
X64054968Y-108752029D01*
X63874415Y-108597823D01*
X63671966Y-108473761D01*
X63452594Y-108382895D01*
X63221711Y-108327464D01*
X63002269Y-108310194D01*
X62985000Y-108308835D01*
X62984999Y-108308835D01*
X62748288Y-108327464D01*
X62517405Y-108382895D01*
X62298033Y-108473761D01*
X62095584Y-108597823D01*
X61915033Y-108752028D01*
X61836937Y-108843467D01*
X61777486Y-108882276D01*
X61706491Y-108882782D01*
X61646493Y-108844826D01*
X61616540Y-108780457D01*
X61615128Y-108760976D01*
X61615384Y-108712169D01*
X61723181Y-88122885D01*
X61743539Y-88054873D01*
X61755537Y-88039244D01*
X61826040Y-87960944D01*
X61921527Y-87795556D01*
X61980542Y-87613928D01*
X62000504Y-87424000D01*
X61980542Y-87234072D01*
X61921527Y-87052444D01*
X61921527Y-87052443D01*
X61826041Y-86887057D01*
X61762825Y-86816848D01*
X61732108Y-86752841D01*
X61730464Y-86731878D01*
X61730765Y-86674369D01*
X61820982Y-69442755D01*
X61841340Y-69374743D01*
X61895238Y-69328532D01*
X61965564Y-69318796D01*
X62029990Y-69348627D01*
X62052599Y-69374855D01*
X62052534Y-69374757D01*
X62052613Y-69374870D01*
X62052970Y-69375285D01*
X62055062Y-69378540D01*
X62055065Y-69378544D01*
X62056510Y-69380212D01*
X62056512Y-69380214D01*
X62058469Y-69382473D01*
X62150821Y-69489051D01*
X62259482Y-69583205D01*
X62382488Y-69662256D01*
X62382490Y-69662257D01*
X62521595Y-69725785D01*
X62530656Y-69727088D01*
X62653576Y-69763181D01*
X62795885Y-69783642D01*
X62795888Y-69783642D01*
X62852486Y-69783642D01*
X62852782Y-69783729D01*
X62904764Y-69783729D01*
X63384705Y-69783729D01*
X63385514Y-69783642D01*
X63442115Y-69783642D01*
X63531548Y-69770783D01*
X63549480Y-69769500D01*
X67036970Y-69769500D01*
X67057224Y-69769500D01*
X67076934Y-69771051D01*
X67096942Y-69774220D01*
X67096942Y-69774219D01*
X67096943Y-69774220D01*
X67140961Y-69770058D01*
X67152819Y-69769500D01*
X68369147Y-69769500D01*
X68389935Y-69771795D01*
X68392907Y-69771701D01*
X68392909Y-69771702D01*
X68460985Y-69769562D01*
X68464945Y-69769500D01*
X68488894Y-69769500D01*
X68492856Y-69769500D01*
X68496856Y-69768994D01*
X68508699Y-69768061D01*
X68552889Y-69766673D01*
X68572338Y-69761021D01*
X68591698Y-69757012D01*
X68611797Y-69754474D01*
X68652915Y-69738193D01*
X68664117Y-69734357D01*
X68706593Y-69722018D01*
X68724039Y-69711699D01*
X68741780Y-69703009D01*
X68760617Y-69695552D01*
X68796392Y-69669558D01*
X68806303Y-69663048D01*
X68844362Y-69640542D01*
X68858691Y-69626212D01*
X68873719Y-69613377D01*
X68890107Y-69601472D01*
X68918298Y-69567393D01*
X68926268Y-69558634D01*
X70710500Y-67774404D01*
X70772813Y-67740379D01*
X70799596Y-67737500D01*
X93791241Y-67737500D01*
X93859362Y-67757502D01*
G37*
%TD.AperFunction*%
%TA.AperFunction,Conductor*%
G36*
X92864962Y-60545502D02*
G01*
X92895230Y-60572788D01*
X93317389Y-61100486D01*
X93344325Y-61166175D01*
X93345000Y-61179198D01*
X93345000Y-66344500D01*
X93324998Y-66412621D01*
X93271342Y-66459114D01*
X93219000Y-66470500D01*
X91420724Y-66470500D01*
X91352603Y-66450498D01*
X91306110Y-66396842D01*
X91296006Y-66326568D01*
X91317511Y-66272229D01*
X91368887Y-66198855D01*
X91460067Y-66003322D01*
X91515905Y-65794927D01*
X91534709Y-65579999D01*
X91515905Y-65365072D01*
X91460067Y-65156677D01*
X91368886Y-64961140D01*
X91330249Y-64905961D01*
X91330246Y-64905961D01*
X90717577Y-65518629D01*
X90706238Y-65447031D01*
X90645118Y-65327077D01*
X90549923Y-65231882D01*
X90429969Y-65170762D01*
X90358368Y-65159421D01*
X90971037Y-64546751D01*
X90965062Y-64542567D01*
X90920734Y-64487110D01*
X90913425Y-64416491D01*
X90945456Y-64353130D01*
X91006657Y-64317145D01*
X91040059Y-64315421D01*
X91043000Y-64312873D01*
X91043000Y-63389650D01*
X91071457Y-63435610D01*
X91160962Y-63503201D01*
X91268840Y-63533895D01*
X91380521Y-63523546D01*
X91480922Y-63473552D01*
X91551000Y-63396681D01*
X91551000Y-64308519D01*
X91661037Y-64281825D01*
X91853520Y-64193921D01*
X92025885Y-64071180D01*
X92171911Y-63918032D01*
X92286309Y-63740025D01*
X92364953Y-63543581D01*
X92405000Y-63335801D01*
X92405000Y-63134000D01*
X91597000Y-63134000D01*
X91597000Y-62626000D01*
X92405000Y-62626000D01*
X92405000Y-62480219D01*
X92404715Y-62474247D01*
X92389925Y-62319353D01*
X92330309Y-62116322D01*
X92233350Y-61928247D01*
X92102543Y-61761913D01*
X91942626Y-61623343D01*
X91759373Y-61517542D01*
X91559407Y-61448334D01*
X91551000Y-61447124D01*
X91551000Y-62370349D01*
X91522543Y-62324390D01*
X91433038Y-62256799D01*
X91325160Y-62226105D01*
X91213479Y-62236454D01*
X91113078Y-62286448D01*
X91042999Y-62363318D01*
X91042999Y-61451479D01*
X90932962Y-61478174D01*
X90740479Y-61566078D01*
X90568114Y-61688819D01*
X90422088Y-61841967D01*
X90307690Y-62019974D01*
X90229046Y-62216418D01*
X90189000Y-62424198D01*
X90189000Y-62626000D01*
X90997000Y-62626000D01*
X90997000Y-63134000D01*
X90189000Y-63134000D01*
X90189000Y-63279780D01*
X90189284Y-63285752D01*
X90204074Y-63440646D01*
X90263690Y-63643677D01*
X90360649Y-63831752D01*
X90491456Y-63998086D01*
X90651371Y-64136654D01*
X90668688Y-64146652D01*
X90717682Y-64198034D01*
X90731119Y-64267748D01*
X90704733Y-64333659D01*
X90646901Y-64374842D01*
X90575985Y-64378221D01*
X90573079Y-64377479D01*
X90511929Y-64361094D01*
X90296999Y-64342290D01*
X90082072Y-64361094D01*
X89873678Y-64416932D01*
X89678142Y-64508113D01*
X89622960Y-64546751D01*
X90235630Y-65159421D01*
X90164031Y-65170762D01*
X90044077Y-65231882D01*
X89948882Y-65327077D01*
X89887762Y-65447031D01*
X89876421Y-65518631D01*
X89263751Y-64905960D01*
X89225113Y-64961142D01*
X89133932Y-65156678D01*
X89078094Y-65365072D01*
X89059290Y-65579999D01*
X89078094Y-65794927D01*
X89133932Y-66003322D01*
X89225112Y-66198855D01*
X89276489Y-66272229D01*
X89299177Y-66339503D01*
X89281892Y-66408364D01*
X89230122Y-66456948D01*
X89173276Y-66470500D01*
X86420724Y-66470500D01*
X86352603Y-66450498D01*
X86306110Y-66396842D01*
X86296006Y-66326568D01*
X86317511Y-66272229D01*
X86368887Y-66198855D01*
X86460067Y-66003322D01*
X86515905Y-65794927D01*
X86534709Y-65579999D01*
X86515905Y-65365072D01*
X86460067Y-65156677D01*
X86368886Y-64961140D01*
X86330249Y-64905961D01*
X86330246Y-64905961D01*
X85717577Y-65518629D01*
X85706238Y-65447031D01*
X85645118Y-65327077D01*
X85549923Y-65231882D01*
X85429969Y-65170762D01*
X85358368Y-65159421D01*
X85971038Y-64546751D01*
X85915858Y-64508113D01*
X85720321Y-64416932D01*
X85511927Y-64361094D01*
X85296999Y-64342290D01*
X85082069Y-64361094D01*
X85013820Y-64379381D01*
X84942844Y-64377691D01*
X84884049Y-64337896D01*
X84856102Y-64272631D01*
X84867876Y-64202617D01*
X84908124Y-64155037D01*
X85025885Y-64071180D01*
X85171911Y-63918032D01*
X85286309Y-63740025D01*
X85364953Y-63543581D01*
X85405000Y-63335801D01*
X85405000Y-63134000D01*
X84597000Y-63134000D01*
X84597000Y-62626000D01*
X85405000Y-62626000D01*
X85405000Y-62480219D01*
X85404715Y-62474247D01*
X85389925Y-62319353D01*
X85330309Y-62116322D01*
X85233350Y-61928247D01*
X85102543Y-61761913D01*
X84942626Y-61623343D01*
X84759373Y-61517542D01*
X84559407Y-61448334D01*
X84551000Y-61447124D01*
X84551000Y-62370349D01*
X84522543Y-62324390D01*
X84433038Y-62256799D01*
X84325160Y-62226105D01*
X84213479Y-62236454D01*
X84113078Y-62286448D01*
X84043000Y-62363318D01*
X84043000Y-61451479D01*
X83932962Y-61478174D01*
X83740479Y-61566078D01*
X83568114Y-61688819D01*
X83422088Y-61841967D01*
X83307690Y-62019974D01*
X83229046Y-62216418D01*
X83189000Y-62424198D01*
X83189000Y-62626000D01*
X83997000Y-62626000D01*
X83997000Y-63134000D01*
X83189000Y-63134000D01*
X83189000Y-63279780D01*
X83189284Y-63285752D01*
X83204074Y-63440646D01*
X83263690Y-63643677D01*
X83360649Y-63831752D01*
X83491456Y-63998086D01*
X83651373Y-64136656D01*
X83834626Y-64242457D01*
X84034587Y-64311663D01*
X84043000Y-64312873D01*
X84043000Y-63389650D01*
X84071457Y-63435610D01*
X84160962Y-63503201D01*
X84268840Y-63533895D01*
X84380521Y-63523546D01*
X84480922Y-63473552D01*
X84551000Y-63396681D01*
X84551000Y-64308518D01*
X84558250Y-64314220D01*
X84603458Y-64316373D01*
X84661291Y-64357555D01*
X84687678Y-64423466D01*
X84674243Y-64493179D01*
X84634519Y-64538657D01*
X84622960Y-64546750D01*
X85235630Y-65159421D01*
X85164031Y-65170762D01*
X85044077Y-65231882D01*
X84948882Y-65327077D01*
X84887762Y-65447031D01*
X84876421Y-65518631D01*
X84263751Y-64905960D01*
X84225113Y-64961142D01*
X84133932Y-65156678D01*
X84078094Y-65365072D01*
X84059290Y-65580000D01*
X84078094Y-65794927D01*
X84133932Y-66003322D01*
X84225112Y-66198855D01*
X84276489Y-66272229D01*
X84299177Y-66339503D01*
X84281892Y-66408364D01*
X84230122Y-66456948D01*
X84173276Y-66470500D01*
X75362560Y-66470500D01*
X75294439Y-66450498D01*
X75247946Y-66396842D01*
X75237842Y-66326568D01*
X75244502Y-66300472D01*
X75288989Y-66181201D01*
X75295500Y-66120638D01*
X75295500Y-64023362D01*
X75288989Y-63962799D01*
X75237889Y-63825796D01*
X75237888Y-63825794D01*
X75150261Y-63708738D01*
X75033205Y-63621111D01*
X74933264Y-63583835D01*
X74896201Y-63570011D01*
X74835638Y-63563500D01*
X72738362Y-63563500D01*
X72735013Y-63563859D01*
X72735013Y-63563860D01*
X72677799Y-63570011D01*
X72540794Y-63621111D01*
X72423738Y-63708738D01*
X72336111Y-63825794D01*
X72318570Y-63872824D01*
X72285011Y-63962799D01*
X72278500Y-64023362D01*
X72278500Y-66120638D01*
X72285011Y-66181201D01*
X72329496Y-66300469D01*
X72334561Y-66371283D01*
X72300536Y-66433595D01*
X72238223Y-66467620D01*
X72211440Y-66470500D01*
X71481109Y-66470500D01*
X71412988Y-66450498D01*
X71366495Y-66396842D01*
X71355982Y-66329691D01*
X71358892Y-66305101D01*
X70844634Y-65790843D01*
X70986948Y-65701423D01*
X71114423Y-65573948D01*
X71203843Y-65431634D01*
X71718101Y-65945892D01*
X71718102Y-65945891D01*
X71832791Y-65758738D01*
X71923627Y-65539440D01*
X71979039Y-65308633D01*
X71997662Y-65071999D01*
X71979039Y-64835366D01*
X71923627Y-64604559D01*
X71832791Y-64385261D01*
X71718102Y-64198107D01*
X71718101Y-64198107D01*
X71203843Y-64712364D01*
X71114423Y-64570052D01*
X70986948Y-64442577D01*
X70844633Y-64353155D01*
X71358891Y-63838897D01*
X71358891Y-63838896D01*
X71171738Y-63724208D01*
X70952440Y-63633372D01*
X70721633Y-63577960D01*
X70484999Y-63559337D01*
X70248366Y-63577960D01*
X70017559Y-63633372D01*
X69798264Y-63724207D01*
X69611107Y-63838896D01*
X69611107Y-63838898D01*
X70125365Y-64353156D01*
X69983052Y-64442577D01*
X69855577Y-64570052D01*
X69766156Y-64712365D01*
X69251898Y-64198107D01*
X69251896Y-64198107D01*
X69137207Y-64385264D01*
X69046372Y-64604559D01*
X68990960Y-64835366D01*
X68972337Y-65071999D01*
X68990960Y-65308633D01*
X69046372Y-65539440D01*
X69137208Y-65758738D01*
X69251896Y-65945891D01*
X69251897Y-65945891D01*
X69766155Y-65431633D01*
X69855577Y-65573948D01*
X69983052Y-65701423D01*
X70125365Y-65790844D01*
X69611107Y-66305101D01*
X69611107Y-66305102D01*
X69798261Y-66419791D01*
X69959948Y-66486764D01*
X70015229Y-66531312D01*
X70037650Y-66598676D01*
X70020092Y-66667467D01*
X70000825Y-66692269D01*
X69494942Y-67198151D01*
X69432630Y-67232176D01*
X69361814Y-67227111D01*
X69304979Y-67184564D01*
X69280326Y-67120035D01*
X69278048Y-67094000D01*
X69218813Y-66872929D01*
X69122085Y-66665497D01*
X69072100Y-66594110D01*
X69072097Y-66594110D01*
X68383726Y-67282480D01*
X68370165Y-67196852D01*
X68312641Y-67083955D01*
X68223045Y-66994359D01*
X68110148Y-66936835D01*
X68024515Y-66923272D01*
X68712888Y-66234900D01*
X68641497Y-66184912D01*
X68434070Y-66088186D01*
X68212994Y-66028949D01*
X68150191Y-66023455D01*
X68084073Y-65997592D01*
X68042433Y-65940088D01*
X68038493Y-65869201D01*
X68053740Y-65832101D01*
X68083240Y-65783963D01*
X68174105Y-65564594D01*
X68229535Y-65333711D01*
X68248165Y-65097000D01*
X68229535Y-64860289D01*
X68174105Y-64629406D01*
X68083240Y-64410037D01*
X68068057Y-64385261D01*
X67959176Y-64207584D01*
X67804969Y-64027030D01*
X67624415Y-63872823D01*
X67421966Y-63748761D01*
X67202594Y-63657895D01*
X66971711Y-63602464D01*
X66735000Y-63583835D01*
X66498288Y-63602464D01*
X66267405Y-63657895D01*
X66048033Y-63748761D01*
X65845584Y-63872823D01*
X65665030Y-64027030D01*
X65510823Y-64207584D01*
X65386760Y-64410035D01*
X65383747Y-64417309D01*
X65339196Y-64472588D01*
X65313723Y-64486238D01*
X65292089Y-64494803D01*
X65280865Y-64498646D01*
X65238408Y-64510981D01*
X65220964Y-64521297D01*
X65203217Y-64529990D01*
X65184384Y-64537446D01*
X65148611Y-64563437D01*
X65138693Y-64569951D01*
X65100639Y-64592457D01*
X65086312Y-64606783D01*
X65071283Y-64619618D01*
X65054894Y-64631525D01*
X65026701Y-64665604D01*
X65018713Y-64674381D01*
X64700396Y-64992698D01*
X64638084Y-65026724D01*
X64567269Y-65021659D01*
X64510433Y-64979112D01*
X64485689Y-64913489D01*
X64479535Y-64835289D01*
X64424105Y-64604406D01*
X64333240Y-64385037D01*
X64329063Y-64378221D01*
X64209176Y-64182584D01*
X64054969Y-64002030D01*
X63874415Y-63847823D01*
X63671966Y-63723761D01*
X63452594Y-63632895D01*
X63221711Y-63577464D01*
X62993449Y-63559500D01*
X62985000Y-63558835D01*
X62984999Y-63558835D01*
X62748288Y-63577464D01*
X62517405Y-63632895D01*
X62298033Y-63723761D01*
X62095584Y-63847823D01*
X62058441Y-63879546D01*
X61993651Y-63908577D01*
X61923451Y-63897970D01*
X61870129Y-63851095D01*
X61850614Y-63783076D01*
X61852290Y-63463056D01*
X77268500Y-63463056D01*
X77309210Y-63628225D01*
X77388266Y-63778852D01*
X77501071Y-63906183D01*
X77641070Y-64002818D01*
X77800128Y-64063140D01*
X77926628Y-64078500D01*
X77930437Y-64078500D01*
X78007563Y-64078500D01*
X78011372Y-64078500D01*
X78137872Y-64063140D01*
X78296930Y-64002818D01*
X78436929Y-63906183D01*
X78549734Y-63778852D01*
X78628790Y-63628225D01*
X78669500Y-63463056D01*
X80268500Y-63463056D01*
X80309210Y-63628225D01*
X80388266Y-63778852D01*
X80501071Y-63906183D01*
X80641070Y-64002818D01*
X80800128Y-64063140D01*
X80926628Y-64078500D01*
X80930437Y-64078500D01*
X81007563Y-64078500D01*
X81011372Y-64078500D01*
X81137872Y-64063140D01*
X81296930Y-64002818D01*
X81436929Y-63906183D01*
X81549734Y-63778852D01*
X81628790Y-63628225D01*
X81669500Y-63463056D01*
X81669500Y-63292944D01*
X81628790Y-63127775D01*
X81549734Y-62977148D01*
X81436929Y-62849817D01*
X81296930Y-62753182D01*
X81296929Y-62753181D01*
X81137871Y-62692859D01*
X81015155Y-62677959D01*
X81015149Y-62677958D01*
X81011372Y-62677500D01*
X80926628Y-62677500D01*
X80922851Y-62677958D01*
X80922844Y-62677959D01*
X80800128Y-62692859D01*
X80641070Y-62753181D01*
X80535445Y-62826090D01*
X80501071Y-62849817D01*
X80388266Y-62977148D01*
X80309210Y-63127775D01*
X80268500Y-63292944D01*
X80268500Y-63463056D01*
X78669500Y-63463056D01*
X78669500Y-63292944D01*
X78628790Y-63127775D01*
X78549734Y-62977148D01*
X78436929Y-62849817D01*
X78296930Y-62753182D01*
X78296929Y-62753181D01*
X78137871Y-62692859D01*
X78015155Y-62677959D01*
X78015149Y-62677958D01*
X78011372Y-62677500D01*
X77926628Y-62677500D01*
X77922851Y-62677958D01*
X77922844Y-62677959D01*
X77800128Y-62692859D01*
X77641070Y-62753181D01*
X77535445Y-62826090D01*
X77501071Y-62849817D01*
X77388266Y-62977148D01*
X77309210Y-63127775D01*
X77268500Y-63292944D01*
X77268500Y-63463056D01*
X61852290Y-63463056D01*
X61853114Y-63305610D01*
X61873472Y-63237598D01*
X61890012Y-63217183D01*
X62141884Y-62965311D01*
X62204194Y-62931287D01*
X62204226Y-62931280D01*
X62385288Y-62892794D01*
X62559752Y-62815118D01*
X62714253Y-62702866D01*
X62842040Y-62560944D01*
X62937527Y-62395556D01*
X62996542Y-62213928D01*
X63004007Y-62142899D01*
X63031020Y-62077243D01*
X63040212Y-62066983D01*
X63294792Y-61812404D01*
X63357105Y-61778379D01*
X63383888Y-61775500D01*
X75034801Y-61775500D01*
X75102922Y-61795502D01*
X75108137Y-61799067D01*
X75108242Y-61799113D01*
X75108248Y-61799118D01*
X75282712Y-61876794D01*
X75469513Y-61916500D01*
X75469515Y-61916500D01*
X75660485Y-61916500D01*
X75660487Y-61916500D01*
X75847288Y-61876794D01*
X76021752Y-61799118D01*
X76054237Y-61775515D01*
X76101522Y-61754329D01*
X76109668Y-61752558D01*
X76213827Y-61717890D01*
X76336782Y-61638871D01*
X76389586Y-61593116D01*
X76485297Y-61482661D01*
X76546014Y-61349713D01*
X76565699Y-61282674D01*
X76565700Y-61282670D01*
X76586500Y-61138000D01*
X76586500Y-60651500D01*
X76606502Y-60583379D01*
X76660158Y-60536886D01*
X76712500Y-60525500D01*
X92796841Y-60525500D01*
X92864962Y-60545502D01*
G37*
%TD.AperFunction*%
%TA.AperFunction,Conductor*%
G36*
X119535233Y-60545502D02*
G01*
X119581726Y-60599158D01*
X119591830Y-60669432D01*
X119562336Y-60734012D01*
X119556207Y-60740595D01*
X119181423Y-61115378D01*
X119181404Y-61115397D01*
X119180220Y-61116582D01*
X119179093Y-61117835D01*
X119179086Y-61117844D01*
X119144606Y-61156229D01*
X119144592Y-61156244D01*
X119143483Y-61157480D01*
X119142442Y-61158770D01*
X119142435Y-61158780D01*
X119127902Y-61176814D01*
X119127883Y-61176837D01*
X119126849Y-61178122D01*
X119125874Y-61179473D01*
X119125855Y-61179499D01*
X119094704Y-61222699D01*
X119033985Y-61355649D01*
X119014804Y-61420972D01*
X119014802Y-61420981D01*
X119014301Y-61422688D01*
X119014300Y-61422692D01*
X119013844Y-61425857D01*
X119013843Y-61425867D01*
X118993499Y-61567364D01*
X118993500Y-62256799D01*
X118993500Y-62916000D01*
X118993858Y-62919330D01*
X118993859Y-62919348D01*
X119000074Y-62977148D01*
X119005236Y-63025157D01*
X119005954Y-63028457D01*
X119015724Y-63073370D01*
X119015726Y-63073379D01*
X119016442Y-63076668D01*
X119017504Y-63079858D01*
X119017506Y-63079866D01*
X119051109Y-63180826D01*
X119123164Y-63292944D01*
X119130129Y-63303782D01*
X119175884Y-63356586D01*
X119286339Y-63452297D01*
X119419287Y-63513014D01*
X119486326Y-63532699D01*
X119486330Y-63532700D01*
X119631000Y-63553500D01*
X119631002Y-63553500D01*
X120903633Y-63553500D01*
X120907000Y-63553500D01*
X121016157Y-63541764D01*
X121067668Y-63530558D01*
X121171827Y-63495890D01*
X121294782Y-63416871D01*
X121347586Y-63371116D01*
X121443297Y-63260661D01*
X121504014Y-63127713D01*
X121523699Y-63060674D01*
X121523700Y-63060670D01*
X121544500Y-62916000D01*
X121544500Y-62288886D01*
X121564502Y-62220766D01*
X121581405Y-62199792D01*
X121968792Y-61812405D01*
X122031104Y-61778379D01*
X122057887Y-61775500D01*
X140324112Y-61775500D01*
X140392233Y-61795502D01*
X140413207Y-61812405D01*
X141051147Y-62450345D01*
X141071171Y-62476439D01*
X141119962Y-62560947D01*
X141245052Y-62699873D01*
X141247747Y-62702866D01*
X141402248Y-62815118D01*
X141405559Y-62816592D01*
X141443405Y-62842603D01*
X141825306Y-63224504D01*
X141859332Y-63286816D01*
X141854267Y-63357631D01*
X141811720Y-63414467D01*
X141745200Y-63439278D01*
X141687993Y-63430008D01*
X141564594Y-63378895D01*
X141333711Y-63323464D01*
X141097000Y-63304835D01*
X140860288Y-63323464D01*
X140629405Y-63378895D01*
X140410033Y-63469761D01*
X140207584Y-63593823D01*
X140027031Y-63748029D01*
X140016536Y-63760318D01*
X139957085Y-63799125D01*
X139886090Y-63799631D01*
X139838214Y-63773709D01*
X139815538Y-63754060D01*
X139694589Y-63676332D01*
X139694586Y-63676330D01*
X139561577Y-63615587D01*
X139423622Y-63575080D01*
X139278889Y-63554271D01*
X138707000Y-63554271D01*
X138704750Y-63554431D01*
X138704747Y-63554432D01*
X138633886Y-63559499D01*
X138597560Y-63570166D01*
X138544131Y-63573987D01*
X138407003Y-63554271D01*
X138407000Y-63554271D01*
X137835111Y-63554271D01*
X137690378Y-63575080D01*
X137690375Y-63575080D01*
X137690374Y-63575081D01*
X137552425Y-63615586D01*
X137419410Y-63676331D01*
X137300390Y-63752821D01*
X137300377Y-63752829D01*
X137298460Y-63754062D01*
X137298456Y-63754065D01*
X137296800Y-63755499D01*
X137296785Y-63755512D01*
X137187949Y-63849820D01*
X137093795Y-63958482D01*
X137014742Y-64081490D01*
X136951214Y-64220595D01*
X136949912Y-64229656D01*
X136913818Y-64352576D01*
X136893358Y-64494884D01*
X136893358Y-64551486D01*
X136893271Y-64551782D01*
X136893271Y-65083704D01*
X136893358Y-65084514D01*
X136893358Y-65141115D01*
X136912537Y-65274503D01*
X136912967Y-65280525D01*
X136954304Y-65421303D01*
X136955016Y-65423727D01*
X137014744Y-65554512D01*
X137093795Y-65677518D01*
X137180877Y-65778017D01*
X137185042Y-65782824D01*
X137187283Y-65785602D01*
X137187949Y-65786179D01*
X137187952Y-65786183D01*
X137230013Y-65822628D01*
X137268396Y-65882353D01*
X137273500Y-65917852D01*
X137273500Y-66339811D01*
X137253498Y-66407932D01*
X137199842Y-66454425D01*
X137129568Y-66464529D01*
X137064988Y-66435035D01*
X137058405Y-66428906D01*
X136941303Y-66311804D01*
X136753750Y-66180477D01*
X136546243Y-66083715D01*
X136325087Y-66024457D01*
X136097000Y-66004502D01*
X135868912Y-66024457D01*
X135647756Y-66083715D01*
X135440249Y-66180477D01*
X135252696Y-66311804D01*
X135090804Y-66473696D01*
X134959477Y-66661249D01*
X134869738Y-66853698D01*
X134822821Y-66906983D01*
X134754544Y-66926444D01*
X134686584Y-66905902D01*
X134666448Y-66889543D01*
X134492244Y-66715339D01*
X134479171Y-66699021D01*
X134427348Y-66650356D01*
X134424506Y-66647601D01*
X134407574Y-66630669D01*
X134404770Y-66627865D01*
X134401575Y-66625386D01*
X134392554Y-66617682D01*
X134348718Y-66576518D01*
X134349553Y-66575627D01*
X134312362Y-66538223D01*
X134297468Y-66468806D01*
X134322469Y-66402357D01*
X134357286Y-66370721D01*
X134470891Y-66301102D01*
X134470892Y-66301101D01*
X133956634Y-65786843D01*
X134098948Y-65697423D01*
X134226423Y-65569948D01*
X134315844Y-65427634D01*
X134830102Y-65941892D01*
X134830102Y-65941891D01*
X134944791Y-65754738D01*
X135035627Y-65535440D01*
X135091039Y-65304633D01*
X135109662Y-65067999D01*
X135091039Y-64831366D01*
X135035627Y-64600559D01*
X134944791Y-64381261D01*
X134830102Y-64194107D01*
X134830100Y-64194107D01*
X134315843Y-64708364D01*
X134226423Y-64566052D01*
X134098948Y-64438577D01*
X133956633Y-64349154D01*
X134470891Y-63834897D01*
X134470891Y-63834896D01*
X134283738Y-63720208D01*
X134064440Y-63629372D01*
X133833633Y-63573960D01*
X133597000Y-63555337D01*
X133360366Y-63573960D01*
X133129559Y-63629372D01*
X132910264Y-63720207D01*
X132723107Y-63834896D01*
X132723107Y-63834898D01*
X133237365Y-64349156D01*
X133095052Y-64438577D01*
X132967577Y-64566052D01*
X132878156Y-64708365D01*
X132363898Y-64194107D01*
X132363896Y-64194107D01*
X132249207Y-64381264D01*
X132158372Y-64600559D01*
X132102960Y-64831366D01*
X132084337Y-65067999D01*
X132102960Y-65304633D01*
X132158372Y-65535440D01*
X132249208Y-65754738D01*
X132363896Y-65941891D01*
X132878154Y-65427632D01*
X132967577Y-65569948D01*
X133095052Y-65697423D01*
X133237365Y-65786844D01*
X132723107Y-66301101D01*
X132726491Y-66329690D01*
X132714634Y-66399690D01*
X132666815Y-66452167D01*
X132601364Y-66470500D01*
X130917109Y-66470500D01*
X130848988Y-66450498D01*
X130802495Y-66396842D01*
X130791982Y-66329691D01*
X130794892Y-66305101D01*
X130057420Y-65567629D01*
X130066161Y-65566373D01*
X130199562Y-65505451D01*
X130310395Y-65409413D01*
X130389682Y-65286040D01*
X130413416Y-65205207D01*
X131154101Y-65945892D01*
X131154102Y-65945891D01*
X131268791Y-65758738D01*
X131359627Y-65539440D01*
X131415039Y-65308633D01*
X131433662Y-65071999D01*
X131415039Y-64835366D01*
X131359627Y-64604559D01*
X131268791Y-64385261D01*
X131154102Y-64198107D01*
X131154101Y-64198107D01*
X130413416Y-64938791D01*
X130389682Y-64857960D01*
X130310395Y-64734587D01*
X130199562Y-64638549D01*
X130066161Y-64577627D01*
X130057419Y-64576370D01*
X130794891Y-63838897D01*
X130794891Y-63838896D01*
X130607738Y-63724208D01*
X130388440Y-63633372D01*
X130157633Y-63577960D01*
X129921000Y-63559337D01*
X129684366Y-63577960D01*
X129453559Y-63633372D01*
X129234264Y-63724207D01*
X129047107Y-63838896D01*
X129047107Y-63838898D01*
X129784579Y-64576370D01*
X129775839Y-64577627D01*
X129642438Y-64638549D01*
X129531605Y-64734587D01*
X129452318Y-64857960D01*
X129428583Y-64938792D01*
X128687898Y-64198107D01*
X128687896Y-64198107D01*
X128573207Y-64385264D01*
X128482372Y-64604559D01*
X128426960Y-64835366D01*
X128408337Y-65071999D01*
X128426960Y-65308633D01*
X128482372Y-65539440D01*
X128573208Y-65758738D01*
X128687896Y-65945891D01*
X128687897Y-65945891D01*
X129428582Y-65205206D01*
X129452318Y-65286040D01*
X129531605Y-65409413D01*
X129642438Y-65505451D01*
X129775839Y-65566373D01*
X129784579Y-65567629D01*
X129047107Y-66305101D01*
X129050018Y-66329689D01*
X129038161Y-66399689D01*
X128990343Y-66452167D01*
X128924891Y-66470500D01*
X122361595Y-66470500D01*
X122293474Y-66450498D01*
X122272500Y-66433595D01*
X121770244Y-65931339D01*
X121757171Y-65915021D01*
X121705348Y-65866356D01*
X121702506Y-65863601D01*
X121685574Y-65846669D01*
X121682770Y-65843865D01*
X121679575Y-65841386D01*
X121670554Y-65833682D01*
X121638320Y-65803413D01*
X121620567Y-65793653D01*
X121604041Y-65782797D01*
X121588041Y-65770386D01*
X121565075Y-65760448D01*
X121547465Y-65752827D01*
X121536804Y-65747604D01*
X121498063Y-65726305D01*
X121484313Y-65722775D01*
X121478437Y-65721266D01*
X121459731Y-65714862D01*
X121441145Y-65706819D01*
X121397475Y-65699902D01*
X121385853Y-65697495D01*
X121385573Y-65697423D01*
X121343030Y-65686500D01*
X121343029Y-65686500D01*
X121322776Y-65686500D01*
X121303066Y-65684949D01*
X121283057Y-65681779D01*
X121239039Y-65685941D01*
X121227181Y-65686500D01*
X112267000Y-65686500D01*
X112198879Y-65666498D01*
X112152386Y-65612842D01*
X112141000Y-65560500D01*
X112141000Y-60651500D01*
X112161002Y-60583379D01*
X112214658Y-60536886D01*
X112267000Y-60525500D01*
X119467112Y-60525500D01*
X119535233Y-60545502D01*
G37*
%TD.AperFunction*%
%TA.AperFunction,Conductor*%
G36*
X139973065Y-65842899D02*
G01*
X140016538Y-65875684D01*
X140027030Y-65887969D01*
X140207584Y-66042176D01*
X140410033Y-66166238D01*
X140410035Y-66166238D01*
X140410037Y-66166240D01*
X140629406Y-66257105D01*
X140792132Y-66296172D01*
X140860288Y-66312535D01*
X140877558Y-66313894D01*
X141097000Y-66331165D01*
X141333711Y-66312535D01*
X141564594Y-66257105D01*
X141783963Y-66166240D01*
X141915667Y-66085531D01*
X141984198Y-66066993D01*
X142051875Y-66088449D01*
X142097208Y-66143088D01*
X142107500Y-66192964D01*
X142107500Y-86609911D01*
X142087498Y-86678032D01*
X142055562Y-86711846D01*
X142009748Y-86745131D01*
X141881958Y-86887057D01*
X141786472Y-87052443D01*
X141727458Y-87234070D01*
X141707496Y-87424000D01*
X141727458Y-87613929D01*
X141786472Y-87795556D01*
X141881958Y-87960942D01*
X141881960Y-87960944D01*
X142009747Y-88102866D01*
X142055561Y-88136151D01*
X142098914Y-88192372D01*
X142107500Y-88238087D01*
X142107500Y-105363101D01*
X142087498Y-105431222D01*
X142033842Y-105477715D01*
X141963568Y-105487819D01*
X141898988Y-105458325D01*
X141886276Y-105445614D01*
X141811179Y-105358949D01*
X141807825Y-105356043D01*
X141702518Y-105264795D01*
X141579512Y-105185744D01*
X141579509Y-105185742D01*
X141440404Y-105122214D01*
X141431344Y-105120912D01*
X141308423Y-105084818D01*
X141166115Y-105064358D01*
X141166112Y-105064358D01*
X141109514Y-105064358D01*
X141109218Y-105064271D01*
X141057236Y-105064271D01*
X140628764Y-105064271D01*
X140577295Y-105064271D01*
X140576486Y-105064358D01*
X140519885Y-105064358D01*
X140386496Y-105083537D01*
X140380474Y-105083967D01*
X140237274Y-105126015D01*
X140106487Y-105185744D01*
X139983482Y-105264795D01*
X139878174Y-105356043D01*
X139875398Y-105358281D01*
X139874815Y-105358952D01*
X139874817Y-105358952D01*
X139838371Y-105401013D01*
X139778647Y-105439396D01*
X139743148Y-105444500D01*
X139471595Y-105444500D01*
X139403474Y-105424498D01*
X139382500Y-105407595D01*
X139207405Y-105232500D01*
X139173379Y-105170188D01*
X139170500Y-105143405D01*
X139170500Y-71739853D01*
X139172795Y-71719063D01*
X139172504Y-71709810D01*
X139170562Y-71648013D01*
X139170500Y-71644054D01*
X139170500Y-71620107D01*
X139170500Y-71620106D01*
X139170500Y-71616144D01*
X139169994Y-71612147D01*
X139169061Y-71600297D01*
X139168973Y-71597497D01*
X139167673Y-71556110D01*
X139162020Y-71536656D01*
X139158012Y-71517298D01*
X139155474Y-71497203D01*
X139139195Y-71456090D01*
X139135353Y-71444869D01*
X139123018Y-71402407D01*
X139123017Y-71402406D01*
X139123017Y-71402404D01*
X139112707Y-71384971D01*
X139104008Y-71367215D01*
X139102575Y-71363595D01*
X139096552Y-71348383D01*
X139070565Y-71312616D01*
X139064047Y-71302693D01*
X139052572Y-71283289D01*
X139041542Y-71264638D01*
X139027212Y-71250308D01*
X139014378Y-71235281D01*
X139002472Y-71218893D01*
X139002471Y-71218892D01*
X138968394Y-71190700D01*
X138959616Y-71182712D01*
X136525456Y-68748552D01*
X136491430Y-68686240D01*
X136496495Y-68615425D01*
X136539042Y-68558589D01*
X136561298Y-68545263D01*
X136753749Y-68455523D01*
X136941300Y-68324198D01*
X137103198Y-68162300D01*
X137234523Y-67974749D01*
X137234522Y-67974749D01*
X137240846Y-67965719D01*
X137242797Y-67967085D01*
X137279716Y-67925151D01*
X137347992Y-67905686D01*
X137415953Y-67926224D01*
X137451300Y-67967016D01*
X137453154Y-67965719D01*
X137590804Y-68162303D01*
X137752696Y-68324195D01*
X137752699Y-68324197D01*
X137752700Y-68324198D01*
X137772427Y-68338011D01*
X137940249Y-68455522D01*
X138147756Y-68552284D01*
X138207015Y-68568162D01*
X138368913Y-68611543D01*
X138597000Y-68631498D01*
X138825087Y-68611543D01*
X139046243Y-68552284D01*
X139253749Y-68455523D01*
X139441300Y-68324198D01*
X139603198Y-68162300D01*
X139734523Y-67974749D01*
X139831284Y-67767243D01*
X139890543Y-67546087D01*
X139910498Y-67318000D01*
X139890543Y-67089913D01*
X139831284Y-66868757D01*
X139827881Y-66861460D01*
X139737603Y-66667856D01*
X139734523Y-66661251D01*
X139731401Y-66656793D01*
X139615185Y-66490819D01*
X139603198Y-66473700D01*
X139603197Y-66473699D01*
X139603195Y-66473696D01*
X139441303Y-66311804D01*
X139398273Y-66281674D01*
X139353945Y-66226217D01*
X139346636Y-66155597D01*
X139378667Y-66092237D01*
X139435044Y-66057566D01*
X139561577Y-66020413D01*
X139694586Y-65959670D01*
X139815540Y-65881938D01*
X139815544Y-65881935D01*
X139838215Y-65862290D01*
X139902791Y-65832797D01*
X139973065Y-65842899D01*
G37*
%TD.AperFunction*%
%TA.AperFunction,Conductor*%
G36*
X93404063Y-70043502D02*
G01*
X93450556Y-70097158D01*
X93453995Y-70105461D01*
X93458113Y-70116502D01*
X93484111Y-70186205D01*
X93571738Y-70303261D01*
X93688794Y-70390889D01*
X93720878Y-70402855D01*
X93777714Y-70445401D01*
X93802526Y-70511921D01*
X93787435Y-70581295D01*
X93756783Y-70618308D01*
X93732907Y-70637903D01*
X93600630Y-70799083D01*
X93502342Y-70982965D01*
X93473327Y-71078617D01*
X93444505Y-71173632D01*
X93441814Y-71182502D01*
X93421377Y-71390000D01*
X93441814Y-71597497D01*
X93441814Y-71597499D01*
X93441815Y-71597502D01*
X93502341Y-71797031D01*
X93502342Y-71797034D01*
X93600630Y-71980916D01*
X93732905Y-72142094D01*
X93784464Y-72184407D01*
X93894083Y-72274369D01*
X93902517Y-72278877D01*
X93902519Y-72278878D01*
X93953167Y-72328631D01*
X93968876Y-72397868D01*
X93944660Y-72464606D01*
X93902519Y-72501122D01*
X93894081Y-72505632D01*
X93732905Y-72637905D01*
X93600630Y-72799083D01*
X93502341Y-72982969D01*
X93501703Y-72985073D01*
X93499064Y-72989099D01*
X93496491Y-72993914D01*
X93496060Y-72993683D01*
X93462790Y-73044455D01*
X93397949Y-73073372D01*
X93381128Y-73074500D01*
X84538853Y-73074500D01*
X84518064Y-73072204D01*
X84447014Y-73074438D01*
X84443055Y-73074500D01*
X84415144Y-73074500D01*
X84411218Y-73074995D01*
X84411200Y-73074997D01*
X84411108Y-73075009D01*
X84399303Y-73075937D01*
X84355110Y-73077326D01*
X84335657Y-73082978D01*
X84316303Y-73086986D01*
X84296204Y-73089525D01*
X84255096Y-73105801D01*
X84243870Y-73109644D01*
X84201408Y-73121981D01*
X84183964Y-73132297D01*
X84166215Y-73140991D01*
X84147384Y-73148446D01*
X84111625Y-73174427D01*
X84101706Y-73180943D01*
X84063636Y-73203457D01*
X84049309Y-73217785D01*
X84034279Y-73230622D01*
X84017894Y-73242526D01*
X83989711Y-73276593D01*
X83981723Y-73285370D01*
X82796336Y-74470757D01*
X82780016Y-74483833D01*
X82731370Y-74535635D01*
X82728621Y-74538472D01*
X82711667Y-74555427D01*
X82711660Y-74555434D01*
X82708865Y-74558230D01*
X82706442Y-74561352D01*
X82706426Y-74561371D01*
X82706365Y-74561451D01*
X82698689Y-74570436D01*
X82668414Y-74602677D01*
X82658652Y-74620434D01*
X82647801Y-74636952D01*
X82635385Y-74652959D01*
X82617824Y-74693539D01*
X82612604Y-74704195D01*
X82591304Y-74742940D01*
X82586267Y-74762559D01*
X82579864Y-74781261D01*
X82571818Y-74799855D01*
X82564901Y-74843524D01*
X82562495Y-74855144D01*
X82551500Y-74897969D01*
X82551500Y-74918223D01*
X82549949Y-74937933D01*
X82546779Y-74957942D01*
X82550941Y-75001961D01*
X82551500Y-75013819D01*
X82551500Y-87147616D01*
X82531498Y-87215737D01*
X82485471Y-87258429D01*
X82431959Y-87287389D01*
X82252515Y-87427054D01*
X82098510Y-87594349D01*
X82020483Y-87713779D01*
X81966479Y-87759868D01*
X81896131Y-87769443D01*
X81831774Y-87739466D01*
X81809517Y-87713779D01*
X81731489Y-87594349D01*
X81577484Y-87427054D01*
X81398040Y-87287389D01*
X81398039Y-87287388D01*
X81372701Y-87273675D01*
X81344529Y-87258429D01*
X81294139Y-87208415D01*
X81278500Y-87147616D01*
X81278500Y-70974594D01*
X81298502Y-70906473D01*
X81315405Y-70885499D01*
X82140499Y-70060405D01*
X82202811Y-70026379D01*
X82229594Y-70023500D01*
X93335942Y-70023500D01*
X93404063Y-70043502D01*
G37*
%TD.AperFunction*%
%TA.AperFunction,Conductor*%
G36*
X93810051Y-74361502D02*
G01*
X93856544Y-74415158D01*
X93866648Y-74485432D01*
X93837154Y-74550012D01*
X93821864Y-74564899D01*
X93732905Y-74637905D01*
X93600630Y-74799083D01*
X93502342Y-74982965D01*
X93441814Y-75182502D01*
X93421377Y-75390000D01*
X93441814Y-75597497D01*
X93441814Y-75597499D01*
X93441815Y-75597502D01*
X93502341Y-75797031D01*
X93502342Y-75797034D01*
X93600630Y-75980916D01*
X93732905Y-76142094D01*
X93788117Y-76187405D01*
X93894083Y-76274369D01*
X93902517Y-76278877D01*
X93902519Y-76278878D01*
X93953167Y-76328631D01*
X93968876Y-76397868D01*
X93944660Y-76464606D01*
X93902519Y-76501122D01*
X93894081Y-76505632D01*
X93732905Y-76637905D01*
X93600630Y-76799083D01*
X93502342Y-76982965D01*
X93441814Y-77182502D01*
X93421377Y-77389999D01*
X93441814Y-77597497D01*
X93441814Y-77597499D01*
X93441815Y-77597502D01*
X93471916Y-77696731D01*
X93502342Y-77797034D01*
X93600630Y-77980916D01*
X93732905Y-78142094D01*
X93818499Y-78212339D01*
X93894083Y-78274369D01*
X93902517Y-78278877D01*
X93902519Y-78278878D01*
X93953167Y-78328631D01*
X93968876Y-78397868D01*
X93944660Y-78464606D01*
X93902519Y-78501122D01*
X93894081Y-78505632D01*
X93732905Y-78637905D01*
X93600630Y-78799083D01*
X93502342Y-78982965D01*
X93441814Y-79182502D01*
X93421377Y-79390000D01*
X93441814Y-79597497D01*
X93441814Y-79597499D01*
X93441815Y-79597502D01*
X93481665Y-79728871D01*
X93502342Y-79797034D01*
X93600630Y-79980916D01*
X93732905Y-80142094D01*
X93818499Y-80212339D01*
X93894083Y-80274369D01*
X93902517Y-80278877D01*
X93902519Y-80278878D01*
X93953167Y-80328631D01*
X93968876Y-80397868D01*
X93944660Y-80464606D01*
X93902519Y-80501122D01*
X93894081Y-80505632D01*
X93732905Y-80637905D01*
X93600630Y-80799083D01*
X93502342Y-80982965D01*
X93502340Y-80982969D01*
X93502341Y-80982969D01*
X93441816Y-81182497D01*
X93441814Y-81182502D01*
X93421377Y-81389999D01*
X93441814Y-81597497D01*
X93441814Y-81597499D01*
X93441815Y-81597502D01*
X93487974Y-81749670D01*
X93502342Y-81797034D01*
X93606481Y-81991862D01*
X93605392Y-81992443D01*
X93628107Y-82045930D01*
X93616124Y-82115908D01*
X93592049Y-82149609D01*
X92702336Y-83039321D01*
X92686015Y-83052397D01*
X92637370Y-83104198D01*
X92634621Y-83107035D01*
X92617667Y-83123990D01*
X92617660Y-83123997D01*
X92614865Y-83126793D01*
X92612442Y-83129915D01*
X92612426Y-83129934D01*
X92612365Y-83130014D01*
X92604689Y-83138999D01*
X92574414Y-83171240D01*
X92564652Y-83188997D01*
X92553801Y-83205515D01*
X92541385Y-83221522D01*
X92523824Y-83262102D01*
X92518604Y-83272758D01*
X92497304Y-83311503D01*
X92492267Y-83331122D01*
X92485864Y-83349824D01*
X92477818Y-83368418D01*
X92470901Y-83412087D01*
X92468495Y-83423707D01*
X92457500Y-83466532D01*
X92457500Y-83486786D01*
X92455949Y-83506496D01*
X92452779Y-83526505D01*
X92456941Y-83570524D01*
X92457500Y-83582382D01*
X92457500Y-87109404D01*
X92437498Y-87177525D01*
X92420595Y-87198499D01*
X91849498Y-87769596D01*
X91787188Y-87803620D01*
X91760405Y-87806500D01*
X87223100Y-87806500D01*
X87154979Y-87786498D01*
X87108486Y-87732842D01*
X87097100Y-87680500D01*
X87097100Y-87531130D01*
X87097100Y-87527762D01*
X87090589Y-87467199D01*
X87039489Y-87330196D01*
X87039487Y-87330193D01*
X86951861Y-87213138D01*
X86834805Y-87125511D01*
X86766302Y-87099961D01*
X86697801Y-87074411D01*
X86637238Y-87067900D01*
X84812762Y-87067900D01*
X84809413Y-87068259D01*
X84809413Y-87068260D01*
X84752199Y-87074411D01*
X84615194Y-87125511D01*
X84498138Y-87213138D01*
X84410511Y-87330193D01*
X84376124Y-87422388D01*
X84374385Y-87427054D01*
X84372043Y-87433332D01*
X84329496Y-87490167D01*
X84262975Y-87514978D01*
X84193601Y-87499886D01*
X84161286Y-87474636D01*
X84117484Y-87427054D01*
X83938040Y-87287389D01*
X83938039Y-87287388D01*
X83912701Y-87273675D01*
X83884529Y-87258429D01*
X83834139Y-87208415D01*
X83818500Y-87147616D01*
X83818500Y-75292594D01*
X83838502Y-75224473D01*
X83855405Y-75203499D01*
X84680499Y-74378405D01*
X84742811Y-74344379D01*
X84769594Y-74341500D01*
X93741930Y-74341500D01*
X93810051Y-74361502D01*
G37*
%TD.AperFunction*%
%TA.AperFunction,Conductor*%
G36*
X108960586Y-82080878D02*
G01*
X109013954Y-82119001D01*
X109032906Y-82142095D01*
X109194082Y-82274369D01*
X109259462Y-82309315D01*
X109310110Y-82359067D01*
X109325820Y-82428304D01*
X109301604Y-82495043D01*
X109279999Y-82517837D01*
X109133260Y-82638260D01*
X109001048Y-82799364D01*
X108902806Y-82983160D01*
X108856444Y-83136000D01*
X109674941Y-83136000D01*
X109672871Y-83137195D01*
X109599199Y-83224993D01*
X109560000Y-83332694D01*
X109560000Y-83447306D01*
X109599199Y-83555007D01*
X109672871Y-83642805D01*
X109674941Y-83644000D01*
X108856444Y-83644000D01*
X108846122Y-83657917D01*
X108789477Y-83700717D01*
X108718684Y-83706098D01*
X108656221Y-83672351D01*
X108647519Y-83662793D01*
X108627094Y-83637905D01*
X108465916Y-83505630D01*
X108282034Y-83407342D01*
X108271531Y-83404156D01*
X108082502Y-83346815D01*
X108082499Y-83346814D01*
X108082497Y-83346814D01*
X107899719Y-83328812D01*
X107833887Y-83302230D01*
X107792877Y-83244275D01*
X107789710Y-83173349D01*
X107822972Y-83114326D01*
X108827461Y-82109837D01*
X108889771Y-82075813D01*
X108960586Y-82080878D01*
G37*
%TD.AperFunction*%
%TA.AperFunction,Conductor*%
G36*
X110781121Y-83156002D02*
G01*
X110827614Y-83209658D01*
X110839000Y-83262000D01*
X110839000Y-84448000D01*
X111333881Y-84448000D01*
X111340053Y-84447696D01*
X111492399Y-84432691D01*
X111691840Y-84372192D01*
X111875635Y-84273951D01*
X112036739Y-84141739D01*
X112168951Y-83980635D01*
X112267193Y-83796838D01*
X112276924Y-83764760D01*
X112315838Y-83705378D01*
X112380680Y-83676462D01*
X112450861Y-83687191D01*
X112504100Y-83734161D01*
X112523499Y-83801334D01*
X112523499Y-89395404D01*
X112503497Y-89463525D01*
X112486594Y-89484499D01*
X110472900Y-91498195D01*
X110410588Y-91532220D01*
X110383805Y-91535100D01*
X87161209Y-91535100D01*
X87093088Y-91515098D01*
X87046595Y-91461442D01*
X87036491Y-91391168D01*
X87039065Y-91378168D01*
X87075574Y-91234000D01*
X86165625Y-91234000D01*
X86191845Y-91193201D01*
X86233000Y-91053039D01*
X86233000Y-90906961D01*
X86191845Y-90766799D01*
X86165625Y-90726000D01*
X87075574Y-90726000D01*
X87075574Y-90725999D01*
X87026729Y-90533118D01*
X86985320Y-90438713D01*
X86976274Y-90368295D01*
X87006735Y-90304165D01*
X87067032Y-90266684D01*
X87100708Y-90262100D01*
X87246547Y-90262100D01*
X87267335Y-90264395D01*
X87270307Y-90264301D01*
X87270309Y-90264302D01*
X87338385Y-90262162D01*
X87342345Y-90262100D01*
X87366294Y-90262100D01*
X87370256Y-90262100D01*
X87374256Y-90261594D01*
X87386099Y-90260661D01*
X87430289Y-90259273D01*
X87449738Y-90253621D01*
X87469098Y-90249612D01*
X87489197Y-90247074D01*
X87530328Y-90230788D01*
X87541530Y-90226953D01*
X87562004Y-90221006D01*
X87567182Y-90219502D01*
X87602330Y-90214500D01*
X95058559Y-90214500D01*
X95076820Y-90215830D01*
X95100789Y-90219341D01*
X95147560Y-90215249D01*
X95150647Y-90214979D01*
X95161628Y-90214500D01*
X95163513Y-90214500D01*
X95167180Y-90214500D01*
X95198301Y-90210861D01*
X95201896Y-90210494D01*
X95277426Y-90203887D01*
X95277430Y-90203885D01*
X95278751Y-90203770D01*
X95297856Y-90199535D01*
X95299106Y-90199079D01*
X95299113Y-90199079D01*
X95370400Y-90173132D01*
X95373769Y-90171961D01*
X95445738Y-90148114D01*
X95445739Y-90148112D01*
X95447007Y-90147693D01*
X95464613Y-90139169D01*
X95465725Y-90138437D01*
X95465732Y-90138435D01*
X95529138Y-90096730D01*
X95532161Y-90094806D01*
X95596651Y-90055030D01*
X95596652Y-90055028D01*
X95597788Y-90054328D01*
X95612959Y-90041970D01*
X95613871Y-90041002D01*
X95613874Y-90041001D01*
X95665929Y-89985824D01*
X95668448Y-89983231D01*
X96375777Y-89275902D01*
X96389624Y-89263936D01*
X96409058Y-89249469D01*
X96441221Y-89211138D01*
X96448660Y-89203020D01*
X96452581Y-89199100D01*
X96472012Y-89174523D01*
X96474286Y-89171731D01*
X96523032Y-89113640D01*
X96523033Y-89113636D01*
X96523890Y-89112616D01*
X96534402Y-89096117D01*
X96538155Y-89088068D01*
X96567036Y-89026131D01*
X96568544Y-89023015D01*
X96602609Y-88955188D01*
X96602610Y-88955179D01*
X96603212Y-88953983D01*
X96609634Y-88935509D01*
X96625238Y-88859935D01*
X96626022Y-88856397D01*
X96643500Y-88782656D01*
X96643500Y-88782651D01*
X96643807Y-88781356D01*
X96645797Y-88761885D01*
X96645758Y-88760560D01*
X96645759Y-88760558D01*
X96643552Y-88684740D01*
X96643499Y-88681075D01*
X96643499Y-86542094D01*
X96643499Y-86226131D01*
X96663501Y-86158012D01*
X96717157Y-86111519D01*
X96787431Y-86101415D01*
X96852011Y-86130909D01*
X96890073Y-86189556D01*
X96892340Y-86197030D01*
X96990630Y-86380916D01*
X97122905Y-86542094D01*
X97283770Y-86674112D01*
X97284083Y-86674369D01*
X97467969Y-86772659D01*
X97667498Y-86833185D01*
X97875000Y-86853622D01*
X98082502Y-86833185D01*
X98282031Y-86772659D01*
X98465917Y-86674369D01*
X98627094Y-86542094D01*
X98759369Y-86380917D01*
X98763877Y-86372482D01*
X98813628Y-86321834D01*
X98882865Y-86306123D01*
X98949604Y-86330338D01*
X98986123Y-86372483D01*
X98990631Y-86380917D01*
X99122905Y-86542094D01*
X99283770Y-86674112D01*
X99284083Y-86674369D01*
X99467969Y-86772659D01*
X99667498Y-86833185D01*
X99833499Y-86849534D01*
X99874999Y-86853622D01*
X99874999Y-86853621D01*
X99875000Y-86853622D01*
X100082502Y-86833185D01*
X100282031Y-86772659D01*
X100465917Y-86674369D01*
X100627094Y-86542094D01*
X100759369Y-86380917D01*
X100763877Y-86372482D01*
X100813628Y-86321834D01*
X100882865Y-86306123D01*
X100949604Y-86330338D01*
X100986123Y-86372483D01*
X100990631Y-86380917D01*
X101122905Y-86542094D01*
X101283770Y-86674112D01*
X101284083Y-86674369D01*
X101467969Y-86772659D01*
X101667498Y-86833185D01*
X101875000Y-86853622D01*
X102082502Y-86833185D01*
X102282031Y-86772659D01*
X102465917Y-86674369D01*
X102627094Y-86542094D01*
X102759369Y-86380917D01*
X102763876Y-86372484D01*
X102813623Y-86321836D01*
X102882859Y-86306122D01*
X102949599Y-86330335D01*
X102986120Y-86372478D01*
X102990631Y-86380917D01*
X103122905Y-86542094D01*
X103283770Y-86674112D01*
X103284083Y-86674369D01*
X103467969Y-86772659D01*
X103667498Y-86833185D01*
X103833499Y-86849534D01*
X103874999Y-86853622D01*
X103874999Y-86853621D01*
X103875000Y-86853622D01*
X104082502Y-86833185D01*
X104282031Y-86772659D01*
X104465917Y-86674369D01*
X104627094Y-86542094D01*
X104759369Y-86380917D01*
X104763876Y-86372484D01*
X104813623Y-86321836D01*
X104882859Y-86306122D01*
X104949599Y-86330335D01*
X104986120Y-86372478D01*
X104990631Y-86380917D01*
X105122905Y-86542094D01*
X105283770Y-86674112D01*
X105284083Y-86674369D01*
X105467969Y-86772659D01*
X105667498Y-86833185D01*
X105875000Y-86853622D01*
X106082502Y-86833185D01*
X106282031Y-86772659D01*
X106465917Y-86674369D01*
X106627094Y-86542094D01*
X106759369Y-86380917D01*
X106763876Y-86372484D01*
X106813623Y-86321836D01*
X106882859Y-86306122D01*
X106949599Y-86330335D01*
X106986120Y-86372478D01*
X106990631Y-86380917D01*
X107122905Y-86542094D01*
X107283770Y-86674112D01*
X107284083Y-86674369D01*
X107467969Y-86772659D01*
X107667498Y-86833185D01*
X107833499Y-86849534D01*
X107874999Y-86853622D01*
X107874999Y-86853621D01*
X107875000Y-86853622D01*
X108082502Y-86833185D01*
X108282031Y-86772659D01*
X108465917Y-86674369D01*
X108627094Y-86542094D01*
X108759369Y-86380917D01*
X108857659Y-86197031D01*
X108918185Y-85997502D01*
X108933500Y-85842005D01*
X108933500Y-84337995D01*
X108924720Y-84248850D01*
X108937948Y-84179098D01*
X108986789Y-84127570D01*
X109055734Y-84110626D01*
X109122894Y-84133647D01*
X109130046Y-84139101D01*
X109294364Y-84273951D01*
X109478159Y-84372192D01*
X109677600Y-84432691D01*
X109829946Y-84447696D01*
X109836119Y-84448000D01*
X110331000Y-84448000D01*
X110331000Y-83644000D01*
X110095059Y-83644000D01*
X110097129Y-83642805D01*
X110170801Y-83555007D01*
X110210000Y-83447306D01*
X110210000Y-83332694D01*
X110170801Y-83224993D01*
X110097129Y-83137195D01*
X110095059Y-83136000D01*
X110713000Y-83136000D01*
X110781121Y-83156002D01*
G37*
%TD.AperFunction*%
%TA.AperFunction,Conductor*%
G36*
X123873507Y-83404156D02*
G01*
X123833000Y-83542111D01*
X123833000Y-83685889D01*
X123873507Y-83823844D01*
X123901884Y-83868000D01*
X122224116Y-83868000D01*
X122252493Y-83823844D01*
X122293000Y-83685889D01*
X122293000Y-83542111D01*
X122252493Y-83404156D01*
X122224116Y-83360000D01*
X123901884Y-83360000D01*
X123873507Y-83404156D01*
G37*
%TD.AperFunction*%
%TA.AperFunction,Conductor*%
G36*
X126413507Y-83404156D02*
G01*
X126373000Y-83542111D01*
X126373000Y-83685889D01*
X126413507Y-83823844D01*
X126441884Y-83868000D01*
X124764116Y-83868000D01*
X124792493Y-83823844D01*
X124833000Y-83685889D01*
X124833000Y-83542111D01*
X124792493Y-83404156D01*
X124764116Y-83360000D01*
X126441884Y-83360000D01*
X126413507Y-83404156D01*
G37*
%TD.AperFunction*%
%TA.AperFunction,Conductor*%
G36*
X128953507Y-83823844D02*
G01*
X129031239Y-83944798D01*
X129139900Y-84038952D01*
X129270685Y-84098680D01*
X129285412Y-84100797D01*
X128647310Y-84738899D01*
X128667697Y-84754767D01*
X128701206Y-84772901D01*
X128751597Y-84822914D01*
X128766949Y-84892231D01*
X128742388Y-84958844D01*
X128701207Y-84994528D01*
X128667423Y-85012811D01*
X128489762Y-85151091D01*
X128337278Y-85316731D01*
X128248483Y-85452643D01*
X128194479Y-85498731D01*
X128124131Y-85508306D01*
X128059774Y-85478328D01*
X128037517Y-85452643D01*
X127948721Y-85316731D01*
X127796237Y-85151091D01*
X127656973Y-85042697D01*
X127618576Y-85012811D01*
X127584792Y-84994528D01*
X127534402Y-84944516D01*
X127519050Y-84875199D01*
X127543611Y-84808586D01*
X127584793Y-84772901D01*
X127618300Y-84754768D01*
X127795903Y-84616533D01*
X127948323Y-84450960D01*
X128037517Y-84314440D01*
X128091521Y-84268351D01*
X128161868Y-84258776D01*
X128226226Y-84288753D01*
X128248483Y-84314439D01*
X128289922Y-84377866D01*
X128289923Y-84377866D01*
X128928638Y-83739150D01*
X128953507Y-83823844D01*
G37*
%TD.AperFunction*%
%TA.AperFunction,Conductor*%
G36*
X128226226Y-81749670D02*
G01*
X128248480Y-81775353D01*
X128337277Y-81911268D01*
X128337278Y-81911268D01*
X128489762Y-82076908D01*
X128667422Y-82215188D01*
X128667424Y-82215189D01*
X128701205Y-82233470D01*
X128751596Y-82283482D01*
X128766949Y-82352799D01*
X128742389Y-82419413D01*
X128701208Y-82455097D01*
X128667700Y-82473230D01*
X128647310Y-82489099D01*
X128647310Y-82489101D01*
X129285411Y-83127202D01*
X129270685Y-83129320D01*
X129139900Y-83189048D01*
X129031239Y-83283202D01*
X128953507Y-83404156D01*
X128928639Y-83488848D01*
X128289921Y-82850132D01*
X128248482Y-82913560D01*
X128194478Y-82959648D01*
X128124130Y-82969223D01*
X128059773Y-82939245D01*
X128037516Y-82913559D01*
X127948323Y-82777039D01*
X127795903Y-82611466D01*
X127618299Y-82473231D01*
X127584791Y-82455097D01*
X127534401Y-82405083D01*
X127519050Y-82335766D01*
X127543612Y-82269153D01*
X127584790Y-82233472D01*
X127618576Y-82215189D01*
X127796240Y-82076906D01*
X127948722Y-81911268D01*
X128037518Y-81775354D01*
X128091521Y-81729268D01*
X128161869Y-81719693D01*
X128226226Y-81749670D01*
G37*
%TD.AperFunction*%
%TA.AperFunction,Conductor*%
G36*
X120022527Y-68773502D02*
G01*
X120043501Y-68790405D01*
X121122595Y-69869499D01*
X121156621Y-69931811D01*
X121159500Y-69958594D01*
X121159500Y-77257078D01*
X121139498Y-77325199D01*
X121093472Y-77367890D01*
X121088472Y-77370596D01*
X121019042Y-77385428D01*
X120952615Y-77360369D01*
X120910281Y-77303375D01*
X120902500Y-77259784D01*
X120902500Y-71505853D01*
X120904795Y-71485062D01*
X120902562Y-71414000D01*
X120902500Y-71410042D01*
X120902500Y-71386108D01*
X120902500Y-71382144D01*
X120901995Y-71378152D01*
X120901062Y-71366306D01*
X120900499Y-71348382D01*
X120899674Y-71322111D01*
X120894020Y-71302652D01*
X120890013Y-71283306D01*
X120887474Y-71263203D01*
X120871194Y-71222086D01*
X120867353Y-71210866D01*
X120855018Y-71168407D01*
X120844706Y-71150970D01*
X120836008Y-71133215D01*
X120828552Y-71114383D01*
X120802565Y-71078616D01*
X120796047Y-71068693D01*
X120773542Y-71030638D01*
X120759212Y-71016308D01*
X120746378Y-71001281D01*
X120734472Y-70984893D01*
X120734471Y-70984892D01*
X120700394Y-70956700D01*
X120691616Y-70948712D01*
X119869248Y-70126344D01*
X119856171Y-70110021D01*
X119842473Y-70097158D01*
X119804347Y-70061355D01*
X119801505Y-70058600D01*
X119784574Y-70041669D01*
X119781770Y-70038865D01*
X119778575Y-70036386D01*
X119769554Y-70028682D01*
X119767101Y-70026379D01*
X119737321Y-69998414D01*
X119737320Y-69998413D01*
X119719567Y-69988653D01*
X119703041Y-69977797D01*
X119687041Y-69965386D01*
X119646466Y-69947828D01*
X119635804Y-69942604D01*
X119597063Y-69921305D01*
X119583313Y-69917775D01*
X119577437Y-69916266D01*
X119558731Y-69909862D01*
X119540145Y-69901819D01*
X119496475Y-69894902D01*
X119484853Y-69892495D01*
X119442030Y-69881500D01*
X119442029Y-69881500D01*
X119421776Y-69881500D01*
X119402066Y-69879949D01*
X119382057Y-69876779D01*
X119338039Y-69880941D01*
X119326181Y-69881500D01*
X112411927Y-69881500D01*
X112343806Y-69861498D01*
X112297313Y-69807842D01*
X112287209Y-69737568D01*
X112291352Y-69718925D01*
X112298442Y-69695551D01*
X112328185Y-69597502D01*
X112348622Y-69390000D01*
X112328185Y-69182498D01*
X112267659Y-68982969D01*
X112254630Y-68958593D01*
X112244102Y-68938896D01*
X112229630Y-68869390D01*
X112255034Y-68803094D01*
X112312247Y-68761056D01*
X112355224Y-68753500D01*
X119954406Y-68753500D01*
X120022527Y-68773502D01*
G37*
%TD.AperFunction*%
M02*
